<?xml version="1.0" encoding="UTF-8"?>
<svg xmlns="http://www.w3.org/2000/svg" id="Layer_1" viewBox="0 0 1070.28 200">
    <defs>
        <style>
            .cls-1 {
            fill: #595959;
            }

            .cls-2 {
            fill: #bf894a;
            }
        </style>
    </defs>
    <g id="Layer_1-2" data-name="Layer_1">
        <g>
            <path class="cls-2" d="M100,200c55.14,0,100-44.86,100-100S155.14,0,100,0,0,44.86,0,100s44.86,100,100,100ZM61.22,71.09c0,3.25.19,6.54.55,9.79-23.26,11.48-40.05,32.35-46.21,57.41-5.57-12.2-8.38-25.08-8.38-38.29C7.18,53.2,42,13.8,88.33,7.96c-17.24,16.43-27.1,39.39-27.1,63.13h-.01ZM62.96,88.28c3.89,19.37,14.39,37.01,29.62,49.75-13.08,8.6-28.23,13.14-43.86,13.14-9.26,0-18.5-1.67-27.45-4.95,4.01-24.64,19.57-46.25,41.69-57.93h0ZM135.97,71.09c0-23.92-9.98-46.99-27.42-63.45,22.77,2.09,43.88,12.5,59.53,29.37,15.96,17.2,24.75,39.57,24.75,62.99,0,12.99-2.72,25.67-8.09,37.68-6.53-25.74-24.85-47.47-49.18-58.3.28-2.95.42-5.66.42-8.29h0ZM134.53,86.85c23.36,11.15,39.95,32.88,44.44,58.26-9.71,4.02-19.97,6.06-30.49,6.06-15.63,0-30.78-4.54-43.86-13.14,15.65-13.09,26.26-31.24,29.91-51.17h0ZM100.21,79.01c9.29,0,18.55,1.67,27.52,4.98-3.19,19.55-13.52,37.16-29.13,49.63-15.29-12.22-25.57-29.44-28.96-48.52,9.73-4.04,20.02-6.08,30.57-6.08h0ZM48.72,158.34c17.89,0,35.13-5.45,49.88-15.77,14.75,10.32,31.99,15.77,49.88,15.77,8.97,0,18.04-1.49,26.97-4.44-17.47,24.39-45.6,38.91-75.45,38.91s-57.07-14.11-74.59-37.79c7.8,2.2,15.63,3.31,23.31,3.31h0ZM128.57,76.67c-9.28-3.21-18.82-4.84-28.37-4.84-10.73,0-21.32,2.01-31.49,5.96-.22-2.5-.32-4.64-.32-6.71,0-24.41,11-47.19,30.2-62.53,19.19,15.34,30.2,38.11,30.2,62.53,0,1.69-.07,3.48-.22,5.58h0Z"></path>
            <g>
                <path d="M272.62,39.62c-3.22-1.83-6.83-2.74-10.84-2.74s-7.67.92-10.88,2.74c-3.21,1.83-5.75,4.48-7.61,7.96s-2.8,7.69-2.8,12.65.93,9.15,2.8,12.63,4.4,6.14,7.61,7.97c3.21,1.84,6.84,2.75,10.88,2.75s7.63-.91,10.84-2.74c3.22-1.83,5.76-4.48,7.64-7.96s2.81-7.7,2.81-12.65-.94-9.17-2.81-12.65-4.42-6.13-7.64-7.96ZM271.88,68.36c-.96,2.21-2.3,3.88-4.03,5.02s-3.76,1.71-6.08,1.71-4.35-.57-6.08-1.71c-1.73-1.14-3.08-2.81-4.03-5.02-.96-2.2-1.43-4.91-1.43-8.12s.48-5.92,1.43-8.12c.95-2.21,2.3-3.88,4.03-5.02s3.76-1.71,6.08-1.71,4.35.57,6.08,1.71,3.07,2.81,4.03,5.02,1.43,4.91,1.43,8.12-.48,5.92-1.43,8.12Z"></path>
                <rect x="292.45" y="37.5" width="9.61" height="45.46"></rect>
                <polygon points="350.98 37.5 339.46 37.5 323.1 57.55 322.5 57.55 322.5 37.5 312.89 37.5 312.89 82.97 322.5 82.97 322.5 70.05 327.23 64.28 339.68 82.97 351.18 82.97 334.11 57.86 350.98 37.5"></polygon>
                <polygon points="367.96 64.19 387.41 64.19 387.41 56.26 367.96 56.26 367.96 45.43 388.98 45.43 388.98 37.5 358.35 37.5 358.35 82.97 389.07 82.97 389.07 75.04 367.96 75.04 367.96 64.19"></polygon>
                <path d="M426.43,66.21c0,1.73-.38,3.27-1.14,4.62-.76,1.35-1.84,2.41-3.22,3.17-1.38.77-3.01,1.15-4.87,1.15s-3.47-.38-4.86-1.15c-1.39-.77-2.47-1.83-3.23-3.17-.76-1.35-1.14-2.88-1.14-4.62v-28.7h-9.61v29.52c0,3.31.78,6.21,2.35,8.7,1.57,2.49,3.77,4.42,6.59,5.8,2.83,1.38,6.13,2.08,9.9,2.08s7.05-.69,9.88-2.08,5.03-3.32,6.6-5.8c1.58-2.49,2.36-5.39,2.36-8.7v-29.52h-9.61v28.7h0Z"></path>
                <path d="M476.61,61.12c-1.21-1.08-2.65-1.99-4.31-2.73s-3.48-1.33-5.46-1.78l-4.08-.98c-.99-.22-1.92-.49-2.8-.81-.87-.32-1.64-.69-2.31-1.13-.67-.43-1.19-.96-1.57-1.56-.38-.61-.55-1.32-.52-2.13,0-.98.28-1.85.85-2.62.57-.77,1.4-1.37,2.47-1.81,1.08-.44,2.4-.66,3.97-.66,2.31,0,4.14.5,5.48,1.49s2.11,2.38,2.29,4.17h9.21c-.04-2.71-.77-5.09-2.18-7.15-1.41-2.06-3.37-3.66-5.89-4.82s-5.47-1.73-8.85-1.73-6.28.58-8.88,1.73-4.65,2.76-6.14,4.82c-1.49,2.06-2.22,4.46-2.21,7.21-.01,3.36,1.09,6.03,3.31,8.01s5.25,3.44,9.08,4.37l4.95,1.24c1.66.4,3.06.84,4.21,1.33s2.02,1.08,2.62,1.78.9,1.55.9,2.58c0,1.09-.33,2.06-1,2.91-.67.84-1.6,1.5-2.81,1.98s-2.62.71-4.25.71-3.14-.25-4.45-.77-2.35-1.27-3.13-2.29c-.78-1.01-1.22-2.28-1.32-3.81h-9.3c.07,3.27.87,6.01,2.39,8.23s3.63,3.88,6.35,5.01,5.91,1.69,9.58,1.69,6.86-.56,9.49-1.68,4.64-2.69,6.04-4.73c1.4-2.03,2.11-4.44,2.12-7.22-.01-1.89-.36-3.58-1.03-5.04-.67-1.47-1.62-2.74-2.83-3.82h.01Z"></path>
                <path d="M516.34,39.47c-2.43-1.31-5.37-1.96-8.81-1.96h-17.94v45.46h9.61v-14.74h8.08c3.49,0,6.47-.64,8.94-1.93,2.46-1.29,4.35-3.09,5.65-5.39s1.95-4.97,1.95-7.99-.64-5.68-1.92-8c-1.28-2.31-3.13-4.13-5.56-5.44h0ZM513.02,56.87c-.6,1.15-1.5,2.04-2.71,2.69-1.21.64-2.73.97-4.58.97h-6.53v-15.16h6.48c1.87,0,3.4.32,4.62.94s2.12,1.51,2.72,2.64.9,2.45.9,3.96-.3,2.82-.9,3.96h0Z"></path>
                <path d="M541.67,37.5l-15.7,45.46h10.3l3.37-10.37h16.41l3.37,10.37h10.3l-15.67-45.46h-12.39.01ZM542.09,65.1l5.6-17.2h.35l5.59,17.2h-11.54Z"></path>
                <polygon points="586.83 37.5 577.22 37.5 577.22 82.97 606.32 82.97 606.32 75.04 586.83 75.04 586.83 37.5"></polygon>
                <polygon points="628.68 72.04 628.26 72.04 617.27 37.5 606.6 37.5 622.29 82.97 634.68 82.97 650.35 37.5 639.69 37.5 628.68 72.04"></polygon>
                <polygon points="667.45 64.19 686.89 64.19 686.89 56.26 667.45 56.26 667.45 45.43 688.47 45.43 688.47 37.5 657.84 37.5 657.84 82.97 688.56 82.97 688.56 75.04 667.45 75.04 667.45 64.19"></polygon>
                <polygon points="708.13 37.5 698.52 37.5 698.52 82.97 727.63 82.97 727.63 75.04 708.13 75.04 708.13 37.5"></polygon>
                <path d="M762.88,66.21c0,1.73-.38,3.27-1.14,4.62-.76,1.35-1.84,2.41-3.22,3.17-1.38.77-3.01,1.15-4.87,1.15s-3.47-.38-4.86-1.15c-1.39-.77-2.47-1.83-3.23-3.17-.76-1.35-1.14-2.88-1.14-4.62v-28.7h-9.61v29.52c0,3.31.78,6.21,2.35,8.7,1.57,2.49,3.77,4.42,6.59,5.8s6.13,2.08,9.9,2.08,7.05-.69,9.88-2.08,5.03-3.32,6.6-5.8c1.58-2.49,2.36-5.39,2.36-8.7v-29.52h-9.61v28.7h0Z"></path>
                <polygon points="802.09 72.04 801.67 72.04 790.68 37.5 780 37.5 795.7 82.97 808.08 82.97 823.76 37.5 813.1 37.5 802.09 72.04"></polygon>
                <rect x="831.24" y="37.5" width="9.61" height="45.46"></rect>
                <path d="M878.31,65.12c2.46-1.15,4.35-2.82,5.65-4.98s1.95-4.76,1.95-7.78-.64-5.62-1.92-7.85c-1.28-2.23-3.14-3.95-5.57-5.17s-5.37-1.83-8.8-1.83h-17.94v45.46h9.61v-16.12h7.02l8.61,16.12h10.61l-9.66-17.68c.14-.06.3-.1.43-.17h0ZM861.29,45.36h6.48c1.85,0,3.39.27,4.61.81s2.13,1.33,2.73,2.36.9,2.31.9,3.82-.3,2.74-.9,3.75-1.51,1.76-2.72,2.26-2.74.76-4.57.76h-6.53v-13.76h0Z"></path>
                <path d="M909.38,37.5l-15.7,45.46h10.3l3.37-10.37h16.41l3.37,10.37h10.3l-15.67-45.46h-12.39.01ZM909.8,65.1l5.6-17.2h.35l5.59,17.2h-11.54Z"></path>
                <path d="M974.51,61.12c-1.21-1.08-2.65-1.99-4.31-2.73s-3.48-1.33-5.46-1.78l-4.08-.98c-.99-.22-1.92-.49-2.8-.81-.87-.32-1.64-.69-2.31-1.13-.67-.43-1.19-.96-1.57-1.56-.38-.61-.55-1.32-.52-2.13,0-.98.28-1.85.85-2.62.57-.77,1.4-1.37,2.47-1.81,1.08-.44,2.4-.66,3.97-.66,2.31,0,4.14.5,5.48,1.49,1.35.99,2.11,2.38,2.29,4.17h9.21c-.04-2.71-.77-5.09-2.18-7.15-1.41-2.06-3.37-3.66-5.89-4.82s-5.47-1.73-8.85-1.73-6.28.58-8.88,1.73-4.65,2.76-6.14,4.82c-1.49,2.06-2.22,4.46-2.21,7.21-.01,3.36,1.09,6.03,3.31,8.01,2.22,1.98,5.25,3.44,9.08,4.37l4.95,1.24c1.66.4,3.06.84,4.21,1.33s2.02,1.08,2.62,1.78.9,1.55.9,2.58c0,1.09-.33,2.06-1,2.91-.67.84-1.6,1.5-2.81,1.98s-2.62.71-4.25.71-3.14-.25-4.45-.77-2.35-1.27-3.13-2.29c-.78-1.01-1.22-2.28-1.32-3.81h-9.3c.07,3.27.87,6.01,2.39,8.23,1.52,2.21,3.63,3.88,6.35,5.01,2.72,1.12,5.91,1.69,9.58,1.69s6.86-.56,9.49-1.68,4.64-2.69,6.04-4.73c1.4-2.03,2.11-4.44,2.12-7.22-.01-1.89-.36-3.58-1.03-5.04-.67-1.47-1.62-2.74-2.83-3.82h.01Z"></path>
                <polygon points="984.79 45.43 998.71 45.43 998.71 82.97 1008.21 82.97 1008.21 45.43 1022.13 45.43 1022.13 37.5 984.79 37.5 984.79 45.43"></polygon>
                <path d="M1067.47,47.58c-1.87-3.48-4.42-6.13-7.64-7.96s-6.83-2.74-10.84-2.74-7.67.92-10.88,2.74c-3.21,1.83-5.75,4.48-7.61,7.96s-2.8,7.69-2.8,12.65.93,9.15,2.8,12.63c1.86,3.48,4.4,6.14,7.61,7.97,3.21,1.84,6.84,2.75,10.88,2.75s7.63-.91,10.84-2.74c3.22-1.83,5.76-4.48,7.64-7.96,1.87-3.48,2.81-7.7,2.81-12.65s-.94-9.17-2.81-12.65ZM1059.1,68.36c-.95,2.21-2.3,3.88-4.03,5.02s-3.76,1.71-6.08,1.71-4.35-.57-6.08-1.71-3.08-2.81-4.03-5.02c-.96-2.2-1.43-4.91-1.43-8.12s.48-5.92,1.43-8.12c.95-2.21,2.3-3.88,4.03-5.02s3.76-1.71,6.08-1.71,4.35.57,6.08,1.71,3.08,2.81,4.03,5.02c.95,2.21,1.43,4.91,1.43,8.12s-.48,5.92-1.43,8.12Z"></path>
            </g>
            <g>
                <path class="cls-1" d="M270.98,140.14c2.46-1.15,4.35-2.82,5.65-4.98,1.3-2.17,1.95-4.76,1.95-7.78s-.64-5.62-1.92-7.85c-1.28-2.23-3.14-3.95-5.57-5.17s-5.37-1.83-8.8-1.83h-17.94v45.46h9.61v-16.12h7.02l8.61,16.12h10.61l-9.66-17.68c.14-.06.3-.1.43-.17h.01ZM253.96,120.39h6.48c1.85,0,3.39.27,4.61.81,1.22.54,2.13,1.33,2.73,2.36s.9,2.31.9,3.82-.3,2.74-.9,3.75-1.51,1.76-2.72,2.26-2.74.76-4.57.76h-6.53v-13.76Z"></path>
                <path class="cls-1" d="M315.06,107.87c1.29,0,2.38-.45,3.27-1.34s1.34-1.96,1.34-3.19-.45-2.32-1.34-3.19-1.99-1.31-3.27-1.31-2.37.44-3.29,1.31-1.38,1.94-1.38,3.19.46,2.29,1.38,3.19c.92.9,2.01,1.34,3.29,1.34Z"></path>
                <path class="cls-1" d="M301.48,107.87c1.29,0,2.38-.45,3.27-1.34.89-.9,1.34-1.96,1.34-3.19s-.45-2.32-1.34-3.19c-.9-.87-1.99-1.31-3.27-1.31s-2.37.44-3.29,1.31-1.38,1.94-1.38,3.19.46,2.29,1.38,3.19c.92.9,2.01,1.34,3.29,1.34Z"></path>
                <path class="cls-1" d="M302.06,112.53l-15.7,45.46h10.3l3.37-10.37h16.41l3.37,10.37h10.3l-15.67-45.46h-12.39.01ZM302.47,140.12l5.6-17.2h.35l5.59,17.2h-11.54Z"></path>
                <polygon class="cls-1" points="330.29 120.45 344.21 120.45 344.21 157.99 353.71 157.99 353.71 120.45 367.63 120.45 367.63 112.53 330.29 112.53 330.29 120.45"></polygon>
                <polygon class="cls-1" points="372.62 120.45 386.54 120.45 386.54 157.99 396.04 157.99 396.04 120.45 409.96 120.45 409.96 112.53 372.62 112.53 372.62 120.45"></polygon>
                <path class="cls-1" d="M448.17,136.15c-1.21-1.08-2.65-1.99-4.31-2.73s-3.48-1.33-5.46-1.78l-4.08-.98c-.99-.22-1.92-.49-2.8-.81-.87-.32-1.64-.69-2.31-1.13-.67-.43-1.19-.96-1.57-1.56-.38-.61-.55-1.32-.52-2.13,0-.98.28-1.85.85-2.62.57-.77,1.4-1.37,2.47-1.81,1.08-.44,2.4-.66,3.97-.66,2.31,0,4.14.5,5.48,1.49s2.11,2.38,2.29,4.17h9.21c-.04-2.71-.77-5.09-2.18-7.15s-3.37-3.66-5.89-4.82-5.47-1.73-8.85-1.73-6.28.58-8.88,1.73-4.65,2.76-6.14,4.82c-1.49,2.06-2.22,4.46-2.21,7.21-.01,3.36,1.09,6.03,3.31,8.01s5.25,3.44,9.08,4.37l4.95,1.24c1.66.4,3.06.84,4.21,1.33s2.02,1.08,2.62,1.78.9,1.55.9,2.58c0,1.09-.33,2.06-1,2.91-.67.84-1.6,1.5-2.81,1.98s-2.62.71-4.25.71-3.14-.25-4.45-.77-2.35-1.27-3.13-2.29c-.78-1.01-1.22-2.28-1.32-3.81h-9.3c.07,3.27.87,6.01,2.39,8.23s3.63,3.88,6.35,5.01,5.91,1.69,9.58,1.69,6.86-.56,9.49-1.68,4.64-2.69,6.04-4.73c1.4-2.03,2.11-4.44,2.12-7.22-.01-1.89-.36-3.58-1.03-5.04-.67-1.47-1.62-2.74-2.83-3.82h.01Z"></path>
                <polygon class="cls-1" points="495.79 112.53 458.45 112.53 458.45 120.45 472.37 120.45 472.37 157.99 481.87 157.99 481.87 120.45 495.79 120.45 495.79 112.53"></polygon>
                <path class="cls-1" d="M513.42,144.23c0,1.45-.21,2.67-.64,3.66s-1.05,1.74-1.87,2.25-1.83.77-3.01.77-2.1-.23-2.92-.68-1.47-1.1-1.93-1.95c-.47-.85-.71-1.88-.74-3.08h-9.57c-.02,3.02.63,5.52,1.93,7.51,1.3,1.99,3.07,3.47,5.29,4.44,2.23.97,4.71,1.45,7.45,1.45,3.08,0,5.78-.59,8.1-1.75,2.32-1.17,4.14-2.83,5.45-5,1.31-2.16,1.96-4.71,1.96-7.64v-31.7h-9.5v31.72Z"></path>
                <path class="cls-1" d="M557.42,107.87c1.29,0,2.38-.45,3.27-1.34s1.34-1.96,1.34-3.19-.45-2.32-1.34-3.19-2.59-1.31-3.87-1.31-1.77.44-2.69,1.31-1.38,1.94-1.38,3.19.46,2.29,1.38,3.19c.92.9,2.01,1.34,3.29,1.34Z"></path>
                <path class="cls-1" d="M543.84,107.87c1.29,0,2.38-.45,3.27-1.34.89-.9,1.34-1.96,1.34-3.19s-.45-2.32-1.34-3.19c-.9-.87-2.59-1.31-3.87-1.31s-1.77.44-2.69,1.31-1.38,1.94-1.38,3.19.46,2.29,1.38,3.19c.92.9,2.01,1.34,3.29,1.34Z"></path>
                <path class="cls-1" d="M544.42,112.53l-15.7,45.46h10.3l3.37-10.37h16.41l3.37,10.37h10.3l-15.67-45.46h-12.39.01ZM544.83,140.12l5.6-17.2h.35l5.59,17.2h-11.54Z"></path>
                <polygon class="cls-1" points="608.42 141.12 608.02 141.12 588.4 112.53 579.96 112.53 579.96 157.99 589.57 157.99 589.57 129.38 589.91 129.38 609.69 157.99 617.99 157.99 617.99 112.53 608.42 112.53 608.42 141.12"></polygon>
                <path class="cls-1" d="M658.97,136.15c-1.21-1.08-2.65-1.99-4.31-2.73s-3.48-1.33-5.46-1.78l-4.08-.98c-.99-.22-1.92-.49-2.8-.81-.87-.32-1.64-.69-2.31-1.13-.67-.43-1.19-.96-1.57-1.56-.38-.61-.55-1.32-.52-2.13,0-.98.28-1.85.85-2.62.57-.77,1.4-1.37,2.47-1.81,1.08-.44,2.4-.66,3.97-.66,2.31,0,4.14.5,5.48,1.49s2.11,2.38,2.29,4.17h9.21c-.04-2.71-.77-5.09-2.18-7.15s-3.37-3.66-5.89-4.82-5.47-1.73-8.85-1.73-6.28.58-8.88,1.73-4.65,2.76-6.14,4.82c-1.49,2.06-2.22,4.46-2.21,7.21-.01,3.36,1.09,6.03,3.31,8.01s5.25,3.44,9.08,4.37l4.95,1.24c1.66.4,3.06.84,4.21,1.33s2.02,1.08,2.62,1.78.9,1.55.9,2.58c0,1.09-.33,2.06-1,2.91-.67.84-1.6,1.5-2.81,1.98s-2.62.71-4.25.71-3.14-.25-4.45-.77-2.35-1.27-3.13-2.29c-.78-1.01-1.22-2.28-1.32-3.81h-9.3c.07,3.27.87,6.01,2.39,8.23s3.63,3.88,6.35,5.01,5.91,1.69,9.58,1.69,6.86-.56,9.49-1.68,4.64-2.69,6.04-4.73c1.4-2.03,2.11-4.44,2.12-7.22-.01-1.89-.36-3.58-1.03-5.04-.67-1.47-1.62-2.74-2.83-3.82h.01Z"></path>
                <polygon class="cls-1" points="666.65 120.45 680.57 120.45 680.57 157.99 690.07 157.99 690.07 120.45 703.99 120.45 703.99 112.53 666.65 112.53 666.65 120.45"></polygon>
                <polygon class="cls-1" points="730.11 147.07 729.69 147.07 718.7 112.53 708.03 112.53 723.72 157.99 736.11 157.99 751.78 112.53 741.12 112.53 730.11 147.07"></polygon>
                <polygon class="cls-1" points="769.23 139.21 788.68 139.21 788.68 131.28 769.23 131.28 769.23 120.45 790.26 120.45 790.26 112.53 759.62 112.53 759.62 157.99 790.34 157.99 790.34 150.06 769.23 150.06 769.23 139.21"></polygon>
                <path class="cls-1" d="M826.94,140.14c2.46-1.15,4.35-2.82,5.65-4.98s1.95-4.76,1.95-7.78-.64-5.62-1.92-7.85c-1.28-2.23-3.14-3.95-5.57-5.17s-5.37-1.83-8.8-1.83h-17.94v45.46h9.61v-16.12h7.02l8.61,16.12h10.61l-9.66-17.68c.14-.06.3-.1.43-.17h0ZM809.92,120.39h6.48c1.85,0,3.39.27,4.61.81s2.13,1.33,2.73,2.36.9,2.31.9,3.82-.3,2.74-.9,3.75-1.51,1.76-2.72,2.26-2.74.76-4.57.76h-6.53v-13.76h0Z"></path>
                <polygon class="cls-1" points="882.07 112.53 870.55 112.53 854.19 132.57 853.59 132.57 853.59 112.53 843.98 112.53 843.98 157.99 853.59 157.99 853.59 145.07 858.32 139.3 870.77 157.99 882.27 157.99 865.2 132.88 882.07 112.53"></polygon>
                <polygon class="cls-1" points="899.05 139.21 918.49 139.21 918.49 131.28 899.05 131.28 899.05 120.45 920.07 120.45 920.07 112.53 889.44 112.53 889.44 157.99 920.16 157.99 920.16 150.06 899.05 150.06 899.05 139.21"></polygon>
                <polygon class="cls-1" points="927.81 112.53 927.81 120.45 941.73 120.45 941.73 157.99 951.23 157.99 951.23 120.45 965.15 120.45 965.15 112.53 927.81 112.53"></polygon>
            </g>
        </g>
    </g>
</svg>
