<svg xmlns="http://www.w3.org/2000/svg" viewBox="0 0 498.9 317.48"><defs><style>.cls-1{fill:none;}.cls-2{fill:#fff;}</style></defs><title>ORK_TUNNUS_NEGA_FI_ENG_290818</title><g id="Layer_2" data-name="Layer 2"><g id="Layer_1-2" data-name="Layer 1"><rect class="cls-1" width="498.9" height="317.48"/><rect class="cls-2" x="347.56" y="166.71" width="102.12" height="22.19" rx="0.23" ry="0.23"/><path class="cls-2" d="M62.91,210.89a12.55,12.55,0,0,0,0,25.09c7,0,12.27-5.4,12.27-12.55A12.13,12.13,0,0,0,62.91,210.89Zm0,20.73c-4.43,0-7.65-3.44-7.65-8.19s3.22-8.19,7.65-8.19,7.65,3.45,7.65,8.19S67.34,231.62,62.91,231.62Z"/><rect class="cls-2" x="78.84" y="211.29" width="4.56" height="24.27"/><polygon class="cls-2" points="106.84 211.29 101.13 211.29 92.98 221.52 92.98 211.29 88.43 211.29 88.43 235.57 92.98 235.57 92.98 225.23 101.91 235.49 101.99 235.57 108.03 235.57 97.34 223.22 106.84 211.29"/><polygon class="cls-2" points="114.33 225.3 123.85 225.3 123.85 220.95 114.33 220.95 114.33 215.65 124.66 215.65 124.66 211.29 109.77 211.29 109.77 235.57 124.86 235.57 124.86 231.21 114.33 231.21 114.33 225.3"/><path class="cls-2" d="M142.6,226.18c0,3.46-1.77,5.44-4.86,5.44s-4.86-2-4.86-5.44V211.29h-4.56v15.4c0,5.56,3.78,9.29,9.42,9.29s9.42-3.73,9.42-9.29v-15.4H142.6Z"/><path class="cls-2" d="M161.41,221.57l-.24-.09c-3-1.14-4.73-1.77-4.73-3.62,0-1.47,1.49-2.62,3.39-2.62,2.8,0,4.72,2.56,4.74,2.59l.16.22,3.17-3.13-.13-.17a10.36,10.36,0,0,0-7.94-3.86c-5,0-8,3.54-8,7,0,4.53,4.06,6.53,7.6,7.77,2.85,1,4.19,1.66,4.19,3.48s-2.1,2.51-3.91,2.51c-3.41,0-5.41-3.41-5.43-3.45l-.14-.25-3.44,2.9.1.18a10.75,10.75,0,0,0,8.91,5c4.26,0,8.54-2.13,8.54-6.87S164.86,222.86,161.41,221.57Z"/><path class="cls-2" d="M188.11,218.94c0-4.5-3.34-7.65-8.13-7.65h-8v24.28h4.56v-9H178l5.58,8.87.07.11H189l-6-9.34C186.19,225.28,188.11,222.58,188.11,218.94Zm-11.62-3.29h3c2.59,0,4,1.17,4,3.29s-1.42,3.3-4,3.3h-3Z"/><polygon class="cls-2" points="196.3 225.3 205.82 225.3 205.82 220.95 196.3 220.95 196.3 215.65 206.64 215.65 206.64 211.29 191.74 211.29 191.74 235.57 206.84 235.57 206.84 231.21 196.3 231.21 196.3 225.3"/><polygon class="cls-2" points="228.71 211.29 223 211.29 214.85 221.52 214.85 211.29 210.29 211.29 210.29 235.57 214.85 235.57 214.85 225.23 223.78 235.49 223.85 235.57 229.89 235.57 219.21 223.22 228.71 211.29"/><rect class="cls-2" x="232.12" y="211.29" width="4.56" height="24.27"/><path class="cls-2" d="M251.4,221.57l-.24-.09c-3-1.14-4.73-1.77-4.73-3.62,0-1.47,1.49-2.62,3.4-2.62,2.79,0,4.71,2.56,4.73,2.59l.17.22,3.16-3.13-.13-.17a10.36,10.36,0,0,0-7.93-3.86c-5,0-8,3.54-8,7,0,4.53,4.06,6.53,7.6,7.77,2.86,1,4.2,1.66,4.2,3.48s-2.11,2.51-3.91,2.51c-3.42,0-5.42-3.41-5.44-3.45l-.14-.25-3.44,2.9.1.18a10.76,10.76,0,0,0,8.92,5c4.25,0,8.53-2.13,8.53-6.87S254.85,222.86,251.4,221.57Z"/><polygon class="cls-2" points="259.88 215.65 266.44 215.65 266.44 235.57 271 235.57 271 215.65 277.56 215.65 277.56 211.29 259.88 211.29 259.88 215.65"/><polygon class="cls-2" points="284.62 225.3 294.14 225.3 294.14 220.95 284.62 220.95 284.62 215.65 294.96 215.65 294.96 211.29 280.07 211.29 280.07 235.57 295.17 235.57 295.17 231.21 284.62 231.21 284.62 225.3"/><path class="cls-2" d="M314.81,218.94c0-4.5-3.35-7.65-8.13-7.65h-8.05v24.28h4.55v-9h1.5l5.57,8.87.07.11h5.34l-6-9.34A7.12,7.12,0,0,0,314.81,218.94Zm-11.63-3.29h3c2.58,0,4,1.17,4,3.29s-1.43,3.3-4,3.3h-3Z"/><rect class="cls-2" x="318.91" y="211.29" width="4.56" height="24.27"/><polygon class="cls-2" points="346.91 211.29 341.2 211.29 333.05 221.52 333.05 211.29 328.49 211.29 328.49 235.57 333.05 235.57 333.05 225.23 341.98 235.49 342.06 235.57 348.09 235.57 337.41 223.22 346.91 211.29"/><polygon class="cls-2" points="354.4 225.3 363.92 225.3 363.92 220.95 354.4 220.95 354.4 215.65 364.73 215.65 364.73 211.29 349.84 211.29 349.84 235.57 364.93 235.57 364.93 231.21 354.4 231.21 354.4 225.3"/><path class="cls-2" d="M378.1,221.57l-.24-.09c-3.06-1.14-4.74-1.77-4.74-3.62,0-1.47,1.49-2.62,3.39-2.62,2.8,0,4.73,2.56,4.75,2.59l.16.22,3.17-3.13-.13-.17a10.4,10.4,0,0,0-7.95-3.86c-5,0-8,3.54-8,7,0,4.53,4.07,6.53,7.61,7.77,2.85,1,4.19,1.66,4.19,3.48s-2,2.51-3.91,2.51c-3.42,0-5.41-3.41-5.44-3.45l-.14-.25-3.27,2.77-.15.13.09.17a10.71,10.71,0,0,0,8.91,5c4.25,0,8.53-2.13,8.53-6.87S381.55,222.86,378.1,221.57Z"/><polygon class="cls-2" points="407.03 211.29 401.31 211.29 393.18 221.52 393.18 211.29 388.62 211.29 388.62 235.57 393.18 235.57 393.18 225.23 402.1 235.49 402.17 235.57 408.21 235.57 397.53 223.22 407.03 211.29"/><path class="cls-2" d="M424.23,226.18c0,3.46-1.77,5.44-4.86,5.44s-4.86-2-4.86-5.44V211.29H410v15.4c0,5.56,3.79,9.29,9.42,9.29s9.42-3.73,9.42-9.29v-15.4h-4.56Z"/><path class="cls-2" d="M443,221.57l-.24-.09c-3.05-1.14-4.73-1.77-4.73-3.62,0-1.47,1.49-2.62,3.4-2.62,2.79,0,4.71,2.56,4.73,2.59l.17.22,3.16-3.13-.12-.17a10.41,10.41,0,0,0-7.94-3.86c-5,0-8,3.54-8,7,0,4.53,4.06,6.53,7.6,7.77,2.86,1,4.2,1.66,4.2,3.48s-2.11,2.51-3.91,2.51c-3.42,0-5.41-3.41-5.44-3.45l-.14-.25-3.44,2.9.1.18a10.76,10.76,0,0,0,8.92,5c4.25,0,8.53-2.13,8.53-6.87S446.49,222.86,443,221.57Z"/><path class="cls-2" d="M52.51,248.28h2.81v20.77H65.84v2.68H52.51Z"/><path class="cls-2" d="M72.92,258.36h9.91V261H72.92v8H83.84v2.68H70.11V248.28H83.64V251H72.92Z"/><path class="cls-2" d="M100.33,258.87H109v10.18s-3.11,3.08-9.21,3.08c-6.76,0-11.65-5.36-11.65-12.13S93,247.88,99.76,247.88c6.06,0,8.58,3.32,8.58,3.32l-2,2a9,9,0,0,0-6.57-2.61c-5.09,0-8.64,4.46-8.64,9.44s3.55,9.45,8.64,9.45c4.29,0,6.43-1.7,6.43-1.7v-6.2h-5.86Z"/><path class="cls-2" d="M121.58,248.28h2.61l9.14,23.45h-3l-2.44-6.33H117.82l-2.44,6.33h-3Zm-2.72,14.44h8l-4-10.42Z"/><path class="cls-2" d="M137.6,248.28h2.82v20.77h10.51v2.68H137.6Z"/><path class="cls-2" d="M165.84,248.28h6.1c4.65,0,7.83,2.75,7.83,6.93a6.63,6.63,0,0,1-5.72,6.7l6.49,9.82h-3.38l-6.33-9.59h-2.18v9.59h-2.81ZM177,255.21c0-2.57-1.71-4.24-4.86-4.24h-3.45v8.5h3.45C175.25,259.47,177,257.79,177,255.21Z"/><path class="cls-2" d="M188.43,258.36h9.91V261h-9.91v8h10.92v2.68H185.62V248.28h13.53V251H188.43Z"/><path class="cls-2" d="M215.84,258.87h8.64v10.18s-3.11,3.08-9.21,3.08c-6.77,0-11.65-5.36-11.65-12.13s4.88-12.12,11.65-12.12c6.06,0,8.57,3.32,8.57,3.32l-2,2a9,9,0,0,0-6.57-2.61c-5.09,0-8.64,4.46-8.64,9.44s3.55,9.45,8.64,9.45c4.29,0,6.43-1.7,6.43-1.7v-6.2h-5.86Z"/><path class="cls-2" d="M230.82,248.28h2.81v23.45h-2.81Z"/><path class="cls-2" d="M247.09,261.18c-3.42-1.57-6.43-3.15-6.43-7.14a6.41,6.41,0,0,1,6.76-6.16,8.36,8.36,0,0,1,6.67,3.41L252,253a5.93,5.93,0,0,0-4.56-2.44,3.65,3.65,0,0,0-3.95,3.48c0,2.38,2,3.32,5.23,4.79,3.58,1.64,5.82,3.15,5.82,6.94s-3.15,6.36-7.26,6.36a8.14,8.14,0,0,1-7.47-4.89l2.34-1.41s1.41,3.62,5.13,3.62c2.24,0,4.38-1.27,4.38-3.68S249.7,262.38,247.09,261.18Z"/><path class="cls-2" d="M264.72,251H258v-2.69h16.28V251h-6.74v20.76h-2.81Z"/><path class="cls-2" d="M281.55,258.36h9.91V261h-9.91v8h10.92v2.68H278.74V248.28h13.53V251H281.55Z"/><path class="cls-2" d="M298.21,248.28h6.1c4.65,0,7.83,2.75,7.83,6.93a6.63,6.63,0,0,1-5.72,6.7l6.49,9.82h-3.38l-6.33-9.59H301v9.59h-2.82Zm11.12,6.93c0-2.57-1.71-4.24-4.86-4.24H301v8.5h3.44C307.62,259.47,309.33,257.79,309.33,255.21Z"/><path class="cls-2" d="M345.2,253.31a8.49,8.49,0,0,0-6.46-2.75c-5.09,0-8.57,4.46-8.57,9.44s3.48,9.45,8.57,9.45a9.3,9.3,0,0,0,6.77-3.11l1.9,1.94a11.91,11.91,0,0,1-8.67,3.85c-6.77,0-11.59-5.36-11.59-12.13s4.82-12.12,11.59-12.12a11.28,11.28,0,0,1,8.41,3.59Z"/><path class="cls-2" d="M354.9,258.36h9.91V261H354.9v8h10.92v2.68H352.09V248.28h13.53V251H354.9Z"/><path class="cls-2" d="M374.47,248.28,387,267V248.28h2.82v23.45h-2.92L374.38,253v18.76h-2.82V248.28Z"/><path class="cls-2" d="M401,251H394.3v-2.69h16.28V251h-6.73v20.76H401Z"/><path class="cls-2" d="M415.06,248.28h6.1c4.65,0,7.83,2.75,7.83,6.93a6.63,6.63,0,0,1-5.72,6.7l6.49,9.82h-3.38l-6.33-9.59h-2.17v9.59h-2.82Zm11.12,6.93c0-2.57-1.71-4.24-4.86-4.24h-3.44v8.5h3.44C424.47,259.47,426.18,257.79,426.18,255.21Z"/><path class="cls-2" d="M437.65,258.36h9.9V261h-9.9v8h10.91v2.68H434.83V248.28h13.53V251H437.65Z"/><path class="cls-2" d="M48.74,138.12c0-33.79,23.76-53.24,49.56-53.24,25.59,0,49.35,19.45,49.35,53.24s-23.76,53.24-49.35,53.24C72.5,191.36,48.74,171.9,48.74,138.12Zm68.19,0c0-17.62-6.34-28.88-18.63-28.88-12.49,0-18.63,11.26-18.63,28.88S85.81,167,98.3,167C110.59,167,116.93,155.73,116.93,138.12Z"/><path class="cls-2" d="M159.8,87.33h22.53a1.1,1.1,0,0,1,1.08,1l1.93,16.86h.82c7.37-13.72,18.43-20.27,28.87-20.27a30.4,30.4,0,0,1,11.26,1.71,1.13,1.13,0,0,1,.66,1.22l-4.53,24a1.1,1.1,0,0,1-1.36.83,36.45,36.45,0,0,0-9.92-1.33c-7.54,0-16.89,4.86-22.23,18.42a1.12,1.12,0,0,0-.09.44v57.66a1.08,1.08,0,0,1-1.08,1.09H159.8a1.09,1.09,0,0,1-1.08-1.09V88.42A1.09,1.09,0,0,1,159.8,87.33Z"/><path class="cls-2" d="M239,45.35h27.11a1.09,1.09,0,0,1,1.09,1.09v81.23H268l31.83-39.93a1.08,1.08,0,0,1,.85-.41h29.88a1.09,1.09,0,0,1,.83,1.79l-33.58,39.37a1.08,1.08,0,0,0-.09,1.29l36.79,57.45a1.09,1.09,0,0,1-.91,1.67H303.68a1.09,1.09,0,0,1-.94-.54l-21.87-37.68a1.09,1.09,0,0,0-1.75-.18l-11.63,13.11a1.06,1.06,0,0,0-.27.72v23.48a1.09,1.09,0,0,1-1.09,1.09H239a1.09,1.09,0,0,1-1.09-1.09V46.44A1.09,1.09,0,0,1,239,45.35Z"/></g></g></svg>