<?xml version="1.0" encoding="UTF-8"?>
<!DOCTYPE svg PUBLIC "-//W3C//DTD SVG 1.1//EN" "http://www.w3.org/Graphics/SVG/1.1/DTD/svg11.dtd">
<svg xmlns="http://www.w3.org/2000/svg" version="1.1" width="1773px" height="205px" style="shape-rendering:geometricPrecision; text-rendering:geometricPrecision; image-rendering:optimizeQuality; fill-rule:evenodd; clip-rule:evenodd" xmlns:xlink="http://www.w3.org/1999/xlink">
<g><path style="opacity:1" fill="#c59359" d="M 116.5,204.5 C 106.5,204.5 96.5,204.5 86.5,204.5C 38.9512,194.45 10.7845,165.45 2,117.5C -1.4153,67.465 19.418,31.965 64.5,11C 108.852,-3.87018 147.019,5.62982 179,39.5C 205.708,75.1816 209.375,113.182 190,153.5C 173.274,181.73 148.774,198.73 116.5,204.5 Z M 83.5,14.5 C 84.552,14.3505 85.552,14.5172 86.5,15C 68.4671,34.9151 60.1337,58.4151 61.5,85.5C 39.577,97.2529 24.7437,114.92 17,138.5C 3.12333,97.814 11.9567,62.9806 43.5,34C 55.4429,24.5279 68.7763,18.0279 83.5,14.5 Z M 114.5,15.5 C 126.475,15.985 137.808,19.485 148.5,26C 188.588,53.7624 201.254,90.929 186.5,137.5C 177.952,113.117 162.119,95.1172 139,83.5C 140.194,57.2335 132.027,34.5668 114.5,15.5 Z M 73.5,80.5 C 71.5864,77.3157 70.9197,73.649 71.5,69.5C 73.3445,52.1497 79.8445,36.8164 91,23.5C 93.7273,20.2694 96.894,17.6028 100.5,15.5C 120.454,32.0801 130.12,53.4134 129.5,79.5C 110.68,73.8435 92.0132,74.1769 73.5,80.5 Z M 94.5,84.5 C 106.317,83.7821 117.651,85.6155 128.5,90C 124.394,108.722 115.061,124.222 100.5,136.5C 86.0353,124.526 76.702,109.359 72.5,91C 79.6429,87.8846 86.9762,85.718 94.5,84.5 Z M 136.5,93.5 C 159.975,105.103 173.975,123.603 178.5,149C 153.96,158.088 130.626,155.755 108.5,142C 123.383,129.072 132.716,112.905 136.5,93.5 Z M 63.5,94.5 C 68.4431,113.22 78.1098,129.053 92.5,142C 71.4443,155.231 49.111,157.897 25.5,150C 28.3234,131.373 36.9901,115.707 51.5,103C 55.6803,100.304 59.6803,97.4702 63.5,94.5 Z M 99.5,148.5 C 122.452,162.714 147.119,166.881 173.5,161C 147.22,191.65 114.553,201.983 75.5,192C 57.9667,186.403 43.3,176.57 31.5,162.5C 32,162.167 32.5,161.833 33,161.5C 57.0915,166.448 79.2581,162.115 99.5,148.5 Z"/></g>
<g><path style="opacity:0.502" fill="#dfc5a6" d="M 71.5,69.5 C 70.9197,73.649 71.5864,77.3157 73.5,80.5C 72.791,81.404 71.791,81.7373 70.5,81.5C 70.1832,77.2984 70.5166,73.2984 71.5,69.5 Z"/></g>
<g><path style="opacity:0.502" fill="#858585" d="M 323.5,78.5 C 325.978,77.8359 328.645,77.5025 331.5,77.5C 334.59,77.5217 337.257,78.1883 339.5,79.5C 334.26,78.5509 328.927,78.2175 323.5,78.5 Z"/></g>
<g><path style="opacity:0.502" fill="#888888" d="M 400.5,87.5 C 400.5,84.5 400.5,81.5 400.5,78.5C 386.167,78.5 371.833,78.5 357.5,78.5C 357.5,81.5 357.5,84.5 357.5,87.5C 356.521,84.3752 356.187,81.0419 356.5,77.5C 371.5,77.5 386.5,77.5 401.5,77.5C 401.813,81.0419 401.479,84.3752 400.5,87.5 Z"/></g>
<g><path style="opacity:1" fill="#171717" d="M 452.5,76.5 C 474.59,76.946 484.423,88.2794 482,110.5C 478.216,126.647 468.049,133.814 451.5,132C 440.561,129.394 434.061,122.561 432,111.5C 428.659,93.4776 435.492,81.811 452.5,76.5 Z M 454.5,87.5 C 461.665,87.4961 466.499,90.8295 469,97.5C 469.851,103.253 469.517,108.92 468,114.5C 461.784,122.958 454.784,123.625 447,116.5C 442.061,107.101 442.894,98.2677 449.5,90C 451.315,89.2432 452.981,88.4098 454.5,87.5 Z"/></g>
<g><path style="opacity:0.502" fill="#848484" d="M 579.5,78.5 C 574.073,78.2175 568.74,78.5509 563.5,79.5C 565.743,78.1883 568.41,77.5217 571.5,77.5C 574.355,77.5025 577.022,77.8359 579.5,78.5 Z"/></g>
<g><path style="opacity:1" fill="#161616" d="M 799.5,91.5 C 799.5,92.5 799.5,93.5 799.5,94.5C 795.833,94.5 792.167,94.5 788.5,94.5C 782.482,86.0665 775.649,85.3999 768,92.5C 762.492,102.612 763.659,111.778 771.5,120C 779.998,123.246 785.998,120.746 789.5,112.5C 785.555,111.509 781.555,111.176 777.5,111.5C 777.5,108.5 777.5,105.5 777.5,102.5C 785.5,102.5 793.5,102.5 801.5,102.5C 802.393,110.881 800.559,118.548 796,125.5C 786.795,132.917 776.628,134.417 765.5,130C 763.676,129.34 762.343,128.173 761.5,126.5C 761.027,125.094 760.027,124.427 758.5,124.5C 755.63,121.417 753.797,117.75 753,113.5C 749.791,100.681 752.958,89.8479 762.5,81C 775.165,74.0203 786.665,75.5203 797,85.5C 798.559,87.2166 799.392,89.2166 799.5,91.5 Z"/></g>
<g><path style="opacity:1" fill="#181818" d="M 959.5,81.5 C 959.427,83.0269 960.094,84.0269 961.5,84.5C 963.862,86.919 964.862,89.919 964.5,93.5C 960.5,93.5 956.5,93.5 952.5,93.5C 951.788,89.1239 949.121,87.1239 944.5,87.5C 936.578,87.8552 934.911,91.0218 939.5,97C 945.167,98.6667 950.833,100.333 956.5,102C 966.863,109.266 968.196,117.932 960.5,128C 951.167,133.139 941.5,133.805 931.5,130C 925.277,126.721 922.277,121.555 922.5,114.5C 926.827,114.016 930.827,114.682 934.5,116.5C 936.713,120.273 940.046,121.94 944.5,121.5C 948.872,121.969 951.872,120.136 953.5,116C 952.743,114.488 951.743,113.154 950.5,112C 944.89,110.18 939.223,108.514 933.5,107C 923.2,101.433 921.034,93.5996 927,83.5C 937.39,75.0954 948.223,74.4288 959.5,81.5 Z"/></g>
<g><path style="opacity:0.502" fill="#8b8b8b" d="M 1082.5,79.5 C 1078.07,78.2057 1073.73,78.2057 1069.5,79.5C 1068.96,79.44 1068.62,79.1067 1068.5,78.5C 1070.83,78.1667 1073.17,77.8333 1075.5,77.5C 1078.27,77.5286 1080.6,78.1952 1082.5,79.5 Z"/></g>
<g><path style="opacity:0.502" fill="#828282" d="M 1107.5,78.5 C 1111.63,77.5151 1115.97,77.1818 1120.5,77.5C 1120.74,78.791 1120.4,79.791 1119.5,80.5C 1115.97,78.5772 1111.97,77.9106 1107.5,78.5 Z"/></g>
<g><path style="opacity:1" fill="#171717" d="M 1198.5,93.5 C 1198.5,94.5 1198.5,95.5 1198.5,96.5C 1194.83,96.5 1191.17,96.5 1187.5,96.5C 1185.28,89.8798 1180.61,87.0465 1173.5,88C 1166.24,91.0036 1162.91,96.5036 1163.5,104.5C 1163.43,118.947 1170.09,123.78 1183.5,119C 1184.98,117.188 1186.31,115.355 1187.5,113.5C 1191.17,113.5 1194.83,113.5 1198.5,113.5C 1198.5,114.5 1198.5,115.5 1198.5,116.5C 1196.86,123.648 1192.52,128.482 1185.5,131C 1177.33,133.547 1169.66,132.714 1162.5,128.5C 1162.03,127.094 1161.03,126.427 1159.5,126.5C 1153.4,120.567 1150.4,113.234 1150.5,104.5C 1151.97,82.9371 1163.31,74.1038 1184.5,78C 1192.55,80.2115 1197.22,85.3782 1198.5,93.5 Z"/></g>
<g><path style="opacity:1" fill="#171717" d="M 1254.5,117.5 C 1254.5,116.5 1254.5,115.5 1254.5,114.5C 1258.17,114.5 1261.83,114.5 1265.5,114.5C 1266.68,119.767 1270.02,122.101 1275.5,121.5C 1280.14,122.184 1283.14,120.351 1284.5,116C 1283.51,113.679 1281.85,112.013 1279.5,111C 1272.5,109.585 1265.84,107.252 1259.5,104C 1254.17,96.6667 1254.17,89.3333 1259.5,82C 1271.11,74.352 1282.28,74.852 1293,83.5C 1298.75,92.8112 1295.92,95.9779 1284.5,93C 1280.76,87.3956 1275.76,86.0623 1269.5,89C 1266.83,91.3333 1266.83,93.6667 1269.5,96C 1275.38,98.3048 1281.38,100.305 1287.5,102C 1295.61,106.064 1298.44,112.564 1296,121.5C 1293.42,128.047 1288.58,131.547 1281.5,132C 1273.65,133.403 1266.32,132.07 1259.5,128C 1256.35,125.195 1254.68,121.695 1254.5,117.5 Z"/></g>
<g><path style="opacity:0.502" fill="#838383" d="M 1335.5,78.5 C 1337.98,77.8359 1340.64,77.5025 1343.5,77.5C 1346.59,77.5217 1349.26,78.1883 1351.5,79.5C 1346.26,78.5509 1340.93,78.2175 1335.5,78.5 Z"/></g>
<g><path style="opacity:1" fill="#161616" d="M 1558.5,76.5 C 1582.51,78.032 1592.01,90.6987 1587,114.5C 1582.09,128.379 1572.26,134.212 1557.5,132C 1547,129.5 1540.5,123 1538,112.5C 1535.22,100.091 1538.39,89.5909 1547.5,81C 1551.16,79.1776 1554.82,77.6776 1558.5,76.5 Z M 1573.5,115.5 C 1572.09,115.973 1571.43,116.973 1571.5,118.5C 1557.91,124.303 1550.58,119.636 1549.5,104.5C 1549.87,91.6086 1556.2,86.4419 1568.5,89C 1573.63,92.8835 1575.96,98.0502 1575.5,104.5C 1575.55,108.319 1574.88,111.986 1573.5,115.5 Z"/></g>
<g><path style="opacity:0.502" fill="#898989" d="M 1669.5,78.5 C 1684.32,77.5039 1699.32,77.1706 1714.5,77.5C 1714.81,81.0419 1714.48,84.3752 1713.5,87.5C 1713.5,84.5 1713.5,81.5 1713.5,78.5C 1698.83,78.5 1684.17,78.5 1669.5,78.5 Z"/></g>
<g><path style="opacity:0.502" fill="#878787" d="M 1770.5,79.5 C 1766.27,78.2057 1761.93,78.2057 1757.5,79.5C 1759.4,78.1952 1761.73,77.5286 1764.5,77.5C 1766.83,77.8333 1769.17,78.1667 1771.5,78.5C 1771.38,79.1067 1771.04,79.44 1770.5,79.5 Z"/></g>
<g><path style="opacity:0.251" fill="#b6b6b6" d="M 263.5,79.5 C 259.936,78.5773 256.269,78.244 252.5,78.5C 252.5,96.1667 252.5,113.833 252.5,131.5C 251.503,113.674 251.17,95.6744 251.5,77.5C 255.971,76.9106 259.971,77.5772 263.5,79.5 Z"/></g>
<g><path style="opacity:1" fill="#070707" d="M 263.5,79.5 C 266.313,82.4459 268.646,85.7792 270.5,89.5C 270.427,91.0269 271.094,92.0269 272.5,92.5C 275.857,96.5346 278.857,100.868 281.5,105.5C 281.427,107.027 282.094,108.027 283.5,108.5C 284.117,108.611 284.617,108.944 285,109.5C 285.5,99.172 285.666,88.8387 285.5,78.5C 289.167,78.5 292.833,78.5 296.5,78.5C 296.5,95.8333 296.5,113.167 296.5,130.5C 293.167,130.5 289.833,130.5 286.5,130.5C 279.02,120.887 272.02,110.887 265.5,100.5C 265.217,99.7109 264.717,99.0442 264,98.5C 263.5,109.495 263.333,120.495 263.5,131.5C 259.833,131.5 256.167,131.5 252.5,131.5C 252.5,113.833 252.5,96.1667 252.5,78.5C 256.269,78.244 259.936,78.5773 263.5,79.5 Z"/></g>
<g><path style="opacity:0.502" fill="#787878" d="M 285.5,78.5 C 289.298,77.5166 293.298,77.1832 297.5,77.5C 297.5,95.5 297.5,113.5 297.5,131.5C 293.629,131.815 289.962,131.482 286.5,130.5C 289.833,130.5 293.167,130.5 296.5,130.5C 296.5,113.167 296.5,95.8333 296.5,78.5C 292.833,78.5 289.167,78.5 285.5,78.5 Z"/></g>
<g><path style="opacity:1" fill="#111111" d="M 323.5,78.5 C 328.927,78.2175 334.26,78.5509 339.5,79.5C 345.564,96.0247 351.231,112.691 356.5,129.5C 352.702,130.483 348.702,130.817 344.5,130.5C 342.796,127.061 341.462,123.395 340.5,119.5C 337.518,118.835 334.352,118.502 331,118.5C 327.424,118.515 324.258,119.182 321.5,120.5C 320.899,123.968 319.899,127.301 318.5,130.5C 314.029,131.089 310.029,130.423 306.5,128.5C 311.769,111.691 317.436,95.0247 323.5,78.5 Z M 330.5,92.5 C 331.167,92.8333 331.833,93.1667 332.5,93.5C 333.078,98.1652 334.411,102.499 336.5,106.5C 336.5,107.5 336.5,108.5 336.5,109.5C 332.629,109.815 328.962,109.482 325.5,108.5C 327.565,103.304 329.232,97.9702 330.5,92.5 Z"/></g>
<g><path style="opacity:1" fill="#0d0d0d" d="M 400.5,87.5 C 395.167,87.5 389.833,87.5 384.5,87.5C 384.5,102.167 384.5,116.833 384.5,131.5C 380.5,131.5 376.5,131.5 372.5,131.5C 372.5,116.833 372.5,102.167 372.5,87.5C 367.5,87.5 362.5,87.5 357.5,87.5C 357.5,84.5 357.5,81.5 357.5,78.5C 371.833,78.5 386.167,78.5 400.5,78.5C 400.5,81.5 400.5,84.5 400.5,87.5 Z"/></g>
<g><path style="opacity:0.753" fill="#434343" d="M 409.5,77.5 C 413.5,77.5 417.5,77.5 421.5,77.5C 421.5,95.5 421.5,113.5 421.5,131.5C 417.5,131.5 413.5,131.5 409.5,131.5C 409.5,113.5 409.5,95.5 409.5,77.5 Z"/></g>
<g><path style="opacity:1" fill="#000000" d="M 410.5,78.5 C 413.833,78.5 417.167,78.5 420.5,78.5C 420.5,95.8333 420.5,113.167 420.5,130.5C 417.167,130.5 413.833,130.5 410.5,130.5C 410.5,113.167 410.5,95.8333 410.5,78.5 Z"/></g>
<g><path style="opacity:0.753" fill="#474747" d="M 503.5,78.5 C 500.167,78.5 496.833,78.5 493.5,78.5C 493.5,95.8333 493.5,113.167 493.5,130.5C 496.833,130.5 500.167,130.5 503.5,130.5C 503.168,119.813 503.501,109.146 504.5,98.5C 505.107,98.6236 505.44,98.9569 505.5,99.5C 504.506,109.987 504.172,120.654 504.5,131.5C 500.5,131.5 496.5,131.5 492.5,131.5C 492.5,113.5 492.5,95.5 492.5,77.5C 496.371,77.185 500.038,77.5184 503.5,78.5 Z"/></g>
<g><path style="opacity:1" fill="#070707" d="M 503.5,78.5 C 505.735,81.2911 507.735,84.2911 509.5,87.5C 509.427,89.0269 510.094,90.0269 511.5,90.5C 514.857,94.5346 517.857,98.8679 520.5,103.5C 520.427,105.027 521.094,106.027 522.5,106.5C 523.906,106.973 524.573,107.973 524.5,109.5C 524.783,110.289 525.283,110.956 526,111.5C 526.5,100.505 526.667,89.505 526.5,78.5C 530.167,78.5 533.833,78.5 537.5,78.5C 537.5,96.1667 537.5,113.833 537.5,131.5C 533.818,131.665 530.152,131.499 526.5,131C 519.252,120.6 512.252,110.1 505.5,99.5C 505.44,98.9569 505.107,98.6236 504.5,98.5C 503.501,109.146 503.168,119.813 503.5,130.5C 500.167,130.5 496.833,130.5 493.5,130.5C 493.5,113.167 493.5,95.8333 493.5,78.5C 496.833,78.5 500.167,78.5 503.5,78.5 Z"/></g>
<g><path style="opacity:0.502" fill="#808080" d="M 537.5,78.5 C 533.833,78.5 530.167,78.5 526.5,78.5C 526.667,89.505 526.5,100.505 526,111.5C 525.283,110.956 524.783,110.289 524.5,109.5C 525.494,99.0131 525.828,88.3464 525.5,77.5C 529.702,77.1832 533.702,77.5166 537.5,78.5 Z"/></g>
<g><path style="opacity:1" fill="#121212" d="M 579.5,78.5 C 585.564,95.0247 591.231,111.691 596.5,128.5C 592.971,130.423 588.971,131.089 584.5,130.5C 583.101,127.301 582.101,123.968 581.5,120.5C 578.742,119.182 575.576,118.515 572,118.5C 568.648,118.502 565.482,118.835 562.5,119.5C 561.538,123.395 560.204,127.061 558.5,130.5C 554.298,130.817 550.298,130.483 546.5,129.5C 551.769,112.691 557.436,96.0247 563.5,79.5C 568.74,78.5509 574.073,78.2175 579.5,78.5 Z M 572.5,92.5 C 573.796,98.0501 575.463,103.383 577.5,108.5C 573.702,109.483 569.702,109.817 565.5,109.5C 567.565,104.304 569.232,98.9702 570.5,93.5C 571.167,93.1667 571.833,92.8333 572.5,92.5 Z"/></g>
<g><path style="opacity:0.753" fill="#474747" d="M 617.5,121.5 C 625.167,121.5 632.833,121.5 640.5,121.5C 640.5,124.833 640.5,128.167 640.5,131.5C 628.833,131.5 617.167,131.5 605.5,131.5C 605.5,113.5 605.5,95.5 605.5,77.5C 609.5,77.5 613.5,77.5 617.5,77.5C 617.5,92.1667 617.5,106.833 617.5,121.5 Z"/></g>
<g><path style="opacity:1" fill="#000000" d="M 617.5,121.5 C 624.648,122.492 631.981,122.825 639.5,122.5C 639.5,125.167 639.5,127.833 639.5,130.5C 628.5,130.5 617.5,130.5 606.5,130.5C 606.5,113.167 606.5,95.8333 606.5,78.5C 609.833,78.5 613.167,78.5 616.5,78.5C 616.171,93.0097 616.504,107.343 617.5,121.5 Z"/></g>
<g><path style="opacity:1" fill="#060606" d="M 676.5,121.5 C 683.833,121.5 691.167,121.5 698.5,121.5C 698.5,124.833 698.5,128.167 698.5,131.5C 687.167,131.5 675.833,131.5 664.5,131.5C 664.5,113.833 664.5,96.1667 664.5,78.5C 668.167,78.5 671.833,78.5 675.5,78.5C 675.171,93.0097 675.504,107.343 676.5,121.5 Z"/></g>
<g><path style="opacity:0.251" fill="#b8b8b8" d="M 676.5,121.5 C 675.504,107.343 675.171,93.0097 675.5,78.5C 671.833,78.5 668.167,78.5 664.5,78.5C 664.5,96.1667 664.5,113.833 664.5,131.5C 663.503,113.674 663.17,95.6744 663.5,77.5C 667.833,77.5 672.167,77.5 676.5,77.5C 676.5,92.1667 676.5,106.833 676.5,121.5 Z"/></g>
<g><path style="opacity:1" fill="#0c0c0c" d="M 741.5,99.5 C 741.5,102.5 741.5,105.5 741.5,108.5C 733.981,108.175 726.648,108.508 719.5,109.5C 719.5,113.5 719.5,117.5 719.5,121.5C 727.5,121.5 735.5,121.5 743.5,121.5C 743.5,124.5 743.5,127.5 743.5,130.5C 731.5,130.5 719.5,130.5 707.5,130.5C 707.5,112.833 707.5,95.1667 707.5,77.5C 719.5,77.5 731.5,77.5 743.5,77.5C 743.5,80.8333 743.5,84.1667 743.5,87.5C 735.5,87.5 727.5,87.5 719.5,87.5C 719.5,91.5 719.5,95.5 719.5,99.5C 726.833,99.5 734.167,99.5 741.5,99.5 Z"/></g>
<g><path style="opacity:1" fill="#141414" d="M 856.5,127.5 C 856.5,128.5 856.5,129.5 856.5,130.5C 852.4,130.763 848.4,130.43 844.5,129.5C 843.101,126.301 842.101,122.968 841.5,119.5C 835.167,119.5 828.833,119.5 822.5,119.5C 822.072,122.785 821.072,125.785 819.5,128.5C 815.486,130.334 811.153,131.001 806.5,130.5C 812,112.832 818,95.3319 824.5,78C 829.751,77.1963 834.918,77.363 840,78.5C 845.808,94.7572 851.308,111.091 856.5,127.5 Z M 837.5,108.5 C 835.866,109.161 834.033,109.494 832,109.5C 829.705,109.453 827.871,108.787 826.5,107.5C 828.423,102.232 830.256,96.899 832,91.5C 833.542,97.2932 835.376,102.96 837.5,108.5 Z"/></g>
<g><path style="opacity:0.502" fill="#808080" d="M 877.5,78.5 C 873.833,78.5 870.167,78.5 866.5,78.5C 866.5,95.8333 866.5,113.167 866.5,130.5C 866.5,130.833 866.5,131.167 866.5,131.5C 865.503,113.674 865.17,95.6744 865.5,77.5C 869.702,77.1832 873.702,77.5166 877.5,78.5 Z"/></g>
<g><path style="opacity:1" fill="#000000" d="M 877.5,78.5 C 877.5,92.8333 877.5,107.167 877.5,121.5C 884.648,122.492 891.981,122.825 899.5,122.5C 899.5,125.167 899.5,127.833 899.5,130.5C 888.5,130.5 877.5,130.5 866.5,130.5C 866.5,113.167 866.5,95.8333 866.5,78.5C 870.167,78.5 873.833,78.5 877.5,78.5 Z"/></g>
<g><path style="opacity:1" fill="#0e0e0e" d="M 1009.5,99.5 C 1009.5,102.5 1009.5,105.5 1009.5,108.5C 1001.98,108.175 994.648,108.508 987.5,109.5C 987.5,113.5 987.5,117.5 987.5,121.5C 995.5,121.5 1003.5,121.5 1011.5,121.5C 1011.5,124.833 1011.5,128.167 1011.5,131.5C 999.5,131.5 987.5,131.5 975.5,131.5C 975.5,113.5 975.5,95.5 975.5,77.5C 987.5,77.5 999.5,77.5 1011.5,77.5C 1011.5,80.8333 1011.5,84.1667 1011.5,87.5C 1003.5,87.5 995.5,87.5 987.5,87.5C 987.5,91.5 987.5,95.5 987.5,99.5C 994.833,99.5 1002.17,99.5 1009.5,99.5 Z"/></g>
<g><path style="opacity:0.502" fill="#808080" d="M 1049.5,78.5 C 1040.83,78.5 1032.17,78.5 1023.5,78.5C 1023.5,96.1667 1023.5,113.833 1023.5,131.5C 1022.5,113.674 1022.17,95.6744 1022.5,77.5C 1031.68,77.1734 1040.68,77.5067 1049.5,78.5 Z"/></g>
<g><path style="opacity:1" fill="#0e0e0e" d="M 1049.5,78.5 C 1056.53,79.0308 1061.03,82.6975 1063,89.5C 1065.55,98.8865 1062.72,106.053 1054.5,111C 1058.24,116.981 1061.57,123.148 1064.5,129.5C 1060.37,130.485 1056.03,130.818 1051.5,130.5C 1048.26,125.019 1045.26,119.352 1042.5,113.5C 1039.91,112.52 1037.25,112.187 1034.5,112.5C 1034.5,118.833 1034.5,125.167 1034.5,131.5C 1030.83,131.5 1027.17,131.5 1023.5,131.5C 1023.5,113.833 1023.5,96.1667 1023.5,78.5C 1032.17,78.5 1040.83,78.5 1049.5,78.5 Z M 1034.5,87.5 C 1038.94,87.2101 1043.27,87.7101 1047.5,89C 1052.92,93.8071 1052.59,98.1404 1046.5,102C 1042.51,102.499 1038.51,102.666 1034.5,102.5C 1034.5,97.5 1034.5,92.5 1034.5,87.5 Z"/></g>
<g><path style="opacity:1" fill="#151515" d="M 1082.5,79.5 C 1086.36,91.0906 1090.03,102.757 1093.5,114.5C 1093.31,116.103 1093.81,117.437 1095,118.5C 1095.46,117.906 1095.63,117.239 1095.5,116.5C 1098.93,103.561 1102.93,90.8942 1107.5,78.5C 1111.97,77.9106 1115.97,78.5772 1119.5,80.5C 1114.21,97.378 1108.54,114.045 1102.5,130.5C 1097.07,130.782 1091.74,130.449 1086.5,129.5C 1080.44,112.975 1074.77,96.3086 1069.5,79.5C 1073.73,78.2057 1078.07,78.2057 1082.5,79.5 Z"/></g>
<g><path style="opacity:0.502" fill="#808080" d="M 1140.5,78.5 C 1140.17,78.5 1139.83,78.5 1139.5,78.5C 1136.17,78.5 1132.83,78.5 1129.5,78.5C 1129.5,95.8333 1129.5,113.167 1129.5,130.5C 1129.5,130.833 1129.5,131.167 1129.5,131.5C 1128.5,113.674 1128.17,95.6744 1128.5,77.5C 1132.7,77.1832 1136.7,77.5166 1140.5,78.5 Z"/></g>
<g><path style="opacity:1" fill="#000000" d="M 1139.5,78.5 C 1139.5,95.8333 1139.5,113.167 1139.5,130.5C 1136.17,130.5 1132.83,130.5 1129.5,130.5C 1129.5,113.167 1129.5,95.8333 1129.5,78.5C 1132.83,78.5 1136.17,78.5 1139.5,78.5 Z"/></g>
<g><path style="opacity:0.753" fill="#3f3f3f" d="M 1139.5,78.5 C 1139.83,78.5 1140.17,78.5 1140.5,78.5C 1140.5,96.1667 1140.5,113.833 1140.5,131.5C 1136.83,131.5 1133.17,131.5 1129.5,131.5C 1129.5,131.167 1129.5,130.833 1129.5,130.5C 1132.83,130.5 1136.17,130.5 1139.5,130.5C 1139.5,113.167 1139.5,95.8333 1139.5,78.5 Z"/></g>
<g><path style="opacity:1" fill="#0c0c0c" d="M 1243.5,99.5 C 1243.5,102.5 1243.5,105.5 1243.5,108.5C 1235.98,108.175 1228.65,108.508 1221.5,109.5C 1221.5,113.5 1221.5,117.5 1221.5,121.5C 1229.5,121.5 1237.5,121.5 1245.5,121.5C 1245.5,124.5 1245.5,127.5 1245.5,130.5C 1233.5,130.5 1221.5,130.5 1209.5,130.5C 1209.5,112.833 1209.5,95.1667 1209.5,77.5C 1221.5,77.5 1233.5,77.5 1245.5,77.5C 1245.5,80.8333 1245.5,84.1667 1245.5,87.5C 1237.5,87.5 1229.5,87.5 1221.5,87.5C 1221.5,91.5 1221.5,95.5 1221.5,99.5C 1228.83,99.5 1236.17,99.5 1243.5,99.5 Z"/></g>
<g><path style="opacity:1" fill="#141414" d="M 1335.5,78.5 C 1340.93,78.2175 1346.26,78.5509 1351.5,79.5C 1357.94,95.8065 1363.6,112.473 1368.5,129.5C 1364.7,130.483 1360.7,130.817 1356.5,130.5C 1355.1,127.118 1353.77,123.618 1352.5,120C 1346.5,119.333 1340.5,119.333 1334.5,120C 1333.07,123.473 1331.73,126.973 1330.5,130.5C 1326.03,131.089 1322.03,130.423 1318.5,128.5C 1323.77,111.68 1329.44,95.0131 1335.5,78.5 Z M 1342.5,93.5 C 1343.17,93.5 1343.83,93.5 1344.5,93.5C 1345.67,98.8302 1347.33,103.997 1349.5,109C 1345.5,109.667 1341.5,109.667 1337.5,109C 1339.67,103.997 1341.33,98.8302 1342.5,93.5 Z"/></g>
<g><path style="opacity:1" fill="#0a0a0a" d="M 1387.5,114.5 C 1391.09,121.119 1396.42,122.952 1403.5,120C 1405.44,118.568 1406.77,116.735 1407.5,114.5C 1408.5,102.678 1408.83,90.6783 1408.5,78.5C 1412.17,78.5 1415.83,78.5 1419.5,78.5C 1419.5,90.5 1419.5,102.5 1419.5,114.5C 1418.8,122.406 1414.8,127.906 1407.5,131C 1402.24,132.439 1396.9,132.772 1391.5,132C 1387.89,131.528 1384.89,130.028 1382.5,127.5C 1382.03,126.094 1381.03,125.427 1379.5,125.5C 1376.77,122.366 1375.44,118.699 1375.5,114.5C 1375.5,102.5 1375.5,90.5 1375.5,78.5C 1379.17,78.5 1382.83,78.5 1386.5,78.5C 1386.17,90.6783 1386.5,102.678 1387.5,114.5 Z"/></g>
<g><path style="opacity:0.251" fill="#b5b5b5" d="M 1387.5,114.5 C 1386.5,102.678 1386.17,90.6783 1386.5,78.5C 1382.83,78.5 1379.17,78.5 1375.5,78.5C 1375.5,90.5 1375.5,102.5 1375.5,114.5C 1374.5,102.345 1374.17,90.0113 1374.5,77.5C 1378.83,77.5 1383.17,77.5 1387.5,77.5C 1387.5,89.8333 1387.5,102.167 1387.5,114.5 Z"/></g>
<g><path style="opacity:0.251" fill="#bababa" d="M 1419.5,114.5 C 1419.5,102.5 1419.5,90.5 1419.5,78.5C 1415.83,78.5 1412.17,78.5 1408.5,78.5C 1408.83,90.6783 1408.5,102.678 1407.5,114.5C 1407.5,102.167 1407.5,89.8333 1407.5,77.5C 1411.83,77.5 1416.17,77.5 1420.5,77.5C 1420.83,90.0113 1420.5,102.345 1419.5,114.5 Z"/></g>
<g><path style="opacity:1" fill="#090909" d="M 1456.5,87.5 C 1455.5,101.657 1455.17,115.99 1455.5,130.5C 1452.17,130.5 1448.83,130.5 1445.5,130.5C 1445.83,115.99 1445.5,101.657 1444.5,87.5C 1439.17,87.5 1433.83,87.5 1428.5,87.5C 1428.5,84.1667 1428.5,80.8333 1428.5,77.5C 1443.17,77.5 1457.83,77.5 1472.5,77.5C 1472.5,80.8333 1472.5,84.1667 1472.5,87.5C 1467.17,87.5 1461.83,87.5 1456.5,87.5 Z"/></g>
<g><path style="opacity:1" fill="#080808" d="M 1481.5,78.5 C 1485.17,78.5 1488.83,78.5 1492.5,78.5C 1492.18,85.6866 1492.51,92.6866 1493.5,99.5C 1500.83,99.5 1508.17,99.5 1515.5,99.5C 1515.5,92.5 1515.5,85.5 1515.5,78.5C 1519.17,78.5 1522.83,78.5 1526.5,78.5C 1526.5,96.1667 1526.5,113.833 1526.5,131.5C 1522.83,131.5 1519.17,131.5 1515.5,131.5C 1515.5,124.167 1515.5,116.833 1515.5,109.5C 1508.17,109.5 1500.83,109.5 1493.5,109.5C 1493.5,116.833 1493.5,124.167 1493.5,131.5C 1489.5,131.5 1485.5,131.5 1481.5,131.5C 1481.5,113.833 1481.5,96.1667 1481.5,78.5 Z"/></g>
<g><path style="opacity:0.251" fill="#afafaf" d="M 1481.5,78.5 C 1485.3,77.5166 1489.3,77.1832 1493.5,77.5C 1493.5,84.8333 1493.5,92.1667 1493.5,99.5C 1492.51,92.6866 1492.18,85.6866 1492.5,78.5C 1488.83,78.5 1485.17,78.5 1481.5,78.5 Z"/></g>
<g><path style="opacity:0.502" fill="#808080" d="M 1515.5,78.5 C 1519.3,77.5166 1523.3,77.1832 1527.5,77.5C 1527.83,95.6744 1527.5,113.674 1526.5,131.5C 1526.5,113.833 1526.5,96.1667 1526.5,78.5C 1522.83,78.5 1519.17,78.5 1515.5,78.5 Z"/></g>
<g><path style="opacity:1" fill="#101010" d="M 1639.5,128.5 C 1635.97,130.423 1631.97,131.089 1627.5,130.5C 1625.93,128.365 1624.6,126.032 1623.5,123.5C 1623.71,121.821 1623.05,120.821 1621.5,120.5C 1620.31,117.948 1618.97,115.448 1617.5,113C 1615.19,112.503 1612.86,112.337 1610.5,112.5C 1610.5,118.833 1610.5,125.167 1610.5,131.5C 1606.5,131.5 1602.5,131.5 1598.5,131.5C 1598.5,113.5 1598.5,95.5 1598.5,77.5C 1607.51,77.3336 1616.51,77.5002 1625.5,78C 1637.21,82.2444 1641.37,90.411 1638,102.5C 1636.38,106.281 1633.88,109.281 1630.5,111.5C 1633.77,117.035 1636.77,122.702 1639.5,128.5 Z M 1610.5,87.5 C 1615.73,86.8346 1620.57,87.8346 1625,90.5C 1627.75,95.7055 1626.58,99.7055 1621.5,102.5C 1617.83,102.5 1614.17,102.5 1610.5,102.5C 1610.5,97.5 1610.5,92.5 1610.5,87.5 Z"/></g>
<g><path style="opacity:1" fill="#010101" d="M 1649.5,78.5 C 1653.17,78.5 1656.83,78.5 1660.5,78.5C 1660.5,96.1667 1660.5,113.833 1660.5,131.5C 1656.83,131.5 1653.17,131.5 1649.5,131.5C 1649.5,113.833 1649.5,96.1667 1649.5,78.5 Z"/></g>
<g><path style="opacity:0.502" fill="#808080" d="M 1649.5,78.5 C 1653.3,77.5166 1657.3,77.1832 1661.5,77.5C 1661.83,95.6744 1661.5,113.674 1660.5,131.5C 1660.5,113.833 1660.5,96.1667 1660.5,78.5C 1656.83,78.5 1653.17,78.5 1649.5,78.5 Z"/></g>
<g><path style="opacity:1" fill="#0e0e0e" d="M 1669.5,78.5 C 1684.17,78.5 1698.83,78.5 1713.5,78.5C 1713.5,81.5 1713.5,84.5 1713.5,87.5C 1708.17,87.5 1702.83,87.5 1697.5,87.5C 1697.5,102.167 1697.5,116.833 1697.5,131.5C 1693.5,131.5 1689.5,131.5 1685.5,131.5C 1685.5,116.833 1685.5,102.167 1685.5,87.5C 1680.17,87.5 1674.83,87.5 1669.5,87.5C 1669.5,84.5 1669.5,81.5 1669.5,78.5 Z"/></g>
<g><path style="opacity:1" fill="#161616" d="M 1757.5,79.5 C 1761.93,78.2057 1766.27,78.2057 1770.5,79.5C 1764.95,90.2727 1759.11,100.939 1753,111.5C 1752.5,118.158 1752.33,124.825 1752.5,131.5C 1748.5,131.5 1744.5,131.5 1740.5,131.5C 1740.67,125.158 1740.5,118.825 1740,112.5C 1733.63,100.919 1727.13,89.4189 1720.5,78C 1725.17,77.3333 1729.83,77.3333 1734.5,78C 1738.21,85.2461 1742.04,92.4128 1746,99.5C 1750.1,92.9231 1753.93,86.2564 1757.5,79.5 Z"/></g>
<g><path style="opacity:0.816" fill="#7c7c7c" d="M 959.5,81.5 C 960.906,81.9731 961.573,82.9731 961.5,84.5C 960.094,84.0269 959.427,83.0269 959.5,81.5 Z"/></g>
<g><path style="opacity:0.753" fill="#3f3f3f" d="M 1444.5,87.5 C 1445.5,101.657 1445.83,115.99 1445.5,130.5C 1448.83,130.5 1452.17,130.5 1455.5,130.5C 1455.17,115.99 1455.5,101.657 1456.5,87.5C 1456.5,102.167 1456.5,116.833 1456.5,131.5C 1452.5,131.5 1448.5,131.5 1444.5,131.5C 1444.5,116.833 1444.5,102.167 1444.5,87.5 Z"/></g>
<g><path style="opacity:0.502" fill="#8b8b8b" d="M 1610.5,87.5 C 1610.5,92.5 1610.5,97.5 1610.5,102.5C 1614.17,102.5 1617.83,102.5 1621.5,102.5C 1617.7,103.483 1613.7,103.817 1609.5,103.5C 1609.18,97.9738 1609.51,92.6405 1610.5,87.5 Z"/></g>
<g><path style="opacity:0.565" fill="#7e7e7e" d="M 509.5,87.5 C 510.906,87.9731 511.573,88.9731 511.5,90.5C 510.094,90.0269 509.427,89.0269 509.5,87.5 Z"/></g>
<g><path style="opacity:0.565" fill="#7e7e7e" d="M 270.5,89.5 C 271.906,89.9731 272.573,90.9731 272.5,92.5C 271.094,92.0269 270.427,91.0269 270.5,89.5 Z"/></g>
<g><path style="opacity:0.188" fill="#b1b1b1" d="M 572.5,92.5 C 571.833,92.8333 571.167,93.1667 570.5,93.5C 571.032,90.5404 571.699,90.2071 572.5,92.5 Z"/></g>
<g><path style="opacity:0.376" fill="#9d9d9d" d="M 1344.5,93.5 C 1343.83,93.5 1343.17,93.5 1342.5,93.5C 1343.17,89.5 1343.83,89.5 1344.5,93.5 Z"/></g>
<g><path style="opacity:0.314" fill="#a3a3a3" d="M 332.5,93.5 C 331.833,93.1667 331.167,92.8333 330.5,92.5C 331.301,90.2071 331.968,90.5404 332.5,93.5 Z"/></g>
<g><path style="opacity:0.753" fill="#4a4a4a" d="M 799.5,91.5 C 800.434,92.5676 800.768,93.901 800.5,95.5C 796.298,95.8168 792.298,95.4834 788.5,94.5C 792.167,94.5 795.833,94.5 799.5,94.5C 799.5,93.5 799.5,92.5 799.5,91.5 Z"/></g>
<g><path style="opacity:0.251" fill="#b8b8b8" d="M 1198.5,93.5 C 1199.43,94.5676 1199.77,95.901 1199.5,97.5C 1195.3,97.8168 1191.3,97.4834 1187.5,96.5C 1191.17,96.5 1194.83,96.5 1198.5,96.5C 1198.5,95.5 1198.5,94.5 1198.5,93.5 Z"/></g>
<g><path style="opacity:0.251" fill="#c0c0c0" d="M 265.5,100.5 C 264.833,110.833 264.167,121.167 263.5,131.5C 263.333,120.495 263.5,109.495 264,98.5C 264.717,99.0442 265.217,99.7109 265.5,100.5 Z"/></g>
<g><path style="opacity:0.565" fill="#808080" d="M 520.5,103.5 C 521.906,103.973 522.573,104.973 522.5,106.5C 521.094,106.027 520.427,105.027 520.5,103.5 Z"/></g>
<g><path style="opacity:0.565" fill="#7e7e7e" d="M 281.5,105.5 C 282.906,105.973 283.573,106.973 283.5,108.5C 282.094,108.027 281.427,107.027 281.5,105.5 Z"/></g>
<g><path style="opacity:0.753" fill="#5b5b5b" d="M 741.5,99.5 C 742.479,102.625 742.813,105.958 742.5,109.5C 734.833,109.5 727.167,109.5 719.5,109.5C 726.648,108.508 733.981,108.175 741.5,108.5C 741.5,105.5 741.5,102.5 741.5,99.5 Z"/></g>
<g><path style="opacity:0.753" fill="#5b5b5b" d="M 1009.5,99.5 C 1010.48,102.625 1010.81,105.958 1010.5,109.5C 1002.83,109.5 995.167,109.5 987.5,109.5C 994.648,108.508 1001.98,108.175 1009.5,108.5C 1009.5,105.5 1009.5,102.5 1009.5,99.5 Z"/></g>
<g><path style="opacity:0.753" fill="#5b5b5b" d="M 1243.5,99.5 C 1244.48,102.625 1244.81,105.958 1244.5,109.5C 1236.83,109.5 1229.17,109.5 1221.5,109.5C 1228.65,108.508 1235.98,108.175 1243.5,108.5C 1243.5,105.5 1243.5,102.5 1243.5,99.5 Z"/></g>
<g><path style="opacity:0.251" fill="#b2b2b2" d="M 336.5,106.5 C 337.434,107.568 337.768,108.901 337.5,110.5C 333.116,110.826 328.783,110.492 324.5,109.5C 324.624,108.893 324.957,108.56 325.5,108.5C 328.962,109.482 332.629,109.815 336.5,109.5C 336.5,108.5 336.5,107.5 336.5,106.5 Z"/></g>
<g><path style="opacity:0.251" fill="#b3b3b3" d="M 577.5,108.5 C 578.043,108.56 578.376,108.893 578.5,109.5C 574.016,110.811 569.683,110.811 565.5,109.5C 569.702,109.817 573.702,109.483 577.5,108.5 Z"/></g>
<g><path style="opacity:0.251" fill="#b8b8b8" d="M 826.5,107.5 C 827.871,108.787 829.705,109.453 832,109.5C 834.033,109.494 835.866,109.161 837.5,108.5C 838.043,108.56 838.376,108.893 838.5,109.5C 834.217,110.492 829.884,110.826 825.5,110.5C 825.263,109.209 825.596,108.209 826.5,107.5 Z"/></g>
<g><path style="opacity:0.502" fill="#838383" d="M 1187.5,113.5 C 1191.3,112.517 1195.3,112.183 1199.5,112.5C 1199.77,114.099 1199.43,115.432 1198.5,116.5C 1198.5,115.5 1198.5,114.5 1198.5,113.5C 1194.83,113.5 1191.17,113.5 1187.5,113.5 Z"/></g>
<g><path style="opacity:0.251" fill="#b6b6b6" d="M 922.5,114.5 C 926.298,113.517 930.298,113.183 934.5,113.5C 934.5,114.5 934.5,115.5 934.5,116.5C 930.827,114.682 926.827,114.016 922.5,114.5 Z"/></g>
<g><path style="opacity:0.251" fill="#c2c2c2" d="M 1265.5,114.5 C 1261.83,114.5 1258.17,114.5 1254.5,114.5C 1254.5,115.5 1254.5,116.5 1254.5,117.5C 1253.57,116.432 1253.23,115.099 1253.5,113.5C 1257.7,113.183 1261.7,113.517 1265.5,114.5 Z"/></g>
<g><path style="opacity:0.314" fill="#919191" d="M 1093.5,114.5 C 1094.17,115.167 1094.83,115.833 1095.5,116.5C 1095.63,117.239 1095.46,117.906 1095,118.5C 1093.81,117.437 1093.31,116.103 1093.5,114.5 Z"/></g>
<g><path style="opacity:0.816" fill="#7a7a7a" d="M 1573.5,115.5 C 1573.57,117.027 1572.91,118.027 1571.5,118.5C 1571.43,116.973 1572.09,115.973 1573.5,115.5 Z"/></g>
<g><path style="opacity:0.753" fill="#454545" d="M 340.5,119.5 C 334.077,119.209 327.744,119.542 321.5,120.5C 324.258,119.182 327.424,118.515 331,118.5C 334.352,118.502 337.518,118.835 340.5,119.5 Z"/></g>
<g><path style="opacity:0.753" fill="#444444" d="M 562.5,119.5 C 565.482,118.835 568.648,118.502 572,118.5C 575.576,118.515 578.742,119.182 581.5,120.5C 575.256,119.542 568.923,119.209 562.5,119.5 Z"/></g>
<g><path style="opacity:0.941" fill="#777777" d="M 1621.5,120.5 C 1623.05,120.821 1623.71,121.821 1623.5,123.5C 1622.6,122.71 1621.93,121.71 1621.5,120.5 Z"/></g>
<g><path style="opacity:0.816" fill="#7c7c7c" d="M 758.5,124.5 C 760.027,124.427 761.027,125.094 761.5,126.5C 759.973,126.573 758.973,125.906 758.5,124.5 Z"/></g>
<g><path style="opacity:0.816" fill="#7c7c7c" d="M 1379.5,125.5 C 1381.03,125.427 1382.03,126.094 1382.5,127.5C 1380.97,127.573 1379.97,126.906 1379.5,125.5 Z"/></g>
<g><path style="opacity:0.565" fill="#848484" d="M 1159.5,126.5 C 1161.03,126.427 1162.03,127.094 1162.5,128.5C 1160.97,128.573 1159.97,127.906 1159.5,126.5 Z"/></g>
<g><path style="opacity:0.753" fill="#4c4c4c" d="M 306.5,128.5 C 310.029,130.423 314.029,131.089 318.5,130.5C 314.366,131.485 310.032,131.818 305.5,131.5C 305.263,130.209 305.596,129.209 306.5,128.5 Z"/></g>
<g><path style="opacity:0.753" fill="#4e4e4e" d="M 356.5,129.5 C 357.043,129.56 357.376,129.893 357.5,130.5C 353.016,131.811 348.683,131.811 344.5,130.5C 348.702,130.817 352.702,130.483 356.5,129.5 Z"/></g>
<g><path style="opacity:0.753" fill="#4d4d4d" d="M 546.5,129.5 C 550.298,130.483 554.298,130.817 558.5,130.5C 554.317,131.811 549.984,131.811 545.5,130.5C 545.624,129.893 545.957,129.56 546.5,129.5 Z"/></g>
<g><path style="opacity:0.753" fill="#525252" d="M 596.5,128.5 C 597.404,129.209 597.737,130.209 597.5,131.5C 592.968,131.818 588.634,131.485 584.5,130.5C 588.971,131.089 592.971,130.423 596.5,128.5 Z"/></g>
<g><path style="opacity:0.753" fill="#545454" d="M 743.5,121.5 C 744.479,124.625 744.813,127.958 744.5,131.5C 731.989,131.829 719.655,131.495 707.5,130.5C 719.5,130.5 731.5,130.5 743.5,130.5C 743.5,127.5 743.5,124.5 743.5,121.5 Z"/></g>
<g><path style="opacity:0.753" fill="#545454" d="M 819.5,128.5 C 819.5,129.5 819.5,130.5 819.5,131.5C 814.393,131.834 810.06,131.501 806.5,130.5C 811.153,131.001 815.486,130.334 819.5,128.5 Z"/></g>
<g><path style="opacity:0.753" fill="#555555" d="M 856.5,127.5 C 857.434,128.568 857.768,129.901 857.5,131.5C 852.706,132.097 848.373,131.43 844.5,129.5C 848.4,130.43 852.4,130.763 856.5,130.5C 856.5,129.5 856.5,128.5 856.5,127.5 Z"/></g>
<g><path style="opacity:0.753" fill="#404040" d="M 877.5,121.5 C 885.167,121.5 892.833,121.5 900.5,121.5C 900.5,124.833 900.5,128.167 900.5,131.5C 889.167,131.5 877.833,131.5 866.5,131.5C 866.5,131.167 866.5,130.833 866.5,130.5C 877.5,130.5 888.5,130.5 899.5,130.5C 899.5,127.833 899.5,125.167 899.5,122.5C 891.981,122.825 884.648,122.492 877.5,121.5 Z"/></g>
<g><path style="opacity:0.753" fill="#535353" d="M 1064.5,129.5 C 1065.04,129.56 1065.38,129.893 1065.5,130.5C 1060.68,131.812 1056.02,131.812 1051.5,130.5C 1056.03,130.818 1060.37,130.485 1064.5,129.5 Z"/></g>
<g><path style="opacity:0.753" fill="#4b4b4b" d="M 1086.5,129.5 C 1091.74,130.449 1097.07,130.782 1102.5,130.5C 1100.02,131.164 1097.36,131.497 1094.5,131.5C 1091.41,131.478 1088.74,130.812 1086.5,129.5 Z"/></g>
<g><path style="opacity:0.753" fill="#545454" d="M 1245.5,121.5 C 1246.48,124.625 1246.81,127.958 1246.5,131.5C 1233.99,131.829 1221.66,131.495 1209.5,130.5C 1221.5,130.5 1233.5,130.5 1245.5,130.5C 1245.5,127.5 1245.5,124.5 1245.5,121.5 Z"/></g>
<g><path style="opacity:0.753" fill="#535353" d="M 1318.5,128.5 C 1322.03,130.423 1326.03,131.089 1330.5,130.5C 1326.37,131.485 1322.03,131.818 1317.5,131.5C 1317.26,130.209 1317.6,129.209 1318.5,128.5 Z"/></g>
<g><path style="opacity:0.753" fill="#4c4c4c" d="M 1368.5,129.5 C 1369.04,129.56 1369.38,129.893 1369.5,130.5C 1365.02,131.811 1360.68,131.811 1356.5,130.5C 1360.7,130.817 1364.7,130.483 1368.5,129.5 Z"/></g>
<g><path style="opacity:0.753" fill="#4b4b4b" d="M 1639.5,128.5 C 1640.4,129.209 1640.74,130.209 1640.5,131.5C 1635.97,131.818 1631.63,131.485 1627.5,130.5C 1631.97,131.089 1635.97,130.423 1639.5,128.5 Z"/></g>
</svg>
