<?xml version="1.0" encoding="UTF-8"?>
<svg xmlns="http://www.w3.org/2000/svg" id="Layer_1" viewBox="0 0 1093.12 200">
  <defs>
    <style>
      .cls-1 {
        fill: #bf894a;
      }
    </style>
  </defs>
  <g id="Layer_1-2" data-name="Layer_1">
    <g>
      <path class="cls-1" d="M100,0C44.86,0,0,44.86,0,100s44.86,100,100,100,100-44.86,100-100S155.14,0,100,0ZM109.72,8.61c46.3,4.91,82.26,44.63,82.26,91.39,0,12.46-2.53,24.62-7.52,36.19-6.77-25.12-24.79-46.28-48.61-56.99.26-2.83.39-5.44.39-7.98,0-23.51-9.64-46.2-26.52-62.61h0ZM100,191.98c-28.57,0-55.75-13.58-73.15-36.43,7.39,1.98,14.81,2.98,22.09,2.98,17.81,0,34.97-5.4,49.66-15.61,14.7,10.21,31.86,15.61,49.67,15.61,8.54,0,17.18-1.35,25.71-4.03-17.36,23.51-44.85,37.48-73.98,37.48h0ZM61.47,80.71c-22.76,11.32-39.28,31.66-45.65,56.09-5.17-11.74-7.8-24.11-7.8-36.8C8.02,54.06,41.86,15.33,87.12,8.97c-16.66,16.38-26.17,38.93-26.17,62.25,0,3.14.17,6.33.51,9.49h.01ZM100.2,79.54c9.08,0,18.13,1.62,26.91,4.8-3.2,19.1-13.31,36.31-28.51,48.56-14.9-12.02-24.94-28.83-28.34-47.48,9.54-3.91,19.61-5.89,29.94-5.89h0ZM128.05,76.18c-19.37-6.56-39.91-6.11-58.81,1.1-.18-2.2-.26-4.19-.26-6.06,0-24.06,10.79-46.51,29.63-61.7,18.84,15.19,29.63,37.64,29.63,61.7,0,1.53-.06,3.13-.18,4.96h-.01ZM62.81,88.99c3.94,18.96,14.22,36.23,29.07,48.82-12.84,8.3-27.66,12.69-42.94,12.69-9.05,0-18.08-1.61-26.84-4.78,4.03-24.06,19.18-45.16,40.71-56.73ZM134.7,87.55c22.76,11.06,38.92,32.3,43.43,57.1-9.52,3.89-19.56,5.86-29.87,5.86-15.28,0-30.1-4.38-42.94-12.69,15.27-12.95,25.66-30.73,29.38-50.27h0Z"/>
      <g>
        <path d="M281.78,105.77c2.88-1.35,5.08-3.29,6.6-5.82s2.28-5.57,2.28-9.09-.75-6.57-2.24-9.17c-1.5-2.6-3.67-4.62-6.51-6.04s-6.27-2.14-10.29-2.14h-20.96v53.14h11.23v-18.84h8.2l10.07,18.84h12.4l-11.28-20.66c.16-.07.35-.12.51-.2v-.02ZM261.9,82.68h7.58c2.16,0,3.96.32,5.38.95,1.43.63,2.49,1.55,3.19,2.76s1.05,2.7,1.05,4.46-.35,3.21-1.05,4.39-1.76,2.06-3.18,2.65-3.2.88-5.35.88h-7.63v-16.09h.01Z"/>
        <path d="M317.43,68.05c1.5,0,2.78-.52,3.83-1.57,1.04-1.05,1.57-2.29,1.57-3.73s-.52-2.71-1.57-3.73c-1.05-1.02-2.32-1.53-3.83-1.53s-2.77.51-3.84,1.53-1.61,2.27-1.61,3.73.54,2.68,1.61,3.73c1.07,1.05,2.35,1.57,3.84,1.57Z"/>
        <path d="M318.1,73.5l-18.34,53.14h12.04l3.94-12.12h19.18l3.93,12.12h12.04l-18.32-53.14h-14.48.01ZM318.59,105.75l6.54-20.11h.41l6.53,20.11h-13.49,0Z"/>
        <path d="M333.31,68.05c1.51,0,2.78-.52,3.83-1.57s1.57-2.29,1.57-3.73-.52-2.71-1.57-3.73-2.32-1.53-3.83-1.53-2.77.51-3.84,1.53-1.61,2.27-1.61,3.73.54,2.68,1.61,3.73c1.07,1.05,2.35,1.57,3.84,1.57Z"/>
        <polygon points="351.11 82.76 367.37 82.76 367.37 126.63 378.48 126.63 378.48 82.76 394.75 82.76 394.75 73.5 351.11 73.5 351.11 82.76"/>
        <polygon points="400.58 82.76 416.85 82.76 416.85 126.63 427.95 126.63 427.95 82.76 444.22 82.76 444.22 73.5 400.58 73.5 400.58 82.76"/>
        <path d="M488.88,101.1c-1.42-1.26-3.1-2.32-5.03-3.19s-4.07-1.56-6.38-2.08l-4.77-1.14c-1.16-.26-2.25-.58-3.27-.95s-1.92-.81-2.7-1.32c-.78-.51-1.39-1.12-1.83-1.83s-.64-1.54-.61-2.49c0-1.14.33-2.16,1-3.06s1.63-1.6,2.89-2.11,2.81-.77,4.65-.77c2.7,0,4.83.58,6.41,1.74s2.46,2.79,2.67,4.88h10.77c-.05-3.17-.9-5.95-2.54-8.35-1.64-2.41-3.94-4.28-6.89-5.63s-6.4-2.02-10.34-2.02-7.33.67-10.38,2.02-5.43,3.23-7.17,5.63c-1.74,2.41-2.6,5.21-2.58,8.43-.02,3.93,1.27,7.05,3.87,9.37,2.6,2.32,6.13,4.02,10.61,5.11l5.79,1.45c1.94.47,3.58.98,4.92,1.55s2.36,1.26,3.06,2.08c.7.81,1.05,1.82,1.05,3.01,0,1.28-.39,2.41-1.17,3.4-.78.99-1.87,1.76-3.28,2.31s-3.07.83-4.97.83-3.67-.3-5.2-.89-2.75-1.49-3.66-2.67-1.42-2.67-1.54-4.45h-10.87c.09,3.82,1.02,7.03,2.79,9.61s4.25,4.54,7.42,5.85,6.91,1.97,11.2,1.97,8.02-.65,11.09-1.96c3.07-1.31,5.42-3.15,7.06-5.53s2.46-5.19,2.48-8.44c-.02-2.21-.42-4.18-1.21-5.89-.79-1.71-1.89-3.2-3.31-4.46h-.03Z"/>
        <polygon points="544.54 73.5 500.9 73.5 500.9 82.76 517.17 82.76 517.17 126.63 528.27 126.63 528.27 82.76 544.54 82.76 544.54 73.5"/>
        <path d="M565.15,110.55c0,1.69-.25,3.12-.75,4.28s-1.23,2.04-2.19,2.63c-.96.6-2.13.89-3.52.89s-2.45-.26-3.41-.79c-.96-.53-1.71-1.29-2.26-2.28-.55-1-.84-2.19-.87-3.59h-11.18c-.02,3.53.73,6.46,2.26,8.78,1.52,2.33,3.58,4.06,6.19,5.19,2.6,1.13,5.51,1.7,8.7,1.7,3.6,0,6.75-.68,9.47-2.05,2.72-1.37,4.84-3.31,6.37-5.84,1.53-2.52,2.3-5.5,2.3-8.92v-37.05h-11.1v37.05h-.01Z"/>
        <path d="M616.58,68.05c1.51,0,2.78-.52,3.83-1.57s1.57-2.29,1.57-3.73-.52-2.71-1.57-3.73-3.02-1.53-4.53-1.53-2.07.51-3.14,1.53-1.61,2.27-1.61,3.73.54,2.68,1.61,3.73,2.35,1.57,3.84,1.57Z"/>
        <path d="M600.7,68.05c1.5,0,2.78-.52,3.83-1.57,1.04-1.05,1.57-2.29,1.57-3.73s-.52-2.71-1.57-3.73c-1.05-1.02-3.02-1.53-4.53-1.53s-2.07.51-3.14,1.53-1.61,2.27-1.61,3.73.54,2.68,1.61,3.73,2.35,1.57,3.84,1.57Z"/>
        <path d="M601.37,73.5l-18.34,53.14h12.04l3.94-12.12h19.18l3.93,12.12h12.04l-18.32-53.14h-14.48.01ZM601.86,105.75l6.54-20.11h.41l6.53,20.11h-13.49.01Z"/>
        <polygon points="676.18 106.91 675.71 106.91 652.78 73.5 642.92 73.5 642.92 126.63 654.15 126.63 654.15 93.19 654.54 93.19 677.66 126.63 687.36 126.63 687.36 73.5 676.18 73.5 676.18 106.91"/>
        <path d="M735.26,101.1c-1.42-1.26-3.1-2.32-5.03-3.19s-4.07-1.56-6.38-2.08l-4.77-1.14c-1.16-.26-2.25-.58-3.27-.95s-1.92-.81-2.7-1.32c-.78-.51-1.39-1.12-1.83-1.83s-.64-1.54-.61-2.49c0-1.14.33-2.16,1-3.06s1.63-1.6,2.89-2.11,2.81-.77,4.65-.77c2.7,0,4.83.58,6.41,1.74s2.46,2.79,2.67,4.88h10.77c-.05-3.17-.9-5.95-2.54-8.35-1.64-2.41-3.94-4.28-6.89-5.63s-6.4-2.02-10.34-2.02-7.33.67-10.38,2.02-5.43,3.23-7.17,5.63c-1.74,2.41-2.6,5.21-2.58,8.43-.02,3.93,1.27,7.05,3.87,9.37,2.6,2.32,6.13,4.02,10.61,5.11l5.79,1.45c1.94.47,3.58.98,4.92,1.55s2.36,1.26,3.06,2.08c.7.81,1.05,1.82,1.05,3.01,0,1.28-.39,2.41-1.17,3.4-.78.99-1.87,1.76-3.28,2.31s-3.07.83-4.97.83-3.67-.3-5.2-.89-2.75-1.49-3.66-2.67-1.42-2.67-1.54-4.45h-10.87c.09,3.82,1.02,7.03,2.79,9.61s4.25,4.54,7.42,5.85,6.91,1.97,11.2,1.97,8.02-.65,11.09-1.96c3.07-1.31,5.42-3.15,7.06-5.53s2.46-5.19,2.48-8.44c-.02-2.21-.42-4.18-1.21-5.89-.79-1.71-1.89-3.2-3.31-4.46h-.03Z"/>
        <polygon points="744.23 82.76 760.5 82.76 760.5 126.63 771.61 126.63 771.61 82.76 787.88 82.76 787.88 73.5 744.23 73.5 744.23 82.76"/>
        <polygon points="818.41 113.87 817.92 113.87 805.08 73.5 792.6 73.5 810.94 126.63 825.42 126.63 843.74 73.5 831.28 73.5 818.41 113.87"/>
        <polygon points="864.14 104.68 886.86 104.68 886.86 95.42 864.14 95.42 864.14 82.76 888.71 82.76 888.71 73.5 852.9 73.5 852.9 126.63 888.81 126.63 888.81 117.37 864.14 117.37 864.14 104.68"/>
        <path d="M931.58,105.77c2.88-1.35,5.08-3.29,6.6-5.82s2.28-5.57,2.28-9.09-.75-6.57-2.24-9.17c-1.5-2.6-3.67-4.62-6.51-6.04s-6.27-2.14-10.29-2.14h-20.96v53.14h11.23v-18.84h8.2l10.07,18.84h12.4l-11.28-20.66c.16-.07.35-.12.51-.2v-.02ZM911.69,82.68h7.58c2.16,0,3.96.32,5.38.95,1.43.63,2.49,1.55,3.19,2.76s1.05,2.7,1.05,4.46-.35,3.21-1.05,4.39-1.76,2.06-3.18,2.65-3.2.88-5.35.88h-7.63v-16.09h0Z"/>
        <polygon points="996.02 73.5 982.55 73.5 963.43 96.92 962.73 96.92 962.73 73.5 951.49 73.5 951.49 126.63 962.73 126.63 962.73 111.53 968.26 104.79 982.81 126.63 996.25 126.63 976.3 97.29 996.02 73.5"/>
        <polygon points="1015.86 104.68 1038.59 104.68 1038.59 95.42 1015.86 95.42 1015.86 82.76 1040.43 82.76 1040.43 73.5 1004.63 73.5 1004.63 126.63 1040.53 126.63 1040.53 117.37 1015.86 117.37 1015.86 104.68"/>
        <polygon points="1049.48 73.5 1049.48 82.76 1065.74 82.76 1065.74 126.63 1076.85 126.63 1076.85 82.76 1093.12 82.76 1093.12 73.5 1049.48 73.5"/>
      </g>
    </g>
  </g>
</svg>