<?xml version="1.0" encoding="UTF-8"?>
<svg xmlns="http://www.w3.org/2000/svg" id="Layer_1" viewBox="0 0 1215.99 200">
  <defs>
    <style>
      .cls-1 {
        fill: #fff;
      }
    </style>
  </defs>
  <g id="Layer_1-2" data-name="Layer_1">
    <g>
      <path class="cls-1" d="M100,0C44.86,0,0,44.86,0,100s44.86,100,100,100,100-44.86,100-100S155.14,0,100,0h0ZM109.72,8.61c46.3,4.91,82.26,44.63,82.26,91.39,0,12.46-2.53,24.63-7.52,36.19-6.77-25.12-24.79-46.28-48.61-56.99.26-2.83.39-5.44.39-7.98,0-23.51-9.64-46.2-26.52-62.61ZM100,191.98c-28.57,0-55.75-13.58-73.15-36.43,7.4,1.98,14.82,2.98,22.09,2.98,17.81,0,34.97-5.4,49.66-15.61,14.7,10.22,31.86,15.61,49.67,15.61,8.55,0,17.19-1.35,25.71-4.03-17.37,23.51-44.85,37.48-73.98,37.48h0ZM61.46,80.71c-22.76,11.33-39.28,31.66-45.65,56.09-5.17-11.75-7.8-24.12-7.8-36.8C8.01,54.06,41.85,15.33,87.11,8.97c-16.65,16.38-26.17,38.93-26.17,62.25,0,3.14.17,6.32.51,9.49h.01ZM100.2,79.55c9.08,0,18.13,1.61,26.91,4.8-3.2,19.1-13.31,36.31-28.51,48.56-14.9-12.02-24.94-28.83-28.34-47.48,9.54-3.91,19.61-5.89,29.94-5.89h0ZM128.05,76.18c-19.36-6.56-39.91-6.11-58.81,1.1-.18-2.2-.26-4.19-.26-6.06,0-24.06,10.79-46.51,29.63-61.7,18.84,15.19,29.63,37.64,29.63,61.7,0,1.53-.06,3.13-.18,4.96h-.01ZM62.8,89c3.94,18.97,14.22,36.23,29.07,48.82-12.84,8.3-27.66,12.69-42.94,12.69-9.05,0-18.08-1.61-26.84-4.78,4.03-24.06,19.18-45.16,40.71-56.74h0ZM134.7,87.55c22.76,11.06,38.92,32.3,43.43,57.09-9.52,3.89-19.57,5.86-29.87,5.86-15.28,0-30.1-4.39-42.94-12.69,15.27-12.95,25.66-30.73,29.38-50.27h0Z"/>
      <g>
        <path class="cls-1" d="M283.69,75.97c-3.76-2.13-7.99-3.2-12.68-3.2s-8.96,1.07-12.71,3.2c-3.75,2.14-6.72,5.24-8.9,9.3s-3.27,8.99-3.27,14.79,1.09,10.7,3.27,14.76,5.15,7.17,8.9,9.31c3.75,2.15,7.99,3.22,12.71,3.22s8.91-1.07,12.68-3.2c3.76-2.14,6.74-5.24,8.92-9.3s3.28-9,3.28-14.79-1.09-10.72-3.28-14.79-5.16-7.16-8.92-9.3ZM282.84,109.56c-1.12,2.58-2.69,4.53-4.71,5.87s-4.39,2-7.11,2-5.09-.67-7.11-2-3.59-3.29-4.71-5.87c-1.12-2.57-1.67-5.74-1.67-9.5s.56-6.92,1.67-9.5c1.11-2.58,2.68-4.53,4.71-5.86,2.02-1.33,4.39-2,7.11-2s5.09.67,7.11,2,3.59,3.29,4.71,5.86,1.67,5.74,1.67,9.5-.56,6.92-1.67,9.5Z"/>
        <rect class="cls-1" x="306.88" y="73.5" width="11.23" height="53.14"/>
        <polygon class="cls-1" points="375.29 73.5 361.82 73.5 342.7 96.92 342 96.92 342 73.5 330.77 73.5 330.77 126.63 342 126.63 342 111.53 347.53 104.79 362.08 126.63 375.52 126.63 355.57 97.29 375.29 73.5"/>
        <polygon class="cls-1" points="395.13 104.68 417.86 104.68 417.86 95.42 395.13 95.42 395.13 82.76 419.7 82.76 419.7 73.5 383.9 73.5 383.9 126.63 419.81 126.63 419.81 117.37 395.13 117.37 395.13 104.68"/>
        <path class="cls-1" d="M463.47,107.04c0,2.02-.45,3.82-1.34,5.4-.89,1.58-2.14,2.81-3.76,3.71-1.62.9-3.52,1.35-5.69,1.35s-4.06-.45-5.68-1.35c-1.63-.9-2.88-2.13-3.77-3.71-.89-1.57-1.34-3.37-1.34-5.4v-33.55h-11.23v34.51c0,3.87.92,7.26,2.75,10.17,1.83,2.9,4.4,5.17,7.71,6.78s7.16,2.43,11.57,2.43,8.24-.81,11.55-2.43,5.88-3.88,7.72-6.78c1.84-2.91,2.76-6.3,2.76-10.17v-34.51h-11.23v33.55h-.02Z"/>
        <path class="cls-1" d="M522.12,101.1c-1.42-1.26-3.1-2.32-5.03-3.19s-4.07-1.56-6.38-2.08l-4.77-1.14c-1.16-.26-2.25-.58-3.27-.95s-1.92-.81-2.7-1.32c-.78-.51-1.39-1.12-1.83-1.83s-.64-1.54-.61-2.49c0-1.14.33-2.16,1-3.06s1.63-1.6,2.89-2.11,2.81-.77,4.65-.77c2.7,0,4.83.58,6.41,1.74s2.46,2.79,2.67,4.88h10.77c-.05-3.17-.9-5.95-2.54-8.35-1.64-2.41-3.94-4.28-6.89-5.63s-6.4-2.02-10.34-2.02-7.33.67-10.38,2.02-5.43,3.23-7.17,5.63c-1.74,2.41-2.6,5.21-2.58,8.43-.02,3.93,1.27,7.05,3.87,9.37,2.6,2.32,6.13,4.02,10.61,5.11l5.79,1.45c1.94.47,3.58.98,4.92,1.55s2.36,1.26,3.06,2.08c.7.81,1.05,1.82,1.05,3.01,0,1.28-.39,2.41-1.17,3.4-.78.99-1.87,1.76-3.28,2.31s-3.07.83-4.97.83-3.67-.3-5.2-.89-2.75-1.49-3.66-2.67-1.42-2.67-1.54-4.45h-10.87c.09,3.82,1.02,7.03,2.79,9.61s4.25,4.54,7.42,5.85,6.91,1.97,11.2,1.97,8.02-.65,11.09-1.96c3.07-1.31,5.42-3.15,7.06-5.53s2.46-5.19,2.48-8.44c-.02-2.21-.42-4.18-1.21-5.89-.79-1.71-1.89-3.2-3.31-4.46h-.03Z"/>
        <path class="cls-1" d="M568.55,75.79c-2.84-1.53-6.27-2.3-10.3-2.3h-20.96v53.14h11.23v-17.23h9.44c4.08,0,7.56-.75,10.44-2.26,2.88-1.5,5.08-3.61,6.6-6.31s2.28-5.81,2.28-9.34-.75-6.64-2.24-9.35c-1.5-2.71-3.66-4.83-6.5-6.36h.01ZM564.67,96.13c-.7,1.34-1.76,2.39-3.16,3.14-1.41.75-3.2,1.13-5.36,1.13h-7.63v-17.72h7.58c2.18,0,3.98.37,5.4,1.1s2.48,1.76,3.18,3.09,1.05,2.87,1.05,4.63-.35,3.29-1.05,4.63h-.01Z"/>
        <path class="cls-1" d="M598.17,73.5l-18.34,53.14h12.04l3.94-12.12h19.18l3.93,12.12h12.04l-18.32-53.14h-14.48.01ZM598.66,105.75l6.54-20.11h.41l6.53,20.11h-13.49.01Z"/>
        <polygon class="cls-1" points="650.95 73.5 639.71 73.5 639.71 126.63 673.73 126.63 673.73 117.37 650.95 117.37 650.95 73.5"/>
        <polygon class="cls-1" points="699.86 113.87 699.37 113.87 686.53 73.5 674.05 73.5 692.39 126.63 706.87 126.63 725.19 73.5 712.73 73.5 699.86 113.87"/>
        <polygon class="cls-1" points="745.17 104.68 767.9 104.68 767.9 95.42 745.17 95.42 745.17 82.76 769.74 82.76 769.74 73.5 733.94 73.5 733.94 126.63 769.85 126.63 769.85 117.37 745.17 117.37 745.17 104.68"/>
        <polygon class="cls-1" points="792.73 73.5 781.49 73.5 781.49 126.63 815.51 126.63 815.51 117.37 792.73 117.37 792.73 73.5"/>
        <path class="cls-1" d="M856.71,107.04c0,2.02-.45,3.82-1.34,5.4-.89,1.58-2.14,2.81-3.76,3.71-1.62.9-3.52,1.35-5.69,1.35s-4.06-.45-5.68-1.35c-1.63-.9-2.88-2.13-3.77-3.71-.89-1.57-1.34-3.37-1.34-5.4v-33.55h-11.23v34.51c0,3.87.92,7.26,2.75,10.17,1.83,2.9,4.4,5.17,7.71,6.78s7.16,2.43,11.57,2.43,8.24-.81,11.55-2.43,5.88-3.88,7.72-6.78c1.84-2.91,2.76-6.3,2.76-10.17v-34.51h-11.23v33.55h-.02Z"/>
        <polygon class="cls-1" points="902.54 113.87 902.05 113.87 889.21 73.5 876.72 73.5 895.07 126.63 909.55 126.63 927.86 73.5 915.41 73.5 902.54 113.87"/>
        <rect class="cls-1" x="936.62" y="73.5" width="11.23" height="53.14"/>
        <path class="cls-1" d="M991.62,105.77c2.88-1.35,5.08-3.29,6.6-5.82s2.28-5.57,2.28-9.09-.75-6.57-2.24-9.17c-1.5-2.6-3.67-4.62-6.51-6.04s-6.27-2.14-10.29-2.14h-20.96v53.14h11.23v-18.84h8.2l10.07,18.84h12.4l-11.28-20.66c.16-.07.35-.12.51-.2v-.02ZM971.74,82.68h7.58c2.16,0,3.96.32,5.38.95,1.43.63,2.49,1.55,3.19,2.76s1.05,2.7,1.05,4.46-.35,3.21-1.05,4.39-1.76,2.06-3.18,2.65-3.2.88-5.35.88h-7.63v-16.09h.01Z"/>
        <path class="cls-1" d="M1027.95,73.5l-18.34,53.14h12.04l3.94-12.12h19.18l3.93,12.12h12.04l-18.32-53.14h-14.48,0ZM1028.44,105.75l6.54-20.11h.41l6.53,20.11h-13.49,0Z"/>
        <path class="cls-1" d="M1104.07,101.1c-1.42-1.26-3.1-2.32-5.03-3.19s-4.07-1.56-6.38-2.08l-4.77-1.14c-1.16-.26-2.25-.58-3.27-.95s-1.92-.81-2.7-1.32c-.78-.51-1.39-1.12-1.83-1.83s-.64-1.54-.61-2.49c0-1.14.33-2.16,1-3.06s1.63-1.6,2.89-2.11,2.81-.77,4.65-.77c2.7,0,4.83.58,6.41,1.74s2.46,2.79,2.67,4.88h10.77c-.05-3.17-.9-5.95-2.54-8.35-1.64-2.41-3.94-4.28-6.89-5.63s-6.4-2.02-10.34-2.02-7.33.67-10.38,2.02-5.43,3.23-7.17,5.63c-1.74,2.41-2.6,5.21-2.58,8.43-.02,3.93,1.27,7.05,3.87,9.37,2.6,2.32,6.13,4.02,10.61,5.11l5.79,1.45c1.94.47,3.58.98,4.92,1.55s2.36,1.26,3.06,2.08c.7.81,1.05,1.82,1.05,3.01,0,1.28-.39,2.41-1.17,3.4-.78.99-1.87,1.76-3.28,2.31s-3.07.83-4.97.83-3.67-.3-5.2-.89-2.75-1.49-3.66-2.67-1.42-2.67-1.54-4.45h-10.87c.09,3.82,1.02,7.03,2.79,9.61s4.25,4.54,7.42,5.85,6.91,1.97,11.2,1.97,8.02-.65,11.09-1.96c3.07-1.31,5.42-3.15,7.06-5.53s2.46-5.19,2.48-8.44c-.02-2.21-.42-4.18-1.21-5.89-.79-1.71-1.89-3.2-3.31-4.46h-.03Z"/>
        <polygon class="cls-1" points="1116.09 82.76 1132.35 82.76 1132.35 126.63 1143.46 126.63 1143.46 82.76 1159.73 82.76 1159.73 73.5 1116.09 73.5 1116.09 82.76"/>
        <path class="cls-1" d="M1212.71,85.28c-2.19-4.06-5.16-7.16-8.92-9.3-3.76-2.13-7.99-3.2-12.68-3.2s-8.96,1.07-12.71,3.2c-3.75,2.14-6.72,5.24-8.9,9.3s-3.27,8.99-3.27,14.79,1.09,10.7,3.27,14.76,5.15,7.17,8.9,9.31c3.75,2.15,7.99,3.22,12.71,3.22s8.91-1.07,12.68-3.2c3.76-2.14,6.74-5.24,8.92-9.3s3.28-9,3.28-14.79-1.09-10.72-3.28-14.79ZM1202.93,109.56c-1.11,2.58-2.68,4.53-4.71,5.87-2.02,1.33-4.39,2-7.11,2s-5.09-.67-7.11-2-3.59-3.29-4.71-5.87c-1.12-2.57-1.67-5.74-1.67-9.5s.56-6.92,1.67-9.5,2.68-4.53,4.71-5.86c2.02-1.33,4.39-2,7.11-2s5.09.67,7.11,2,3.59,3.29,4.71,5.86,1.67,5.74,1.67,9.5-.56,6.92-1.67,9.5Z"/>
      </g>
    </g>
  </g>
</svg>