<?xml version="1.0" encoding="UTF-8" standalone="no"?>
<svg xmlns:dc="http://purl.org/dc/elements/1.1/" xmlns:cc="http://creativecommons.org/ns#" xmlns:rdf="http://www.w3.org/1999/02/22-rdf-syntax-ns#" xmlns:svg="http://www.w3.org/2000/svg" xmlns="http://www.w3.org/2000/svg" xmlns:sodipodi="http://sodipodi.sourceforge.net/DTD/sodipodi-0.dtd" xmlns:inkscape="http://www.inkscape.org/namespaces/inkscape" width="111.95859mm" height="32.73143mm" viewBox="0 0 111.95859 32.73143" version="1.1" id="svg8" sodipodi:docname="oikeusfi_logo.svg" inkscape:version="1.0.1 (c497b03c, 2020-09-10)">
  <defs id="defs2"></defs>
  <metadata id="metadata5"></metadata>
  <g id="layer1" transform="translate(-37.758802,-158.25929)" style="fill:#ffffff">
    <g id="g38" transform="matrix(0.03527778,0,0,-0.03527778,22.212202,203.69072)" style="fill:#ffffff">
      <path d="m 648.809,444.109 h 76.902 L 639.68,585.898 c 50.945,20.192 63.922,60.563 63.922,92.286 0,58.636 -43.258,102.375 -116.793,102.375 H 460.398 v -336.45 h 66.809 v 129.289 h 47.106 z m -12.016,233.594 c 0,-28.844 -21.629,-46.144 -58.637,-46.144 h -50.949 v 91.324 h 50.949 c 37.008,0 58.637,-15.379 58.637,-45.18 z M 835.781,484 c -19.226,0 -31.242,11.059 -31.242,25.961 0,15.379 11.535,24.027 31.242,24.027 h 23.551 c 8.648,0 15.379,0.961 19.227,4.813 v -15.86 C 878.559,495.539 858.371,484 835.781,484 Z m 42.778,104.301 c 0,-8.172 -4.809,-12.969 -15.383,-12.969 h -43.258 c -49.023,0 -79.785,-25.961 -79.785,-67.773 0,-36.047 30.281,-69.219 76.902,-69.219 24.992,0 49.985,9.14 61.524,26.441 v -20.672 h 62.48 v 144.672 c 0,58.16 -45.66,81.231 -95.648,81.231 -53.348,0 -94.203,-26.91 -94.203,-26.91 l 24.511,-47.114 c 16.344,9.621 44.219,20.672 66.328,20.672 24.032,0 36.532,-10.09 36.532,-25.949 z M 763.684,724.805 c 0,-20.188 16.824,-37.489 37.492,-37.489 20.183,0 37.969,17.301 37.969,37.489 0,20.187 -17.786,37.492 -37.969,37.492 -20.668,0 -37.492,-17.305 -37.492,-37.492 z m 91.8,0 c 0,-20.188 17.305,-37.489 37.493,-37.489 20.187,0 37.968,17.301 37.968,37.489 0,20.187 -17.781,37.492 -37.968,37.492 -20.188,0 -37.493,-17.305 -37.493,-37.492 z m 158.136,23.07 v -83.637 h -34.612 v -52.867 h 34.612 V 490.73 c 0,-44.218 32.2,-49.5 63.44,-49.5 18.26,0 48.54,2.879 48.54,2.879 v 53.352 c 0,0 -12.97,-1.441 -28.83,-1.441 -9.62,0 -20.67,1.921 -20.67,15.859 v 99.492 h 47.58 v 52.867 h -47.58 v 83.637 z m 174.47,0 v -83.637 h -34.61 v -52.867 h 34.61 V 490.73 c 0,-44.218 32.2,-49.5 63.44,-49.5 18.26,0 48.55,2.879 48.55,2.879 v 53.352 c 0,0 -12.98,-1.441 -28.84,-1.441 -9.62,0 -20.67,1.921 -20.67,15.859 v 99.492 h 47.58 v 52.867 h -47.58 v 83.637 z m 323.47,-110.543 c -25.96,24.027 -60.08,32.68 -88.92,32.68 -52.87,0 -85.56,-32.203 -85.56,-68.25 0,-28.84 15.38,-52.871 50.95,-64.403 l 37.49,-11.058 c 17.78,-5.289 24.99,-10.09 24.99,-21.153 0,-8.648 -9.13,-16.339 -24.03,-16.339 -20.67,0 -49.02,12.5 -64.88,27.402 l -33.17,-43.262 c 18.27,-15.859 48.55,-34.609 97.09,-34.609 60.08,0 87.48,37.492 87.48,69.699 0,28.832 -15.38,53.352 -60.56,68.25 l -36.53,11.531 c -11.54,3.852 -16.34,9.129 -16.34,16.821 0,6.73 5.76,14.898 22.11,14.898 14.41,0 36.52,-5.277 54.31,-22.59 z m 153.8,-23.07 c 33.16,0 56.23,-25.961 56.23,-60.082 0,-33.649 -23.07,-60.559 -56.23,-60.559 -33.17,0 -56.24,26.91 -56.24,60.559 0,34.121 23.07,60.082 56.24,60.082 z m -54.8,-142.274 c 11.06,-18.75 37.01,-33.648 68.25,-33.648 60.57,0 107.19,48.551 107.19,115.84 0,67.289 -46.14,115.832 -106.7,115.832 -33.17,0 -59.12,-15.383 -69.7,-34.121 0,2.398 0.96,7.211 0.96,17.781 v 10.566 h -62.48 V 360 h 62.48 z m 325.46,-33.648 c 65.37,0 117.76,48.551 117.76,115.84 0,67.289 -52.39,115.832 -117.76,115.832 -65.36,0 -117.75,-48.543 -117.75,-115.832 0,-67.289 52.39,-115.84 117.75,-115.84 z m 0,175.922 c 32.21,0 54.8,-25.481 54.8,-60.082 0,-34.129 -22.59,-60.078 -54.8,-60.078 -32.68,0 -55.27,25.949 -55.27,60.078 0,34.601 22.59,60.082 55.27,60.082 z m 278.29,50.949 c -5.77,1.437 -11.54,1.918 -17.3,1.918 -27.4,0 -48.55,-14.418 -57.2,-37.969 v 35.078 h -60.56 V 444.109 h 62.48 v 105.262 c 0,38.449 14.42,53.348 46.14,53.348 h 26.44 z m 56.23,82.664 v -83.637 h -34.61 v -52.867 h 34.61 V 490.73 c 0,-44.218 32.2,-49.5 63.44,-49.5 18.27,0 48.55,2.879 48.55,2.879 v 53.352 c 0,0 -12.98,-1.441 -28.84,-1.441 -9.61,0 -20.67,1.921 -20.67,15.859 v 99.492 h 47.59 v 52.867 h -47.59 v 83.637 z M 2507.97,484 c -19.22,0 -31.24,11.059 -31.24,25.961 0,15.379 11.54,24.027 31.24,24.027 h 23.55 c 8.66,0 15.39,0.961 19.23,4.813 v -15.86 c 0,-27.402 -20.19,-38.941 -42.78,-38.941 z m 42.78,104.301 c 0,-8.172 -4.81,-12.969 -15.38,-12.969 h -43.26 c -49.02,0 -79.78,-25.961 -79.78,-67.773 0,-36.047 30.28,-69.219 76.9,-69.219 24.99,0 49.98,9.14 61.52,26.441 v -20.672 h 62.48 v 144.672 c 0,58.16 -45.66,81.231 -95.64,81.231 -53.36,0 -94.21,-26.91 -94.21,-26.91 l 24.51,-47.114 c 16.34,9.621 44.22,20.672 66.33,20.672 24.03,0 36.53,-10.09 36.53,-25.949 z m 160.46,192.258 h -62 l 10.64,-336.45 h 62.01 z M 2986.69,538.32 c 0,92.282 -54.8,131.692 -115.36,131.692 -65.84,0 -114.39,-48.543 -114.39,-115.832 0,-67.289 49.51,-115.84 115.36,-115.84 49.02,0 90.36,22.109 110.06,69.219 l -64.88,6.722 c -8.66,-14.902 -25.96,-22.59 -44.22,-22.59 -27.88,0 -47.11,19.707 -50.47,44.219 h 163.9 z m -115.36,79.782 c 26.44,0 45.18,-18.262 48.55,-40.372 h -98.53 c 4.8,23.551 23.55,40.372 49.98,40.372 z m 206.6,20.187 c 0,0 0.96,9.609 0.96,17.301 v 8.648 h -61.04 V 444.109 h 62.49 v 142.75 c 12.01,14.903 28.35,24.993 46.62,24.993 19.71,0 37.49,-11.532 37.49,-39.411 V 444.109 h 62.48 v 144.192 c 0,51.429 -34.12,81.711 -81.71,81.711 -25.47,0 -50.46,-11.051 -67.29,-31.723" style="fill:#ffffff;fill-opacity:1;fill-rule:nonzero;stroke:none" id="path40"></path>
      <path d="m 616.605,1287.82 c -97.57,0 -175.914,-72.58 -175.914,-173.99 0,-101.42 78.344,-173.994 175.914,-173.994 97.571,0 175.915,72.574 175.915,173.994 0,101.41 -78.344,173.99 -175.915,173.99 z m 0,-286.46 c -63.441,0 -106.218,48.06 -106.218,112.47 0,64.4 42.777,112.47 106.218,112.47 63.446,0 106.223,-48.07 106.223,-112.47 0,-64.41 -42.777,-112.47 -106.223,-112.47 z m 287.833,164.37 h -62.625 l 0.14,-220.128 h 62.485 z m -74.02,75.95 c 0,-22.59 17.785,-39.89 39.895,-39.89 22.589,0 40.371,17.3 40.371,39.89 0,22.11 -17.782,40.37 -40.371,40.37 -22.11,0 -39.895,-18.26 -39.895,-40.37 z m 193.632,40.37 H 962.043 V 945.602 h 62.007 v 90.848 h 14.9 l 63.44,-90.848 h 74.98 l -87.48,119.198 85.08,100.93 h -75.46 l -60.56,-76.42 h -14.9 z m 381.62,-242.24 c 0,92.28 -54.79,131.69 -115.35,131.69 -65.85,0 -114.4,-48.54 -114.4,-115.83 0,-67.291 49.51,-115.834 115.36,-115.834 49.02,0 90.36,22.109 110.06,69.214 l -64.88,6.73 c -8.65,-14.9 -25.96,-22.592 -44.22,-22.592 -27.88,0 -47.1,19.702 -50.47,44.222 h 163.9 z m -115.35,79.78 c 26.43,0 45.18,-18.26 48.54,-40.37 h -98.53 c 4.81,23.55 23.55,40.37 49.99,40.37 z m 258.57,-179.754 c 67.77,0 104.3,40.375 104.3,86.514 v 139.38 h -62 v -127.84 c 0,-30.28 -19.71,-42.3 -42.3,-42.3 -22.1,0 -42.29,12.02 -42.29,42.3 v 127.84 h -62.49 v -139.38 c 0,-46.139 37.5,-86.514 104.78,-86.514 z m 315.3,198.984 c -25.96,24.03 -60.08,32.68 -88.92,32.68 -52.87,0 -85.55,-32.2 -85.55,-68.25 0,-28.84 15.38,-52.87 50.94,-64.4 l 37.49,-11.06 c 17.79,-5.29 25,-10.09 25,-21.15 0,-8.648 -9.13,-16.339 -24.03,-16.339 -20.67,0 -49.03,12.499 -64.89,27.399 l -33.16,-43.259 c 18.26,-15.859 48.54,-34.605 97.08,-34.605 60.08,0 87.48,37.488 87.48,69.694 0,28.84 -15.38,53.35 -60.56,68.25 l -36.53,11.53 c -11.53,3.85 -16.34,9.14 -16.34,16.83 0,6.72 5.77,14.9 22.11,14.9 14.42,0 36.53,-5.29 54.31,-22.59 z m 32.2,-157.168 c 0,-23.07 18.74,-41.816 41.81,-41.816 23.08,0 41.82,18.746 41.82,41.816 0,23.068 -18.74,41.808 -41.82,41.808 -23.07,0 -41.81,-18.74 -41.81,-41.808 z m 128.33,184.078 h -34.6 v -52.87 h 34.6 V 945.602 h 62.48 v 167.258 h 42.3 v 52.87 h -42.3 v 44.7 c 0,15.39 7.7,18.27 19.71,18.27 6.73,0 25.96,-2.4 25.96,-2.4 v 57.19 c 0,0 -28.84,2.89 -45.67,2.89 -33.64,0 -62.48,-14.9 -62.48,-58.16 z m 209.49,0 h -62.41 l -0.08,-220.128 h 62.49 z m -74.02,75.95 c 0,-22.59 17.78,-39.89 39.89,-39.89 22.59,0 40.38,17.3 40.38,39.89 0,22.11 -17.79,40.37 -40.38,40.37 -22.11,0 -39.89,-18.26 -39.89,-40.37" style="fill:#ffffff;fill-opacity:1;fill-rule:nonzero;stroke:none" id="path42"></path>
      <path d="m 3270.26,481.621 c 0,-23.07 18.74,-41.812 41.81,-41.812 23.07,0 41.82,18.742 41.82,41.812 0,23.07 -18.75,41.82 -41.82,41.82 -23.07,0 -41.81,-18.75 -41.81,-41.82 z m 128.33,184.09 h -34.61 V 612.84 h 34.61 V 445.582 h 62.48 V 612.84 h 42.3 v 52.871 h -42.3 v 44.695 c 0,15.383 7.69,18.266 19.71,18.266 6.73,0 25.95,-2.402 25.95,-2.402 v 57.195 c 0,0 -28.84,2.883 -45.66,2.883 -33.64,0 -62.48,-14.899 -62.48,-58.157 z m 209.48,0 h -62.4 l -0.08,-220.129 h 62.48 z m -74.01,75.937 c 0,-22.589 17.78,-39.89 39.89,-39.89 22.59,0 40.37,17.301 40.37,39.89 0,22.11 -17.78,40.375 -40.37,40.375 -22.11,0 -39.89,-18.265 -39.89,-40.375" style="fill:#ffffff;fill-opacity:1;fill-rule:nonzero;stroke:none" id="path44"></path>
    </g>
  </g>
</svg>
