<?xml version="1.0" encoding="UTF-8"?>
<svg xmlns="http://www.w3.org/2000/svg" width="619" height="161" viewBox="0 0 619 161" fill="none">
  <g clip-path="url(#clip0_4321_10073)">
    <mask id="mask0_4321_10073" style="mask-type:luminance" maskUnits="userSpaceOnUse" x="0" y="0" width="127" height="157">
      <path d="M126.66 0H0V156.97H126.66V0Z" fill="white"></path>
    </mask>
    <g mask="url(#mask0_4321_10073)">
      <path fill-rule="evenodd" clip-rule="evenodd" d="M62.95 0.0699921L64.01 0L63.65 3.39999H66.06V4.42C66.06 5.67 65.57 6.45999 64.36 6.45999C63.65 6.45999 64.49 5.93 62.66 5.78C62.66 7.86 63.05 10.21 65.04 10.21C66.32 10.21 65.68 9.99 67.08 9.87C67.22 11.61 68.31 12.93 70.15 12.93H72.19V11.91V11.23L70.84 10.53L70.83 9.87V8.84999C71.59 8.66999 71.61 8.50999 72.53 8.50999C72.71 8.50999 73.28 9 73.55 9.19L74.71 7.23C76.65 7.15 76.59 7.17999 77.3 8.50999L76.89 10.19C76.46 10.34 75.94 10.27 75.94 10.89C75.94 11.41 77.3 12.07 77.3 12.59C77.3 12.98 76.84 13.36 76.28 13.27L73.57 12.84L73.56 14.97C73.56 16.07 75.04 17.01 76.28 17.01H77.64C77.64 18.65 78.23 20.41 79.68 20.41C80.58 20.41 82.4 20.14 82.4 19.39C82.4 18.74 81.72 19.16 81.72 18.03C81.72 17.23 82.29 16.67 83.08 16.67C84.28 16.67 84.4499 18.03 85.1199 18.03C85.7899 18.03 85.62 17.01 86.82 17.01H87.84C88.78 17.01 88.66 17.27 88.86 18.03C85.46 18.31 83.26 20.62 81.03 22.11L60.96 8.84L62.95 0.0699921Z" fill="white"></path>
    </g>
    <mask id="mask1_4321_10073" style="mask-type:luminance" maskUnits="userSpaceOnUse" x="0" y="0" width="127" height="157">
      <path d="M126.66 0H0V156.97H126.66V0Z" fill="white"></path>
    </mask>
    <g mask="url(#mask1_4321_10073)">
      <path fill-rule="evenodd" clip-rule="evenodd" d="M37.6501 31.5497C36.8901 31.4197 35.75 30.6997 35.75 29.6197V26.8997C35.75 22.5297 33.37 19.7397 33.37 18.0497V13.2797C33.37 11.4397 31.67 7.2597 31.67 6.4697C31.67 6.4097 32.46 5.40969 32.69 4.42969C33.87 4.52969 34.63 5.00968 34.73 6.12968L35.1001 11.2297C35.3401 14.1897 37.11 18.0697 37.11 19.0597V22.8097C37.11 25.1697 38.01 28.4397 38.81 29.9597L37.6501 31.5497Z" fill="white"></path>
    </g>
    <mask id="mask2_4321_10073" style="mask-type:luminance" maskUnits="userSpaceOnUse" x="0" y="0" width="127" height="157">
      <path d="M126.66 0H0V156.97H126.66V0Z" fill="white"></path>
    </mask>
    <g mask="url(#mask2_4321_10073)">
      <path fill-rule="evenodd" clip-rule="evenodd" d="M67.76 7.15039L68.79 7.4704L67.76 8.17039V7.15039Z" fill="white"></path>
    </g>
    <mask id="mask3_4321_10073" style="mask-type:luminance" maskUnits="userSpaceOnUse" x="0" y="0" width="127" height="157">
      <path d="M126.66 0H0V156.97H126.66V0Z" fill="white"></path>
    </mask>
    <g mask="url(#mask3_4321_10073)">
      <path fill-rule="evenodd" clip-rule="evenodd" d="M95.34 8.83984L98.41 8.84984C99.71 8.84984 101.25 9.77985 101.81 10.5499C100.47 10.9099 98.93 12.5898 98.06 12.5898H97.72C96.05 12.5898 94.08 13.6098 92.27 13.6098C90.62 13.6098 89.34 14.0498 87.5 14.2898L81.72 15.0298C81.04 15.0498 81.14 15.0498 80.69 15.3098L79.65 13.6198L91.92 12.2098C93.72 12.0198 94.88 11.5898 96.35 11.5598V10.8798L83.08 12.3098L78.31 12.6898L77.99 10.7898L95.34 8.83984Z" fill="white"></path>
    </g>
    <mask id="mask4_4321_10073" style="mask-type:luminance" maskUnits="userSpaceOnUse" x="0" y="0" width="127" height="157">
      <path d="M126.66 0H0V156.97H126.66V0Z" fill="white"></path>
    </mask>
    <g mask="url(#mask4_4321_10073)">
      <path fill-rule="evenodd" clip-rule="evenodd" d="M74.91 23.4909V22.4709C74.91 20.7609 73.22 19.0709 71.5 19.0709H70.48C68.67 19.0709 59.24 12.4609 59.24 11.9209C59.24 11.1209 59.91 10.4109 60.26 9.88086L79.57 22.9709C79.45 25.4309 78.22 23.5009 75.92 23.5009H74.91V23.4909Z" fill="white"></path>
    </g>
    <mask id="mask5_4321_10073" style="mask-type:luminance" maskUnits="userSpaceOnUse" x="0" y="0" width="127" height="157">
      <path d="M126.66 0H0V156.97H126.66V0Z" fill="white"></path>
    </mask>
    <g mask="url(#mask5_4321_10073)">
      <path fill-rule="evenodd" clip-rule="evenodd" d="M56.15 12.6992C55.71 14.9392 54.93 15.9992 52.44 15.9992C51.29 15.9992 51.09 16.1792 50.06 16.3392L44.29 17.1292L39.86 17.4492L39.17 17.3592H38.49L37.25 14.7292L42.23 14.2492L43.26 14.3492L56.15 12.6992Z" fill="white"></path>
    </g>
    <mask id="mask6_4321_10073" style="mask-type:luminance" maskUnits="userSpaceOnUse" x="0" y="0" width="127" height="157">
      <path d="M126.66 0H0V156.97H126.66V0Z" fill="white"></path>
    </mask>
    <g mask="url(#mask6_4321_10073)">
      <path fill-rule="evenodd" clip-rule="evenodd" d="M24.86 15.6609C24.94 14.6409 25.1 13.9609 26.22 13.9609C27.19 13.9609 26.84 14.0709 27.24 14.6409H25.54L24.86 15.6609Z" fill="white"></path>
    </g>
    <mask id="mask7_4321_10073" style="mask-type:luminance" maskUnits="userSpaceOnUse" x="0" y="0" width="127" height="157">
      <path d="M126.66 0H0V156.97H126.66V0Z" fill="white"></path>
    </mask>
    <g mask="url(#mask7_4321_10073)">
      <path fill-rule="evenodd" clip-rule="evenodd" d="M29.96 13.6191C30.74 13.6191 30.96 15.0691 30.98 15.9991L28.94 15.3191C28.94 14.2291 28.85 13.6191 29.96 13.6191Z" fill="white"></path>
    </g>
    <mask id="mask8_4321_10073" style="mask-type:luminance" maskUnits="userSpaceOnUse" x="0" y="0" width="127" height="157">
      <path d="M126.66 0H0V156.97H126.66V0Z" fill="white"></path>
    </mask>
    <g mask="url(#mask8_4321_10073)">
      <path fill-rule="evenodd" clip-rule="evenodd" d="M77.6201 14.2793C77.5601 15.0993 77.3201 15.9993 76.6101 15.9993C75.6201 15.9993 74.8601 15.4293 74.5701 14.6393C75.4701 15.0893 74.2901 14.9793 75.5901 14.9793L76.2801 14.9993L77.6201 14.2793Z" fill="white"></path>
    </g>
    <mask id="mask9_4321_10073" style="mask-type:luminance" maskUnits="userSpaceOnUse" x="0" y="0" width="127" height="157">
      <path d="M126.66 0H0V156.97H126.66V0Z" fill="white"></path>
    </mask>
    <g mask="url(#mask9_4321_10073)">
      <path fill-rule="evenodd" clip-rule="evenodd" d="M79.51 14.4707L79.68 15.6607L78.48 15.4907L79.51 14.4707Z" fill="white"></path>
    </g>
    <mask id="mask10_4321_10073" style="mask-type:luminance" maskUnits="userSpaceOnUse" x="0" y="0" width="127" height="157">
      <path d="M126.66 0H0V156.97H126.66V0Z" fill="white"></path>
    </mask>
    <g mask="url(#mask10_4321_10073)">
      <path fill-rule="evenodd" clip-rule="evenodd" d="M21.5299 19.7399C21.6699 21.1799 22.2799 22.4799 20.7699 22.4799C20.4899 22.4799 17.6899 15.6699 19.7499 15.6699C19.9699 15.6699 20.7299 16.4399 21.1099 16.6899L21.5299 19.7399Z" fill="white"></path>
    </g>
    <mask id="mask11_4321_10073" style="mask-type:luminance" maskUnits="userSpaceOnUse" x="0" y="0" width="127" height="157">
      <path d="M126.66 0H0V156.97H126.66V0Z" fill="white"></path>
    </mask>
    <g mask="url(#mask11_4321_10073)">
      <path fill-rule="evenodd" clip-rule="evenodd" d="M28.94 20.4298V19.0698V18.3898C27.11 17.4198 26.61 18.2698 26.56 16.0098C30.24 16.8698 32.69 17.9298 32.69 22.4798V23.1598C32.69 24.6698 30.97 26.6698 30.31 27.9298H29.63L25.9 28.3598L23.5 28.2698C21.95 28.2698 21.15 25.4798 21.12 23.8398C21.88 23.6598 21.91 23.4998 22.82 23.4998H24.52C24.52 25.1598 23.53 26.5698 25.2 26.5698C25.86 26.5698 26.23 24.1298 26.66 23.2698C27.37 21.8498 27.67 21.7898 28.94 21.1198V20.4298Z" fill="white"></path>
    </g>
    <mask id="mask12_4321_10073" style="mask-type:luminance" maskUnits="userSpaceOnUse" x="0" y="0" width="127" height="157">
      <path d="M126.66 0H0V156.97H126.66V0Z" fill="white"></path>
    </mask>
    <g mask="url(#mask12_4321_10073)">
      <path fill-rule="evenodd" clip-rule="evenodd" d="M53.79 16.9805C53.35 17.9205 53.46 16.7405 53.46 18.0405V18.3805C53.46 20.0305 45.39 21.3105 43.58 21.4505L38.48 21.8905L38.47 18.7305C40.31 18.7305 41.52 18.0505 42.9 18.0505H43.92L50.74 17.4405L53.79 16.9805Z" fill="white"></path>
    </g>
    <mask id="mask13_4321_10073" style="mask-type:luminance" maskUnits="userSpaceOnUse" x="0" y="0" width="127" height="157">
      <path d="M126.66 0H0V156.97H126.66V0Z" fill="white"></path>
    </mask>
    <g mask="url(#mask13_4321_10073)">
      <path fill-rule="evenodd" clip-rule="evenodd" d="M24.86 21.1105C24.86 21.9005 24.62 22.1305 23.84 22.1305C23.2 22.1305 22.56 19.8405 22.47 19.0705L22.04 14.9905L23.84 14.9805C23.84 17.8105 24.86 18.6505 24.86 20.7705V21.1105Z" fill="white"></path>
    </g>
    <mask id="mask14_4321_10073" style="mask-type:luminance" maskUnits="userSpaceOnUse" x="0" y="0" width="127" height="157">
      <path d="M126.66 0H0V156.97H126.66V0Z" fill="white"></path>
    </mask>
    <g mask="url(#mask14_4321_10073)">
      <path fill-rule="evenodd" clip-rule="evenodd" d="M78.65 17.6998C78.65 16.9098 80.1 16.6198 80.69 16.3398V19.0598C79.63 18.9798 78.65 18.8298 78.65 17.6998Z" fill="white"></path>
    </g>
    <mask id="mask15_4321_10073" style="mask-type:luminance" maskUnits="userSpaceOnUse" x="0" y="0" width="127" height="157">
      <path d="M126.66 0H0V156.97H126.66V0Z" fill="white"></path>
    </mask>
    <g mask="url(#mask15_4321_10073)">
      <path fill-rule="evenodd" clip-rule="evenodd" d="M27.59 19.3902L27.58 20.7702H26.2L25.8 18.7402L27.59 19.3902Z" fill="white"></path>
    </g>
    <mask id="mask16_4321_10073" style="mask-type:luminance" maskUnits="userSpaceOnUse" x="0" y="0" width="127" height="157">
      <path d="M126.66 0H0V156.97H126.66V0Z" fill="white"></path>
    </mask>
    <g mask="url(#mask16_4321_10073)">
      <path fill-rule="evenodd" clip-rule="evenodd" d="M14.3 21.4505C14.3 19.9905 15.3501 18.7305 16.6801 18.7305C17.6001 18.7305 18.72 22.0705 18.72 23.1605C18.72 23.8005 17.4701 24.1805 16.6801 24.1805C15.0601 24.1705 14.3 23.0205 14.3 21.4505Z" fill="white"></path>
    </g>
    <mask id="mask17_4321_10073" style="mask-type:luminance" maskUnits="userSpaceOnUse" x="0" y="0" width="127" height="157">
      <path d="M126.66 0H0V156.97H126.66V0Z" fill="white"></path>
    </mask>
    <g mask="url(#mask17_4321_10073)">
      <path fill-rule="evenodd" clip-rule="evenodd" d="M110.66 25.5391C114.56 25.5391 113.29 24.7991 117.09 26.2591C118.82 26.9291 120.58 27.9591 122.11 29.0691C124.49 30.7891 126.66 35.7691 126.66 39.8391V41.5391C126.66 54.9891 106.57 56.9291 106.57 63.6691V64.0091L107.65 71.4891L107.59 73.1991C107.59 74.5891 107.05 75.0291 106.23 75.5791V74.2191C106.23 71.0491 103.51 69.3691 103.51 68.0891V67.4091C103.51 65.8291 104.14 66.3891 104.19 64.3391C102.01 64.9191 101.81 68.4391 101.81 71.1491V72.8491C101.81 75.1091 100.93 76.4791 99.4301 77.2791V74.8991C99.4301 73.1291 97.39 71.2191 97.39 68.4291V68.0891C97.39 65.7391 98.34 65.5291 98.75 63.9991C94.78 65.0591 96.11 71.0791 93.3 71.8291L94.11 66.0591C95.08 58.3991 105.68 58.5891 111.69 55.8291C116.78 53.4891 124.62 48.3791 124.62 41.1791V39.4791C124.62 36.8991 120.68 30.6291 118.83 30.6291C118.6 30.6291 117.12 33.0091 116.11 33.6991V31.9991C116.11 30.6391 115.53 29.5791 114.41 29.2791C113.73 32.1791 113.13 32.9691 111.01 34.3891C111.19 33.6291 111.35 33.6091 111.35 32.6891V30.6491C111.35 30.0891 111.15 29.6291 110.67 29.6291C109.81 29.6291 109.67 33.0691 107.26 33.7191C107.26 32.2091 106.97 30.6491 105.56 30.6491H104.54C101.57 30.6491 98.41 36.5091 98.41 39.4991V41.8791C98.41 46.7891 103.67 54.6291 106.92 55.4991V56.1791C105.73 56.4591 105.77 56.8591 104.54 56.8591C103.4 56.8591 99.8 52.4991 99.03 51.4791C97.49 49.4391 96.03 47.0091 96.03 43.5791V41.1991L96.34 37.7891C97.08 31.8191 103.53 25.5391 109.99 25.5391H110.66Z" fill="white"></path>
    </g>
    <mask id="mask18_4321_10073" style="mask-type:luminance" maskUnits="userSpaceOnUse" x="0" y="0" width="127" height="157">
      <path d="M126.66 0H0V156.97H126.66V0Z" fill="white"></path>
    </mask>
    <g mask="url(#mask18_4321_10073)">
      <path fill-rule="evenodd" clip-rule="evenodd" d="M30.98 29.2195C31.76 29.1995 32.01 29.5795 32.01 30.2995C32.01 31.1595 31.77 31.2295 30.99 31.3195L27.25 31.7495L22.14 32.0895C21.91 31.0295 21.79 31.4195 21.79 30.6395C21.79 30.1595 22.25 29.9595 22.81 29.9595C24.12 29.9595 23.57 29.6195 25.19 29.6195L25.88 29.6995L30.98 29.2195Z" fill="white"></path>
    </g>
    <mask id="mask19_4321_10073" style="mask-type:luminance" maskUnits="userSpaceOnUse" x="0" y="0" width="127" height="157">
      <path d="M126.66 0H0V156.97H126.66V0Z" fill="white"></path>
    </mask>
    <g mask="url(#mask19_4321_10073)">
      <path fill-rule="evenodd" clip-rule="evenodd" d="M40.1801 37.1097C40.1801 34.4497 41.41 33.1897 43.58 32.6797C43.09 33.4197 42.56 33.8097 42.56 35.0597V35.3997C42.56 37.1597 43.9801 38.1197 45.6301 38.1197H53.8C57.57 38.1197 62.92 42.5397 61.97 44.5897C60.23 43.3197 58.69 39.1397 55.16 39.1397H51.7601C49.9001 39.1397 49.8701 39.8197 48.0101 39.8197H43.92C42.54 39.8397 40.1801 38.3597 40.1801 37.1097Z" fill="white"></path>
    </g>
    <mask id="mask20_4321_10073" style="mask-type:luminance" maskUnits="userSpaceOnUse" x="0" y="0" width="127" height="157">
      <path d="M126.66 0H0V156.97H126.66V0Z" fill="white"></path>
    </mask>
    <g mask="url(#mask20_4321_10073)">
      <path fill-rule="evenodd" clip-rule="evenodd" d="M29.96 32.9492C30.33 34.5692 33.37 41.3592 33.37 42.2092C33.37 43.8492 30.32 46.9792 28.26 46.9792C26.7 46.9792 24.72 45.7492 23.15 45.6192L23.47 39.1492L23.83 33.4292L29.96 32.9492Z" fill="white"></path>
    </g>
    <mask id="mask21_4321_10073" style="mask-type:luminance" maskUnits="userSpaceOnUse" x="0" y="0" width="127" height="157">
      <path d="M126.66 0H0V156.97H126.66V0Z" fill="white"></path>
    </mask>
    <g mask="url(#mask21_4321_10073)">
      <path fill-rule="evenodd" clip-rule="evenodd" d="M33.37 45.6202C33.37 44.9502 34.63 43.5602 35.07 43.2402C35.13 45.8002 36.32 45.6302 36.77 47.3302C35.7 47.4202 35.56 47.6702 34.39 47.6702C33.75 47.6702 33.37 46.4102 33.37 45.6202Z" fill="white"></path>
    </g>
    <mask id="mask22_4321_10073" style="mask-type:luminance" maskUnits="userSpaceOnUse" x="0" y="0" width="127" height="157">
      <path d="M126.66 0H0V156.97H126.66V0Z" fill="white"></path>
    </mask>
    <g mask="url(#mask22_4321_10073)">
      <path fill-rule="evenodd" clip-rule="evenodd" d="M32.3 46.8398L32.35 48.6798C31.21 48.9798 30.96 49.6998 29.97 49.6998C29.32 49.6998 29.09 48.5898 28.96 48.0198L32.3 46.8398Z" fill="white"></path>
    </g>
    <mask id="mask23_4321_10073" style="mask-type:luminance" maskUnits="userSpaceOnUse" x="0" y="0" width="127" height="157">
      <path d="M126.66 0H0V156.97H126.66V0Z" fill="white"></path>
    </mask>
    <g mask="url(#mask23_4321_10073)">
      <path fill-rule="evenodd" clip-rule="evenodd" d="M21.79 46.9902C22.97 47.2702 25.43 48.0102 26.56 48.0102H27.24L28.36 50.3402L25.96 56.2102L21.51 52.6902C21.9 51.8702 21.79 53.0502 21.79 51.7402V46.9902Z" fill="white"></path>
    </g>
    <mask id="mask24_4321_10073" style="mask-type:luminance" maskUnits="userSpaceOnUse" x="0" y="0" width="127" height="157">
      <path d="M126.66 0H0V156.97H126.66V0Z" fill="white"></path>
    </mask>
    <g mask="url(#mask24_4321_10073)">
      <path fill-rule="evenodd" clip-rule="evenodd" d="M27.92 55.1593C30.14 50.9593 29.76 50.3493 35.41 49.0293C36.43 49.5693 43.58 53.0593 43.58 53.7993C43.58 54.1693 39.26 56.4693 38.81 60.2693L38.3801 63.6593C38.4101 64.2393 38.7401 64.6893 39.1501 64.6893C39.6101 64.6893 39.3401 64.3193 40.5101 64.0093L39.2601 65.4793L27.92 55.1593Z" fill="white"></path>
    </g>
    <mask id="mask25_4321_10073" style="mask-type:luminance" maskUnits="userSpaceOnUse" x="0" y="0" width="127" height="157">
      <path d="M126.66 0H0V156.97H126.66V0Z" fill="white"></path>
    </mask>
    <g mask="url(#mask25_4321_10073)">
      <path fill-rule="evenodd" clip-rule="evenodd" d="M66.74 58.2207C68.51 59.5207 68.98 62.5407 73.55 62.6507C74.68 67.4907 81.61 74.0807 85.69 76.3807C88.65 78.0507 91.55 79.0707 94.32 80.6907C95.96 81.6507 101.16 85.1207 103.17 85.1207H105.21C110.63 85.1207 116.79 80.7407 116.79 75.9307C116.79 69.7807 112.86 64.0207 109.3 61.6307C109.57 61.2307 110.87 59.5907 111.34 59.5907C112.72 59.5907 118.99 69.2807 119.51 71.5107C122.21 71.5707 123.65 72.7507 124.62 74.5807C123.86 74.4007 123.84 74.2407 122.92 74.2407H121.56C121 74.2407 120.54 74.4407 120.54 74.9207C120.54 75.9207 123.86 75.7107 123.99 79.2407L119.18 77.6407C119.33 79.3807 120.68 80.0607 121.9 80.7107V81.3907V83.0907C120.54 82.7307 120.79 82.0707 119.18 82.0707H118.84C116.19 82.0707 111.44 87.7307 106.92 88.1807L102.51 88.6307L102.7 88.3407L100.8 86.8407C100.95 88.6607 102.86 89.1207 103.23 91.9407L104.21 101.481V101.821C104.21 106.561 108.07 111.011 113.06 111.011H116.13C117.28 111.011 118.85 113.821 118.85 115.101C118.85 115.881 118.61 116.121 117.83 116.121H116.81C117.16 117.421 121.89 118.781 122.94 120.211C122.93 120.221 122.31 120.551 122.26 120.551C120.18 120.551 119.66 119.871 117.83 119.871C116.8 119.871 116.89 120.271 116.81 121.231H117.83C120.46 121.231 120.31 124.021 123.62 124.301C123.29 124.591 123.02 124.981 122.26 124.981C120.23 124.981 118.43 123.621 117.49 123.621C116.46 123.621 116.55 124.021 116.47 124.981H117.49L118.08 125.071L122.26 129.411C119.52 129.351 118.66 127.711 116.81 127.711H116.47C115.91 127.711 115.45 127.911 115.45 128.391C115.45 128.871 115.91 129.071 116.47 129.071H116.81L117.46 129.091L120.21 133.161C117.78 133.111 117.67 131.801 115.78 131.801C114.48 131.801 115.66 131.691 114.71 132.181L115.44 133.161H116.8C116.66 134.831 115.78 135.221 115.78 136.221C115.78 138.071 116.97 138.651 118.16 139.291V139.971V141.671H116.46C115.52 141.671 115.64 141.931 115.44 142.691C117.31 142.691 118.16 142.861 118.16 144.731V146.431C118.16 147.341 117.67 147.441 117.14 147.791V146.771C117.14 144.631 116.55 143.441 114.68 143.041L115.09 144.731H113.39C113.15 143.701 113.19 142.691 112.03 142.691H111.69C110.3 142.691 109.65 144.951 109.65 146.431V149.831C109.65 151.071 108.71 152.551 107.61 152.551H106.59V151.191C105.12 151.351 104.89 152.641 104.89 154.251V154.931C104.89 156.231 104.79 155.051 105.23 155.951C104.37 155.641 103.87 154.621 103.87 153.571C103.87 152.361 104.02 150.511 105.23 150.511H106.25V149.491C104.3 149.491 103.34 149.721 103.19 151.531C102.23 151.451 101.83 151.541 101.83 150.511V149.491C101.83 146.011 106.6 146.611 106.6 142.001C104.25 142.261 105.33 145.401 102.51 145.401H100.81C98.9 145.401 96.71 147.441 95.02 147.441H94.68C93.3 147.441 92.92 147.131 92.64 146.081C94.03 145.961 94.03 145.901 94.34 144.721C89.81 144.721 90.15 146.061 87.53 146.761C87.94 145.211 91.42 143.021 92.98 143.021C93.6 143.021 93.53 143.541 93.66 144.041L94.51 143.981L93.66 142.001H92.3V140.641C92.91 140.491 93.33 140.251 93.68 140.191L99.45 140.981H100.47C102.1 140.981 103.52 140.611 103.87 139.281C102.8 139.371 102.66 139.621 101.49 139.621L101.14 139.711L96.04 139.281C94.92 139.181 95.04 138.751 95.02 137.581H96.04C95.84 136.821 95.96 136.561 95.02 136.561H91.62C92.01 135.981 92.36 135.201 93.32 135.201C98.1 135.201 95.66 136.681 97.75 137.241V135.881C97.75 134.701 97.15 135.401 96.73 133.841C99.74 133.911 99.28 136.901 102.18 136.901H104.56C107.28 136.901 109.33 132.751 109.33 129.751V125.661C109.33 122.011 107.26 119.251 104.68 118.051C103.29 117.401 101.67 116.961 100 116.591C97.62 116.071 96.63 115.471 94.97 115.091L95.36 113.061C93.66 113.101 92.98 113.721 92.98 115.441C92.98 117.081 92.34 118.171 92.3 119.871L91.89 119.721L89.53 115.771L90.26 112.041C89.09 112.351 88.67 112.711 88.56 114.081C86.41 114.081 86.03 113.681 85.16 112.381H86.52C87.9 112.381 88.9 111.641 88.9 110.341C88.9 107.741 85.84 101.831 85.84 98.7607V98.4207C85.84 96.9907 85.16 96.7907 85.16 95.0207C85.16 87.8707 79.28 85.2907 73.59 83.7807C70.29 82.9007 67.93 82.2207 65.03 81.1107C63.73 80.6107 57.92 77.6207 57.92 76.6407C57.92 75.9007 58.94 74.3907 58.94 72.5507C58.94 71.6307 58.78 71.6107 58.6 70.8507C57.84 71.0507 57.58 70.9307 57.58 71.8707C57.58 74.5007 55.54 76.3107 55.54 78.3407V80.3807C52.94 80.1607 52.54 75.2707 52.47 72.5507H51.11V73.9107C51.11 77.5007 49.41 78.2707 49.41 82.4207C47.84 82.0507 46.69 80.8507 46.69 79.0207V75.2807C46.69 74.2507 46.29 74.3407 45.33 74.2607C45.33 77.7107 43.63 79.7807 43.63 82.4307V83.4507C42.06 83.0307 41.25 80.9107 41.25 79.0207C41.25 77.1307 40.71 76.0207 39.11 75.6307L39.54 79.3607C39.71 80.7907 38.23 81.4907 38.18 83.7907C36.98 83.6907 36.14 82.7007 36.14 81.7507C36.14 80.4407 35.8 80.9907 35.8 79.3707C35.8 78.2807 34.85 77.7607 33.73 77.6807L34.77 81.0807C30.08 82.1707 30.87 83.9907 28.98 87.5507H28.3H27.28C27.24 85.9307 27.16 85.3007 25.43 85.2807L26.6 86.8707C25.72 88.5307 25.39 89.2507 22.85 89.2507C23.47 88.3307 24.89 87.4207 24.89 86.1907C24.89 84.8907 25 86.0707 24.51 85.1207L23.53 85.8507C22.6 83.8307 25.83 83.3307 25.91 79.7207C23.14 81.1907 26.09 81.5507 20.33 82.9907C17.94 83.5907 14.68 85.5107 13.99 85.5107H13.65C12.39 85.5107 12.79 84.9807 12.97 84.1507C10.41 84.2107 10.53 85.4307 8.88002 86.5307C8.92002 84.6307 9.76002 82.4407 11.6 82.4407C12.71 82.4407 11.86 82.7307 13.3 83.1207C13.22 82.1007 13.05 81.4207 11.94 81.4207H10.24C10.62 77.9507 19.65 79.3407 20.45 76.3107C19.38 76.4007 19.24 76.6507 18.07 76.6507H10.92C9.79002 76.6507 7.34002 77.4007 6.15002 77.6707C4.77002 77.3507 4.24002 77.1807 4.11002 75.6307C4.77002 75.5807 5.47002 75.6507 5.47002 74.9507C5.47002 74.6507 5.09002 74.2707 4.79002 74.2707C2.61002 74.2707 1.44002 74.8807 0.0200195 75.6307C0.45002 73.7707 2.24002 72.2307 4.45002 72.2307L5.07001 72.2707L6.15002 73.5907V72.2307C6.15002 71.2007 5.56002 71.0707 4.79002 70.8707C5.18002 70.1307 5.35002 69.5107 6.49002 69.5107C7.88002 69.5107 11.72 73.6007 15 73.6007H17.04C18.34 73.6007 17.16 73.7007 18.06 73.2607C16.76 71.4807 12.39 72.4007 10.85 70.1707L11.6 68.1107L12.95 68.4907L12.96 67.1107L8.87002 65.0807C9.73002 63.9107 13.64 64.7307 13.64 67.1207L13.71 68.2607L15 67.4607V66.1007H16.02C17.81 66.1007 18.84 73.5907 26.58 73.5907H27.6C35.53 73.5907 42.15 63.7207 44.97 63.7207L45.32 63.8107L48.71 63.3807C50.17 63.2107 50.66 62.7007 52.11 62.3607C55.12 64.3807 57.05 66.4507 62.32 66.4507C62.26 63.8407 59.57 63.8007 59.25 59.9807C61.16 61.3807 62.08 65.0907 66.74 65.0907H68.78C68.72 62.3507 66.74 62.2107 66.74 58.2207Z" fill="white"></path>
    </g>
    <mask id="mask26_4321_10073" style="mask-type:luminance" maskUnits="userSpaceOnUse" x="0" y="0" width="127" height="157">
      <path d="M126.66 0H0V156.97H126.66V0Z" fill="white"></path>
    </mask>
    <g mask="url(#mask26_4321_10073)">
      <path fill-rule="evenodd" clip-rule="evenodd" d="M41.54 128.021H40.86L40.46 129.021C39.23 128.361 37.55 126.321 36.78 126.321H35.42C32.22 126.321 31.27 128.701 27.25 128.701H26.23L26.64 127.021C24.29 127.611 24.15 129.101 22.82 130.071V129.051C22.82 127.281 23.72 126.591 24.86 125.991L27.23 126.421C27.04 125.561 26.92 124.971 25.88 124.971H25.2C24.28 124.971 24.26 125.131 23.5 125.311C23.83 121.381 26.36 122.931 29.63 122.931H31.33C32.71 122.931 33.09 122.611 33.37 121.571H30.31L22.82 120.571C20.7 120.221 19.47 120.301 19.42 117.831H20.44C20.33 116.471 19.79 116.131 18.4 116.131H14.66C15.33 114.861 16.12 114.431 18.06 114.431H18.74C19.78 114.431 20.12 114.761 20.78 115.111V116.471C21.74 116.391 22.14 116.481 22.14 115.451C22.14 114.201 21.61 113.801 21.12 113.071C22.09 112.851 21.7 112.731 22.48 112.731C25.67 112.731 25.48 116.231 27.03 117.381C28.22 118.271 31.99 119.871 33.38 119.211C32.14 117.521 27.59 117.601 27.59 115.121V113.761C27.59 112.841 27.75 112.821 27.93 112.061H28.95C29.28 113.291 28.98 112.971 30.31 113.081C30.03 109.751 28 110.151 26.91 108.651C28.85 108.651 31.34 109.751 31.34 111.371C31.34 112.091 31.22 111.821 31 112.731C31.96 112.651 32.36 112.741 32.36 111.711V110.691C33.13 110.901 33.72 111.021 33.72 112.051V114.771C33.72 116.171 35.39 118.171 36.44 118.171H39.16C44.62 118.171 56.87 114.381 56.87 109.321V104.551C56.87 101.131 59.14 99.4406 59.59 97.7406C56.99 97.7406 56.13 99.0206 54.48 100.121C54.69 99.2106 55.14 97.7405 55.44 97.0005C56.08 95.3905 57.2 96.1806 57.2 94.6806C57.2 94.0306 56.52 94.4506 56.52 93.3206C56.52 92.0606 56.85 91.7805 57.54 91.2805C58.35 92.8005 59.36 95.0305 61.63 95.0305H63.33C67.92 95.0305 74.08 88.5605 81.38 88.5605L80.17 92.2406C83.32 93.1006 84.48 98.8806 84.78 102.521C83.04 102.671 82.8 103.781 80.38 104.251C78.53 104.611 77.37 104.961 75.31 105.311C72.72 105.751 68.44 107.321 68.44 110.361V111.381C68.44 113.191 70.18 114.541 70.14 114.791L69.79 117.511L69.8 118.191C67.41 119.791 68.66 118.761 66.26 119.761C65.18 120.211 64.7 121.891 64.7 123.301V123.981C64.7 124.641 64.81 124.591 65.04 125.001C62.97 124.521 61.97 122.291 61.97 119.891C61.97 118.951 61.71 119.071 60.95 118.871V120.231C60.95 122.011 59.59 122.451 59.59 125.341C58.71 124.881 57.21 123.851 57.21 122.621V120.581C57.21 119.641 56.95 119.761 56.19 119.561V120.921C56.19 122.991 54.49 123.381 54.49 126.371C53.9 125.971 52.79 125.271 52.79 124.331V121.951C52.79 120.911 52.2 120.791 51.43 120.591L50.36 127.051L49.1 125.981L48.63 122.981C48.63 122.441 48.58 121.951 48.03 121.951C47.55 121.951 47.35 122.411 47.35 122.971V123.991H45.31C44.52 123.991 43.61 124.901 43.61 125.691C43.61 126.831 44.58 126.991 44.63 129.091L43.59 127.401L42.93 127.391H41.57V128.021H41.54Z" fill="white"></path>
    </g>
    <mask id="mask27_4321_10073" style="mask-type:luminance" maskUnits="userSpaceOnUse" x="0" y="0" width="127" height="157">
      <path d="M126.66 0H0V156.97H126.66V0Z" fill="white"></path>
    </mask>
    <g mask="url(#mask27_4321_10073)">
      <path fill-rule="evenodd" clip-rule="evenodd" d="M82.0601 90.2305H82.7401L83.4201 92.6105C82.3601 91.9105 82.1001 91.9305 82.0601 90.2305Z" fill="white"></path>
    </g>
    <mask id="mask28_4321_10073" style="mask-type:luminance" maskUnits="userSpaceOnUse" x="0" y="0" width="127" height="157">
      <path d="M126.66 0H0V156.97H126.66V0Z" fill="white"></path>
    </mask>
    <g mask="url(#mask28_4321_10073)">
      <path fill-rule="evenodd" clip-rule="evenodd" d="M14.98 125.301C17.45 125.351 19.66 127.851 21.45 129.041V129.721C21.45 131.331 22.3 132.321 23.83 132.441L23.9301 131.301L29.62 136.181C28.47 136.451 27.2401 136.311 27.2401 137.541V137.881C27.2401 138.801 27.0801 138.821 26.9001 139.581C22.8901 137.461 15.74 129.021 12.26 129.021H10.9C8.73005 129.021 7.57005 131.351 7.16005 133.111H6.48005C6.20005 131.921 5.80005 131.961 5.80005 130.731C5.80005 128.711 7.60005 126.811 9.54005 126.641V125.621H8.18005C8.18005 123.941 9.24005 121.881 10.22 121.881C13.16 121.881 13.98 123.181 16.69 123.241C15.5 124.881 15.19 122.871 14.98 125.301Z" fill="white"></path>
    </g>
    <mask id="mask29_4321_10073" style="mask-type:luminance" maskUnits="userSpaceOnUse" x="0" y="0" width="127" height="157">
      <path d="M126.66 0H0V156.97H126.66V0Z" fill="white"></path>
    </mask>
    <g mask="url(#mask29_4321_10073)">
      <path fill-rule="evenodd" clip-rule="evenodd" d="M35.75 130.069C35.75 130.549 35.29 130.749 34.73 130.749H34.39C33.83 130.749 33.37 130.549 33.37 130.069C33.37 129.109 34.45 127.689 35.41 127.689H35.75C36.25 127.689 37.25 128.419 37.79 128.709V129.389V130.069C37.79 133.189 32.39 135.309 32 139.939C28.48 140.759 24.51 145.509 24.51 149.819C24.51 150.939 25.2 151.099 26.21 151.179C26.03 150.419 25.87 150.399 25.87 149.479C25.87 148.699 26.11 148.459 26.89 148.459C27.68 148.459 27.91 148.699 27.91 149.479V150.159C27.91 151.029 26.87 152.199 25.87 152.199C24.68 152.199 23.15 151.709 23.15 150.499V150.159C23.15 145.739 28.26 143.959 28.26 137.899C31.82 137.899 36.77 132.169 36.77 130.069C36.77 129.039 36.18 128.919 35.41 128.709C35.63 129.619 35.75 129.349 35.75 130.069Z" fill="white"></path>
    </g>
    <mask id="mask30_4321_10073" style="mask-type:luminance" maskUnits="userSpaceOnUse" x="0" y="0" width="127" height="157">
      <path d="M126.66 0H0V156.97H126.66V0Z" fill="white"></path>
    </mask>
    <g mask="url(#mask30_4321_10073)">
      <path fill-rule="evenodd" clip-rule="evenodd" d="M75.9301 39.5009V38.8209C74.2601 37.7009 73.5201 37.0009 70.8201 36.7809V36.1009H71.84C76.66 36.1009 77.3501 37.7209 80.0101 39.5009V37.4609C80.0101 30.0009 73.1201 31.1909 72.5201 28.9509H76.95C78.79 28.9509 79.61 29.5809 80.69 30.3109C80.32 28.7109 78.49 24.8609 76.95 24.8609H76.2701C74.95 24.8609 72.5201 26.2109 72.5201 24.8609C72.5201 23.8609 73.5401 23.1409 73.5401 22.1409C73.5401 21.3509 72.63 20.4409 71.84 20.4409H70.8201C69.1601 20.4409 70.12 22.1909 67.42 22.8209C67.47 20.4509 68.44 21.2509 68.44 20.4409C68.44 19.9809 58.6101 13.6309 58.5701 13.6309C57.0201 13.6309 55.42 18.6709 54.84 19.7709C54.19 21.0009 50.4001 24.1409 50.4001 25.2009V25.8809C50.4001 27.5609 51.69 26.5909 53.12 26.5609C52.9 28.5609 51.7601 27.2709 51.7601 28.9409V30.6409C51.7601 31.6609 53.83 31.6109 55.16 34.3909C56.78 33.2009 57.16 30.9909 60.61 30.9909H60.95C63.74 30.9909 65.72 35.5109 65.72 38.4809V38.8209C65.72 42.0409 62.81 47.3309 59.59 47.3309H58.5701C56.0301 47.3309 54.8801 45.1109 54.7101 42.3909L52.78 43.9209H51.42C50.6 45.4609 50.3301 49.3709 48.3501 49.3709C46.7701 49.3709 47.3301 48.7309 45.2901 48.6909C45.2001 49.7609 44.95 49.9009 44.95 51.0709V52.0909C44.95 52.7509 45.56 53.4509 45.97 53.4509C46.81 53.4509 47.45 52.4209 48.69 52.0909C48.44 55.0509 45.7901 54.6309 43.4601 55.7109C42.0801 56.3509 40.1801 59.5309 40.1801 61.2809V62.3009C41.2501 62.2109 41.39 61.9609 42.56 61.9609H47.67C49.46 61.9609 50.6001 61.5509 51.7601 60.9409C51.2401 59.9609 50.7401 59.0409 50.7401 57.5409V54.8209C50.7401 53.1909 50.84 52.2309 52.5 52.1009L52.11 56.5209V57.2009C52.11 61.2709 55.5801 64.2609 59.6001 64.3509C59.1801 62.7809 57.9001 61.6809 57.9001 59.2409V56.5209C57.9001 55.1309 58.54 52.9309 59.94 52.7809V56.8609C59.94 60.5409 63.41 63.3909 66.75 63.6709C66.43 62.3009 65.73 61.9709 65.73 60.6109V52.1009C65.73 50.4209 64.51 50.5609 66.41 50.0609C66.69 51.2509 67.09 51.2109 67.09 52.4409C67.09 54.0309 67.4301 52.8909 67.4301 54.4809C67.4301 58.5509 70.68 61.2909 74.92 61.2909C74.74 60.5309 74.58 60.5109 74.58 59.5909V53.8009C74.58 47.3009 69.81 46.8409 69.81 45.6309C69.81 43.7409 73.4401 47.0209 73.8201 47.4109C75.1201 48.7609 75.44 50.7409 77.98 50.7409H78.66C80.94 50.7409 82.17 49.7209 83.09 48.3609C79.08 48.0209 75.9301 43.5109 75.9301 39.5009ZM58.5701 23.4909H56.53L57.48 22.3809L57.55 21.7909L57.36 20.9609L56 19.6009C57.48 19.5209 61.7 21.7809 61.98 22.8209C60.37 22.9409 60.2901 23.4909 58.5701 23.4909Z" fill="white"></path>
    </g>
    <mask id="mask31_4321_10073" style="mask-type:luminance" maskUnits="userSpaceOnUse" x="0" y="0" width="127" height="157">
      <path d="M126.66 0H0V156.97H126.66V0Z" fill="white"></path>
    </mask>
    <g mask="url(#mask31_4321_10073)">
      <path fill-rule="evenodd" clip-rule="evenodd" d="M29.62 142.67C29.62 141.92 31.62 141.33 32.62 141.24L33.37 140.63V139.95V139.61C33.37 139.05 33.57 138.59 34.05 138.59C34.5 138.59 39.34 142.35 40.25 142.95C41.79 143.97 45.45 145.84 47.29 146.47C52.05 148.11 58.28 150.17 64.7 150.17H71.85C73.79 150.17 74.53 149.49 75.94 149.49L76.65 149.64L86.18 148.12L86.5 149.15H87.52C87.96 147.48 89.49 146.47 91.61 146.42C91.94 147.84 92.6 148.8 94.33 148.8C97.65 148.8 98.47 146.42 101.82 146.42C101.18 147.37 100.46 147.6 100.46 149.15V149.83C100.46 151 100.71 151.15 100.8 152.21C99.23 152.34 96.35 153.49 94.67 153.92C92.5 154.47 90.29 154.83 87.99 155.41C84.15 156.38 77.82 156.98 73.21 156.98H64.36C58.93 156.98 48.4 153.97 44.61 152.22C42.5 151.23 29.62 144.08 29.62 142.67Z" fill="white"></path>
    </g>
    <path d="M605.62 108.599L600.1 109.549V137.089C600.1 139.149 600.27 140.959 600.61 142.519C600.95 144.079 601.53 145.399 602.36 146.469C603.19 147.539 604.29 148.339 605.65 148.869C607.02 149.399 608.75 149.669 610.84 149.669C612.62 149.669 614.2 149.459 615.59 149.049C616.98 148.629 617.94 148.289 618.5 148.009L617.43 143.439C617.03 143.599 616.33 143.869 615.32 144.239C614.31 144.619 612.98 144.799 611.31 144.799C610.36 144.799 609.53 144.679 608.82 144.439C608.11 144.199 607.51 143.799 607.04 143.219C606.57 142.649 606.21 141.859 605.97 140.849C605.73 139.839 605.61 138.569 605.61 137.019V122.769H617.3V118.139H605.61V108.599H605.62ZM571.48 130.629C571.6 129.559 571.85 128.509 572.22 127.479C572.6 126.449 573.12 125.539 573.79 124.749C574.46 123.959 575.28 123.319 576.25 122.819C577.22 122.329 578.34 122.079 579.6 122.079C581.86 122.079 583.63 122.879 584.91 124.479C586.2 126.079 586.82 128.129 586.78 130.619H571.48V130.629ZM566.52 140.099C567.13 142.059 568.07 143.749 569.34 145.179C570.61 146.599 572.22 147.719 574.18 148.529C576.14 149.339 578.46 149.749 581.16 149.749C583.3 149.749 585.21 149.549 586.89 149.159C588.57 148.769 589.75 148.389 590.42 148.029L589.65 143.399C588.98 143.719 587.98 144.039 586.65 144.379C585.32 144.719 583.69 144.889 581.75 144.889C578.31 144.889 575.77 144.059 574.15 142.399C572.53 140.739 571.6 138.299 571.36 135.099H592.49C592.53 134.779 592.55 134.439 592.55 134.059V133.139C592.55 127.839 591.44 123.889 589.23 121.299C587.01 118.709 583.83 117.409 579.67 117.409C577.89 117.409 576.15 117.749 574.45 118.419C572.75 119.089 571.24 120.099 569.94 121.449C568.63 122.799 567.58 124.489 566.79 126.529C566 128.569 565.6 130.949 565.6 133.679C565.6 135.989 565.91 138.139 566.52 140.099ZM552.38 128.639C553.55 127.429 554.7 126.229 555.85 125.019C557 123.809 558.11 122.619 559.17 121.429C560.24 120.239 561.23 119.159 562.14 118.169H555.67C554.96 118.999 554.11 119.959 553.12 121.049C552.13 122.139 551.08 123.279 549.97 124.459C548.86 125.649 547.73 126.809 546.59 127.959C545.44 129.109 544.39 130.159 543.44 131.109V102.969L537.92 103.919V149.029H543.44V134.189C544.55 134.939 545.72 135.869 546.94 136.979C548.17 138.089 549.37 139.309 550.56 140.629C551.75 141.959 552.88 143.339 553.97 144.789C555.06 146.239 556.02 147.649 556.85 149.029H563.32C562.53 147.649 561.56 146.149 560.41 144.549C559.26 142.949 558.04 141.369 556.76 139.799C555.47 138.239 554.17 136.779 552.84 135.439C551.51 134.089 550.26 132.969 549.07 132.059C550.11 130.979 551.21 129.849 552.38 128.639ZM519.92 118.129C517.98 118.549 516.36 118.989 515.05 119.469V149.029H520.57V123.089C520.89 123.009 521.55 122.859 522.56 122.639C523.57 122.419 524.59 122.309 525.62 122.309C527.2 122.309 528.5 122.419 529.51 122.639C530.52 122.859 531.24 123.049 531.68 123.199L532.63 118.389C532.39 118.309 532.03 118.219 531.53 118.119C531.04 118.019 530.49 117.919 529.9 117.819C529.31 117.719 528.7 117.639 528.09 117.579C527.48 117.519 526.93 117.489 526.46 117.489C524.04 117.509 521.86 117.719 519.92 118.129ZM486.07 130.629C486.19 129.559 486.43 128.509 486.81 127.479C487.19 126.449 487.71 125.539 488.38 124.749C489.05 123.959 489.87 123.319 490.84 122.819C491.81 122.329 492.93 122.079 494.19 122.079C496.45 122.079 498.22 122.879 499.5 124.479C500.79 126.079 501.41 128.129 501.37 130.619H486.07V130.629ZM481.11 140.099C481.72 142.059 482.66 143.749 483.93 145.179C485.2 146.599 486.81 147.719 488.77 148.529C490.73 149.339 493.05 149.749 495.74 149.749C497.88 149.749 499.78 149.549 501.47 149.159C503.15 148.769 504.33 148.389 505 148.029L504.23 143.399C503.56 143.719 502.56 144.039 501.23 144.379C499.9 144.719 498.27 144.889 496.33 144.889C492.89 144.889 490.35 144.059 488.73 142.399C487.11 140.739 486.18 138.299 485.94 135.099H507.07C507.11 134.779 507.13 134.439 507.13 134.059V133.139C507.13 127.839 506.02 123.889 503.81 121.299C501.59 118.709 498.41 117.409 494.25 117.409C492.47 117.409 490.73 117.749 489.03 118.419C487.33 119.089 485.82 120.099 484.52 121.449C483.21 122.799 482.16 124.489 481.37 126.529C480.58 128.569 480.18 130.949 480.18 133.679C480.19 135.989 480.5 138.139 481.11 140.099ZM471.39 118.159C470.92 120.099 470.35 122.169 469.7 124.359C469.05 126.559 468.35 128.729 467.62 130.889C466.89 133.049 466.15 135.129 465.39 137.149C464.64 139.169 463.93 140.969 463.25 142.549C462.58 140.969 461.86 139.169 461.11 137.149C460.36 135.129 459.62 133.039 458.88 130.889C458.15 128.729 457.46 126.559 456.8 124.359C456.15 122.159 455.58 120.099 455.11 118.159H449.17C450.71 123.939 452.52 129.479 454.6 134.779C456.68 140.079 458.69 144.829 460.63 149.029H465.62C467.56 144.839 469.57 140.089 471.65 134.779C473.73 129.479 475.54 123.939 477.08 118.159H471.39ZM428.22 144.339C426.83 143.859 425.83 143.509 425.19 143.269L424.18 148.019C424.73 148.259 425.78 148.599 427.33 149.059C428.87 149.509 431.01 149.739 433.74 149.739C437.66 149.739 440.67 149.009 442.79 147.539C444.91 146.079 445.97 143.919 445.97 141.069C445.97 139.609 445.75 138.369 445.32 137.359C444.88 136.349 444.26 135.489 443.45 134.779C442.64 134.069 441.66 133.439 440.51 132.909C439.36 132.369 438.06 131.829 436.59 131.279C435.48 130.879 434.53 130.509 433.74 130.149C432.95 129.789 432.28 129.409 431.75 128.989C431.22 128.569 430.82 128.109 430.56 127.599C430.3 127.089 430.17 126.489 430.17 125.819C430.17 124.509 430.74 123.549 431.89 122.939C433.04 122.329 434.38 122.019 435.93 122.019C437.71 122.019 439.23 122.189 440.5 122.529C441.77 122.869 442.7 123.189 443.29 123.509L444.3 118.759C443.98 118.639 443.54 118.499 442.96 118.349C442.39 118.189 441.72 118.039 440.97 117.899C440.22 117.759 439.41 117.639 438.54 117.539C437.67 117.439 436.8 117.389 435.93 117.389C432.45 117.389 429.7 118.189 427.68 119.789C425.66 121.389 424.65 123.559 424.65 126.289C424.65 127.679 424.89 128.839 425.36 129.789C425.84 130.739 426.47 131.549 427.26 132.219C428.05 132.889 428.99 133.479 430.08 133.969C431.17 134.459 432.31 134.949 433.49 135.429C435.94 136.419 437.71 137.309 438.77 138.099C439.84 138.889 440.37 139.959 440.37 141.299C440.37 142.609 439.83 143.559 438.74 144.149C437.65 144.739 435.98 145.039 433.72 145.039C431.45 145.049 429.61 144.819 428.22 144.339ZM411.59 141.079C410.88 141.629 409.91 142.119 408.68 142.529C407.45 142.949 406.11 143.149 404.64 143.149C403.57 143.149 402.53 142.949 401.52 142.559C400.51 142.169 399.62 141.549 398.85 140.719C398.08 139.889 397.46 138.839 397.01 137.569C396.55 136.299 396.33 134.779 396.33 132.999C396.33 129.789 397.13 127.219 398.73 125.279C400.33 123.339 402.62 122.369 405.59 122.369C407.17 122.369 408.43 122.439 409.36 122.579C410.29 122.719 411.03 122.869 411.59 123.019V141.079ZM411.65 147.249C411.65 150.099 410.93 152.179 409.48 153.479C408.03 154.789 405.67 155.439 402.39 155.439C400.65 155.439 398.98 155.269 397.37 154.939C395.77 154.599 394.41 154.219 393.3 153.779L392.29 158.589C393.56 159.019 395.05 159.399 396.77 159.719C398.49 160.039 400.32 160.199 402.26 160.199C407.25 160.199 410.96 159.129 413.42 156.989C415.87 154.849 417.1 151.409 417.1 146.659V119.119C415.79 118.799 414.18 118.459 412.26 118.079C410.34 117.699 408.1 117.519 405.52 117.519C403.18 117.519 401.09 117.909 399.23 118.679C397.37 119.449 395.8 120.519 394.51 121.889C393.22 123.259 392.24 124.879 391.57 126.759C390.9 128.639 390.56 130.709 390.56 132.959C390.56 135.529 390.92 137.749 391.63 139.609C392.34 141.469 393.31 143.019 394.54 144.269C395.77 145.519 397.2 146.439 398.84 147.029C400.48 147.619 402.23 147.919 404.09 147.919C405.91 147.919 407.5 147.669 408.87 147.179C410.24 146.689 411.16 146.279 411.63 145.959V147.249H411.65ZM358.27 149.029H363.79V122.969C363.99 122.929 364.31 122.869 364.77 122.789C365.22 122.709 365.74 122.639 366.31 122.579C366.88 122.519 367.49 122.469 368.12 122.429C368.75 122.389 369.37 122.369 369.96 122.369C371.42 122.369 372.65 122.559 373.64 122.929C374.63 123.309 375.42 123.909 376.02 124.739C376.61 125.569 377.04 126.659 377.3 127.999C377.56 129.349 377.69 130.969 377.69 132.869V149.019H383.21V131.699C383.21 129.599 383.01 127.679 382.62 125.939C382.22 124.199 381.54 122.709 380.57 121.459C379.6 120.209 378.3 119.239 376.68 118.549C375.06 117.859 373.02 117.509 370.56 117.509C367.83 117.509 365.42 117.689 363.32 118.039C361.22 118.399 359.54 118.729 358.27 119.049V149.029ZM348.55 111.599C349.24 110.949 349.59 110.069 349.59 108.959C349.59 107.849 349.24 106.969 348.55 106.319C347.86 105.669 347.02 105.339 346.03 105.339C345.04 105.339 344.2 105.669 343.51 106.319C342.82 106.969 342.47 107.849 342.47 108.959C342.47 110.069 342.82 110.949 343.51 111.599C344.2 112.249 345.04 112.579 346.03 112.579C347.01 112.579 347.85 112.259 348.55 111.599ZM348.81 118.159H343.29V149.029H348.81V118.159ZM309.26 149.029H314.78V122.969C314.98 122.929 315.3 122.869 315.76 122.789C316.21 122.709 316.73 122.639 317.3 122.579C317.87 122.519 318.48 122.469 319.11 122.429C319.74 122.389 320.36 122.369 320.95 122.369C322.41 122.369 323.64 122.559 324.63 122.929C325.62 123.309 326.41 123.909 327 124.739C327.59 125.569 328.02 126.659 328.28 127.999C328.54 129.349 328.66 130.969 328.66 132.869V149.019H334.18V131.699C334.18 129.599 333.98 127.679 333.59 125.939C333.19 124.199 332.51 122.709 331.54 121.459C330.57 120.209 329.27 119.239 327.65 118.549C326.03 117.859 323.99 117.509 321.54 117.509C318.81 117.509 316.4 117.689 314.3 118.039C312.2 118.399 310.52 118.729 309.25 119.049V149.029H309.26ZM292.78 128.639C293.95 127.429 295.1 126.229 296.25 125.019C297.4 123.809 298.51 122.619 299.57 121.429C300.64 120.239 301.63 119.159 302.54 118.169H296.07C295.36 118.999 294.51 119.959 293.52 121.049C292.53 122.139 291.48 123.279 290.37 124.459C289.26 125.649 288.13 126.809 286.99 127.959C285.84 129.109 284.79 130.159 283.84 131.109V102.969L278.32 103.919V149.029H283.84V134.189C284.95 134.939 286.11 135.869 287.34 136.979C288.57 138.089 289.77 139.309 290.96 140.629C292.15 141.959 293.28 143.339 294.37 144.789C295.46 146.239 296.42 147.649 297.25 149.029H303.72C302.93 147.649 301.96 146.149 300.81 144.549C299.66 142.949 298.44 141.369 297.16 139.799C295.87 138.239 294.57 136.779 293.24 135.439C291.91 134.089 290.66 132.969 289.47 132.059C290.51 130.979 291.61 129.849 292.78 128.639ZM264.15 111.479C264.84 110.829 265.19 109.989 265.19 108.959C265.19 107.929 264.84 107.089 264.15 106.439C263.46 105.789 262.66 105.459 261.75 105.459C260.84 105.459 260.04 105.789 259.35 106.439C258.66 107.089 258.31 107.929 258.31 108.959C258.31 109.989 258.66 110.829 259.35 111.479C260.04 112.129 260.84 112.459 261.75 112.459C262.66 112.459 263.46 112.139 264.15 111.479ZM252.87 111.479C253.56 110.829 253.91 109.989 253.91 108.959C253.91 107.929 253.56 107.089 252.87 106.439C252.18 105.789 251.38 105.459 250.47 105.459C249.56 105.459 248.76 105.789 248.07 106.439C247.38 107.089 247.03 107.929 247.03 108.959C247.03 109.989 247.38 110.829 248.07 111.479C248.76 112.129 249.56 112.459 250.47 112.459C251.38 112.459 252.18 112.139 252.87 111.479ZM262.49 141.879C260.93 143.919 258.8 144.939 256.11 144.939C253.42 144.939 251.29 143.919 249.73 141.879C248.17 139.839 247.39 137.079 247.39 133.599C247.39 130.119 248.17 127.359 249.73 125.319C251.29 123.279 253.42 122.259 256.11 122.259C258.8 122.259 260.93 123.279 262.49 125.319C264.05 127.359 264.84 130.119 264.84 133.599C264.83 137.079 264.05 139.839 262.49 141.879ZM269.52 126.979C268.81 124.979 267.81 123.269 266.52 121.849C265.23 120.419 263.7 119.329 261.92 118.549C260.14 117.779 258.2 117.389 256.1 117.389C254 117.389 252.06 117.779 250.28 118.549C248.5 119.319 246.96 120.419 245.68 121.849C244.39 123.269 243.39 124.989 242.68 126.979C241.97 128.979 241.61 131.179 241.61 133.599C241.61 136.059 241.97 138.269 242.68 140.249C243.39 142.229 244.39 143.929 245.68 145.359C246.97 146.779 248.5 147.879 250.28 148.649C252.06 149.419 254 149.809 256.1 149.809C258.2 149.809 260.14 149.419 261.92 148.649C263.7 147.879 265.23 146.779 266.52 145.359C267.81 143.929 268.81 142.229 269.52 140.249C270.23 138.269 270.59 136.059 270.59 133.599C270.59 131.179 270.23 128.979 269.52 126.979ZM218.57 144.339C217.18 143.859 216.18 143.509 215.54 143.269L214.53 148.019C215.08 148.259 216.13 148.599 217.68 149.059C219.22 149.509 221.36 149.739 224.09 149.739C228.01 149.739 231.02 149.009 233.14 147.539C235.26 146.079 236.32 143.919 236.32 141.069C236.32 139.609 236.1 138.369 235.67 137.359C235.23 136.349 234.61 135.489 233.8 134.779C232.99 134.069 232.01 133.439 230.86 132.909C229.71 132.369 228.41 131.829 226.94 131.279C225.83 130.879 224.88 130.509 224.09 130.149C223.3 129.789 222.63 129.409 222.1 128.989C221.57 128.569 221.17 128.109 220.91 127.599C220.65 127.089 220.52 126.489 220.52 125.819C220.52 124.509 221.09 123.549 222.24 122.939C223.39 122.329 224.73 122.019 226.28 122.019C228.06 122.019 229.58 122.189 230.85 122.529C232.12 122.869 233.05 123.189 233.64 123.509L234.65 118.759C234.33 118.639 233.89 118.499 233.31 118.349C232.74 118.189 232.07 118.039 231.32 117.899C230.57 117.759 229.76 117.639 228.89 117.539C228.02 117.439 227.15 117.389 226.28 117.389C222.8 117.389 220.05 118.189 218.03 119.789C216.01 121.389 215 123.559 215 126.289C215 127.679 215.24 128.839 215.71 129.789C216.19 130.739 216.82 131.549 217.61 132.219C218.4 132.889 219.34 133.479 220.43 133.969C221.52 134.459 222.66 134.949 223.84 135.429C226.29 136.419 228.05 137.309 229.12 138.099C230.19 138.889 230.72 139.959 230.72 141.299C230.72 142.609 230.18 143.559 229.09 144.149C228 144.739 226.33 145.039 224.07 145.039C221.8 145.049 219.96 144.819 218.57 144.339ZM198.26 108.599L192.74 109.549V137.089C192.74 139.149 192.91 140.959 193.24 142.519C193.58 144.079 194.16 145.399 194.99 146.469C195.82 147.539 196.92 148.339 198.29 148.869C199.65 149.399 201.39 149.669 203.48 149.669C205.26 149.669 206.84 149.459 208.23 149.049C209.62 148.629 210.59 148.289 211.14 148.009L210.07 143.439C209.67 143.599 208.97 143.869 207.96 144.239C206.95 144.619 205.62 144.799 203.95 144.799C203 144.799 202.17 144.679 201.46 144.439C200.75 144.199 200.15 143.799 199.68 143.219C199.21 142.649 198.85 141.859 198.61 140.849C198.37 139.839 198.25 138.569 198.25 137.019V122.769H209.94V118.139H198.25V108.599H198.26ZM174.94 148.669C176.9 147.839 178.52 146.699 179.81 145.259C181.1 143.819 182.05 142.099 182.66 140.129C183.27 138.149 183.58 136.009 183.58 133.719V107.899H177.82V133.069C177.82 135.129 177.58 136.899 177.11 138.379C176.64 139.859 175.96 141.079 175.09 142.029C174.22 142.979 173.18 143.679 171.97 144.139C170.76 144.599 169.43 144.819 167.96 144.819C165.03 144.819 162.66 143.889 160.84 142.029C159.02 140.169 158.11 137.179 158.11 133.069V107.899H152.35V133.719C152.35 136.019 152.66 138.149 153.27 140.129C153.88 142.109 154.82 143.819 156.09 145.259C157.36 146.709 158.98 147.839 160.96 148.669C162.94 149.499 165.27 149.919 167.96 149.919C170.66 149.919 172.99 149.499 174.94 148.669Z" fill="white"></path>
    <path d="M509.71 80.5892C508.32 80.1092 507.32 79.7592 506.68 79.5192L505.67 84.2692C506.22 84.5092 507.27 84.8492 508.82 85.3092C510.36 85.7592 512.5 85.9892 515.23 85.9892C519.15 85.9892 522.16 85.2592 524.28 83.7892C526.4 82.3292 527.46 80.1692 527.46 77.3192C527.46 75.8592 527.24 74.6192 526.81 73.6092C526.37 72.5992 525.75 71.7392 524.94 71.0292C524.13 70.3192 523.15 69.6892 522 69.1592C520.85 68.6192 519.55 68.0792 518.08 67.5292C516.97 67.1292 516.02 66.7592 515.23 66.3992C514.44 66.0392 513.78 65.6592 513.24 65.2392C512.71 64.8192 512.31 64.3592 512.05 63.8392C511.79 63.3292 511.66 62.7292 511.66 62.0592C511.66 60.7492 512.23 59.7892 513.38 59.1792C514.53 58.5692 515.87 58.2592 517.42 58.2592C519.2 58.2592 520.72 58.4292 521.99 58.7692C523.26 59.1092 524.19 59.4292 524.78 59.7492L525.79 54.9992C525.47 54.8792 525.03 54.7392 524.45 54.5892C523.88 54.4292 523.21 54.2792 522.46 54.1392C521.71 53.9992 520.9 53.8792 520.03 53.7792C519.16 53.6792 518.29 53.6292 517.42 53.6292C513.94 53.6292 511.19 54.4292 509.17 56.0292C507.15 57.6292 506.14 59.7992 506.14 62.5292C506.14 63.9192 506.38 65.0792 506.85 66.0292C507.33 66.9792 507.96 67.7892 508.75 68.4592C509.54 69.1292 510.48 69.7192 511.57 70.2092C512.66 70.6992 513.8 71.1892 514.98 71.6592C517.43 72.6492 519.2 73.5392 520.26 74.3292C521.33 75.1192 521.86 76.1892 521.86 77.5292C521.86 78.8392 521.32 79.7892 520.23 80.3792C519.14 80.9692 517.47 81.2692 515.21 81.2692C512.93 81.2992 511.09 81.0692 509.71 80.5892ZM492.17 78.1292C490.61 80.1692 488.48 81.1892 485.79 81.1892C483.1 81.1892 480.97 80.1692 479.41 78.1292C477.85 76.0892 477.07 73.3292 477.07 69.8492C477.07 66.3692 477.85 63.6092 479.41 61.5692C480.97 59.5292 483.1 58.5092 485.79 58.5092C488.48 58.5092 490.61 59.5292 492.17 61.5692C493.73 63.6092 494.51 66.3692 494.51 69.8492C494.51 73.3292 493.73 76.0892 492.17 78.1292ZM499.2 63.2292C498.49 61.2292 497.49 59.5192 496.2 58.0892C494.91 56.6692 493.38 55.5692 491.6 54.7992C489.82 54.0292 487.88 53.6392 485.78 53.6392C483.68 53.6392 481.74 54.0292 479.96 54.7992C478.18 55.5692 476.64 56.6692 475.36 58.0892C474.07 59.5192 473.07 61.2292 472.36 63.2292C471.65 65.2292 471.29 67.4292 471.29 69.8492C471.29 72.2992 471.65 74.5192 472.36 76.4992C473.07 78.4792 474.07 80.1792 475.36 81.6092C476.64 83.0292 478.18 84.1292 479.96 84.8992C481.74 85.6692 483.68 86.0592 485.78 86.0592C487.88 86.0592 489.82 85.6692 491.6 84.8992C493.38 84.1292 494.91 83.0292 496.2 81.6092C497.48 80.1792 498.48 78.4792 499.2 76.4992C499.91 74.5192 500.27 72.3092 500.27 69.8492C500.27 67.4292 499.91 65.2292 499.2 63.2292ZM455.15 44.8492L449.63 45.7992V73.3392C449.63 75.3992 449.8 77.2092 450.14 78.7692C450.48 80.3292 451.06 81.6492 451.89 82.7192C452.72 83.7892 453.82 84.5892 455.18 85.1192C456.55 85.6492 458.28 85.9192 460.37 85.9192C462.15 85.9192 463.73 85.7092 465.12 85.2992C466.5 84.8792 467.47 84.5392 468.03 84.2592L466.96 79.6892C466.56 79.8492 465.86 80.1192 464.85 80.4892C463.84 80.8692 462.51 81.0492 460.84 81.0492C459.89 81.0492 459.06 80.9292 458.35 80.6892C457.64 80.4492 457.04 80.0492 456.57 79.4692C456.1 78.8992 455.74 78.0992 455.5 77.0992C455.26 76.0892 455.14 74.8192 455.14 73.2692V59.0192H466.83V54.3892H455.14V44.8492H455.15ZM440.23 47.8492C440.92 47.1992 441.27 46.3192 441.27 45.2092C441.27 44.0992 440.92 43.2192 440.23 42.5692C439.54 41.9192 438.7 41.5892 437.71 41.5892C436.72 41.5892 435.88 41.9192 435.19 42.5692C434.5 43.2192 434.15 44.0992 434.15 45.2092C434.15 46.3192 434.5 47.1992 435.19 47.8492C435.88 48.4992 436.72 48.8292 437.71 48.8292C438.69 48.8292 439.53 48.5092 440.23 47.8492ZM440.49 54.4092H434.97V85.2792H440.49V54.4092ZM408.56 54.0892C406.9 54.3892 405.71 54.6892 405 55.0092L405.65 59.5792C406.32 59.2992 407.34 59.0392 408.71 58.7792C410.07 58.5192 411.67 58.3892 413.49 58.3892C414.91 58.3892 416.07 58.5992 416.96 59.0092C417.85 59.4292 418.55 59.9792 419.07 60.6692C419.58 61.3592 419.94 62.1492 420.14 63.0392C420.34 63.9292 420.44 64.8292 420.44 65.7392V67.2792C420.28 67.2392 420 67.1792 419.61 67.0992C419.21 67.0192 418.75 66.9292 418.21 66.8292C417.68 66.7292 417.11 66.6492 416.52 66.5892C415.93 66.5292 415.35 66.4992 414.8 66.4992C413.06 66.4992 411.4 66.6792 409.81 67.0292C408.23 67.3892 406.84 67.9392 405.66 68.6892C404.47 69.4392 403.53 70.4292 402.84 71.6592C402.15 72.8892 401.8 74.3492 401.8 76.0492C401.8 77.8292 402.1 79.3492 402.69 80.6192C403.28 81.8892 404.11 82.9092 405.18 83.6792C406.25 84.4492 407.51 85.0192 408.98 85.3692C410.44 85.7292 412.05 85.8992 413.79 85.8992C415.02 85.8992 416.25 85.8492 417.5 85.7492C418.75 85.6492 419.9 85.5392 420.97 85.4192C422.04 85.2992 423 85.1692 423.85 85.0292C424.7 84.8892 425.36 84.7792 425.84 84.6992V65.4092C425.84 63.6692 425.64 62.0792 425.25 60.6292C424.85 59.1892 424.19 57.9392 423.26 56.8892C422.33 55.8392 421.1 55.0292 419.58 54.4592C418.06 53.8892 416.19 53.5992 413.97 53.5992C412.02 53.6392 410.22 53.7892 408.56 54.0892ZM409.27 80.1392C408 79.3692 407.37 77.9892 407.37 76.0192C407.37 74.9492 407.63 74.0892 408.14 73.4392C408.65 72.7892 409.3 72.2692 410.07 71.8992C410.84 71.5192 411.69 71.2792 412.62 71.1592C413.55 71.0392 414.43 70.9792 415.26 70.9792C416.53 70.9792 417.6 71.0492 418.49 71.1892C419.38 71.3292 420.02 71.4992 420.42 71.6892V80.8892C419.75 81.0492 418.91 81.1592 417.9 81.2192C416.89 81.2792 415.73 81.3092 414.43 81.3092C412.26 81.2992 410.54 80.9192 409.27 80.1392ZM397.81 81.2392C396.94 81.1192 396.21 80.9692 395.61 80.7892C395.02 80.6092 394.54 80.3392 394.18 79.9892C393.82 79.6292 393.57 79.1592 393.41 78.5592C393.25 77.9692 393.17 77.2092 393.17 76.2992V39.1992L387.65 40.1492V77.1892C387.65 80.1192 388.36 82.2792 389.79 83.6592C391.21 85.0492 393.63 85.7792 397.03 85.8592L397.81 81.2392ZM371.9 78.1292C370.34 80.1692 368.21 81.1892 365.52 81.1892C362.83 81.1892 360.7 80.1692 359.14 78.1292C357.58 76.0892 356.79 73.3292 356.79 69.8492C356.79 66.3692 357.57 63.6092 359.14 61.5692C360.7 59.5292 362.83 58.5092 365.52 58.5092C368.21 58.5092 370.34 59.5292 371.9 61.5692C373.46 63.6092 374.24 66.3692 374.24 69.8492C374.25 73.3292 373.47 76.0892 371.9 78.1292ZM378.94 63.2292C378.23 61.2292 377.23 59.5192 375.94 58.0892C374.65 56.6692 373.12 55.5692 371.34 54.7992C369.56 54.0292 367.62 53.6392 365.52 53.6392C363.42 53.6392 361.48 54.0292 359.7 54.7992C357.92 55.5692 356.38 56.6692 355.1 58.0892C353.81 59.5192 352.81 61.2292 352.1 63.2292C351.39 65.2292 351.03 67.4292 351.03 69.8492C351.03 72.2992 351.39 74.5192 352.1 76.4992C352.81 78.4792 353.81 80.1792 355.1 81.6092C356.39 83.0292 357.92 84.1292 359.7 84.8992C361.48 85.6692 363.42 86.0592 365.52 86.0592C367.62 86.0592 369.56 85.6692 371.34 84.8992C373.12 84.1292 374.65 83.0292 375.94 81.6092C377.23 80.1792 378.23 78.4792 378.94 76.4992C379.65 74.5192 380.01 72.3092 380.01 69.8492C380 67.4292 379.65 65.2292 378.94 63.2292ZM334.89 44.8492L329.37 45.7992V73.3392C329.37 75.3992 329.54 77.2092 329.87 78.7692C330.21 80.3292 330.79 81.6492 331.62 82.7192C332.45 83.7892 333.55 84.5892 334.91 85.1192C336.28 85.6492 338.01 85.9192 340.1 85.9192C341.88 85.9192 343.46 85.7092 344.85 85.2992C346.23 84.8792 347.2 84.5392 347.76 84.2592L346.69 79.6892C346.29 79.8492 345.59 80.1192 344.58 80.4892C343.57 80.8692 342.24 81.0492 340.57 81.0492C339.62 81.0492 338.79 80.9292 338.08 80.6892C337.37 80.4492 336.77 80.0492 336.3 79.4692C335.82 78.8992 335.47 78.0992 335.23 77.0992C334.99 76.0892 334.87 74.8192 334.87 73.2692V59.0192H346.56V54.3892H334.87V44.8492H334.89ZM311.03 44.8492L305.51 45.7992V73.3392C305.51 75.3992 305.68 77.2092 306.01 78.7692C306.35 80.3292 306.93 81.6492 307.76 82.7192C308.59 83.7892 309.69 84.5892 311.05 85.1192C312.41 85.6492 314.15 85.9192 316.24 85.9192C318.02 85.9192 319.6 85.7092 320.99 85.2992C322.37 84.8792 323.34 84.5392 323.9 84.2592L322.83 79.6892C322.43 79.8492 321.73 80.1192 320.72 80.4892C319.71 80.8692 318.37 81.0492 316.71 81.0492C315.76 81.0492 314.93 80.9292 314.22 80.6892C313.51 80.4492 312.91 80.0492 312.44 79.4692C311.96 78.8992 311.61 78.0992 311.37 77.0992C311.13 76.0892 311.01 74.8192 311.01 73.2692V59.0192H322.71V54.3892H311.01V44.8492H311.03ZM289.98 78.1292C288.42 80.1692 286.29 81.1892 283.6 81.1892C280.91 81.1892 278.78 80.1692 277.22 78.1292C275.66 76.0892 274.87 73.3292 274.87 69.8492C274.87 66.3692 275.65 63.6092 277.22 61.5692C278.78 59.5292 280.91 58.5092 283.6 58.5092C286.29 58.5092 288.42 59.5292 289.98 61.5692C291.54 63.6092 292.33 66.3692 292.33 69.8492C292.33 73.3292 291.55 76.0892 289.98 78.1292ZM297.02 63.2292C296.31 61.2292 295.31 59.5192 294.02 58.0892C292.73 56.6692 291.2 55.5692 289.42 54.7992C287.64 54.0292 285.7 53.6392 283.6 53.6392C281.5 53.6392 279.56 54.0292 277.78 54.7992C276 55.5692 274.46 56.6692 273.18 58.0892C271.89 59.5192 270.89 61.2292 270.18 63.2292C269.47 65.2292 269.11 67.4292 269.11 69.8492C269.11 72.2992 269.47 74.5192 270.18 76.4992C270.89 78.4792 271.89 80.1792 273.18 81.6092C274.47 83.0292 276 84.1292 277.78 84.8992C279.56 85.6692 281.5 86.0592 283.6 86.0592C285.7 86.0592 287.64 85.6692 289.42 84.8992C291.2 84.1292 292.73 83.0292 294.02 81.6092C295.31 80.1792 296.31 78.4792 297.02 76.4992C297.73 74.5192 298.09 72.3092 298.09 69.8492C298.09 67.4292 297.73 65.2292 297.02 63.2292ZM246.03 80.5892C244.65 80.1092 243.64 79.7592 243 79.5192L241.99 84.2692C242.54 84.5092 243.59 84.8492 245.14 85.3092C246.68 85.7592 248.82 85.9892 251.55 85.9892C255.47 85.9892 258.49 85.2592 260.6 83.7892C262.72 82.3292 263.78 80.1692 263.78 77.3192C263.78 75.8592 263.56 74.6192 263.13 73.6092C262.69 72.5992 262.07 71.7392 261.26 71.0292C260.45 70.3192 259.47 69.6892 258.32 69.1592C257.17 68.6192 255.87 68.0792 254.4 67.5292C253.29 67.1292 252.34 66.7592 251.55 66.3992C250.76 66.0392 250.1 65.6592 249.56 65.2392C249.03 64.8192 248.63 64.3592 248.37 63.8392C248.11 63.3292 247.98 62.7292 247.98 62.0592C247.98 60.7492 248.55 59.7892 249.7 59.1792C250.85 58.5692 252.19 58.2592 253.74 58.2592C255.52 58.2592 257.04 58.4292 258.31 58.7692C259.58 59.1092 260.51 59.4292 261.1 59.7492L262.11 54.9992C261.79 54.8792 261.35 54.7392 260.78 54.5892C260.21 54.4292 259.54 54.2792 258.79 54.1392C258.04 53.9992 257.23 53.8792 256.36 53.7792C255.49 53.6792 254.62 53.6292 253.75 53.6292C250.27 53.6292 247.52 54.4292 245.5 56.0292C243.48 57.6292 242.47 59.7992 242.47 62.5292C242.47 63.9192 242.71 65.0792 243.18 66.0292C243.66 66.9792 244.29 67.7892 245.08 68.4592C245.87 69.1292 246.81 69.7192 247.9 70.2092C248.99 70.6992 250.13 71.1892 251.31 71.6592C253.76 72.6492 255.52 73.5392 256.59 74.3292C257.66 75.1192 258.19 76.1892 258.19 77.5292C258.19 78.8392 257.65 79.7892 256.56 80.3792C255.47 80.9692 253.8 81.2692 251.54 81.2692C249.25 81.2992 247.41 81.0692 246.03 80.5892ZM228.49 78.1292C226.93 80.1692 224.8 81.1892 222.11 81.1892C219.42 81.1892 217.29 80.1692 215.73 78.1292C214.17 76.0892 213.38 73.3292 213.38 69.8492C213.38 66.3692 214.16 63.6092 215.73 61.5692C217.29 59.5292 219.42 58.5092 222.11 58.5092C224.8 58.5092 226.93 59.5292 228.49 61.5692C230.05 63.6092 230.83 66.3692 230.83 69.8492C230.83 73.3292 230.05 76.0892 228.49 78.1292ZM235.52 63.2292C234.81 61.2292 233.81 59.5192 232.52 58.0892C231.23 56.6692 229.7 55.5692 227.92 54.7992C226.14 54.0292 224.2 53.6392 222.1 53.6392C220 53.6392 218.06 54.0292 216.28 54.7992C214.5 55.5692 212.96 56.6692 211.68 58.0892C210.39 59.5192 209.39 61.2292 208.68 63.2292C207.97 65.2292 207.61 67.4292 207.61 69.8492C207.61 72.2992 207.97 74.5192 208.68 76.4992C209.39 78.4792 210.39 80.1792 211.68 81.6092C212.97 83.0292 214.5 84.1292 216.28 84.8992C218.06 85.6692 220 86.0592 222.1 86.0592C224.2 86.0592 226.14 85.6692 227.92 84.8992C229.7 84.1292 231.23 83.0292 232.52 81.6092C233.81 80.1792 234.81 78.4792 235.52 76.4992C236.23 74.5192 236.59 72.3092 236.59 69.8492C236.59 67.4292 236.23 65.2292 235.52 63.2292ZM203.17 81.2392C202.3 81.1192 201.57 80.9692 200.97 80.7892C200.38 80.6092 199.9 80.3392 199.54 79.9892C199.18 79.6292 198.93 79.1592 198.77 78.5592C198.61 77.9692 198.53 77.2092 198.53 76.2992V39.1992L193.01 40.1492V77.1892C193.01 80.1192 193.72 82.2792 195.15 83.6592C196.57 85.0492 198.99 85.7792 202.39 85.8592L203.17 81.2392ZM174.94 84.9192C176.9 84.0892 178.52 82.9492 179.81 81.5092C181.1 80.0692 182.05 78.3492 182.66 76.3792C183.27 74.3992 183.58 72.2592 183.58 69.9692V44.1492H177.82V69.3192C177.82 71.3792 177.58 73.1492 177.11 74.6292C176.64 76.1092 175.96 77.3292 175.09 78.2792C174.22 79.2292 173.18 79.9292 171.97 80.3892C170.76 80.8392 169.43 81.0692 167.96 81.0692C165.03 81.0692 162.66 80.1392 160.84 78.2792C159.02 76.4192 158.11 73.4292 158.11 69.3192V44.1492H152.35V69.9692C152.35 72.2692 152.66 74.3992 153.27 76.3792C153.88 78.3592 154.82 80.0692 156.09 81.5092C157.36 82.9592 158.98 84.0892 160.96 84.9192C162.94 85.7492 165.27 86.1692 167.96 86.1692C170.66 86.1692 172.99 85.7492 174.94 84.9192Z" fill="white"></path>
  </g>
  <defs>
    <clipPath id="clip0_4321_10073">
      <rect width="618.5" height="160.199" fill="white"></rect>
    </clipPath>
  </defs>
</svg>
