<?xml version="1.0" encoding="UTF-8"?>
<svg xmlns="http://www.w3.org/2000/svg" width="750" height="160" viewBox="0 0 750 160" fill="none">
  <g clip-path="url(#clip0_4321_9833)">
    <mask id="mask0_4321_9833" style="mask-type:luminance" maskUnits="userSpaceOnUse" x="0" y="0" width="127" height="157">
      <path d="M126.66 0H0V156.97H126.66V0Z" fill="white"/>
    </mask>
    <g mask="url(#mask0_4321_9833)">
      <path fill-rule="evenodd" clip-rule="evenodd" d="M62.95 0.0699921L64.01 0L63.65 3.39999H66.06V4.42C66.06 5.67 65.57 6.45999 64.36 6.45999C63.65 6.45999 64.49 5.93 62.66 5.78C62.66 7.86 63.05 10.21 65.04 10.21C66.32 10.21 65.68 9.99 67.08 9.87C67.22 11.61 68.31 12.93 70.15 12.93H72.19V11.23L70.84 10.53V9.87V8.84999C71.6 8.66999 71.62 8.50999 72.54 8.50999C72.72 8.50999 73.29 9 73.56 9.19L74.72 7.23C76.66 7.15 76.6 7.17999 77.31 8.50999L76.9 10.19C76.47 10.34 75.95 10.27 75.95 10.89C75.95 11.41 77.31 12.07 77.31 12.59C77.31 12.98 76.85 13.36 76.29 13.27L73.58 12.84V14.97C73.57 16.07 75.04 17.01 76.29 17.01H77.65C77.65 18.65 78.24 20.41 79.69 20.41C80.59 20.41 82.41 20.14 82.41 19.39C82.41 18.74 81.73 19.16 81.73 18.03C81.73 17.23 82.3 16.67 83.09 16.67C84.29 16.67 84.46 18.03 85.13 18.03C85.8 18.03 85.63 17.01 86.83 17.01H87.85C88.79 17.01 88.67 17.27 88.87 18.03C85.47 18.31 83.27 20.62 81.04 22.11L60.97 8.84L62.95 0.0500031V0.0699921Z" fill="white"/>
      <path fill-rule="evenodd" clip-rule="evenodd" d="M37.65 31.5497C36.89 31.4197 35.75 30.6997 35.75 29.6197V26.8997C35.75 22.5297 33.37 19.7397 33.37 18.0497V13.2797C33.37 11.4397 31.67 7.2597 31.67 6.4697C31.67 6.4097 32.46 5.40969 32.69 4.42969C33.87 4.52969 34.63 5.00968 34.73 6.12968L35.1 11.2297C35.34 14.1897 37.11 18.0697 37.11 19.0597V22.8097C37.11 25.1697 38.01 28.4397 38.81 29.9597L37.64 31.5497H37.65Z" fill="white"/>
      <path fill-rule="evenodd" clip-rule="evenodd" d="M67.76 7.15039L68.79 7.4704L67.76 8.17039V7.15039Z" fill="white"/>
      <path fill-rule="evenodd" clip-rule="evenodd" d="M95.34 8.83984H98.41C99.71 8.84984 101.25 9.78984 101.81 10.5598C100.47 10.9198 98.93 12.5998 98.06 12.5998H97.72C96.05 12.5998 94.08 13.6198 92.27 13.6198C90.62 13.6198 89.34 14.0599 87.5 14.2999L81.72 15.0398C81.04 15.0598 81.14 15.0598 80.69 15.3198L79.65 13.6298L91.92 12.2198C93.72 12.0298 94.88 11.5998 96.35 11.5698V10.8898L83.08 12.3198L78.31 12.6998L77.99 10.7999L95.33 8.83984H95.34Z" fill="white"/>
      <path fill-rule="evenodd" clip-rule="evenodd" d="M74.91 23.4909V22.4709C74.91 20.7609 73.22 19.0709 71.5 19.0709H70.48C68.67 19.0709 59.24 12.4609 59.24 11.9209C59.24 11.1209 59.91 10.4109 60.26 9.88086L79.57 22.9709C79.45 25.4309 78.22 23.5009 75.92 23.5009H74.9L74.91 23.4909Z" fill="white"/>
      <path fill-rule="evenodd" clip-rule="evenodd" d="M56.15 12.6994C55.71 14.9394 54.93 15.9995 52.44 15.9995C51.29 15.9995 51.09 16.1794 50.06 16.3394L44.29 17.1294L39.86 17.4494L39.17 17.3595H38.49L37.25 14.7294L42.23 14.2495L43.26 14.3494L56.16 12.6895L56.15 12.6994Z" fill="white"/>
      <path fill-rule="evenodd" clip-rule="evenodd" d="M24.86 15.6609C24.94 14.6409 25.1 13.9609 26.22 13.9609C27.19 13.9609 26.84 14.0709 27.24 14.6409H25.54L24.86 15.6609Z" fill="white"/>
      <path fill-rule="evenodd" clip-rule="evenodd" d="M29.96 13.6191C30.74 13.6191 30.96 15.0691 30.98 15.9991L28.94 15.3191C28.94 14.2291 28.85 13.6191 29.96 13.6191Z" fill="white"/>
      <path fill-rule="evenodd" clip-rule="evenodd" d="M77.6201 14.2793C77.5601 15.0993 77.3201 15.9993 76.6101 15.9993C75.6201 15.9993 74.8601 15.4293 74.5701 14.6393C75.4701 15.0893 74.2901 14.9793 75.5901 14.9793L76.2801 14.9993L77.6201 14.2793Z" fill="white"/>
      <path fill-rule="evenodd" clip-rule="evenodd" d="M79.51 14.4707L79.68 15.6607L78.48 15.4907L79.51 14.4707Z" fill="white"/>
      <path fill-rule="evenodd" clip-rule="evenodd" d="M21.5301 19.7399C21.6701 21.1799 22.2801 22.4799 20.7701 22.4799C20.4901 22.4799 17.6901 15.6699 19.7501 15.6699C19.9701 15.6699 20.7301 16.4399 21.1101 16.6899L21.5301 19.7399Z" fill="white"/>
      <path fill-rule="evenodd" clip-rule="evenodd" d="M28.94 20.4298V18.3898C27.11 17.4198 26.61 18.2698 26.56 16.0098C30.24 16.8698 32.69 17.9298 32.69 22.4798V23.1598C32.69 24.6698 30.97 26.6698 30.31 27.9298H29.63L25.9 28.3598L23.5 28.2698C21.95 28.2698 21.15 25.4798 21.12 23.8398C21.88 23.6598 21.91 23.4998 22.82 23.4998H24.52C24.52 25.1598 23.53 26.5698 25.2 26.5698C25.86 26.5698 26.23 24.1298 26.66 23.2698C27.37 21.8498 27.67 21.7898 28.94 21.1198V20.4398V20.4298Z" fill="white"/>
      <path fill-rule="evenodd" clip-rule="evenodd" d="M53.79 16.9805C53.35 17.9205 53.46 16.7405 53.46 18.0405V18.3805C53.46 20.0305 45.39 21.3105 43.58 21.4505L38.48 21.8905V18.7305C40.31 18.7305 41.52 18.0505 42.9 18.0505H43.92L50.74 17.4405L53.79 16.9805Z" fill="white"/>
      <path fill-rule="evenodd" clip-rule="evenodd" d="M24.86 21.1102C24.86 21.9002 24.62 22.1302 23.84 22.1302C23.2 22.1302 22.56 19.8402 22.47 19.0702L22.04 14.9902H23.84C23.84 17.8102 24.86 18.6502 24.86 20.7702V21.1102Z" fill="white"/>
      <path fill-rule="evenodd" clip-rule="evenodd" d="M78.65 17.6998C78.65 16.9098 80.1 16.6198 80.69 16.3398V19.0598C79.62 18.9698 78.65 18.8298 78.65 17.6998Z" fill="white"/>
      <path fill-rule="evenodd" clip-rule="evenodd" d="M27.59 19.3902L27.58 20.7702H26.2001L25.8 18.7402L27.59 19.3902Z" fill="white"/>
      <path fill-rule="evenodd" clip-rule="evenodd" d="M14.3 21.4505C14.3 19.9905 15.35 18.7305 16.68 18.7305C17.6 18.7305 18.72 22.0705 18.72 23.1605C18.72 23.8005 17.47 24.1805 16.68 24.1805C15.05 24.1805 14.3 23.0305 14.3 21.4605" fill="white"/>
      <path fill-rule="evenodd" clip-rule="evenodd" d="M110.66 25.5391C114.56 25.5391 113.29 24.7991 117.09 26.2591C118.82 26.9291 120.58 27.9591 122.11 29.0691C124.49 30.7891 126.66 35.7691 126.66 39.8391V41.5391C126.66 54.9891 106.57 56.9291 106.57 63.6691V64.0091L107.65 71.4891L107.59 73.1991C107.59 74.5891 107.05 75.0291 106.23 75.5791V74.2191C106.23 71.0491 103.51 69.3691 103.51 68.0891V67.4091C103.51 65.8291 104.14 66.3891 104.19 64.3391C102.01 64.9191 101.81 68.4391 101.81 71.1491V72.8491C101.81 75.1091 100.93 76.4791 99.4301 77.2791V74.8991C99.4301 73.1291 97.39 71.2191 97.39 68.4291V68.0891C97.39 65.7391 98.34 65.5291 98.75 63.9991C94.78 65.0591 96.11 71.0791 93.3 71.8291L94.11 66.0591C95.08 58.3991 105.68 58.5891 111.69 55.8291C116.78 53.4891 124.62 48.3791 124.62 41.1791V39.4791C124.62 36.8991 120.68 30.6291 118.83 30.6291C118.6 30.6291 117.12 33.0091 116.11 33.6991V31.9991C116.11 30.6391 115.53 29.5791 114.41 29.2791C113.73 32.1791 113.13 32.9691 111.01 34.3891C111.19 33.6291 111.35 33.6091 111.35 32.6891V30.6491C111.35 30.0891 111.15 29.6291 110.67 29.6291C109.81 29.6291 109.67 33.0691 107.26 33.7191C107.26 32.2091 106.97 30.6491 105.56 30.6491H104.54C101.57 30.6491 98.41 36.5091 98.41 39.4991V41.8791C98.41 46.7891 103.67 54.6291 106.92 55.4991V56.1791C105.73 56.4591 105.77 56.8591 104.54 56.8591C103.4 56.8591 99.8 52.4991 99.03 51.4791C97.49 49.4391 96.03 47.0091 96.03 43.5791V41.1991L96.34 37.7891C97.08 31.8191 103.53 25.5391 109.99 25.5391H110.67H110.66Z" fill="white"/>
      <path fill-rule="evenodd" clip-rule="evenodd" d="M30.98 29.2195C31.76 29.1995 32.01 29.5795 32.01 30.2995C32.01 31.1595 31.77 31.2295 30.99 31.3195L27.25 31.7495L22.14 32.0895C21.91 31.0295 21.79 31.4195 21.79 30.6395C21.79 30.1595 22.25 29.9595 22.81 29.9595C24.12 29.9595 23.57 29.6195 25.19 29.6195L25.88 29.6995L30.98 29.2195Z" fill="white"/>
      <path fill-rule="evenodd" clip-rule="evenodd" d="M40.1801 37.1097C40.1801 34.4497 41.4101 33.1897 43.5801 32.6797C43.0901 33.4197 42.5601 33.8097 42.5601 35.0597V35.3997C42.5601 37.1597 43.9801 38.1197 45.6301 38.1197H53.8001C57.5701 38.1197 62.9201 42.5397 61.9701 44.5897C60.2301 43.3197 58.6901 39.1397 55.1601 39.1397H51.7601C49.9001 39.1397 49.8701 39.8197 48.0101 39.8197H43.9201C42.5301 39.8197 40.1801 38.3397 40.1801 37.0997" fill="white"/>
      <path fill-rule="evenodd" clip-rule="evenodd" d="M29.96 32.9492C30.33 34.5692 33.37 41.3592 33.37 42.2092C33.37 43.8492 30.32 46.9792 28.26 46.9792C26.7 46.9792 24.72 45.7492 23.15 45.6192L23.47 39.1492L23.83 33.4292L29.95 32.9492H29.96Z" fill="white"/>
      <path fill-rule="evenodd" clip-rule="evenodd" d="M33.37 45.6202C33.37 44.9502 34.63 43.5602 35.07 43.2402C35.13 45.8002 36.32 45.6302 36.77 47.3302C35.7 47.4202 35.56 47.6702 34.39 47.6702C33.75 47.6702 33.37 46.4102 33.37 45.6302" fill="white"/>
      <path fill-rule="evenodd" clip-rule="evenodd" d="M32.3 46.8401L32.35 48.6801C31.21 48.9801 30.96 49.7001 29.97 49.7001C29.32 49.7001 29.09 48.5901 28.96 48.0201L32.31 46.8301L32.3 46.8401Z" fill="white"/>
      <path fill-rule="evenodd" clip-rule="evenodd" d="M21.79 46.9907C22.97 47.2707 25.43 48.0107 26.56 48.0107H27.24L28.36 50.3407L25.96 56.2107L21.51 52.6907C21.9 51.8707 21.79 53.0507 21.79 51.7407V46.9707V46.9907Z" fill="white"/>
      <path fill-rule="evenodd" clip-rule="evenodd" d="M27.92 55.1593C30.14 50.9593 29.76 50.3493 35.41 49.0293C36.43 49.5693 43.58 53.0593 43.58 53.7993C43.58 54.1693 39.26 56.4693 38.81 60.2693L38.38 63.6593C38.41 64.2393 38.74 64.6893 39.15 64.6893C39.61 64.6893 39.34 64.3193 40.51 64.0093L39.26 65.4793L27.91 55.1493L27.92 55.1593Z" fill="white"/>
      <path fill-rule="evenodd" clip-rule="evenodd" d="M66.74 58.2207C68.51 59.5207 68.98 62.5407 73.55 62.6507C74.68 67.4907 81.61 74.0807 85.69 76.3807C88.65 78.0507 91.55 79.0707 94.32 80.6907C95.96 81.6507 101.16 85.1207 103.17 85.1207H105.21C110.63 85.1207 116.79 80.7407 116.79 75.9307C116.79 69.7807 112.86 64.0207 109.3 61.6307C109.57 61.2307 110.87 59.5907 111.34 59.5907C112.72 59.5907 118.99 69.2807 119.51 71.5107C122.21 71.5707 123.65 72.7507 124.62 74.5807C123.86 74.4007 123.84 74.2407 122.92 74.2407H121.56C121 74.2407 120.54 74.4407 120.54 74.9207C120.54 75.9207 123.86 75.7107 123.99 79.2407L119.18 77.6407C119.33 79.3807 120.68 80.0607 121.9 80.7107V83.0907C120.54 82.7307 120.79 82.0707 119.18 82.0707H118.84C116.19 82.0707 111.44 87.7307 106.92 88.1807L102.51 88.6307L102.7 88.3407L100.8 86.8407C100.95 88.6607 102.86 89.1207 103.23 91.9407L104.21 101.481V101.821C104.21 106.561 108.07 111.011 113.06 111.011H116.13C117.28 111.011 118.85 113.821 118.85 115.101C118.85 115.881 118.61 116.121 117.83 116.121H116.81C117.16 117.421 121.89 118.781 122.94 120.211C122.94 120.211 122.31 120.551 122.26 120.551C120.18 120.551 119.66 119.871 117.83 119.871C116.8 119.871 116.89 120.271 116.81 121.231H117.83C120.46 121.231 120.31 124.021 123.62 124.291C123.29 124.581 123.02 124.971 122.26 124.971C120.23 124.971 118.43 123.611 117.49 123.611C116.46 123.611 116.55 124.011 116.47 124.971H117.49L118.08 125.061L122.26 129.401C119.52 129.341 118.66 127.701 116.81 127.701H116.47C115.91 127.701 115.45 127.901 115.45 128.381C115.45 128.861 115.91 129.061 116.47 129.061H116.81L117.46 129.081L120.21 133.151C117.78 133.101 117.67 131.791 115.78 131.791C114.48 131.791 115.66 131.691 114.71 132.171L115.44 133.151H116.8C116.66 134.821 115.78 135.211 115.78 136.211C115.78 138.061 116.97 138.641 118.16 139.281V141.661H116.46C115.52 141.661 115.64 141.921 115.44 142.681C117.31 142.681 118.16 142.851 118.16 144.721V146.421C118.16 147.331 117.67 147.431 117.14 147.781V146.761C117.14 144.621 116.55 143.431 114.68 143.031L115.09 144.721H113.39C113.15 143.691 113.19 142.681 112.03 142.681H111.69C110.3 142.681 109.65 144.941 109.65 146.421V149.821C109.65 151.061 108.71 152.541 107.61 152.541H106.59V151.181C105.12 151.341 104.89 152.631 104.89 154.241V154.921C104.89 156.221 104.79 155.041 105.23 155.941C104.37 155.631 103.87 154.611 103.87 153.561C103.87 152.351 104.02 150.501 105.23 150.501H106.25V149.481C104.3 149.481 103.34 149.711 103.19 151.521C102.23 151.441 101.83 151.521 101.83 150.501V149.481C101.83 146.001 106.6 146.601 106.6 141.991C104.25 142.251 105.33 145.391 102.51 145.391H100.81C98.9 145.391 96.71 147.431 95.02 147.431H94.68C93.3 147.431 92.92 147.121 92.64 146.071C94.03 145.951 94.03 145.891 94.34 144.711C89.81 144.711 90.15 146.051 87.53 146.751C87.94 145.201 91.42 143.011 92.98 143.011C93.6 143.011 93.53 143.531 93.66 144.031L94.51 143.971L93.66 141.991H92.3V140.631C92.91 140.481 93.33 140.241 93.68 140.181L99.45 140.971H100.47C102.1 140.971 103.52 140.601 103.87 139.271C102.8 139.361 102.66 139.611 101.49 139.611L101.14 139.701L96.04 139.271C94.92 139.171 95.04 138.731 95.02 137.571H96.04C95.84 136.811 95.96 136.551 95.02 136.551H91.62C92.01 135.971 92.36 135.191 93.32 135.191C98.1 135.191 95.66 136.671 97.75 137.231V135.871C97.75 134.691 97.15 135.391 96.73 133.831C99.74 133.901 99.28 136.891 102.18 136.891H104.56C107.28 136.891 109.33 132.741 109.33 129.741V125.651C109.33 122.001 107.26 119.241 104.68 118.041C103.29 117.391 101.67 116.951 100 116.581C97.62 116.061 96.63 115.461 94.97 115.081L95.36 113.051C93.66 113.091 92.98 113.711 92.98 115.431C92.98 117.151 92.34 118.161 92.3 119.861L91.89 119.711L89.53 115.761L90.26 112.031C89.09 112.341 88.67 112.701 88.56 114.071C86.41 114.071 86.03 113.671 85.16 112.371H86.52C87.9 112.371 88.9 111.631 88.9 110.331C88.9 107.731 85.84 101.821 85.84 98.7507V98.4107C85.84 96.9807 85.16 96.7807 85.16 95.0107C85.16 87.8607 79.28 85.2807 73.59 83.7707C70.29 82.8907 67.93 82.2107 65.03 81.1007C63.73 80.6007 57.92 77.6107 57.92 76.6307C57.92 75.8907 58.94 74.3807 58.94 72.5407C58.94 71.6207 58.78 71.6007 58.6 70.8407C57.84 71.0407 57.58 70.9207 57.58 71.8607C57.58 74.4907 55.54 76.3007 55.54 78.3307V80.3707C52.94 80.1507 52.54 75.2607 52.47 72.5407H51.11V73.9007C51.11 77.4907 49.41 78.2607 49.41 82.4107C47.84 82.0407 46.69 80.8407 46.69 79.0107V75.2707C46.69 74.2407 46.29 74.3307 45.33 74.2507C45.33 77.7007 43.63 79.7707 43.63 82.4207V83.4407C42.06 83.0207 41.25 80.9007 41.25 79.0107C41.25 77.1207 40.71 76.0107 39.11 75.6207L39.54 79.3507C39.71 80.7807 38.23 81.4807 38.18 83.7807C36.98 83.6807 36.14 82.6907 36.14 81.7407C36.14 80.4307 35.8 80.9807 35.8 79.3607C35.8 78.2707 34.85 77.7507 33.73 77.6707L34.77 81.0707C30.08 82.1607 30.87 83.9807 28.98 87.5407H27.28C27.24 85.9207 27.16 85.2907 25.43 85.2707L26.6 86.8607C25.72 88.5207 25.39 89.2407 22.85 89.2407C23.47 88.3207 24.89 87.4107 24.89 86.1807C24.89 84.8807 25 86.0607 24.51 85.1107L23.53 85.8407C22.6 83.8207 25.83 83.3207 25.91 79.7107C23.14 81.1807 26.09 81.5407 20.33 82.9807C17.94 83.5807 14.68 85.5007 13.99 85.5007H13.65C12.39 85.5007 12.79 84.9707 12.97 84.1407C10.41 84.2007 10.53 85.4207 8.88002 86.5207C8.92002 84.6207 9.76002 82.4307 11.6 82.4307C12.71 82.4307 11.86 82.7207 13.3 83.1107C13.22 82.0907 13.05 81.4107 11.94 81.4107H10.24C10.62 77.9407 19.65 79.3307 20.45 76.3007C19.38 76.3907 19.24 76.6407 18.07 76.6407H10.92C9.79002 76.6407 7.34002 77.3907 6.15002 77.6607C4.77002 77.3407 4.24002 77.1707 4.11002 75.6207C4.77002 75.5707 5.47002 75.6407 5.47002 74.9407C5.47002 74.6407 5.09002 74.2607 4.79002 74.2607C2.61002 74.2607 1.44002 74.8707 0.0200195 75.6207C0.45002 73.7607 2.24002 72.2207 4.45002 72.2207L5.07002 72.2607L6.15002 73.5807V72.2207C6.15002 71.1907 5.56002 71.0607 4.79002 70.8607C5.18002 70.1207 5.35002 69.5007 6.49002 69.5007C7.88002 69.5007 11.72 73.5907 15 73.5907H17.04C18.34 73.5907 17.16 73.6907 18.06 73.2507C16.76 71.4707 12.39 72.3907 10.85 70.1607L11.6 68.1007L12.95 68.4807V67.1007L8.86002 65.0707C9.72002 63.9007 13.63 64.7207 13.63 67.1107L13.7 68.2507L14.99 67.4507V66.0907H16.01C17.8 66.0907 18.83 73.5807 26.57 73.5807H27.59C35.52 73.5807 42.14 63.7107 44.96 63.7107L45.31 63.8007L48.7 63.3707C50.16 63.2007 50.65 62.6907 52.1 62.3507C55.11 64.3707 57.04 66.4407 62.31 66.4407C62.25 63.8307 59.56 63.7907 59.24 59.9707C61.15 61.3707 62.07 65.0807 66.73 65.0807H68.77C68.71 62.3907 66.73 62.2607 66.73 58.2707" fill="white"/>
      <path fill-rule="evenodd" clip-rule="evenodd" d="M41.54 128.021H40.86L40.46 129.021C39.23 128.361 37.55 126.321 36.78 126.321H35.42C32.22 126.321 31.27 128.701 27.25 128.701H26.23L26.64 127.021C24.29 127.611 24.15 129.101 22.82 130.071V129.051C22.82 127.281 23.72 126.591 24.86 125.991L27.23 126.421C27.04 125.561 26.92 124.971 25.88 124.971H25.2C24.28 124.971 24.26 125.131 23.5 125.311C23.83 121.381 26.36 122.931 29.63 122.931H31.33C32.71 122.931 33.09 122.611 33.37 121.571H30.31L22.82 120.571C20.7 120.221 19.47 120.301 19.42 117.831H20.44C20.33 116.471 19.79 116.131 18.4 116.131H14.66C15.33 114.861 16.12 114.431 18.06 114.431H18.74C19.78 114.431 20.12 114.761 20.78 115.111V116.471C21.74 116.391 22.14 116.471 22.14 115.451C22.14 114.201 21.61 113.801 21.12 113.071C22.09 112.851 21.7 112.731 22.48 112.731C25.67 112.731 25.48 116.231 27.03 117.381C28.22 118.271 31.99 119.871 33.38 119.201C32.14 117.511 27.59 117.591 27.59 115.111V113.751C27.59 112.831 27.75 112.811 27.93 112.051H28.95C29.28 113.281 28.98 112.961 30.31 113.071C30.03 109.741 28 110.141 26.91 108.641C28.85 108.641 31.34 109.741 31.34 111.361C31.34 112.081 31.22 111.811 31 112.721C31.96 112.641 32.36 112.721 32.36 111.701V110.681C33.13 110.891 33.72 111.011 33.72 112.041V114.761C33.72 116.161 35.39 118.161 36.44 118.161H39.16C44.62 118.161 56.87 114.371 56.87 109.311V104.541C56.87 101.121 59.14 99.4308 59.59 97.7308C56.99 97.7308 56.13 99.0108 54.48 100.111C54.69 99.2008 55.14 97.7308 55.44 96.9908C56.08 95.3808 57.2 96.1708 57.2 94.6708C57.2 94.0208 56.52 94.4408 56.52 93.3108C56.52 92.0508 56.85 91.7708 57.54 91.2708C58.35 92.7908 59.36 95.0208 61.63 95.0208H63.33C67.92 95.0208 74.08 88.5508 81.38 88.5508L80.17 92.2308C83.32 93.0908 84.48 98.8708 84.78 102.511C83.04 102.661 82.8 103.771 80.38 104.241C78.53 104.601 77.37 104.951 75.31 105.301C72.72 105.741 68.44 107.311 68.44 110.351V111.371C68.44 113.181 70.18 114.531 70.14 114.781L69.79 117.501V118.181C67.4 119.781 68.66 118.751 66.25 119.751C65.17 120.201 64.69 121.881 64.69 123.291V123.971C64.69 124.631 64.8 124.581 65.03 124.991C62.96 124.511 61.96 122.281 61.96 119.881C61.96 118.941 61.7 119.061 60.94 118.861V120.221C60.94 122.001 59.58 122.441 59.58 125.331C58.7 124.871 57.2 123.841 57.2 122.611V120.571C57.2 119.631 56.94 119.751 56.18 119.551V120.911C56.18 122.981 54.48 123.371 54.48 126.361C53.89 125.961 52.78 125.261 52.78 124.321V121.941C52.78 120.901 52.19 120.781 51.42 120.581L50.35 127.041L49.09 125.971L48.62 122.971C48.62 122.431 48.57 121.941 48.02 121.941C47.54 121.941 47.34 122.401 47.34 122.961V123.981H45.3C44.51 123.981 43.6 124.891 43.6 125.681C43.6 126.821 44.57 126.981 44.62 129.081L43.58 127.391H42.92H41.56V128.071L41.54 128.021Z" fill="white"/>
      <path fill-rule="evenodd" clip-rule="evenodd" d="M82.0601 90.2305H82.7401L83.4201 92.6105C82.3601 91.9005 82.0901 91.9305 82.0601 90.2305Z" fill="white"/>
      <path fill-rule="evenodd" clip-rule="evenodd" d="M14.98 125.301C17.45 125.361 19.6601 127.851 21.4501 129.051V129.731C21.4501 131.341 22.3 132.331 23.83 132.451L23.93 131.311L29.62 136.191C28.47 136.461 27.2401 136.321 27.2401 137.551V137.891C27.2401 138.811 27.08 138.831 26.9 139.591C22.89 137.471 15.74 129.031 12.26 129.031H10.9C8.73005 129.031 7.57005 131.361 7.16005 133.121H6.48005C6.20005 131.931 5.80005 131.971 5.80005 130.741C5.80005 128.721 7.60005 126.811 9.54005 126.651V125.631H8.18005C8.18005 123.951 9.24005 121.891 10.22 121.891C13.16 121.891 13.98 123.191 16.69 123.251C15.5 124.871 15.1901 122.861 14.9901 125.291" fill="white"/>
      <path fill-rule="evenodd" clip-rule="evenodd" d="M35.75 130.069C35.75 130.549 35.29 130.749 34.73 130.749H34.39C33.83 130.749 33.37 130.549 33.37 130.069C33.37 129.109 34.45 127.689 35.41 127.689H35.75C36.25 127.689 37.25 128.419 37.79 128.709V130.069C37.79 133.189 32.39 135.309 32 139.939C28.48 140.759 24.51 145.509 24.51 149.819C24.51 150.939 25.2 151.099 26.21 151.179C26.03 150.419 25.87 150.399 25.87 149.479C25.87 148.699 26.11 148.459 26.89 148.459C27.67 148.459 27.91 148.699 27.91 149.479V150.159C27.91 151.029 26.87 152.199 25.87 152.199C24.68 152.199 23.15 151.709 23.15 150.499V150.159C23.15 145.739 28.26 143.959 28.26 137.899C31.82 137.899 36.77 132.169 36.77 130.069C36.77 129.039 36.18 128.919 35.41 128.709C35.63 129.619 35.75 129.349 35.75 130.069Z" fill="white"/>
      <path fill-rule="evenodd" clip-rule="evenodd" d="M75.9301 39.5009V38.8209C74.2601 37.7009 73.5201 37.0009 70.8201 36.7809V36.1009H71.8401C76.6601 36.1009 77.3501 37.7209 80.0101 39.5009V37.4609C80.0101 30.0009 73.1201 31.1909 72.5201 28.9509H76.9501C78.7901 28.9509 79.6101 29.5809 80.6901 30.3109C80.3201 28.7109 78.4901 24.8609 76.9501 24.8609H76.2701C74.9501 24.8609 72.5201 26.2109 72.5201 24.8609C72.5201 23.8609 73.5401 23.1409 73.5401 22.1409C73.5401 21.3509 72.6301 20.4409 71.8401 20.4409H70.8201C69.1601 20.4409 70.1201 22.1909 67.4201 22.8209C67.4701 20.4509 68.4401 21.2509 68.4401 20.4409C68.4401 19.9809 58.6101 13.6309 58.5701 13.6309C57.0201 13.6309 55.4201 18.6709 54.8401 19.7709C54.1901 21.0009 50.4001 24.1409 50.4001 25.2009V25.8809C50.4001 27.5609 51.6901 26.5909 53.1201 26.5609C52.9001 28.5609 51.7601 27.2709 51.7601 28.9409V30.6409C51.7601 31.6609 53.8301 31.6109 55.1601 34.3909C56.7801 33.2009 57.1601 30.9909 60.6101 30.9909H60.9501C63.7401 30.9909 65.7201 35.5109 65.7201 38.4809V38.8209C65.7201 42.0409 62.8101 47.3309 59.5901 47.3309H58.5701C56.0301 47.3309 54.8801 45.1109 54.7101 42.3909L52.7801 43.9209H51.4201C50.6001 45.4609 50.3301 49.3709 48.3501 49.3709C46.7701 49.3709 47.3301 48.7309 45.2901 48.6909C45.2001 49.7609 44.9501 49.9009 44.9501 51.0709V52.0909C44.9501 52.7509 45.5601 53.4509 45.9701 53.4509C46.8101 53.4509 47.4501 52.4209 48.6901 52.0909C48.4401 55.0509 45.7901 54.6309 43.4601 55.7109C42.0801 56.3509 40.1801 59.5309 40.1801 61.2809V62.3009C41.2501 62.2109 41.3901 61.9609 42.5601 61.9609H47.6701C49.4601 61.9609 50.6001 61.5509 51.7601 60.9409C51.2401 59.9609 50.7401 59.0409 50.7401 57.5409V54.8209C50.7401 53.1909 50.8401 52.2309 52.5001 52.1009L52.1101 56.5209V57.2009C52.1101 61.2709 55.5801 64.2609 59.6001 64.3509C59.1801 62.7809 57.9001 61.6809 57.9001 59.2409V56.5209C57.9001 55.1309 58.5401 52.9309 59.9401 52.7809V56.8609C59.9401 60.5409 63.4101 63.3909 66.7501 63.6709C66.4301 62.3009 65.7301 61.9709 65.7301 60.6109V52.1009C65.7301 50.4209 64.5101 50.5609 66.4101 50.0609C66.6901 51.2509 67.0901 51.2109 67.0901 52.4409C67.0901 54.0309 67.4301 52.8909 67.4301 54.4809C67.4301 58.5509 70.6801 61.2909 74.9201 61.2909C74.7401 60.5309 74.5801 60.5109 74.5801 59.5909V53.8009C74.5801 47.3009 69.8101 46.8409 69.8101 45.6309C69.8101 43.7409 73.4401 47.0209 73.8201 47.4109C75.1201 48.7609 75.44 50.7409 77.98 50.7409H78.6601C80.9401 50.7409 82.17 49.7209 83.09 48.3609C79.09 48.0309 75.9401 43.5209 75.9401 39.5109M58.5701 23.4909H56.5301L57.4801 22.3809L57.5501 21.7909L57.3601 20.9609L56.0001 19.6009C57.4801 19.5209 61.7001 21.7809 61.9801 22.8209C60.3801 22.9509 60.3001 23.5009 58.5801 23.5009" fill="white"/>
      <path fill-rule="evenodd" clip-rule="evenodd" d="M29.62 142.67C29.62 141.92 31.62 141.33 32.62 141.24L33.37 140.63V139.61C33.37 139.05 33.57 138.59 34.05 138.59C34.5 138.59 39.34 142.35 40.25 142.95C41.79 143.97 45.45 145.84 47.29 146.47C52.05 148.1 58.28 150.17 64.7 150.17H71.85C73.79 150.17 74.53 149.49 75.94 149.49L76.65 149.64L86.18 148.12L86.5 149.15H87.52C87.96 147.48 89.49 146.47 91.61 146.42C91.94 147.84 92.6 148.8 94.33 148.8C97.65 148.8 98.47 146.42 101.82 146.42C101.18 147.37 100.46 147.6 100.46 149.15V149.83C100.46 151 100.71 151.15 100.8 152.21C99.23 152.34 96.35 153.49 94.67 153.92C92.5 154.47 90.29 154.83 87.99 155.41C84.15 156.38 77.82 156.98 73.21 156.98H64.36C58.93 156.98 48.4 153.97 44.61 152.22C42.51 151.24 29.63 144.1 29.63 142.68" fill="white"/>
    </g>
    <path d="M181.72 148.55C181.05 146.78 180.42 145.04 179.83 143.33C179.24 141.62 178.63 139.88 178 138.11H159.47L155.75 148.55H149.79C151.36 144.22 152.84 140.22 154.21 136.54C155.59 132.86 156.93 129.37 158.25 126.07C159.57 122.77 160.88 119.61 162.17 116.6C163.47 113.59 164.83 110.61 166.24 107.66H171.49C172.91 110.61 174.26 113.59 175.56 116.6C176.86 119.61 178.17 122.77 179.48 126.07C180.8 129.37 182.14 132.86 183.52 136.54C184.9 140.22 186.37 144.22 187.94 148.55H181.69H181.72ZM176.35 133.38C175.09 129.96 173.84 126.64 172.6 123.44C171.36 120.23 170.07 117.16 168.74 114.21C167.36 117.16 166.06 120.24 164.82 123.44C163.58 126.65 162.35 129.96 161.13 133.38H176.35Z" fill="white"/>
    <path d="M216.71 147.66C215.45 147.98 213.79 148.31 211.72 148.66C209.66 149.01 207.27 149.19 204.55 149.19C202.19 149.19 200.2 148.85 198.59 148.16C196.98 147.47 195.68 146.5 194.7 145.24C193.72 143.98 193.01 142.5 192.58 140.78C192.15 139.07 191.93 137.17 191.93 135.09V117.86H197.42V133.91C197.42 137.65 198.01 140.32 199.19 141.93C200.37 143.54 202.36 144.35 205.15 144.35C205.74 144.35 206.35 144.33 206.98 144.29C207.61 144.25 208.2 144.2 208.75 144.14C209.3 144.08 209.8 144.02 210.25 143.96C210.7 143.9 211.03 143.83 211.22 143.75V117.85H216.71V147.64V147.66Z" fill="white"/>
    <path d="M231.28 117.869H242.9V122.469H231.28V136.629C231.28 138.159 231.4 139.429 231.63 140.439C231.86 141.449 232.22 142.229 232.69 142.799C233.16 143.369 233.75 143.769 234.46 144.009C235.17 144.249 235.99 144.359 236.94 144.359C238.59 144.359 239.92 144.169 240.92 143.799C241.92 143.429 242.62 143.159 243.01 142.999L244.07 147.539C243.52 147.819 242.56 148.159 241.18 148.569C239.8 148.979 238.23 149.189 236.46 149.189C234.38 149.189 232.65 148.919 231.3 148.389C229.95 147.859 228.85 147.059 228.03 145.999C227.2 144.939 226.62 143.629 226.29 142.079C225.96 140.529 225.79 138.729 225.79 136.679V109.299L231.28 108.359V117.859V117.869Z" fill="white"/>
    <path d="M249.87 148.55V103.71L255.36 102.77V118.46C256.38 118.07 257.47 117.76 258.63 117.54C259.79 117.32 260.94 117.22 262.08 117.22C264.52 117.22 266.54 117.56 268.16 118.25C269.77 118.94 271.06 119.9 272.02 121.14C272.98 122.38 273.66 123.86 274.06 125.59C274.45 127.32 274.65 129.23 274.65 131.31V148.54H269.16V132.49C269.16 130.6 269.03 128.99 268.78 127.65C268.52 126.31 268.1 125.23 267.51 124.4C266.92 123.57 266.13 122.97 265.15 122.6C264.17 122.23 262.95 122.04 261.49 122.04C260.9 122.04 260.29 122.08 259.66 122.16C259.03 122.24 258.43 122.33 257.86 122.43C257.29 122.53 256.78 122.64 256.33 122.75C255.88 122.87 255.55 122.97 255.36 123.04V148.53H249.87V148.55Z" fill="white"/>
    <path d="M310.64 133.209C310.64 135.649 310.29 137.849 309.58 139.819C308.87 141.789 307.88 143.479 306.6 144.889C305.32 146.309 303.8 147.399 302.03 148.159C300.26 148.929 298.33 149.309 296.25 149.309C294.17 149.309 292.24 148.929 290.47 148.159C288.7 147.389 287.18 146.299 285.9 144.889C284.62 143.469 283.63 141.779 282.92 139.819C282.21 137.849 281.86 135.649 281.86 133.209C281.86 130.769 282.21 128.619 282.92 126.629C283.63 124.639 284.62 122.939 285.9 121.529C287.18 120.109 288.7 119.019 290.47 118.259C292.24 117.489 294.17 117.109 296.25 117.109C298.33 117.109 300.26 117.489 302.03 118.259C303.8 119.029 305.32 120.119 306.6 121.529C307.88 122.949 308.87 124.649 309.58 126.629C310.29 128.619 310.64 130.809 310.64 133.209ZM304.91 133.209C304.91 129.749 304.13 127.009 302.58 124.979C301.03 122.949 298.91 121.939 296.24 121.939C293.57 121.939 291.45 122.949 289.9 124.979C288.35 127.009 287.57 129.749 287.57 133.209C287.57 136.669 288.35 139.419 289.9 141.439C291.45 143.469 293.57 144.479 296.24 144.479C298.91 144.479 301.03 143.469 302.58 141.439C304.13 139.409 304.91 136.669 304.91 133.209Z" fill="white"/>
    <path d="M329.69 117.219C330.16 117.219 330.7 117.249 331.31 117.309C331.92 117.369 332.52 117.449 333.11 117.549C333.7 117.649 334.24 117.749 334.73 117.839C335.22 117.939 335.59 118.029 335.82 118.109L334.88 122.889C334.45 122.729 333.73 122.549 332.73 122.329C331.73 122.109 330.44 122.009 328.87 122.009C327.85 122.009 326.83 122.119 325.83 122.329C324.83 122.549 324.17 122.689 323.85 122.769V148.549H318.36V119.169C319.66 118.699 321.27 118.249 323.2 117.839C325.13 117.429 327.29 117.219 329.69 117.219Z" fill="white"/>
    <path d="M343.85 112.319C342.87 112.319 342.03 111.989 341.34 111.349C340.65 110.699 340.31 109.829 340.31 108.719C340.31 107.609 340.65 106.739 341.34 106.099C342.03 105.449 342.86 105.129 343.85 105.129C344.84 105.129 345.67 105.449 346.36 106.099C347.05 106.749 347.39 107.619 347.39 108.719C347.39 109.819 347.05 110.699 346.36 111.349C345.67 111.999 344.84 112.319 343.85 112.319ZM346.63 148.549H341.14V117.869H346.63V148.549Z" fill="white"/>
    <path d="M361.2 117.869H372.82V122.469H361.2V136.629C361.2 138.159 361.32 139.429 361.55 140.439C361.78 141.449 362.14 142.229 362.61 142.799C363.08 143.369 363.67 143.769 364.38 144.009C365.09 144.249 365.91 144.359 366.86 144.359C368.51 144.359 369.84 144.169 370.84 143.799C371.84 143.429 372.54 143.159 372.93 142.999L373.99 147.539C373.44 147.819 372.48 148.159 371.1 148.569C369.72 148.979 368.15 149.189 366.38 149.189C364.3 149.189 362.57 148.919 361.22 148.389C359.87 147.859 358.77 147.059 357.95 145.999C357.12 144.939 356.54 143.629 356.21 142.079C355.88 140.529 355.71 138.729 355.71 136.679V109.299L361.2 108.359V117.859V117.869Z" fill="white"/>
    <path d="M376.18 154.27C376.61 154.47 377.17 154.65 377.86 154.83C378.55 155.01 379.23 155.1 379.9 155.1C382.06 155.1 383.75 154.62 384.97 153.65C386.19 152.69 387.29 151.12 388.27 148.96C385.79 144.24 383.48 139.24 381.34 133.94C379.2 128.65 377.42 123.29 376 117.86H381.9C382.33 119.63 382.85 121.54 383.46 123.58C384.07 125.63 384.75 127.73 385.5 129.89C386.25 132.05 387.05 134.22 387.92 136.38C388.79 138.54 389.69 140.63 390.63 142.63C392.12 138.5 393.42 134.41 394.52 130.36C395.62 126.31 396.66 122.14 397.65 117.85H403.31C401.89 123.63 400.32 129.19 398.59 134.52C396.86 139.85 394.99 144.84 392.99 149.48C392.2 151.25 391.39 152.77 390.54 154.05C389.69 155.33 388.76 156.38 387.74 157.21C386.72 158.04 385.57 158.65 384.29 159.04C383.01 159.43 381.57 159.63 379.95 159.63C379.52 159.63 379.07 159.6 378.59 159.54C378.12 159.48 377.65 159.4 377.2 159.3C376.75 159.2 376.33 159.09 375.96 158.98C375.59 158.86 375.32 158.76 375.16 158.69L376.16 154.26L376.18 154.27Z" fill="white"/>
    <path d="M423.09 148.55V107.66H447.75V112.56H428.81V124.89H445.63V129.73H428.81V148.55H423.09Z" fill="white"/>
    <path d="M457.13 112.319C456.15 112.319 455.31 111.989 454.62 111.349C453.93 110.699 453.59 109.829 453.59 108.719C453.59 107.609 453.93 106.739 454.62 106.099C455.31 105.449 456.14 105.129 457.13 105.129C458.12 105.129 458.95 105.449 459.64 106.099C460.33 106.749 460.67 107.619 460.67 108.719C460.67 109.819 460.33 110.699 459.64 111.349C458.95 111.999 458.12 112.319 457.13 112.319ZM459.9 148.549H454.41V117.869H459.9V148.549Z" fill="white"/>
    <path d="M469.34 118.749C470.6 118.439 472.27 118.099 474.36 117.749C476.44 117.399 478.84 117.219 481.56 117.219C484 117.219 486.02 117.559 487.64 118.249C489.25 118.939 490.54 119.899 491.5 121.139C492.46 122.379 493.14 123.859 493.54 125.589C493.93 127.319 494.13 129.229 494.13 131.309V148.539H488.64V132.489C488.64 130.599 488.51 128.989 488.26 127.649C488 126.309 487.58 125.229 486.99 124.399C486.4 123.569 485.61 122.969 484.63 122.599C483.65 122.229 482.43 122.039 480.97 122.039C480.38 122.039 479.77 122.059 479.14 122.099C478.51 122.139 477.91 122.189 477.34 122.249C476.77 122.309 476.26 122.379 475.81 122.459C475.36 122.539 475.03 122.599 474.84 122.639V148.539H469.35V118.749H469.34Z" fill="white"/>
    <path d="M512.41 149.14C509.03 149.06 506.63 148.33 505.21 146.96C503.79 145.59 503.09 143.44 503.09 140.53V103.71L508.58 102.77V139.65C508.58 140.56 508.66 141.3 508.82 141.89C508.98 142.48 509.23 142.95 509.59 143.31C509.94 143.66 510.42 143.93 511.01 144.11C511.6 144.29 512.33 144.43 513.19 144.55L512.42 149.15L512.41 149.14Z" fill="white"/>
    <path d="M529.23 117.1C531.43 117.1 533.29 117.39 534.81 117.96C536.32 118.53 537.54 119.34 538.47 120.38C539.39 121.42 540.05 122.66 540.45 124.1C540.84 125.54 541.04 127.12 541.04 128.85V148.02C540.57 148.1 539.91 148.21 539.06 148.35C538.21 148.49 537.26 148.61 536.2 148.73C535.14 148.85 533.99 148.96 532.75 149.06C531.51 149.16 530.28 149.21 529.06 149.21C527.33 149.21 525.74 149.03 524.28 148.68C522.82 148.33 521.57 147.76 520.5 147C519.44 146.23 518.61 145.22 518.02 143.96C517.43 142.7 517.14 141.19 517.14 139.42C517.14 137.65 517.48 136.27 518.17 135.05C518.86 133.83 519.79 132.85 520.97 132.1C522.15 131.35 523.53 130.8 525.1 130.45C526.67 130.1 528.32 129.92 530.06 129.92C530.61 129.92 531.18 129.95 531.77 130.01C532.36 130.07 532.92 130.15 533.45 130.25C533.98 130.35 534.44 130.44 534.84 130.52C535.23 130.6 535.51 130.66 535.67 130.7V129.17C535.67 128.27 535.57 127.37 535.37 126.49C535.17 125.61 534.82 124.82 534.31 124.13C533.8 123.44 533.1 122.89 532.22 122.48C531.34 122.07 530.18 121.86 528.77 121.86C526.96 121.86 525.38 121.99 524.02 122.24C522.66 122.5 521.65 122.76 520.98 123.04L520.33 118.5C521.04 118.19 522.22 117.88 523.87 117.58C525.52 117.29 527.31 117.14 529.24 117.14L529.23 117.1ZM529.7 144.59C531 144.59 532.15 144.56 533.15 144.5C534.15 144.44 534.99 144.33 535.66 144.17V135.03C535.27 134.83 534.63 134.67 533.74 134.53C532.86 134.39 531.78 134.32 530.52 134.32C529.69 134.32 528.82 134.38 527.9 134.5C526.98 134.62 526.13 134.86 525.36 135.24C524.59 135.61 523.95 136.12 523.44 136.77C522.93 137.42 522.67 138.27 522.67 139.34C522.67 141.31 523.3 142.67 524.56 143.44C525.82 144.21 527.53 144.59 529.69 144.59H529.7Z" fill="white"/>
    <path d="M550.11 118.749C551.37 118.439 553.04 118.099 555.13 117.749C557.21 117.399 559.61 117.219 562.33 117.219C564.77 117.219 566.79 117.559 568.41 118.249C570.02 118.939 571.31 119.899 572.27 121.139C573.23 122.379 573.91 123.859 574.31 125.589C574.7 127.319 574.9 129.229 574.9 131.309V148.539H569.41V132.489C569.41 130.599 569.28 128.989 569.03 127.649C568.77 126.309 568.35 125.229 567.76 124.399C567.17 123.569 566.38 122.969 565.4 122.599C564.42 122.229 563.2 122.039 561.74 122.039C561.15 122.039 560.54 122.059 559.91 122.099C559.28 122.139 558.68 122.189 558.11 122.249C557.54 122.309 557.03 122.379 556.58 122.459C556.13 122.539 555.8 122.599 555.61 122.639V148.539H550.12V118.749H550.11Z" fill="white"/>
    <path d="M603.8 103.71L609.29 102.77V147.67C608.03 148.02 606.42 148.38 604.45 148.73C602.48 149.08 600.22 149.26 597.66 149.26C595.3 149.26 593.18 148.89 591.29 148.14C589.4 147.39 587.79 146.33 586.45 144.95C585.11 143.57 584.08 141.89 583.35 139.91C582.62 137.92 582.26 135.69 582.26 133.21C582.26 130.73 582.56 128.69 583.18 126.72C583.79 124.75 584.68 123.06 585.86 121.65C587.04 120.23 588.48 119.13 590.2 118.35C591.91 117.56 593.87 117.17 596.07 117.17C597.84 117.17 599.4 117.41 600.76 117.88C602.12 118.35 603.13 118.8 603.8 119.24V103.72V103.71ZM603.8 124.36C603.13 123.81 602.17 123.28 600.91 122.77C599.65 122.26 598.27 122 596.78 122C595.21 122 593.86 122.29 592.74 122.86C591.62 123.43 590.7 124.22 590 125.22C589.29 126.22 588.78 127.41 588.47 128.79C588.15 130.17 588 131.64 588 133.21C588 136.79 588.88 139.55 590.65 141.5C592.42 143.45 594.78 144.42 597.73 144.42C599.22 144.42 600.47 144.35 601.48 144.21C602.48 144.07 603.26 143.93 603.81 143.77V124.36H603.8Z" fill="white"/>
    <path d="M182.99 85.8495C182.11 84.3695 181.1 82.7095 179.96 80.8695C178.82 79.0295 177.59 77.1195 176.27 75.1395C174.95 73.1595 173.58 71.1495 172.16 69.1095C170.74 67.0695 169.33 65.0995 167.93 63.1995C166.53 61.2995 165.17 59.5095 163.85 57.8295C162.53 56.1495 161.31 54.6695 160.19 53.3895V85.8495H154.49V44.2695H159.11C160.99 46.2695 163 48.5995 165.14 51.2595C167.28 53.9195 169.4 56.6595 171.5 59.4795C173.6 62.2995 175.58 65.0695 177.44 67.7895C179.3 70.5095 180.87 72.9295 182.15 75.0495V44.2695H187.85V85.8495H182.99Z" fill="white"/>
    <path d="M207.89 53.8691C210.13 53.8691 212.02 54.1591 213.56 54.7391C215.1 55.3191 216.34 56.1391 217.28 57.1991C218.22 58.2591 218.89 59.5191 219.29 60.9791C219.69 62.4391 219.89 64.0491 219.89 65.8091V85.3091C219.41 85.3891 218.74 85.4991 217.88 85.6391C217.02 85.7791 216.05 85.9091 214.97 86.0291C213.89 86.1491 212.72 86.2591 211.46 86.3591C210.2 86.4591 208.95 86.5091 207.71 86.5091C205.95 86.5091 204.33 86.3291 202.85 85.9691C201.37 85.6091 200.09 85.0391 199.01 84.2591C197.93 83.4791 197.09 82.4491 196.49 81.1691C195.89 79.8891 195.59 78.3491 195.59 76.5491C195.59 74.7491 195.94 73.3491 196.64 72.1091C197.34 70.8691 198.29 69.8691 199.49 69.1091C200.69 68.3491 202.09 67.7891 203.69 67.4291C205.29 67.0691 206.97 66.8891 208.73 66.8891C209.29 66.8891 209.87 66.9191 210.47 66.9791C211.07 67.0391 211.64 67.1191 212.18 67.2191C212.72 67.3191 213.19 67.4091 213.59 67.4891C213.99 67.5691 214.27 67.6291 214.43 67.6691V66.1091C214.43 65.1891 214.33 64.2791 214.13 63.3791C213.93 62.4791 213.57 61.6791 213.05 60.9791C212.53 60.2791 211.82 59.7191 210.92 59.2991C210.02 58.8791 208.85 58.6691 207.41 58.6691C205.57 58.6691 203.96 58.7991 202.58 59.0591C201.2 59.3191 200.17 59.5891 199.49 59.8691L198.83 55.2491C199.55 54.9291 200.75 54.6191 202.43 54.3191C204.11 54.0191 205.93 53.8691 207.89 53.8691ZM208.37 81.8291C209.69 81.8291 210.86 81.7991 211.88 81.7391C212.9 81.6791 213.75 81.5691 214.43 81.4091V72.1091C214.03 71.9091 213.38 71.7391 212.48 71.5991C211.58 71.4591 210.49 71.3891 209.21 71.3891C208.37 71.3891 207.48 71.4491 206.54 71.5691C205.6 71.6891 204.74 71.9391 203.96 72.3191C203.18 72.6991 202.53 73.2191 202.01 73.8791C201.49 74.5391 201.23 75.4091 201.23 76.4891C201.23 78.4891 201.87 79.8791 203.15 80.6591C204.43 81.4391 206.17 81.8291 208.37 81.8291Z" fill="white"/>
    <path d="M234.35 54.6483H246.17V59.3283H234.35V73.7283C234.35 75.2883 234.47 76.5783 234.71 77.5983C234.95 78.6183 235.31 79.4183 235.79 79.9983C236.27 80.5783 236.87 80.9883 237.59 81.2283C238.31 81.4683 239.15 81.5883 240.11 81.5883C241.79 81.5883 243.14 81.3983 244.16 81.0183C245.18 80.6383 245.89 80.3683 246.29 80.2083L247.37 84.8283C246.81 85.1083 245.83 85.4583 244.43 85.8783C243.03 86.2983 241.43 86.5083 239.63 86.5083C237.51 86.5083 235.76 86.2383 234.38 85.6983C233 85.1583 231.89 84.3483 231.05 83.2683C230.21 82.1883 229.62 80.8583 229.28 79.2783C228.94 77.6983 228.77 75.8683 228.77 73.7883V45.9483L234.35 44.9883V54.6483Z" fill="white"/>
    <path d="M256.01 49.0095C255.01 49.0095 254.16 48.6795 253.46 48.0195C252.76 47.3595 252.41 46.4695 252.41 45.3495C252.41 44.2295 252.76 43.3395 253.46 42.6795C254.16 42.0195 255.01 41.6895 256.01 41.6895C257.01 41.6895 257.86 42.0195 258.56 42.6795C259.26 43.3395 259.61 44.2295 259.61 45.3495C259.61 46.4695 259.26 47.3595 258.56 48.0195C257.86 48.6795 257.01 49.0095 256.01 49.0095ZM258.83 85.8495H253.25V54.6495H258.83V85.8495Z" fill="white"/>
    <path d="M295.97 70.2491C295.97 72.7291 295.61 74.9691 294.89 76.9691C294.17 78.9691 293.16 80.6891 291.86 82.1291C290.56 83.5691 289.01 84.6791 287.21 85.4591C285.41 86.2391 283.45 86.6291 281.33 86.6291C279.21 86.6291 277.25 86.2391 275.45 85.4591C273.65 84.6791 272.1 83.5691 270.8 82.1291C269.5 80.6891 268.49 78.9691 267.77 76.9691C267.05 74.9691 266.69 72.7291 266.69 70.2491C266.69 67.7691 267.05 65.5791 267.77 63.5591C268.49 61.5391 269.5 59.8091 270.8 58.3691C272.1 56.9291 273.65 55.8191 275.45 55.0391C277.25 54.2591 279.21 53.8691 281.33 53.8691C283.45 53.8691 285.41 54.2591 287.21 55.0391C289.01 55.8191 290.56 56.9291 291.86 58.3691C293.16 59.8091 294.17 61.5391 294.89 63.5591C295.61 65.5791 295.97 67.8091 295.97 70.2491ZM290.15 70.2491C290.15 66.7291 289.36 63.9391 287.78 61.8791C286.2 59.8191 284.05 58.7891 281.33 58.7891C278.61 58.7891 276.46 59.8191 274.88 61.8791C273.3 63.9391 272.51 66.7291 272.51 70.2491C272.51 73.7691 273.3 76.5591 274.88 78.6191C276.46 80.6791 278.61 81.7091 281.33 81.7091C284.05 81.7091 286.2 80.6791 287.78 78.6191C289.36 76.5591 290.15 73.7691 290.15 70.2491Z" fill="white"/>
    <path d="M303.83 55.5483C305.11 55.2283 306.81 54.8883 308.93 54.5283C311.05 54.1683 313.49 53.9883 316.25 53.9883C318.73 53.9883 320.79 54.3383 322.43 55.0383C324.07 55.7383 325.38 56.7183 326.36 57.9783C327.34 59.2383 328.03 60.7483 328.43 62.5083C328.83 64.2683 329.03 66.2083 329.03 68.3283V85.8483H323.45V69.5283C323.45 67.6083 323.32 65.9683 323.06 64.6083C322.8 63.2483 322.37 62.1483 321.77 61.3083C321.17 60.4683 320.37 59.8583 319.37 59.4783C318.37 59.0983 317.13 58.9083 315.65 58.9083C315.05 58.9083 314.43 58.9283 313.79 58.9683C313.15 59.0083 312.54 59.0583 311.96 59.1183C311.38 59.1783 310.86 59.2483 310.4 59.3283C309.94 59.4083 309.61 59.4683 309.41 59.5083V85.8483H303.83V55.5483Z" fill="white"/>
    <path d="M348.35 53.8691C350.59 53.8691 352.48 54.1591 354.02 54.7391C355.56 55.3191 356.8 56.1391 357.74 57.1991C358.68 58.2591 359.35 59.5191 359.75 60.9791C360.15 62.4391 360.35 64.0491 360.35 65.8091V85.3091C359.87 85.3891 359.2 85.4991 358.34 85.6391C357.48 85.7791 356.51 85.9091 355.43 86.0291C354.35 86.1491 353.18 86.2591 351.92 86.3591C350.66 86.4591 349.41 86.5091 348.17 86.5091C346.41 86.5091 344.79 86.3291 343.31 85.9691C341.83 85.6091 340.55 85.0391 339.47 84.2591C338.39 83.4791 337.55 82.4491 336.95 81.1691C336.35 79.8891 336.05 78.3491 336.05 76.5491C336.05 74.7491 336.4 73.3491 337.1 72.1091C337.8 70.8691 338.75 69.8691 339.95 69.1091C341.15 68.3491 342.55 67.7891 344.15 67.4291C345.75 67.0691 347.43 66.8891 349.19 66.8891C349.75 66.8891 350.33 66.9191 350.93 66.9791C351.53 67.0391 352.1 67.1191 352.64 67.2191C353.18 67.3191 353.65 67.4091 354.05 67.4891C354.45 67.5691 354.73 67.6291 354.89 67.6691V66.1091C354.89 65.1891 354.79 64.2791 354.59 63.3791C354.39 62.4791 354.03 61.6791 353.51 60.9791C352.99 60.2791 352.28 59.7191 351.38 59.2991C350.48 58.8791 349.31 58.6691 347.87 58.6691C346.03 58.6691 344.42 58.7991 343.04 59.0591C341.66 59.3191 340.63 59.5891 339.95 59.8691L339.29 55.2491C340.01 54.9291 341.21 54.6191 342.89 54.3191C344.57 54.0191 346.39 53.8691 348.35 53.8691ZM348.83 81.8291C350.15 81.8291 351.32 81.7991 352.34 81.7391C353.36 81.6791 354.21 81.5691 354.89 81.4091V72.1091C354.49 71.9091 353.84 71.7391 352.94 71.5991C352.04 71.4591 350.95 71.3891 349.67 71.3891C348.83 71.3891 347.94 71.4491 347 71.5691C346.06 71.6891 345.2 71.9391 344.42 72.3191C343.64 72.6991 342.99 73.2191 342.47 73.8791C341.95 74.5391 341.69 75.4091 341.69 76.4891C341.69 78.4891 342.33 79.8791 343.61 80.6591C344.89 81.4391 346.63 81.8291 348.83 81.8291Z" fill="white"/>
    <path d="M378.95 86.4491C375.51 86.3691 373.07 85.6291 371.63 84.2291C370.19 82.8291 369.47 80.6491 369.47 77.6891V40.2491L375.05 39.2891V76.7891C375.05 77.7091 375.13 78.4691 375.29 79.0691C375.45 79.6691 375.71 80.1491 376.07 80.5091C376.43 80.8691 376.91 81.1391 377.51 81.3191C378.11 81.4991 378.85 81.6491 379.73 81.7691L378.95 86.4491Z" fill="white"/>
    <path d="M400.19 85.8495V44.2695H425.57V49.2495H406.01V61.6095H423.41V66.4695H406.01V80.8695H427.07V85.8495H400.19Z" fill="white"/>
    <path d="M434.09 55.5483C435.37 55.2283 437.07 54.8883 439.19 54.5283C441.31 54.1683 443.75 53.9883 446.51 53.9883C448.99 53.9883 451.05 54.3383 452.69 55.0383C454.33 55.7383 455.64 56.7183 456.62 57.9783C457.6 59.2383 458.29 60.7483 458.69 62.5083C459.09 64.2683 459.29 66.2083 459.29 68.3283V85.8483H453.71V69.5283C453.71 67.6083 453.58 65.9683 453.32 64.6083C453.06 63.2483 452.63 62.1483 452.03 61.3083C451.43 60.4683 450.63 59.8583 449.63 59.4783C448.63 59.0983 447.39 58.9083 445.91 58.9083C445.31 58.9083 444.69 58.9283 444.05 58.9683C443.41 59.0083 442.8 59.0583 442.22 59.1183C441.64 59.1783 441.12 59.2483 440.66 59.3283C440.2 59.4083 439.87 59.4683 439.67 59.5083V85.8483H434.09V55.5483Z" fill="white"/>
    <path d="M480.71 39.2891C482.35 39.2891 483.76 39.4091 484.94 39.6491C486.12 39.8891 486.95 40.1091 487.43 40.3091L486.41 45.1091C485.93 44.8691 485.25 44.6391 484.37 44.4191C483.49 44.1991 482.41 44.0891 481.13 44.0891C478.53 44.0891 476.71 44.7991 475.67 46.2191C474.63 47.6391 474.11 49.5491 474.11 51.9491V54.6491H486.11V59.3291H474.11V85.8491H468.53V51.8291C468.53 47.8291 469.51 44.7391 471.47 42.5591C473.43 40.3791 476.51 39.2891 480.71 39.2891Z" fill="white"/>
    <path d="M519.23 70.2491C519.23 72.7291 518.87 74.9691 518.15 76.9691C517.43 78.9691 516.42 80.6891 515.12 82.1291C513.82 83.5691 512.27 84.6791 510.47 85.4591C508.67 86.2391 506.71 86.6291 504.59 86.6291C502.47 86.6291 500.51 86.2391 498.71 85.4591C496.91 84.6791 495.36 83.5691 494.06 82.1291C492.76 80.6891 491.75 78.9691 491.03 76.9691C490.31 74.9691 489.95 72.7291 489.95 70.2491C489.95 67.7691 490.31 65.5791 491.03 63.5591C491.75 61.5391 492.76 59.8091 494.06 58.3691C495.36 56.9291 496.91 55.8191 498.71 55.0391C500.51 54.2591 502.47 53.8691 504.59 53.8691C506.71 53.8691 508.67 54.2591 510.47 55.0391C512.27 55.8191 513.82 56.9291 515.12 58.3691C516.42 59.8091 517.43 61.5391 518.15 63.5591C518.87 65.5791 519.23 67.8091 519.23 70.2491ZM513.41 70.2491C513.41 66.7291 512.62 63.9391 511.04 61.8791C509.46 59.8191 507.31 58.7891 504.59 58.7891C501.87 58.7891 499.72 59.8191 498.14 61.8791C496.56 63.9391 495.77 66.7291 495.77 70.2491C495.77 73.7691 496.56 76.5591 498.14 78.6191C499.72 80.6791 501.87 81.7091 504.59 81.7091C507.31 81.7091 509.46 80.6791 511.04 78.6191C512.62 76.5591 513.41 73.7691 513.41 70.2491Z" fill="white"/>
    <path d="M538.61 53.9883C539.09 53.9883 539.64 54.0183 540.26 54.0783C540.88 54.1383 541.49 54.2183 542.09 54.3183C542.69 54.4183 543.24 54.5183 543.74 54.6183C544.24 54.7183 544.61 54.8083 544.85 54.8883L543.89 59.7483C543.45 59.5883 542.72 59.3983 541.7 59.1783C540.68 58.9583 539.37 58.8483 537.77 58.8483C536.73 58.8483 535.7 58.9583 534.68 59.1783C533.66 59.3983 532.99 59.5483 532.67 59.6283V85.8483H527.09V55.9683C528.41 55.4883 530.05 55.0383 532.01 54.6183C533.97 54.1983 536.17 53.9883 538.61 53.9883Z" fill="white"/>
    <path d="M563.81 86.5691C561.29 86.5691 559.08 86.1691 557.18 85.3691C555.28 84.5691 553.68 83.4491 552.38 82.0091C551.08 80.5691 550.11 78.8591 549.47 76.8791C548.83 74.8991 548.51 72.7091 548.51 70.3091C548.51 67.9091 548.86 65.7091 549.56 63.7091C550.26 61.7091 551.25 59.9791 552.53 58.5191C553.81 57.0591 555.38 55.9191 557.24 55.0991C559.1 54.2791 561.17 53.8691 563.45 53.8691C564.85 53.8691 566.25 53.9891 567.65 54.2291C569.05 54.4691 570.39 54.8491 571.67 55.3691L570.41 60.1091C569.57 59.7091 568.6 59.3891 567.5 59.1491C566.4 58.9091 565.23 58.7891 563.99 58.7891C560.87 58.7891 558.48 59.7691 556.82 61.7291C555.16 63.6891 554.33 66.5491 554.33 70.3091C554.33 71.9891 554.52 73.5291 554.9 74.9291C555.28 76.3291 555.88 77.5291 556.7 78.5291C557.52 79.5291 558.57 80.2991 559.85 80.8391C561.13 81.3791 562.69 81.6491 564.53 81.6491C566.01 81.6491 567.35 81.5091 568.55 81.2291C569.75 80.9491 570.69 80.6491 571.37 80.3291L572.15 85.0091C571.83 85.2091 571.37 85.3991 570.77 85.5791C570.17 85.7591 569.49 85.9191 568.73 86.0591C567.97 86.1991 567.16 86.3191 566.3 86.4191C565.44 86.5191 564.61 86.5691 563.81 86.5691Z" fill="white"/>
    <path d="M576.4 70.3091C576.4 67.5491 576.8 65.1391 577.6 63.0791C578.4 61.0191 579.46 59.3091 580.78 57.9491C582.1 56.5891 583.62 55.5691 585.34 54.8891C587.06 54.2091 588.82 53.8691 590.62 53.8691C594.82 53.8691 598.04 55.1791 600.28 57.7991C602.52 60.4191 603.64 64.4091 603.64 69.7691V70.6991C603.64 71.0791 603.62 71.4291 603.58 71.7491H582.22C582.46 74.9891 583.4 77.4491 585.04 79.1291C586.68 80.8091 589.24 81.6491 592.72 81.6491C594.68 81.6491 596.33 81.4791 597.67 81.1391C599.01 80.7991 600.02 80.4691 600.7 80.1491L601.48 84.8291C600.8 85.1891 599.61 85.5691 597.91 85.9691C596.21 86.3691 594.28 86.5691 592.12 86.5691C589.4 86.5691 587.05 86.1591 585.07 85.3391C583.09 84.5191 581.46 83.3891 580.18 81.9491C578.9 80.5091 577.95 78.7991 577.33 76.8191C576.71 74.8391 576.4 72.6691 576.4 70.3091ZM597.83 67.2491C597.87 64.7291 597.24 62.6591 595.94 61.0391C594.64 59.4191 592.85 58.6091 590.57 58.6091C589.29 58.6091 588.16 58.8591 587.18 59.3591C586.2 59.8591 585.37 60.5091 584.69 61.3091C584.01 62.1091 583.48 63.0291 583.1 64.0691C582.72 65.1091 582.47 66.1691 582.35 67.2491H597.83Z" fill="white"/>
    <path d="M611.68 55.5483C612.96 55.2283 614.65 54.8883 616.75 54.5283C618.85 54.1683 621.28 53.9883 624.04 53.9883C626.04 53.9883 627.72 54.2583 629.08 54.7983C630.44 55.3383 631.58 56.1283 632.5 57.1683C632.78 56.9683 633.22 56.6883 633.82 56.3283C634.42 55.9683 635.16 55.6183 636.04 55.2783C636.92 54.9383 637.9 54.6383 638.98 54.3783C640.06 54.1183 641.22 53.9883 642.46 53.9883C644.86 53.9883 646.82 54.3383 648.34 55.0383C649.86 55.7383 651.05 56.7283 651.91 58.0083C652.77 59.2883 653.35 60.8083 653.65 62.5683C653.95 64.3283 654.1 66.2483 654.1 68.3283V85.8483H648.52V69.5283C648.52 67.6883 648.43 66.1083 648.25 64.7883C648.07 63.4683 647.73 62.3683 647.23 61.4883C646.73 60.6083 646.05 59.9583 645.19 59.5383C644.33 59.1183 643.22 58.9083 641.86 58.9083C639.98 58.9083 638.43 59.1583 637.21 59.6583C635.99 60.1583 635.16 60.6083 634.72 61.0083C635.04 62.0483 635.28 63.1883 635.44 64.4283C635.6 65.6683 635.68 66.9683 635.68 68.3283V85.8483H630.1V69.5283C630.1 67.6883 630 66.1083 629.8 64.7883C629.6 63.4683 629.25 62.3683 628.75 61.4883C628.25 60.6083 627.57 59.9583 626.71 59.5383C625.85 59.1183 624.76 58.9083 623.44 58.9083C622.88 58.9083 622.28 58.9283 621.64 58.9683C621 59.0083 620.39 59.0583 619.81 59.1183C619.23 59.1783 618.7 59.2483 618.22 59.3283C617.74 59.4083 617.42 59.4683 617.26 59.5083V85.8483H611.68V55.5483Z" fill="white"/>
    <path d="M661.6 70.3091C661.6 67.5491 662 65.1391 662.8 63.0791C663.6 61.0191 664.66 59.3091 665.98 57.9491C667.3 56.5891 668.82 55.5691 670.54 54.8891C672.26 54.2091 674.02 53.8691 675.82 53.8691C680.02 53.8691 683.24 55.1791 685.48 57.7991C687.72 60.4191 688.84 64.4091 688.84 69.7691V70.6991C688.84 71.0791 688.82 71.4291 688.78 71.7491H667.42C667.66 74.9891 668.6 77.4491 670.24 79.1291C671.88 80.8091 674.44 81.6491 677.92 81.6491C679.88 81.6491 681.53 81.4791 682.87 81.1391C684.21 80.7991 685.22 80.4691 685.9 80.1491L686.68 84.8291C686 85.1891 684.81 85.5691 683.11 85.9691C681.41 86.3691 679.48 86.5691 677.32 86.5691C674.6 86.5691 672.25 86.1591 670.27 85.3391C668.29 84.5191 666.66 83.3891 665.38 81.9491C664.1 80.5091 663.15 78.7991 662.53 76.8191C661.91 74.8391 661.6 72.6691 661.6 70.3091ZM683.02 67.2491C683.06 64.7291 682.43 62.6591 681.13 61.0391C679.83 59.4191 678.04 58.6091 675.76 58.6091C674.48 58.6091 673.35 58.8591 672.37 59.3591C671.39 59.8591 670.56 60.5091 669.88 61.3091C669.2 62.1091 668.67 63.0291 668.29 64.0691C667.91 65.1091 667.66 66.1691 667.54 67.2491H683.02Z" fill="white"/>
    <path d="M696.88 55.5483C698.16 55.2283 699.86 54.8883 701.98 54.5283C704.1 54.1683 706.54 53.9883 709.3 53.9883C711.78 53.9883 713.84 54.3383 715.48 55.0383C717.12 55.7383 718.43 56.7183 719.41 57.9783C720.39 59.2383 721.08 60.7483 721.48 62.5083C721.88 64.2683 722.08 66.2083 722.08 68.3283V85.8483H716.5V69.5283C716.5 67.6083 716.37 65.9683 716.11 64.6083C715.85 63.2483 715.42 62.1483 714.82 61.3083C714.22 60.4683 713.42 59.8583 712.42 59.4783C711.42 59.0983 710.18 58.9083 708.7 58.9083C708.1 58.9083 707.48 58.9283 706.84 58.9683C706.2 59.0083 705.59 59.0583 705.01 59.1183C704.43 59.1783 703.91 59.2483 703.45 59.3283C702.99 59.4083 702.66 59.4683 702.46 59.5083V85.8483H696.88V55.5483Z" fill="white"/>
    <path d="M736.54 54.6483H748.36V59.3283H736.54V73.7283C736.54 75.2883 736.66 76.5783 736.9 77.5983C737.14 78.6183 737.5 79.4183 737.98 79.9983C738.46 80.5783 739.06 80.9883 739.78 81.2283C740.5 81.4683 741.34 81.5883 742.3 81.5883C743.98 81.5883 745.33 81.3983 746.35 81.0183C747.37 80.6383 748.08 80.3683 748.48 80.2083L749.56 84.8283C749 85.1083 748.02 85.4583 746.62 85.8783C745.22 86.2983 743.62 86.5083 741.82 86.5083C739.7 86.5083 737.95 86.2383 736.57 85.6983C735.19 85.1583 734.08 84.3483 733.24 83.2683C732.4 82.1883 731.81 80.8583 731.47 79.2783C731.13 77.6983 730.96 75.8683 730.96 73.7883V45.9483L736.54 44.9883V54.6483Z" fill="white"/>
  </g>
  <defs>
    <clipPath id="clip0_4321_9833">
      <rect width="749.56" height="159.629" fill="white"/>
    </clipPath>
  </defs>
</svg>