<?xml version="1.0" encoding="UTF-8"?>
<svg xmlns="http://www.w3.org/2000/svg" width="743" height="159" viewBox="0 0 743 159" fill="none">
  <g clip-path="url(#clip0_4321_10233)">
    <mask id="mask0_4321_10233" style="mask-type:luminance" maskUnits="userSpaceOnUse" x="0" y="0" width="127" height="156">
      <path d="M126.66 0H0V155.53H126.66V0Z" fill="white"/>
    </mask>
    <g mask="url(#mask0_4321_10233)">
      <path fill-rule="evenodd" clip-rule="evenodd" d="M0 74.7398V77.0598L0.620003 76.9898L4.63 74.7398C4.77 76.3998 6.67 78.0498 8.27 78.0498C9.68 78.0498 11.34 77.0598 13.56 77.0598C12.8 77.7198 10.58 78.7698 10.58 80.0398V81.0298C10.58 82.7898 9.26 83.2398 9.26 84.9998V85.9898C9.26 86.7298 9.52001 86.7198 9.92001 87.3098C10.94 86.6298 11.95 84.3298 12.57 84.3298C13.56 84.3298 14.22 85.6498 15.21 85.6498H15.87C16.58 85.6498 18.13 84.1798 19.3 83.7898C20.52 83.3798 22.36 82.9298 23.47 82.6698V84.3198C23.47 85.3198 24.04 85.4398 24.79 85.6398C24.17 86.7998 23.1 87.4898 21.48 87.6198C21.75 88.6398 22.12 88.9398 23.46 88.9398H24.78C26.72 88.9398 26.47 87.6198 28.42 87.6198H29.08C32.92 87.6198 31.84 81.0098 35.36 81.0098C36.09 81.0098 37.47 84.7098 40.71 84.9698L40.32 81.6698C40.27 81.2898 40.5 81.0098 40.65 80.3498C42.33 81.5798 42.38 84.3298 46.27 84.6498C46.23 82.7898 45.61 82.8098 45.61 81.0098V80.3498C45.61 79.0898 45.51 80.2298 45.94 79.3598C47.83 80.7498 47.32 83.2198 52.22 83.3298C51.91 81.9898 51.23 80.8598 51.23 79.0298C51.23 78.1398 51.7 77.7598 52.22 77.3798C52.61 79.0698 54.5 81.0198 56.52 81.0198H57.51C57.26 79.9498 56.85 78.9698 56.85 77.7098C56.85 77.4198 57.22 77.0498 57.51 77.0498C57.64 77.0498 61.11 79.6798 61.81 80.0298C63.7 80.9798 64.9 81.5798 67.07 82.3798C68.77 83.0098 70.89 83.5498 72.8 83.9298C75.18 84.3998 76.67 85.4798 78.69 85.6498V86.3098C72.45 86.3098 67.56 92.2598 62.15 92.2598C60.32 92.2598 59.17 90.7698 59.17 88.9498C59.17 88.1898 59.28 88.5698 59.5 87.6298C57.74 87.7798 55.86 89.4198 55.86 91.2698V92.2598C55.86 93.5198 55.76 92.3798 56.19 93.2498C55.38 93.7898 52.15 100.22 52 101.41L56.52 99.1998C56.04 101.26 55.53 102.44 55.53 105.15V107.8C55.53 111.23 46.26 114.08 42.63 114.41L38 114.75C36.39 114.9 35.69 112.7 35.69 111.11V109.46C35.69 107.95 30.52 105.82 29.07 105.82C28.04 105.82 25.76 106.37 25.76 107.14C25.76 107.6 26.21 107.8 26.75 107.8H27.08C28.15 107.8 27.33 108.09 28.93 108.59L27.41 111.11C26.64 110.59 25.68 109.79 24.43 109.79H23.11C21.12 109.79 21.34 111.11 20.13 111.11C16.98 111.11 14.75 112.56 14.51 115.41C16.37 115.37 16.35 114.75 18.15 114.75H18.81C20.21 114.75 19.47 115.26 19.47 116.07V116.73C19.47 118.43 22.51 119.38 24.58 119.44L23.4 122.37L23.86 123.72L23.11 125.33C22.41 124.96 18.81 122.6 18.81 122.02C18.81 121.14 20.28 121.38 20.46 119.7H17.81C15.81 119.7 14.96 118.71 12.52 118.71H11.53C9.75 118.71 8.55 120.35 8.55 122.02V123.34C8.55 124.47 6.56001 125.05 6.56001 127.31V129.62C6.56001 130.86 8.04 132.14 9.54 132.27C9.54 130.31 10.59 127.64 12.19 127.64H13.84C16.39 127.64 18.61 131.37 20.52 132.86C21.16 133.35 27.07 138.45 27.07 138.55C27.07 141.11 23.1 143.32 23.1 147.15C23.1 148.57 25.2 150.46 26.74 150.46H27.4C28.97 150.46 30.38 147.84 30.38 146.16C30.38 145.3 28.46 144.26 27.18 144.05L28.73 141.2C30 141.3 35 145.17 36.4 146.1C39.16 147.92 41.7 149.08 44.83 150.57C49.99 153.04 58.31 155.42 65.77 155.42L69.41 155.52L79.33 155.09C81.98 154.97 86.21 153.44 87.93 153.44H88.26C89.57 153.44 89.92 152.78 91.24 152.78C92.68 152.78 92.44 152.12 93.89 152.12C96.1 152.12 99.68 150.31 101.83 150.14C101.87 151.89 102.99 153.78 104.48 153.78L105.36 153.81L104.81 150.81C107.79 150.81 109.44 149.12 109.44 146.18V143.2C109.44 142.06 109.68 141.92 109.77 140.88C111.49 141.34 110.43 143.2 112.75 143.2C113.64 143.2 113.66 143.04 114.4 142.87V144.52C114.4 145.41 114.24 145.43 114.07 146.17C116.04 146.12 117.71 144.79 117.71 142.86V141.87C117.71 140.86 117.56 140.66 117.38 139.89C117.72 139.24 118.04 138.91 118.04 137.91V137.58C118.04 135.74 116.95 134.92 115.73 134.27V133.61C115.73 132.6 116.05 132.28 116.39 131.63H119.37C120.74 131.63 121.79 130.81 122.35 129.98C121.61 129.81 121.59 129.65 120.7 129.65C118.99 129.65 118.64 128.77 118.05 127.67C118.79 127.84 118.81 128 119.7 128H120.03C121.6 128 123 126.96 123.34 125.68H122.02C120.53 125.68 119.69 124.89 119.38 123.7H120.7C122.59 123.7 123.67 121.98 124.34 120.72H122.69C121.15 120.72 120.04 120.29 119.38 119.4C121.48 119.35 123.23 118.11 123.68 116.42H122.03C120.87 116.42 118.72 115.17 118.72 114.1V113.11C118.72 111.55 116.82 109.27 116.4 107.49H110.45C107 107.49 104.45 102.99 104.26 99.5498L103.84 94.2598C103.61 91.4498 102.69 90.3498 102.52 88.3098H103.84C110.53 88.3098 114.33 82.3598 117.07 82.3598H118.39C119.45 82.3598 120.14 83.4598 120.38 84.3398C121.11 83.7998 121.7 82.9498 121.7 81.6898V81.0298C121.7 79.4698 121.06 79.7098 120.71 78.3798C122.85 79.5098 121.7 80.7598 123.36 81.3598V78.3798C123.36 75.6798 122.11 75.5298 121.05 74.0798C123.33 74.2698 122.96 76.2598 124.69 76.7198V75.7298C124.69 74.2098 122.99 71.4098 122.05 70.7598C118.79 68.5098 119.64 70.9098 117.74 67.1298C115.48 62.6198 113.39 61.5798 111.13 58.1998C118.32 54.7498 126.67 49.8798 126.67 39.3498C126.67 35.5998 123.64 30.8698 121.63 28.8498C119.04 26.2498 115.51 24.4698 110.47 24.4698H110.14C102.13 24.4698 93.93 31.9398 93.93 40.0098V42.9898C93.93 47.8298 98.8 55.7298 101.87 56.5498V57.2098C99.02 57.2698 96.04 59.5898 94.26 60.8498C92.05 62.4098 91.62 65.7298 91.62 69.4498C91.62 70.4998 90.71 71.9698 90.3 72.7598C92.83 72.7598 94.73 71.4298 95.26 69.4498C96.17 70.1198 97.58 74.4698 97.58 76.0598C97.58 76.6198 97.14 77.2998 96.92 77.7098C100.43 77.7098 102.21 73.9998 102.21 70.7598V69.7698C103.35 70.5298 104.2 72.1798 104.2 74.0698V74.3998C104.2 75.5998 103.81 75.5598 103.54 76.7198C105.98 76.5198 107.51 74.3298 107.51 71.7598L107.69 71.0698L106.52 63.8298V62.8398C106.52 62.2998 106.72 61.8498 107.18 61.8498C108.13 61.8498 113.79 69.1698 113.79 71.4398V74.4198C113.79 77.1198 112.66 79.0598 111.02 80.2498C110.06 80.9498 106.19 82.6898 104.86 82.6898H103.54C100.24 82.6898 97.18 80.3298 95.15 78.8498C92.88 77.1998 89.61 76.2098 86.9 74.8698C80.77 71.8298 77.89 68.0698 74.79 62.2698L77.09 61.8598C76.65 60.2098 75.44 60.4598 75.44 59.2098V51.2698C76.18 51.4398 76.2 51.5998 77.09 51.5998H79.07C80.81 51.5998 84.36 49.1398 84.36 47.6298V46.6398C83.62 46.8098 83.6 46.9698 82.71 46.9698H82.05C78.06 46.9698 78.01 41.9698 76.76 39.3598C78.47 39.8198 78.91 41.6998 79.08 43.6598C80.81 43.1998 81.07 40.5398 81.07 38.3698V38.0398C81.07 33.1298 78.88 33.0898 77.1 30.4298C79.98 30.4898 79.57 32.3098 81.07 33.4098C81.18 32.0498 81.4 32.6698 81.4 31.4298C81.4 28.9498 79.42 26.1598 79.42 26.1398C79.42 23.9798 87.2 19.7698 89.67 19.1898C89.54 17.6198 88.48 16.5398 87.03 16.5398C85.5 16.5398 86.03 17.1598 84.05 17.1998V16.5398C86.25 16.5398 87.95 15.8498 90.01 15.5898L97.28 14.5598C98.71 14.3498 100.99 12.0098 102.57 11.5798L102.51 10.4098L97.28 8.26978C96.58 8.42978 94.35 8.92976 93.64 8.92976L92.31 8.86977L87.03 9.58977H85.05L78.1 10.2498C78.07 8.83977 77.4 7.26978 76.12 7.26978H75.46C73.96 7.26978 73.73 7.97977 72.81 8.58977C72.81 8.58977 72.19 8.25977 72.15 8.25977C71 8.25977 69.51 9.74977 69.51 10.9098C69.51 12.0698 70.09 11.3698 70.5 12.8898C68.6 12.8498 68.23 12.1498 68.18 10.2498C68.93 10.0498 69.5 9.92976 69.5 8.92976V8.26978C69.5 7.50978 69.27 7.27977 68.51 7.27977C67.75 7.27977 67.54 7.81978 66.86 8.26978C66.84 9.32978 66.97 9.91977 65.87 9.91977H65.21C64.2 9.91977 64.09 9.34976 63.89 8.59976H65.21C66.28 8.59976 67.2 7.15977 67.2 5.94977V4.95976C67.2 3.81976 66.16 3.52977 65.21 3.30977V1.98976C65.21 0.789761 63.94 0.499766 63.23 0.00976562H61.58C61.58 7.78977 60.52 7.37977 57.94 12.2498H57.28C55.86 12.2498 54.78 12.7298 52.98 12.9098L41.08 13.9598L37.44 14.2798L37.03 11.2698L37.1 6.95976C37.1 5.58976 34.99 4.01977 33.46 3.97977L31.42 7.57977C32.32 9.36977 33.46 13.2898 33.46 15.8898C32.94 15.5098 32.8 15.8298 32.8 14.8998V13.9098C32.32 13.5898 32.07 13.1498 31.48 13.2498L28.84 13.5898C27.21 13.8398 26.16 13.9098 24.8 14.1698C23.04 14.5098 22.42 15.2298 21.23 15.2298H20.57C19.77 15.2298 18.59 16.4198 18.59 17.2198C18.59 17.9198 18.71 17.6498 18.92 18.5398H16.94C15.89 18.5398 14.63 20.2198 14.63 21.5198V23.4998C14.63 25.1198 16.75 26.1498 18.6 26.1498C19.56 26.1498 20.31 25.6998 21.25 25.4898C21.37 26.9698 22.57 28.6198 22.57 29.4598C22.57 30.1098 21.58 29.9398 21.58 31.1098C21.58 32.5998 22.37 33.4398 23.56 33.7498V37.0598L23.3 41.3598L22.85 44.9898H21.91L21.53 52.5998C21.53 53.4798 26.31 57.5598 27.2 57.5598H27.86L28.25 56.5898C29.33 56.8298 39.1 65.1998 39.1 65.8298C39.1 67.2898 31.36 71.1198 28.19 71.1198H26.54C24.52 71.1198 22.15 69.1898 21.16 67.8998C19.73 66.0598 19.83 63.5098 17.28 63.5098C16.27 63.5098 15.94 63.8298 15.29 64.1698C14.24 63.4598 13.44 62.8498 11.65 62.8498C9.86 62.8498 8.41 63.9898 8.01 65.4998H9.66C10.86 65.4998 11.51 65.7798 12.31 66.1598L11.5 68.4298C9.82 68.3198 9.94 67.4798 8.34 67.4798C7.12 67.4798 6.34001 68.0998 5.81001 68.9198C4.48001 70.9798 5.81 69.6398 3.77 70.8398C1.68 72.0698 1.89 73.5398 0.0699997 74.7498M63.19 1.39977L64.22 1.32977L63.87 4.63977H66.21V5.62976C66.21 6.83976 65.73 7.60977 64.56 7.60977C63.87 7.60977 64.69 7.09977 62.91 6.94977C62.91 8.96977 63.29 11.2498 65.23 11.2498C66.48 11.2498 65.86 11.0298 67.22 10.9198C67.36 12.6098 68.41 13.8998 70.2 13.8998H72.18V12.2498L70.87 11.5698V10.9298V9.93977C71.61 9.76977 71.63 9.60977 72.52 9.60977C72.7 9.60977 73.25 10.0898 73.51 10.2698L74.64 8.35977C76.52 8.27977 76.47 8.30976 77.15 9.59976L76.75 11.2398C76.33 11.3898 75.82 11.3198 75.82 11.9198C75.82 12.4298 77.14 13.0598 77.14 13.5698C77.14 13.9498 76.7 14.3198 76.15 14.2298L73.52 13.8198V15.8898C73.51 16.9598 74.94 17.8698 76.15 17.8698H77.47C77.47 19.4598 78.04 21.1798 79.45 21.1798C80.33 21.1798 82.1 20.9198 82.1 20.1898C82.1 19.5598 81.44 19.9698 81.44 18.8698C81.44 18.0998 81.99 17.5498 82.76 17.5498C83.93 17.5498 84.09 18.8698 84.75 18.8698C85.41 18.8698 85.23 17.8798 86.4 17.8798H87.39C88.31 17.8798 88.19 18.1398 88.38 18.8698C85.08 19.1398 82.94 21.3898 80.77 22.8398L61.28 9.94977L63.2 1.40977L63.19 1.39977ZM38.62 31.9798C37.88 31.8498 36.78 31.1598 36.78 30.0998V27.4498C36.78 23.2098 34.46 20.4998 34.46 18.8498V14.2198C34.46 12.4398 32.81 8.37977 32.81 7.60977C32.81 7.54977 33.58 6.57976 33.8 5.62976C34.95 5.72976 35.69 6.18977 35.79 7.27977L36.15 12.2398C36.38 15.1198 38.11 18.8798 38.11 19.8498V23.4898C38.11 25.7798 38.98 28.9598 39.76 30.4398L38.63 31.9898L38.62 31.9798ZM67.87 8.27977L68.87 8.58977L67.87 9.26978V8.27977ZM94.66 9.91977H97.64C98.9 9.92977 100.4 10.8398 100.95 11.5898C99.65 11.9398 98.16 13.5698 97.31 13.5698H96.98C95.36 13.5698 93.44 14.5598 91.69 14.5598C90.09 14.5598 88.85 14.9798 87.06 15.2198L81.45 15.9398C80.79 15.9598 80.89 15.9598 80.45 16.2098L79.44 14.5698L91.36 13.1998C93.11 13.0198 94.23 12.5998 95.66 12.5698V11.9098L82.77 13.2998L78.14 13.6598L77.83 11.8198L94.67 9.91977H94.66ZM74.82 24.1498V23.1598C74.82 21.4998 73.18 19.8498 71.51 19.8498H70.52C68.76 19.8498 59.61 13.4298 59.61 12.8998C59.61 12.1198 60.26 11.4298 60.6 10.9198L79.36 23.6298C79.24 26.0098 78.05 24.1498 75.82 24.1498H74.83H74.82ZM56.6 13.6698C56.18 15.8498 55.41 16.8798 52.99 16.8798C51.87 16.8798 51.67 17.0598 50.67 17.2098L45.06 17.9798L40.75 18.2998L40.08 18.2098H39.42L38.22 15.6598L43.06 15.1898L44.06 15.2898L56.59 13.6798L56.6 13.6698ZM26.2 16.5498C26.28 15.5598 26.44 14.8998 27.52 14.8998C28.46 14.8998 28.12 14.9998 28.51 15.5598H26.86L26.2 16.5498ZM31.16 14.5698C31.92 14.5698 32.13 15.9798 32.15 16.8898L30.17 16.2298C30.17 15.1698 30.08 14.5798 31.16 14.5798M77.45 15.2198C77.4 16.0198 77.16 16.8898 76.47 16.8898C75.51 16.8898 74.76 16.3398 74.48 15.5698C75.35 15.9998 74.21 15.8998 75.47 15.8998L76.14 15.9198L77.44 15.2198H77.45ZM79.28 15.3998L79.44 16.5598L78.28 16.3898L79.27 15.3998H79.28ZM22.97 20.5098C23.11 21.9098 23.7 23.1698 22.23 23.1698C21.96 23.1698 19.24 16.5498 21.24 16.5498C21.45 16.5498 22.19 17.2998 22.56 17.5398L22.96 20.5098H22.97ZM30.17 21.1798V19.1998C28.39 18.2598 27.9 19.0798 27.85 16.8798C31.42 17.7098 33.8 18.7498 33.8 23.1598V23.8198C33.8 25.2898 32.13 27.2298 31.48 28.4498H30.82L27.19 28.8698L24.86 28.7798C23.35 28.7798 22.58 26.0698 22.54 24.4798C23.28 24.3098 23.3 24.1498 24.19 24.1498H25.84C25.84 25.7698 24.88 27.1298 26.5 27.1298C27.14 27.1298 27.5 24.7698 27.92 23.9198C28.61 22.5398 28.91 22.4898 30.14 21.8398V21.1798H30.17ZM54.31 17.8298C53.88 18.7398 53.99 17.5998 53.99 18.8598V19.1898C53.99 20.7998 46.15 22.0298 44.4 22.1698L39.45 22.5998V19.5298C41.23 19.5298 42.41 18.8698 43.74 18.8698H44.73L51.35 18.2798L54.31 17.8398V17.8298ZM26.21 21.8398C26.21 22.5998 25.98 22.8298 25.22 22.8298C24.6 22.8298 23.98 20.6098 23.89 19.8598L23.48 15.8998H25.23C25.23 18.6398 26.22 19.4498 26.22 21.5098V21.8398H26.21ZM78.46 18.5298C78.46 17.7698 79.87 17.4798 80.44 17.2098V19.8498C79.4 19.7598 78.46 19.6198 78.46 18.5298ZM28.86 20.1698V21.4998H27.51L27.12 19.5298L28.86 20.1598V20.1698ZM51.01 25.7998C51.01 24.7698 54.69 21.7198 55.32 20.5198C55.89 19.4498 57.44 14.5498 58.94 14.5498C58.98 14.5498 68.53 20.7198 68.53 21.1598C68.53 21.9498 67.59 21.1698 67.54 23.4798C70.16 22.8698 69.23 21.1598 70.85 21.1598H71.84C72.61 21.1598 73.49 22.0398 73.49 22.8098C73.49 23.7798 72.5 24.4798 72.5 25.4598C72.5 26.7698 74.85 25.4598 76.14 25.4598H76.8C78.3 25.4598 80.08 29.1998 80.44 30.7498C79.39 30.0398 78.59 29.4298 76.8 29.4298H72.5C73.08 31.6098 79.78 30.4498 79.78 37.6998V39.6798C77.2 37.9498 76.53 36.3698 71.84 36.3698H70.85V37.0298C73.47 37.2498 74.18 37.9198 75.81 39.0098V39.6698C75.81 43.5698 78.87 47.9498 82.76 48.2698C81.87 49.5998 80.67 50.5898 78.46 50.5898H77.8C75.33 50.5898 75.01 48.6698 73.75 47.3598C73.38 46.9798 69.86 43.7998 69.86 45.6298C69.86 46.8098 74.49 47.2498 74.49 53.5698V59.1898C74.49 60.0798 74.65 60.0998 74.82 60.8398C70.7 60.8398 67.54 58.1698 67.54 54.2298C67.54 52.6898 67.21 53.7898 67.21 52.2498C67.21 51.0498 66.82 51.0898 66.55 49.9298C64.7 50.4198 65.89 50.2798 65.89 51.9098V60.1798C65.89 61.4998 66.57 61.8198 66.88 63.1598C63.64 62.8898 60.27 60.1198 60.27 56.5498V52.5798C58.9 52.7298 58.28 54.8698 58.28 56.2198V58.8698C58.28 61.2298 59.53 62.2998 59.93 63.8298C56.03 63.7398 52.65 60.8398 52.65 56.8798V56.2198L53.03 51.9298C51.42 52.0498 51.32 52.9898 51.32 54.5698V57.2098C51.32 58.6698 51.81 59.5698 52.31 60.5198C51.19 61.1198 50.08 61.5098 48.34 61.5098H43.38C42.24 61.5098 42.1 61.7498 41.07 61.8398V60.8498C41.07 59.1498 42.92 56.0598 44.26 55.4398C46.53 54.3898 49.1 54.7998 49.34 51.9198C48.13 52.2398 47.51 53.2398 46.69 53.2398C46.29 53.2398 45.7 52.5598 45.7 51.9198V50.9298C45.7 49.7898 45.94 49.6498 46.03 48.6098C48.01 48.6498 47.47 49.2698 49.01 49.2698C50.93 49.2698 51.2 45.4698 51.99 43.9798H53.31L55.19 42.4898C55.35 45.1298 56.47 47.2898 58.94 47.2898H59.93C63.06 47.2898 65.88 42.1498 65.88 39.0198V38.6898C65.88 35.8098 63.96 31.4098 61.25 31.4098H60.92C57.57 31.4098 57.2 33.5698 55.63 34.7198C54.33 32.0198 52.32 32.0698 52.32 31.0798V29.4298C52.32 27.7998 53.43 29.0498 53.64 27.1098C52.25 27.1398 50.99 28.0798 50.99 26.4498V25.7898L51.01 25.7998ZM46.05 23.1598C47.82 23.1598 48.33 22.4998 50.35 22.4998H51.34C50.79 23.5298 49.35 24.8198 49.35 25.4798V26.1398C49.35 28.2798 51 28.1298 51 29.4498V32.7598L53.58 33.9098L55.57 37.0998L46.04 37.0598C45.26 37.0598 44.72 36.5098 44.72 35.7398C44.72 33.5998 46.37 33.7498 46.37 32.4298C46.37 31.9698 45.92 31.7698 45.38 31.7698C43.01 31.7698 39.76 33.0998 39.76 35.0798V37.0598C39.76 39.6298 42.91 41.3598 45.71 41.3598H46.04L53.3 40.3098L55.29 40.3698C53.99 41.4998 50 43.2398 50 44.9998V45.6598C50 46.8698 49.52 47.6498 48.35 47.6498C47.25 47.6498 46.09 46.4698 45.37 45.9998C45.09 47.1998 44.94 46.8698 44.71 48.3098L44.3 50.9398L39.43 48.6298L40.34 47.8598C40.23 45.7598 37.11 45.8398 37.11 43.0198V42.3598C37.11 41.2598 36.52 41.3898 35.46 41.3698L32.65 33.1598L33.8 33.0998C34.07 31.9498 34.46 31.9898 34.46 30.7798C34.46 29.1698 33.47 28.8898 33.47 28.4598C33.47 27.3198 34.48 26.0698 35.46 25.8098V27.7898L35.14 30.7698V31.4298C35.76 31.7598 38.74 34.0798 38.76 34.0798C39.17 34.0798 41.09 31.2398 41.41 30.7698C40.54 29.1198 39.48 26.5898 39.43 24.1598C42.39 24.1598 44.14 23.1698 45.71 23.1698H46.04L46.05 23.1598ZM15.95 22.1698C15.95 20.7498 16.97 19.5298 18.27 19.5298C19.16 19.5298 20.25 22.7698 20.25 23.8298C20.25 24.4498 19.03 24.8198 18.27 24.8198C16.69 24.8198 15.95 23.6998 15.95 22.1698ZM109.54 26.1398C113.33 26.1398 112.1 25.4198 115.78 26.8398C117.46 27.4898 119.17 28.4898 120.66 29.5698C122.98 31.2398 125.08 36.0698 125.08 40.0298V41.6798C125.08 54.7398 105.57 56.6298 105.57 63.1798V63.5098L106.62 70.7798L106.56 72.4398C106.56 73.7898 106.04 74.2198 105.24 74.7598V73.4398C105.24 70.3598 102.59 68.7298 102.59 67.4898V66.8298C102.59 65.2998 103.21 65.8398 103.25 63.8498C101.14 64.4098 100.93 67.8298 100.93 70.4598V72.1098C100.93 74.2998 100.08 75.6398 98.61 76.4098V74.0898C98.61 72.3698 96.62 70.5198 96.62 67.8098V67.4798C96.62 65.1998 97.55 64.9998 97.94 63.5098C94.08 64.5398 95.37 70.3898 92.65 71.1198L93.44 65.5198C94.38 58.0898 104.68 58.2698 110.51 55.5898C115.45 53.3198 123.07 48.3498 123.07 41.3598V39.7098C123.07 37.2098 119.25 31.1098 117.45 31.1098C117.22 31.1098 115.79 33.4298 114.8 34.0898V32.4398C114.8 31.1198 114.24 30.0898 113.15 29.7898C112.49 32.6098 111.9 33.3698 109.84 34.7498C110.01 34.0098 110.17 33.9898 110.17 33.0998V31.1198C110.17 30.5798 109.97 30.1298 109.51 30.1298C108.67 30.1298 108.54 33.4698 106.2 34.0998C106.2 32.6298 105.92 31.1198 104.55 31.1198H103.56C100.67 31.1198 97.61 36.8198 97.61 39.7198V42.0398C97.61 46.8098 102.72 54.4298 105.88 55.2698V55.9298C104.73 56.1998 104.77 56.5898 103.57 56.5898C102.46 56.5898 98.96 52.3498 98.21 51.3598C96.71 49.3798 95.3 47.0198 95.3 43.6898V41.3698L95.6 38.0598C96.32 32.2598 102.58 26.1598 108.86 26.1598H109.52L109.54 26.1398ZM32.15 29.7198C32.91 29.6998 33.15 30.0698 33.15 30.7698C33.15 31.5998 32.92 31.6698 32.16 31.7598L28.53 32.1798L23.57 32.5098C23.34 31.4898 23.23 31.8598 23.23 31.0998C23.23 30.6398 23.68 30.4398 24.22 30.4398C25.49 30.4398 24.96 30.1098 26.54 30.1098L27.21 30.1898L32.16 29.7298L32.15 29.7198ZM41.09 37.3798C41.09 34.7998 42.28 33.5698 44.4 33.0798C43.92 33.7998 43.41 34.1798 43.41 35.3998V35.7298C43.41 37.4398 44.79 38.3798 46.39 38.3798H54.33C57.99 38.3798 63.19 42.6698 62.27 44.6598C60.58 43.4198 59.09 39.3698 55.66 39.3698H52.35C50.55 39.3698 50.52 40.0298 48.71 40.0298H44.74C43.39 40.0298 41.1 38.5898 41.1 37.3798M99.31 38.6998C99.5 37.0698 101.74 32.4198 103.28 32.4198H104.93V33.7398C104.93 34.5098 104.25 34.7198 103.94 36.0598C106.92 36.0598 107.2 34.8798 108.9 33.7398L107.82 36.3498C111.01 36.3198 111.75 34.5998 113.53 33.4098L112.36 35.9698L113.53 36.0498C116.16 36.0498 117.34 33.0698 117.83 33.0698C118.9 33.0698 121.8 38.4698 121.8 40.6798C121.8 47.6798 113.44 53.8598 107.58 55.2298C104.45 53.5798 98.98 47.6698 98.98 42.9898V41.9998L99.31 38.6898V38.6998ZM56.65 37.0498C56.96 35.7198 57.83 33.0798 59.3 33.0798H60.95C63.4 33.0798 64.26 35.8998 64.26 38.3698V39.3598C64.26 41.0298 63.73 41.1198 63.6 42.6698C61.19 41.0498 59.8 37.8898 56.65 37.0498ZM31.18 33.3398C31.54 34.9098 34.49 41.4998 34.49 42.3398C34.49 43.9298 31.53 46.9698 29.53 46.9698C28.02 46.9698 26.09 45.7698 24.57 45.6498L24.88 39.3598L25.23 33.8098L31.17 33.3398H31.18ZM56.65 41.0198C58.36 41.4198 60.79 43.7498 60.95 45.6498C60.21 45.8198 60.19 45.9798 59.3 45.9798C58.19 45.9798 56.65 44.7598 56.65 43.6598V41.0098V41.0198ZM34.49 45.6498C34.49 44.9998 35.72 43.6498 36.14 43.3298C36.2 45.8198 37.35 45.6498 37.79 47.2998C36.75 47.3798 36.61 47.6298 35.47 47.6298C34.85 47.6298 34.48 46.4098 34.48 45.6398M33.44 46.8198L33.49 48.6098C32.38 48.9098 32.14 49.5998 31.18 49.5998C30.55 49.5998 30.32 48.5298 30.2 47.9698L33.45 46.8198H33.44ZM23.24 46.9598C24.39 47.2298 26.77 47.9498 27.87 47.9498H28.53L29.62 50.2198L27.29 55.9298L22.97 52.5098C23.35 51.7098 23.24 52.8598 23.24 51.5898V46.9598ZM29.19 54.8998C31.35 50.8298 30.98 50.2298 36.47 48.9498C37.46 49.4698 44.41 52.8598 44.41 53.5798C44.41 53.9398 40.22 56.1798 39.78 59.8598L39.36 63.1598C39.38 63.7198 39.71 64.1598 40.11 64.1598C40.56 64.1598 40.29 63.7998 41.43 63.4998L40.22 64.9298L29.2 54.8998H29.19ZM66.89 57.8798C68.61 59.1398 69.06 62.0798 73.5 62.1798C74.6 66.8798 81.33 73.2798 85.29 75.5198C88.16 77.1398 90.98 78.1298 93.67 79.6998C95.26 80.6298 100.31 83.9998 102.27 83.9998H104.26C109.52 83.9998 115.5 79.7498 115.5 75.0698C115.5 69.0898 111.69 63.4998 108.22 61.1798C108.48 60.7898 109.74 59.1998 110.21 59.1998C111.55 59.1998 117.64 68.6098 118.15 70.7798C120.78 70.8398 122.18 71.9898 123.11 73.7598C122.37 73.5898 122.35 73.4298 121.46 73.4298H120.14C119.6 73.4298 119.15 73.6298 119.15 74.0898C119.15 75.0598 122.38 74.8598 122.5 78.2898L117.83 76.7398C117.97 78.4298 119.28 79.0898 120.48 79.7198V82.0298C119.16 81.6798 119.4 81.0398 117.83 81.0398H117.5C114.92 81.0398 110.31 86.5398 105.92 86.9698L101.63 87.4098L101.81 87.1198L99.96 85.6598C100.11 87.4298 101.96 87.8798 102.31 90.6198L103.26 99.8798V100.21C103.26 104.82 107 109.14 111.86 109.14H114.84C115.96 109.14 117.49 111.87 117.49 113.11C117.49 113.87 117.26 114.1 116.5 114.1H115.51C115.85 115.36 120.44 116.68 121.46 118.07C121.46 118.07 120.84 118.4 120.8 118.4C118.78 118.4 118.27 117.74 116.5 117.74C115.5 117.74 115.58 118.13 115.51 119.06H116.5C119.05 119.06 118.91 121.77 122.12 122.04C121.8 122.32 121.54 122.7 120.8 122.7C118.83 122.7 117.08 121.38 116.17 121.38C115.17 121.38 115.26 121.77 115.18 122.7H116.17L116.74 122.78L120.8 126.99C118.14 126.93 117.31 125.34 115.51 125.34H115.18C114.64 125.34 114.19 125.54 114.19 126C114.19 126.46 114.64 126.66 115.18 126.66H115.51L116.14 126.68L118.81 130.63C116.45 130.58 116.34 129.31 114.51 129.31C113.25 129.31 114.39 129.21 113.47 129.68L114.18 130.63H115.5C115.37 132.25 114.51 132.63 114.51 133.61C114.51 135.41 115.67 135.97 116.83 136.59V138.91H115.18C114.26 138.91 114.39 139.16 114.19 139.9C116.01 139.9 116.84 140.06 116.84 141.88V143.53C116.84 144.42 116.36 144.51 115.85 144.85V143.86C115.85 141.78 115.28 140.63 113.47 140.24L113.87 141.88H112.22C111.99 140.88 112.03 139.9 110.9 139.9H110.57C109.22 139.9 108.59 142.1 108.59 143.54V146.85C108.59 148.06 107.68 149.5 106.61 149.5H105.62V148.18C104.19 148.34 103.97 149.59 103.97 151.16V151.82C103.97 153.08 103.87 151.94 104.3 152.81C103.46 152.51 102.98 151.52 102.98 150.49C102.98 149.32 103.13 147.51 104.3 147.51H105.29V146.52C103.4 146.52 102.46 146.74 102.31 148.51C101.38 148.43 100.99 148.51 100.99 147.52V146.53C100.99 143.15 105.62 143.73 105.62 139.26C103.34 139.51 104.39 142.57 101.65 142.57H100C98.14 142.57 96.02 144.55 94.38 144.55H94.05C92.71 144.55 92.34 144.24 92.06 143.23C93.41 143.12 93.41 143.06 93.71 141.91C89.31 141.91 89.64 143.22 87.1 143.9C87.5 142.39 90.88 140.26 92.39 140.26C92.99 140.26 92.92 140.76 93.05 141.25L93.87 141.19L93.05 139.27H91.73V137.95C92.32 137.81 92.73 137.57 93.07 137.51L98.68 138.28H99.67C101.25 138.28 102.63 137.92 102.98 136.63C101.94 136.72 101.8 136.96 100.66 136.96L100.32 137.05L95.37 136.63C94.28 136.53 94.4 136.11 94.38 134.98H95.37C95.17 134.24 95.29 133.99 94.38 133.99H91.07C91.45 133.43 91.79 132.67 92.72 132.67C97.36 132.67 94.99 134.11 97.02 134.66V133.34C97.02 132.19 96.43 132.87 96.03 131.35C98.95 131.42 98.51 134.33 101.32 134.33H103.64C106.28 134.33 108.27 130.3 108.27 127.39V123.42C108.27 119.87 106.26 117.19 103.76 116.03C102.41 115.4 100.84 114.97 99.22 114.62C96.9 114.12 95.95 113.54 94.34 113.16L94.72 111.19C93.07 111.23 92.41 111.83 92.41 113.5C92.41 115.17 91.79 116.15 91.75 117.8L91.35 117.66L89.06 113.82L89.77 110.19C88.64 110.49 88.23 110.84 88.12 112.17C86.03 112.17 85.66 111.79 84.81 110.52H86.13C87.47 110.52 88.45 109.8 88.45 108.54C88.45 106.02 85.47 100.27 85.47 97.2998V96.9698C85.47 95.5798 84.81 95.3898 84.81 93.6598C84.81 86.7098 79.1 84.2098 73.57 82.7398C70.37 81.8898 68.08 81.2298 65.25 80.1398C63.98 79.6598 58.35 76.7598 58.35 75.7998C58.35 75.0798 59.34 73.6198 59.34 71.8298C59.34 70.9398 59.18 70.9198 59.01 70.1798C58.27 70.3798 58.02 70.2598 58.02 71.1698C58.02 73.7298 56.03 75.4798 56.03 77.4498V79.4298C53.5 79.2198 53.11 74.4698 53.05 71.8198H51.73V73.1398C51.73 76.6198 50.08 77.3698 50.08 81.4098C48.55 81.0498 47.43 79.8898 47.43 78.0998V74.4598C47.43 73.4598 47.04 73.5398 46.11 73.4698C46.11 76.8198 44.46 78.8298 44.46 81.4098V82.3998C42.94 81.9898 42.14 79.9398 42.14 78.0998C42.14 76.2598 41.62 75.1798 40.07 74.7998L40.49 78.4298C40.66 79.8198 39.22 80.4998 39.17 82.7298C38 82.6298 37.19 81.6698 37.19 80.7498C37.19 79.4698 36.86 80.0098 36.86 78.4298C36.86 77.3698 35.94 76.8698 34.85 76.7898L35.86 80.0898C31.3 81.1498 32.07 82.9198 30.24 86.3698H28.59C28.55 84.7998 28.47 84.1798 26.79 84.1598L27.93 85.6998C27.08 87.3098 26.76 88.0198 24.29 88.0198C24.89 87.1198 26.27 86.2398 26.27 85.0398C26.27 83.7698 26.37 84.9198 25.9 83.9998L24.95 84.7098C24.04 82.7498 27.19 82.2598 27.27 78.7598C24.57 80.1898 27.44 80.5398 21.85 81.9398C19.53 82.5198 16.36 84.3898 15.7 84.3898H15.37C14.15 84.3898 14.54 83.8798 14.71 83.0698C12.22 83.1298 12.34 84.3198 10.74 85.3898C10.78 83.5398 11.6 81.4198 13.39 81.4198C14.46 81.4198 13.64 81.7098 15.04 82.0798C14.96 81.0898 14.8 80.4298 13.72 80.4298H12.07C12.44 77.0598 21.21 78.4098 21.99 75.4698C20.95 75.5498 20.81 75.7998 19.67 75.7998H12.73C11.63 75.7998 9.25001 76.5298 8.10001 76.7898C6.75001 76.4798 6.24 76.3198 6.11 74.8098C6.75 74.7598 7.43 74.8298 7.43 74.1498C7.43 73.8498 7.06 73.4898 6.77 73.4898C4.65 73.4898 3.52 74.0898 2.14 74.8098C2.56 72.9998 4.29 71.4998 6.44 71.4998L7.04 71.5398L8.09 72.8298V71.5098C8.09 70.4998 7.51 70.3898 6.76 70.1898C7.14 69.4698 7.3 68.8698 8.41 68.8698C9.76 68.8698 13.49 72.8398 16.68 72.8398H18.67C19.93 72.8398 18.79 72.9398 19.66 72.5098C18.39 70.7798 14.15 71.6798 12.66 69.5098L13.39 67.4998L14.7 67.8698V66.5298L10.73 64.5598C11.56 63.4198 15.36 64.2198 15.36 66.5398L15.43 67.6498L16.68 66.8698V65.5498H17.67C19.41 65.5498 20.41 72.8298 27.92 72.8298H28.91C36.61 72.8298 43.04 63.2398 45.78 63.2398L46.12 63.3298L49.42 62.9098C50.84 62.7398 51.31 62.2498 52.73 61.9198C55.66 63.8798 57.53 65.8898 62.65 65.8898C62.59 63.3598 59.98 63.3098 59.67 59.6098C61.53 60.9698 62.42 64.5698 66.95 64.5698H68.93C68.87 61.9598 66.95 61.8298 66.95 57.9598M42.48 125.76H41.82L41.43 126.73C40.24 126.09 38.6 124.11 37.85 124.11H36.53C33.42 124.11 32.5 126.43 28.59 126.43H27.6L28 124.79C25.71 125.36 25.58 126.81 24.29 127.75V126.76C24.29 125.04 25.17 124.37 26.27 123.79L28.57 124.2C28.38 123.37 28.27 122.79 27.26 122.79H26.6C25.71 122.79 25.69 122.95 24.95 123.12C25.27 119.3 27.73 120.8 30.9 120.8H32.55C33.89 120.8 34.26 120.49 34.53 119.48H31.55L24.27 118.51C22.21 118.17 21.02 118.25 20.97 115.84H21.96C21.85 114.52 21.33 114.19 19.97 114.19H16.33C16.98 112.96 17.75 112.54 19.64 112.54H20.3C21.31 112.54 21.63 112.86 22.28 113.2V114.52C23.22 114.44 23.6 114.52 23.6 113.53C23.6 112.32 23.09 111.93 22.61 111.22C23.55 111 23.18 110.89 23.93 110.89C27.03 110.89 26.85 114.29 28.35 115.4C29.51 116.26 33.17 117.82 34.52 117.17C33.32 115.53 28.9 115.61 28.9 113.2V111.88C28.9 110.99 29.06 110.97 29.23 110.23H30.22C30.54 111.42 30.25 111.11 31.54 111.22C31.27 107.99 29.3 108.38 28.23 106.92C30.11 106.92 32.53 107.98 32.53 109.57C32.53 110.27 32.41 110.01 32.2 110.89C33.13 110.81 33.52 110.89 33.52 109.9V108.91C34.27 109.11 34.84 109.23 34.84 110.24V112.88C34.84 114.24 36.46 116.19 37.49 116.19H40.14C45.44 116.19 57.34 112.51 57.34 107.59V102.96C57.34 99.6398 59.54 97.9998 59.99 96.3498C57.47 96.3498 56.63 97.5898 55.03 98.6698C55.24 97.7798 55.67 96.3598 55.96 95.6298C56.58 94.0698 57.67 94.8398 57.67 93.3698C57.67 92.7398 57.01 93.1398 57.01 92.0498C57.01 90.8198 57.33 90.5598 58 90.0698C58.78 91.5498 59.77 93.7098 61.97 93.7098H63.62C68.08 93.7098 74.06 87.4298 81.15 87.4298L79.98 90.9998C83.03 91.8298 84.16 97.4498 84.46 100.99C82.77 101.13 82.54 102.21 80.18 102.67C78.38 103.02 77.25 103.36 75.26 103.7C72.74 104.13 68.58 105.65 68.58 108.6V109.59C68.58 111.35 70.27 112.66 70.23 112.9L69.89 115.54V116.2C67.57 117.76 68.79 116.75 66.46 117.72C65.41 118.16 64.94 119.79 64.94 121.16V121.82C64.94 122.46 65.04 122.41 65.27 122.81C63.26 122.34 62.29 120.18 62.29 117.85C62.29 116.93 62.03 117.06 61.3 116.86V118.18C61.3 119.91 59.98 120.33 59.98 123.14C59.12 122.69 57.66 121.69 57.66 120.49V118.51C57.66 117.59 57.4 117.71 56.67 117.52V118.84C56.67 120.86 55.02 121.23 55.02 124.13C54.44 123.74 53.37 123.06 53.37 122.14V119.82C53.37 118.82 52.79 118.7 52.05 118.5L51.01 124.77L49.79 123.73L49.33 120.82C49.33 120.29 49.29 119.82 48.74 119.82C48.28 119.82 48.08 120.27 48.08 120.81V121.8H46.1C45.33 121.8 44.45 122.68 44.45 123.45C44.45 124.56 45.4 124.71 45.44 126.76L44.43 125.12H43.78H42.46V125.78L42.48 125.76ZM81.84 89.0498H82.5L83.16 91.3698C82.13 90.6798 81.87 90.7098 81.84 89.0498ZM83.82 109.89C83.82 112 85.65 113.15 87.79 113.2C88.27 114.1 89.77 116.54 89.77 117.5V117.83C89.77 119.12 89.27 117.87 89.11 119.81C91.99 119.81 93.41 118.34 93.41 115.51V114.19C95.93 115.52 98.73 115.92 101.64 116.88C103.2 117.39 104.03 117.42 105.12 118.69C105.64 119.3 106.97 121.77 106.97 122.46V127.75C106.97 129.6 104.83 133.04 102.67 133.04H102.34C99.74 133.04 98.6 129.73 97.05 129.73H96.39C95.48 129.73 94.79 130.81 94.4 131.38H93.74C89.41 131.38 88.3 136.01 89.77 136.01C90.39 136.01 90.27 134.69 93.08 134.69V136.01C91.14 136.46 90.1 137.19 90.1 139.65C87.89 140.17 86.57 141.98 85.49 143.76L69.93 145.6L66.95 145.69L61.99 145.36L58.36 144.94C49.31 144 41.57 138.39 35.54 134.36C37.05 132.1 40.09 130.99 40.24 127.34L41.16 128.41C40.43 129.92 39.54 130.56 39.51 132.05C42.1 132.05 43.99 130.47 44.47 128.41C45.96 128.29 46.79 127.32 46.79 125.76C46.79 124.55 46.28 124.16 45.8 123.44C46.2 123.21 46.15 123.11 46.79 123.11H48.11C49.14 125.06 50.18 127.01 53.11 127.07L52.41 123.77C53.99 124.83 55 126.02 57.7 126.08C57.52 123.96 56.38 124.88 56.38 123.43V123.1C56.38 121.84 56.28 122.98 56.71 122.11C58.42 123.36 58.68 125.01 62.32 125.09L61.34 121.45C62.41 122.23 63.29 124.1 65.64 124.1H66.3C67.19 124.1 67.21 123.94 67.95 123.77C67.51 122.12 66.3 122.37 66.3 121.12V119.14C69.15 117.63 71.92 118.69 71.92 113.19C71.92 111.08 69.93 110.67 69.93 108.56C69.93 105.2 74.02 105.32 77.01 104.73C80.09 104.12 82.7 103.04 84.81 101.62C85.14 103.03 86.79 107.56 86.79 108.23C86.79 108.99 86.56 109.22 85.8 109.22C84.8 109.22 84.89 108.83 84.81 107.9H83.82V109.88V109.89ZM16.68 123.12C19.08 123.17 21.23 125.59 22.96 126.76V127.42C22.96 128.98 23.79 129.94 25.28 130.07L25.37 128.96L30.9 133.7C29.78 133.96 28.58 133.82 28.58 135.02V135.35C28.58 136.24 28.42 136.26 28.25 137C24.36 134.94 17.41 126.75 14.03 126.75H12.71C10.6 126.75 9.47 129.01 9.07 130.72H8.41C8.14 129.56 7.75 129.61 7.75 128.41C7.75 126.45 9.5 124.6 11.39 124.44V123.45H10.07C10.07 121.82 11.1 119.81 12.05 119.81C14.91 119.81 15.7 121.07 18.33 121.13C17.18 122.7 16.87 120.75 16.68 123.12ZM33.22 127.09V127.42C33.22 128.53 34.43 129.33 35.2 129.73C34.86 130.37 33.27 132.71 32.55 132.71C31.75 132.71 26.43 128.17 25.93 127.42C27.41 126.73 27.76 128.08 28.58 128.08C30.45 128.08 31.62 126.54 33.54 126.1C33.31 126.5 33.21 126.45 33.21 127.09M36.85 127.75C36.85 128.21 36.4 128.41 35.86 128.41H35.53C34.99 128.41 34.54 128.21 34.54 127.75C34.54 126.81 35.59 125.43 36.52 125.43H36.85C37.34 125.43 38.31 126.14 38.83 126.42V127.74C38.83 130.77 33.58 132.83 33.21 137.33C29.79 138.13 25.93 142.74 25.93 146.92C25.93 148 26.6 148.16 27.58 148.24C27.41 147.5 27.25 147.48 27.25 146.59C27.25 145.83 27.48 145.6 28.24 145.6C29 145.6 29.23 145.83 29.23 146.59V147.25C29.23 148.09 28.22 149.23 27.25 149.23C26.1 149.23 24.6 148.76 24.6 147.58V147.25C24.6 142.96 29.56 141.23 29.56 135.34C33.02 135.34 37.83 129.78 37.83 127.73C37.83 126.72 37.26 126.61 36.51 126.41C36.72 127.3 36.84 127.03 36.84 127.73M42.46 125.74H43.87L43.39 129.32L41.99 130.73L42.45 125.74H42.46ZM57.82 21.7498L58 22.5598L57.93 23.1398L57.01 24.2198H59C60.67 24.2198 60.76 23.6898 62.31 23.5598C62.04 22.5598 57.94 20.3598 56.5 20.4398L57.82 21.7598V21.7498ZM30.89 139.96C30.89 139.23 32.83 138.66 33.8 138.57L34.53 137.97V136.98C34.53 136.44 34.73 135.99 35.19 135.99C35.62 135.99 40.33 139.64 41.21 140.23C42.71 141.22 46.26 143.04 48.04 143.65C52.66 145.24 58.71 147.24 64.95 147.24H71.89C73.78 147.24 74.49 146.58 75.86 146.58L76.54 146.72L85.8 145.25L86.11 146.25H87.1C87.53 144.63 89.01 143.65 91.07 143.6C91.39 144.98 92.03 145.92 93.72 145.92C96.94 145.92 97.74 143.6 101 143.6C100.38 144.52 99.68 144.74 99.68 146.25V146.91C99.68 148.05 99.92 148.19 100.01 149.23C98.49 149.36 95.69 150.47 94.06 150.89C91.95 151.43 89.81 151.78 87.57 152.34C83.84 153.28 77.7 153.86 73.22 153.86H64.62C59.34 153.86 49.12 150.94 45.43 149.24C43.39 148.29 30.88 141.35 30.88 139.97" fill="#7B0046"/>
    </g>
    <path d="M180.34 83.4788C179.03 81.2788 177.56 78.9088 175.93 76.3788C174.31 73.8488 172.62 71.2988 170.88 68.7188C169.14 66.1488 167.37 63.6588 165.57 61.2388C163.77 58.8188 162.06 56.6488 160.44 54.7188V83.4888H153.25V43.2988H159.22C160.77 44.9188 162.43 46.8488 164.21 49.0688C165.99 51.2888 167.78 53.5988 169.58 55.9988C171.38 58.3988 173.12 60.8088 174.8 63.2188C176.48 65.6388 177.98 67.8888 179.3 69.9788V43.2988H186.55V83.4888H180.34V83.4788Z" fill="#7B0046"/>
    <path d="M205.92 52.3887C208.24 52.3887 210.19 52.6787 211.78 53.2587C213.36 53.8387 214.63 54.6487 215.58 55.6987C216.53 56.7387 217.2 58.0087 217.61 59.4987C218.02 60.9887 218.22 62.6187 218.22 64.3987V82.7887C217.14 83.0187 215.5 83.2987 213.32 83.6287C211.13 83.9587 208.67 84.1187 205.92 84.1187C204.1 84.1187 202.44 83.9487 200.93 83.5987C199.42 83.2487 198.14 82.6887 197.07 81.9187C196.01 81.1487 195.17 80.1387 194.58 78.8987C193.98 77.6587 193.68 76.1387 193.68 74.3187C193.68 72.4987 194.02 71.1087 194.7 69.9087C195.38 68.7087 196.3 67.7287 197.45 66.9787C198.61 66.2287 199.95 65.6887 201.48 65.3587C203.01 65.0287 204.6 64.8687 206.26 64.8687C207.03 64.8687 207.85 64.9187 208.7 65.0187C209.55 65.1187 210.46 65.2787 211.43 65.5087V64.3487C211.43 63.5387 211.33 62.7687 211.14 62.0287C210.95 61.2987 210.61 60.6487 210.13 60.0887C209.65 59.5287 209.01 59.0887 208.22 58.7787C207.43 58.4687 206.43 58.3187 205.23 58.3187C203.61 58.3187 202.12 58.4387 200.76 58.6687C199.41 58.8987 198.3 59.1687 197.45 59.4787L196.58 53.7987C197.47 53.4887 198.76 53.1787 200.47 52.8687C202.17 52.5587 203.99 52.4087 205.92 52.4087V52.3887ZM206.5 78.5487C208.67 78.5487 210.31 78.4287 211.43 78.1987V70.4287C211.04 70.3087 210.48 70.1987 209.75 70.0787C209.01 69.9587 208.2 69.9087 207.31 69.9087C206.54 69.9087 205.75 69.9687 204.96 70.0787C204.17 70.1987 203.45 70.4087 202.81 70.7187C202.17 71.0287 201.66 71.4587 201.27 72.0187C200.88 72.5787 200.69 73.2887 200.69 74.1387C200.69 75.7987 201.21 76.9487 202.26 77.5887C203.3 78.2287 204.72 78.5487 206.49 78.5487H206.5Z" fill="#7B0046"/>
    <path d="M226.45 45.1385L233.47 43.9785V53.1385H244.26V58.9985H233.47V71.3485C233.47 73.7885 233.86 75.5285 234.63 76.5685C235.4 77.6085 236.72 78.1385 238.57 78.1385C239.85 78.1385 240.98 78.0085 241.96 77.7285C242.95 77.4585 243.73 77.2085 244.31 76.9785L245.47 82.5485C244.66 82.8985 243.59 83.2585 242.28 83.6185C240.97 83.9885 239.42 84.1685 237.64 84.1685C235.47 84.1685 233.67 83.8785 232.22 83.2985C230.77 82.7185 229.62 81.8785 228.77 80.7785C227.92 79.6785 227.32 78.3385 226.97 76.7785C226.62 75.2085 226.45 73.4285 226.45 71.4185V45.1485V45.1385Z" fill="#7B0046"/>
    <path d="M258.87 44.2699C258.87 45.5799 258.44 46.6299 257.59 47.3999C256.74 48.1699 255.73 48.5599 254.57 48.5599C253.41 48.5599 252.35 48.1699 251.5 47.3999C250.65 46.6299 250.22 45.5799 250.22 44.2699C250.22 42.9599 250.65 41.8499 251.5 41.0799C252.35 40.3099 253.38 39.9199 254.57 39.9199C255.76 39.9199 256.74 40.3099 257.59 41.0799C258.44 41.8499 258.87 42.9199 258.87 44.2699ZM258.12 83.4799H251.1V53.1499H258.12V83.4799Z" fill="#7B0046"/>
    <path d="M294.48 68.2887C294.48 70.6887 294.13 72.8687 293.44 74.8387C292.74 76.8087 291.76 78.4887 290.48 79.8887C289.2 81.2787 287.67 82.3587 285.87 83.1387C284.07 83.9087 282.09 84.2987 279.92 84.2987C277.75 84.2987 275.78 83.9087 274 83.1387C272.22 82.3687 270.69 81.2787 269.42 79.8887C268.14 78.4987 267.15 76.8187 266.43 74.8387C265.71 72.8687 265.36 70.6787 265.36 68.2887C265.36 65.8987 265.72 63.7187 266.43 61.7587C267.15 59.8087 268.15 58.1387 269.45 56.7387C270.74 55.3487 272.28 54.2687 274.06 53.5187C275.84 52.7687 277.79 52.3887 279.92 52.3887C282.05 52.3887 284.01 52.7687 285.81 53.5187C287.61 54.2687 289.14 55.3487 290.42 56.7387C291.7 58.1287 292.69 59.7987 293.41 61.7587C294.12 63.7087 294.48 65.8887 294.48 68.2887ZM287.29 68.2887C287.29 65.2687 286.64 62.8887 285.35 61.1287C284.05 59.3687 282.25 58.4887 279.93 58.4887C277.61 58.4887 275.8 59.3687 274.51 61.1287C273.21 62.8887 272.57 65.2787 272.57 68.2887C272.57 71.2987 273.22 73.7587 274.51 75.5387C275.8 77.3187 277.61 78.2087 279.93 78.2087C282.25 78.2087 284.06 77.3187 285.35 75.5387C286.64 73.7587 287.29 71.3387 287.29 68.2887Z" fill="#7B0046"/>
    <path d="M301.73 54.1298C303.08 53.7398 304.84 53.3798 307.01 53.0298C309.18 52.6798 311.57 52.5098 314.2 52.5098C316.67 52.5098 318.74 52.8498 320.41 53.5298C322.07 54.2098 323.4 55.1498 324.38 56.3698C325.37 57.5898 326.06 59.0598 326.47 60.7798C326.88 62.4998 327.08 64.3898 327.08 66.4398V83.4898H320.06V67.5398C320.06 65.9198 319.95 64.5298 319.74 63.3898C319.53 62.2498 319.18 61.3198 318.7 60.6098C318.22 59.8898 317.56 59.3698 316.73 59.0398C315.9 58.7098 314.88 58.5498 313.69 58.5498C312.8 58.5498 311.87 58.6098 310.91 58.7198C309.94 58.8398 309.23 58.9298 308.76 59.0098V83.4898H301.74V54.1398L301.73 54.1298Z" fill="#7B0046"/>
    <path d="M345.75 52.3887C348.07 52.3887 350.02 52.6787 351.61 53.2587C353.19 53.8387 354.46 54.6487 355.41 55.6987C356.36 56.7387 357.03 58.0087 357.44 59.4987C357.85 60.9887 358.05 62.6187 358.05 64.3987V82.7887C356.97 83.0187 355.33 83.2987 353.15 83.6287C350.96 83.9587 348.5 84.1187 345.75 84.1187C343.93 84.1187 342.27 83.9487 340.76 83.5987C339.25 83.2487 337.97 82.6887 336.9 81.9187C335.84 81.1487 335.01 80.1387 334.41 78.8987C333.81 77.6587 333.51 76.1387 333.51 74.3187C333.51 72.4987 333.85 71.1087 334.52 69.9087C335.2 68.7087 336.11 67.7287 337.27 66.9787C338.43 66.2287 339.77 65.6887 341.3 65.3587C342.83 65.0287 344.42 64.8687 346.09 64.8687C346.86 64.8687 347.67 64.9187 348.53 65.0187C349.38 65.1187 350.29 65.2787 351.26 65.5087V64.3487C351.26 63.5387 351.16 62.7687 350.97 62.0287C350.78 61.2987 350.44 60.6487 349.95 60.0887C349.47 59.5287 348.83 59.0887 348.04 58.7787C347.25 58.4687 346.25 58.3187 345.05 58.3187C343.43 58.3187 341.94 58.4387 340.58 58.6687C339.23 58.8987 338.12 59.1687 337.27 59.4787L336.4 53.7987C337.29 53.4887 338.58 53.1787 340.29 52.8687C341.99 52.5587 343.81 52.4087 345.74 52.4087L345.75 52.3887ZM346.33 78.5487C348.5 78.5487 350.14 78.4287 351.26 78.1987V70.4287C350.87 70.3087 350.31 70.1987 349.58 70.0787C348.85 69.9587 348.03 69.9087 347.14 69.9087C346.37 69.9087 345.58 69.9687 344.79 70.0787C344 70.1987 343.28 70.4087 342.64 70.7187C342 71.0287 341.49 71.4587 341.1 72.0187C340.71 72.5787 340.52 73.2887 340.52 74.1387C340.52 75.7987 341.04 76.9487 342.09 77.5887C343.13 78.2287 344.55 78.5487 346.32 78.5487H346.33Z" fill="#7B0046"/>
    <path d="M377.19 84.059C375.1 84.019 373.37 83.789 372 83.359C370.63 82.939 369.54 82.329 368.72 81.529C367.91 80.739 367.34 79.749 367.01 78.569C366.68 77.389 366.52 76.049 366.52 74.539V39.619L373.54 38.459V73.199C373.54 74.049 373.61 74.769 373.74 75.349C373.87 75.929 374.12 76.419 374.46 76.829C374.81 77.239 375.28 77.549 375.88 77.759C376.48 77.969 377.24 78.139 378.17 78.249L377.18 84.049L377.19 84.059Z" fill="#7B0046"/>
    <path d="M397.72 83.4791V43.2891H423.53V49.4991H405.03V59.4191H421.5V65.5091H405.03V77.2791H424.92V83.4891H397.72V83.4791Z" fill="#7B0046"/>
    <path d="M431.36 54.1298C432.71 53.7398 434.47 53.3798 436.64 53.0298C438.81 52.6798 441.2 52.5098 443.83 52.5098C446.3 52.5098 448.37 52.8498 450.04 53.5298C451.7 54.2098 453.03 55.1498 454.01 56.3698C455 57.5898 455.69 59.0598 456.1 60.7798C456.51 62.4998 456.71 64.3898 456.71 66.4398V83.4898H449.69V67.5398C449.69 65.9198 449.58 64.5298 449.37 63.3898C449.16 62.2498 448.81 61.3198 448.33 60.6098C447.85 59.8898 447.19 59.3698 446.36 59.0398C445.53 58.7098 444.51 58.5498 443.32 58.5498C442.43 58.5498 441.5 58.6098 440.54 58.7198C439.57 58.8398 438.86 58.9298 438.39 59.0098V83.4898H431.37V54.1398L431.36 54.1298Z" fill="#7B0046"/>
    <path d="M477.65 38.4785C479.27 38.4785 480.7 38.6285 481.94 38.9085C483.18 39.1985 484.11 39.4585 484.72 39.6885L483.39 45.4885C482.73 45.1785 481.97 44.9285 481.1 44.7385C480.23 44.5485 479.29 44.4485 478.29 44.4485C477.17 44.4485 476.22 44.6185 475.45 44.9385C474.68 45.2685 474.06 45.7185 473.59 46.2985C473.13 46.8785 472.8 47.5885 472.6 48.4185C472.41 49.2485 472.31 50.1485 472.31 51.1185V53.1485H483.33V59.0085H472.31V83.4885H465.29V51.0085C465.29 47.0985 466.31 44.0385 468.36 41.8185C470.41 39.5985 473.5 38.4885 477.64 38.4885L477.65 38.4785Z" fill="#7B0046"/>
    <path d="M515.34 68.2887C515.34 70.6887 514.99 72.8687 514.3 74.8387C513.6 76.8087 512.62 78.4887 511.34 79.8887C510.06 81.2787 508.53 82.3587 506.73 83.1387C504.93 83.9087 502.95 84.2987 500.78 84.2987C498.61 84.2987 496.64 83.9087 494.86 83.1387C493.08 82.3687 491.55 81.2787 490.28 79.8887C489 78.4987 488.01 76.8187 487.29 74.8387C486.57 72.8687 486.22 70.6787 486.22 68.2887C486.22 65.8987 486.58 63.7187 487.29 61.7587C488 59.8087 489.01 58.1387 490.31 56.7387C491.6 55.3487 493.14 54.2687 494.92 53.5187C496.7 52.7687 498.65 52.3887 500.78 52.3887C502.91 52.3887 504.87 52.7687 506.67 53.5187C508.47 54.2687 510.01 55.3487 511.28 56.7387C512.56 58.1287 513.55 59.7987 514.27 61.7587C514.98 63.7087 515.34 65.8887 515.34 68.2887ZM508.15 68.2887C508.15 65.2687 507.5 62.8887 506.21 61.1287C504.91 59.3687 503.11 58.4887 500.79 58.4887C498.47 58.4887 496.66 59.3687 495.37 61.1287C494.07 62.8887 493.43 65.2787 493.43 68.2887C493.43 71.2987 494.08 73.7587 495.37 75.5387C496.66 77.3187 498.47 78.2087 500.79 78.2087C503.11 78.2087 504.92 77.3187 506.21 75.5387C507.5 73.7587 508.15 71.3387 508.15 68.2887Z" fill="#7B0046"/>
    <path d="M539.88 59.4698C539.3 59.2798 538.5 59.0698 537.47 58.8598C536.45 58.6498 535.26 58.5398 533.9 58.5398C533.13 58.5398 532.3 58.6198 531.43 58.7698C530.56 58.9198 529.95 59.0598 529.6 59.1798V83.4798H522.58V54.5998C523.93 54.0998 525.62 53.6198 527.66 53.1798C529.69 52.7398 531.94 52.5098 534.42 52.5098C534.88 52.5098 535.42 52.5398 536.04 52.5998C536.66 52.6598 537.28 52.7398 537.9 52.8298C538.52 52.9298 539.12 53.0398 539.7 53.1798C540.28 53.3198 540.74 53.4398 541.09 53.5598L539.87 59.4798L539.88 59.4698Z" fill="#7B0046"/>
    <path d="M544.29 68.3384C544.29 66.0984 544.64 63.9984 545.33 62.0484C546.03 60.0984 547.02 58.4084 548.32 56.9784C549.61 55.5484 551.19 54.4284 553.05 53.6184C554.91 52.8084 556.99 52.3984 559.31 52.3984C562.17 52.3984 564.88 52.9184 567.43 53.9684L565.92 59.7084C565.11 59.3584 564.19 59.0684 563.17 58.8384C562.14 58.6084 561.05 58.4884 559.89 58.4884C557.14 58.4884 555.06 59.3484 553.63 61.0684C552.2 62.7884 551.48 65.2184 551.48 68.3484C551.48 71.4784 552.16 73.7484 553.51 75.5084C554.86 77.2684 557.14 78.1484 560.35 78.1484C561.55 78.1484 562.73 78.0284 563.89 77.7984C565.05 77.5684 566.06 77.2784 566.91 76.9284L567.9 82.7284C567.13 83.1184 565.96 83.4684 564.39 83.7684C562.82 84.0784 561.21 84.2284 559.55 84.2284C556.96 84.2284 554.71 83.8284 552.79 83.0384C550.88 82.2484 549.29 81.1484 548.03 79.7284C546.77 78.3184 545.83 76.6384 545.22 74.6784C544.6 72.7284 544.29 70.6084 544.29 68.3284V68.3384Z" fill="#7B0046"/>
    <path d="M571.66 68.4587C571.66 65.7887 572.06 63.4487 572.85 61.4387C573.64 59.4287 574.7 57.7587 576.01 56.4187C577.32 55.0787 578.83 54.0787 580.53 53.3987C582.23 52.7187 583.97 52.3887 585.75 52.3887C589.93 52.3887 593.18 53.6887 595.52 56.2787C597.86 58.8687 599.03 62.7387 599.03 67.8787C599.03 68.2687 599.03 68.6987 599 69.1887C598.98 69.6687 598.95 70.1087 598.91 70.4887H578.9C579.09 72.9287 579.95 74.8087 581.48 76.1487C583.01 77.4787 585.22 78.1487 588.12 78.1487C589.82 78.1487 591.38 77.9987 592.79 77.6887C594.2 77.3787 595.31 77.0487 596.12 76.6987L597.05 82.4387C596.66 82.6287 596.13 82.8387 595.45 83.0487C594.77 83.2587 594 83.4587 593.13 83.6287C592.26 83.7987 591.32 83.9487 590.32 84.0687C589.31 84.1887 588.29 84.2387 587.25 84.2387C584.58 84.2387 582.26 83.8387 580.29 83.0487C578.32 82.2587 576.69 81.1587 575.42 79.7387C574.14 78.3287 573.2 76.6687 572.58 74.7487C571.96 72.8387 571.65 70.7387 571.65 68.4587H571.66ZM592.02 65.3287C592.02 64.3587 591.88 63.4387 591.61 62.5687C591.34 61.6987 590.94 60.9487 590.42 60.3087C589.9 59.6687 589.26 59.1687 588.51 58.7987C587.76 58.4287 586.86 58.2487 585.81 58.2487C584.76 58.2487 583.78 58.4487 582.97 58.8587C582.16 59.2687 581.47 59.7987 580.91 60.4587C580.35 61.1187 579.91 61.8687 579.61 62.7187C579.3 63.5687 579.09 64.4387 578.97 65.3287H592.02Z" fill="#7B0046"/>
    <path d="M623.74 67.528C623.74 64.358 623.34 62.0681 622.55 60.6581C621.76 59.2481 620.28 58.5381 618.11 58.5381C617.34 58.5381 616.49 58.5981 615.56 58.7081C614.63 58.8281 613.94 58.918 613.47 58.998V83.4781H606.45V54.1281C607.8 53.7381 609.57 53.378 611.76 53.028C613.94 52.678 616.25 52.5081 618.69 52.5081C620.78 52.5081 622.49 52.7781 623.82 53.3181C625.15 53.8581 626.27 54.578 627.15 55.468C627.57 55.158 628.12 54.8281 628.77 54.4781C629.43 54.1281 630.16 53.8081 630.97 53.5181C631.78 53.2281 632.64 52.9881 633.55 52.7881C634.46 52.5981 635.38 52.498 636.3 52.498C638.66 52.498 640.6 52.8381 642.13 53.5181C643.66 54.1981 644.86 55.1381 645.73 56.3581C646.6 57.5781 647.2 59.0481 647.53 60.7681C647.86 62.4881 648.02 64.3781 648.02 66.4281V83.4781H641V67.528C641 64.358 640.61 62.0681 639.84 60.6581C639.07 59.2481 637.58 58.5381 635.37 58.5381C634.25 58.5381 633.18 58.7181 632.18 59.0881C631.17 59.4581 630.42 59.8181 629.92 60.1581C630.23 61.1281 630.44 62.1481 630.56 63.2281C630.68 64.3081 630.73 65.4681 630.73 66.7081V83.468H623.71V67.5181L623.74 67.528Z" fill="#7B0046"/>
    <path d="M654.95 68.4587C654.95 65.7887 655.35 63.4487 656.14 61.4387C656.93 59.4287 657.99 57.7587 659.3 56.4187C660.61 55.0787 662.12 54.0787 663.82 53.3987C665.52 52.7187 667.26 52.3887 669.04 52.3887C673.22 52.3887 676.47 53.6887 678.81 56.2787C681.15 58.8687 682.32 62.7387 682.32 67.8787C682.32 68.2687 682.32 68.6987 682.29 69.1887C682.27 69.6687 682.24 70.1087 682.2 70.4887H662.19C662.38 72.9287 663.24 74.8087 664.77 76.1487C666.3 77.4787 668.51 78.1487 671.41 78.1487C673.11 78.1487 674.67 77.9987 676.08 77.6887C677.49 77.3787 678.6 77.0487 679.41 76.6987L680.34 82.4387C679.95 82.6287 679.42 82.8387 678.74 83.0487C678.06 83.2587 677.29 83.4587 676.42 83.6287C675.55 83.7987 674.61 83.9487 673.61 84.0687C672.6 84.1887 671.58 84.2387 670.54 84.2387C667.87 84.2387 665.55 83.8387 663.58 83.0487C661.61 82.2587 659.98 81.1587 658.71 79.7387C657.43 78.3287 656.49 76.6687 655.87 74.7487C655.25 72.8387 654.94 70.7387 654.94 68.4587H654.95ZM675.31 65.3287C675.31 64.3587 675.17 63.4387 674.9 62.5687C674.63 61.6987 674.23 60.9487 673.71 60.3087C673.19 59.6687 672.55 59.1687 671.8 58.7987C671.05 58.4287 670.15 58.2487 669.1 58.2487C668.05 58.2487 667.07 58.4487 666.26 58.8587C665.45 59.2687 664.76 59.7987 664.2 60.4587C663.64 61.1187 663.2 61.8687 662.9 62.7187C662.59 63.5687 662.38 64.4387 662.26 65.3287H675.31Z" fill="#7B0046"/>
    <path d="M689.75 54.1298C691.1 53.7398 692.86 53.3798 695.03 53.0298C697.2 52.6798 699.59 52.5098 702.22 52.5098C704.69 52.5098 706.76 52.8498 708.43 53.5298C710.09 54.2098 711.42 55.1498 712.4 56.3698C713.39 57.5898 714.08 59.0598 714.49 60.7798C714.9 62.4998 715.1 64.3898 715.1 66.4398V83.4898H708.08V67.5398C708.08 65.9198 707.97 64.5298 707.76 63.3898C707.55 62.2498 707.2 61.3198 706.72 60.6098C706.24 59.8898 705.58 59.3698 704.75 59.0398C703.92 58.7098 702.9 58.5498 701.71 58.5498C700.82 58.5498 699.89 58.6098 698.93 58.7198C697.96 58.8398 697.25 58.9298 696.78 59.0098V83.4898H689.76V54.1398L689.75 54.1298Z" fill="#7B0046"/>
    <path d="M723.33 45.1385L730.35 43.9785V53.1385H741.14V58.9985H730.35V71.3485C730.35 73.7885 730.74 75.5285 731.51 76.5685C732.28 77.6085 733.6 78.1385 735.45 78.1385C736.73 78.1385 737.86 78.0085 738.84 77.7285C739.83 77.4585 740.61 77.2085 741.19 76.9785L742.35 82.5485C741.54 82.8985 740.47 83.2585 739.16 83.6185C737.84 83.9885 736.3 84.1685 734.52 84.1685C732.35 84.1685 730.55 83.8785 729.1 83.2985C727.65 82.7185 726.5 81.8785 725.65 80.7785C724.8 79.6785 724.2 78.3385 723.85 76.7785C723.5 75.2085 723.33 73.4285 723.33 71.4185V45.1485V45.1385Z" fill="#7B0046"/>
    <path d="M179.99 147.479C179.45 145.899 178.89 144.329 178.3 142.779C177.72 141.229 177.16 139.649 176.61 138.019H159.63C159.09 139.639 158.53 141.239 157.97 142.809C157.41 144.379 156.86 145.929 156.31 147.479H148.71C150.22 143.189 151.65 139.229 153 135.589C154.35 131.949 155.68 128.509 156.97 125.269C158.26 122.029 159.55 118.929 160.82 115.989C162.09 113.049 163.41 110.149 164.76 107.289H171.74C173.09 110.149 174.41 113.049 175.68 115.989C176.96 118.929 178.24 122.019 179.54 125.269C180.84 128.519 182.17 131.959 183.54 135.589C184.91 139.219 186.35 143.189 187.86 147.479H179.97H179.99ZM168.13 115.059C167.24 117.109 166.23 119.599 165.09 122.539C163.95 125.479 162.76 128.669 161.52 132.109H174.74C173.5 128.669 172.3 125.459 171.14 122.479C169.98 119.499 168.97 117.029 168.12 115.059H168.13Z" fill="#7B0046"/>
    <path d="M216.71 146.558C215.36 146.908 213.6 147.268 211.43 147.628C209.26 147.998 206.89 148.178 204.3 148.178C201.86 148.178 199.82 147.828 198.18 147.138C196.54 146.438 195.22 145.478 194.24 144.238C193.25 142.998 192.55 141.518 192.12 139.798C191.69 138.078 191.48 136.188 191.48 134.138V117.148H198.5V133.038C198.5 136.288 198.97 138.608 199.92 139.998C200.87 141.388 202.52 142.088 204.88 142.088C205.73 142.088 206.63 142.048 207.58 141.968C208.53 141.888 209.23 141.798 209.7 141.678V117.148H216.72V146.558H216.71Z" fill="#7B0046"/>
    <path d="M225.29 109.139L232.31 107.979V117.139H243.1V122.999H232.31V135.349C232.31 137.789 232.7 139.529 233.47 140.569C234.24 141.609 235.56 142.139 237.41 142.139C238.69 142.139 239.82 142.009 240.8 141.729C241.79 141.459 242.57 141.209 243.15 140.979L244.31 146.549C243.5 146.899 242.43 147.259 241.12 147.619C239.81 147.989 238.26 148.169 236.48 148.169C234.31 148.169 232.51 147.879 231.06 147.299C229.61 146.719 228.46 145.879 227.61 144.779C226.76 143.679 226.16 142.339 225.81 140.779C225.46 139.209 225.29 137.429 225.29 135.409V109.139Z" fill="#7B0046"/>
    <path d="M249.88 147.479V103.629L256.9 102.469V117.489C257.67 117.219 258.57 116.989 259.6 116.789C260.62 116.599 261.64 116.499 262.64 116.499C265.08 116.499 267.1 116.839 268.7 117.509C270.3 118.189 271.59 119.129 272.56 120.349C273.53 121.569 274.21 123.029 274.62 124.729C275.03 126.429 275.23 128.329 275.23 130.409V147.459H268.21V131.509C268.21 129.889 268.1 128.499 267.89 127.359C267.68 126.219 267.33 125.289 266.85 124.579C266.37 123.869 265.72 123.339 264.91 123.009C264.1 122.679 263.09 122.519 261.89 122.519C260.96 122.519 260.01 122.619 259.05 122.809C258.08 122.999 257.37 123.179 256.9 123.329V147.459H249.88V147.479Z" fill="#7B0046"/>
    <path d="M311.07 132.288C311.07 134.688 310.72 136.868 310.03 138.838C309.33 140.808 308.35 142.488 307.07 143.888C305.79 145.278 304.26 146.358 302.46 147.138C300.66 147.908 298.68 148.298 296.51 148.298C294.34 148.298 292.37 147.908 290.59 147.138C288.81 146.368 287.28 145.278 286.01 143.888C284.73 142.498 283.74 140.818 283.02 138.838C282.3 136.868 281.95 134.678 281.95 132.288C281.95 129.898 282.31 127.718 283.02 125.768C283.74 123.818 284.74 122.148 286.04 120.748C287.33 119.358 288.87 118.288 290.65 117.528C292.43 116.778 294.38 116.398 296.51 116.398C298.64 116.398 300.6 116.778 302.4 117.528C304.2 118.278 305.73 119.358 307.01 120.748C308.29 122.138 309.28 123.818 310 125.768C310.71 127.718 311.07 129.898 311.07 132.288ZM303.88 132.288C303.88 129.268 303.23 126.888 301.94 125.128C300.64 123.368 298.84 122.488 296.52 122.488C294.2 122.488 292.39 123.368 291.1 125.128C289.8 126.888 289.16 129.278 289.16 132.288C289.16 135.298 289.81 137.758 291.1 139.538C292.39 141.318 294.2 142.208 296.52 142.208C298.84 142.208 300.65 141.318 301.94 139.538C303.23 137.758 303.88 135.348 303.88 132.288Z" fill="#7B0046"/>
    <path d="M335.61 123.47C335.03 123.28 334.23 123.07 333.2 122.86C332.18 122.65 330.99 122.54 329.63 122.54C328.86 122.54 328.03 122.62 327.16 122.77C326.29 122.93 325.68 123.06 325.33 123.18V147.48H318.31V118.6C319.66 118.1 321.35 117.62 323.39 117.18C325.43 116.74 327.67 116.51 330.15 116.51C330.61 116.51 331.15 116.54 331.77 116.6C332.39 116.66 333.01 116.74 333.63 116.83C334.25 116.93 334.85 117.04 335.43 117.18C336.01 117.32 336.47 117.44 336.82 117.56L335.6 123.48L335.61 123.47Z" fill="#7B0046"/>
    <path d="M349.52 108.27C349.52 109.59 349.09 110.63 348.24 111.4C347.39 112.17 346.38 112.56 345.22 112.56C344.06 112.56 343 112.17 342.15 111.4C341.3 110.63 340.87 109.58 340.87 108.27C340.87 106.96 341.29 105.85 342.15 105.08C343 104.31 344.03 103.92 345.22 103.92C346.41 103.92 347.39 104.31 348.24 105.08C349.09 105.85 349.52 106.92 349.52 108.27ZM348.77 147.48H341.75V117.15H348.77V147.48Z" fill="#7B0046"/>
    <path d="M357.35 109.139L364.37 107.979V117.139H375.16V122.999H364.37V135.349C364.37 137.789 364.76 139.529 365.53 140.569C366.3 141.609 367.62 142.139 369.47 142.139C370.75 142.139 371.88 142.009 372.86 141.729C373.85 141.459 374.63 141.209 375.21 140.979L376.37 146.549C375.56 146.899 374.49 147.259 373.18 147.619C371.86 147.989 370.32 148.169 368.54 148.169C366.37 148.169 364.57 147.879 363.12 147.299C361.67 146.719 360.52 145.879 359.67 144.779C358.82 143.679 358.22 142.339 357.87 140.779C357.52 139.209 357.35 137.429 357.35 135.409V109.139Z" fill="#7B0046"/>
    <path d="M406.71 117.148C403.58 128.668 399.95 139.108 395.83 148.468C395.06 150.208 394.26 151.698 393.45 152.938C392.64 154.178 391.73 155.198 390.72 156.008C389.71 156.818 388.59 157.408 387.35 157.778C386.11 158.148 384.68 158.328 383.05 158.328C381.97 158.328 380.89 158.208 379.83 157.978C378.77 157.748 377.96 157.498 377.42 157.228L378.7 151.598C380.1 152.138 381.48 152.408 382.84 152.408C384.67 152.408 386.09 151.978 387.12 151.108C388.15 150.238 389.05 148.898 389.83 147.078C387.62 142.828 385.49 138.188 383.45 133.158C381.41 128.128 379.6 122.798 378 117.148H385.48C385.87 118.768 386.34 120.528 386.91 122.428C387.47 124.318 388.08 126.248 388.74 128.198C389.4 130.148 390.1 132.098 390.84 134.028C391.58 135.958 392.31 137.758 393.05 139.418C394.28 135.978 395.44 132.308 396.51 128.428C397.59 124.538 398.57 120.778 399.46 117.148H406.71Z" fill="#7B0046"/>
    <path d="M425.91 147.479V107.289H451.31V113.499H433.21V123.769H449.28V129.979H433.21V147.499H425.9L425.91 147.479Z" fill="#7B0046"/>
    <path d="M465.35 108.27C465.35 109.59 464.92 110.63 464.07 111.4C463.22 112.17 462.21 112.56 461.05 112.56C459.89 112.56 458.83 112.17 457.98 111.4C457.13 110.63 456.7 109.58 456.7 108.27C456.7 106.96 457.12 105.85 457.98 105.08C458.83 104.31 459.86 103.92 461.05 103.92C462.24 103.92 463.22 104.31 464.07 105.08C464.92 105.85 465.35 106.92 465.35 108.27ZM464.6 147.48H457.58V117.15H464.6V147.48Z" fill="#7B0046"/>
    <path d="M473.53 118.14C474.88 117.75 476.64 117.39 478.81 117.04C480.98 116.69 483.37 116.52 486 116.52C488.47 116.52 490.54 116.86 492.21 117.53C493.87 118.21 495.2 119.15 496.18 120.37C497.17 121.59 497.86 123.06 498.27 124.78C498.68 126.5 498.88 128.39 498.88 130.44V147.49H491.86V131.54C491.86 129.92 491.75 128.53 491.54 127.39C491.33 126.25 490.98 125.32 490.5 124.61C490.02 123.9 489.36 123.37 488.53 123.04C487.7 122.71 486.68 122.55 485.49 122.55C484.6 122.55 483.67 122.61 482.71 122.72C481.74 122.84 481.03 122.93 480.56 123.01V147.49H473.54V118.14H473.53Z" fill="#7B0046"/>
    <path d="M518.01 148.059C515.92 148.019 514.19 147.789 512.82 147.359C511.45 146.939 510.36 146.329 509.54 145.529C508.73 144.739 508.16 143.749 507.83 142.569C507.5 141.389 507.34 140.049 507.34 138.539V103.619L514.36 102.459V137.199C514.36 138.049 514.43 138.769 514.56 139.349C514.69 139.929 514.94 140.419 515.28 140.829C515.63 141.239 516.1 141.549 516.7 141.759C517.3 141.969 518.06 142.139 518.99 142.249L518 148.049L518.01 148.059Z" fill="#7B0046"/>
    <path d="M534.77 116.389C537.09 116.389 539.04 116.679 540.63 117.259C542.21 117.839 543.48 118.649 544.43 119.699C545.38 120.739 546.05 122.009 546.46 123.499C546.87 124.989 547.07 126.619 547.07 128.399V146.789C545.99 147.019 544.35 147.299 542.17 147.629C539.98 147.959 537.52 148.119 534.77 148.119C532.95 148.119 531.29 147.949 529.78 147.599C528.27 147.249 526.99 146.689 525.92 145.919C524.86 145.149 524.03 144.139 523.43 142.899C522.83 141.659 522.53 140.139 522.53 138.319C522.53 136.499 522.87 135.109 523.54 133.909C524.22 132.709 525.13 131.739 526.29 130.979C527.45 130.219 528.79 129.689 530.32 129.359C531.85 129.029 533.44 128.869 535.11 128.869C535.88 128.869 536.69 128.919 537.55 129.019C538.4 129.119 539.31 129.279 540.28 129.509V128.349C540.28 127.539 540.18 126.769 539.99 126.029C539.8 125.299 539.46 124.649 538.97 124.089C538.49 123.529 537.85 123.089 537.06 122.789C536.27 122.479 535.27 122.329 534.07 122.329C532.45 122.329 530.96 122.449 529.6 122.679C528.25 122.909 527.14 123.179 526.29 123.489L525.42 117.809C526.31 117.499 527.6 117.189 529.31 116.879C531.01 116.569 532.83 116.419 534.76 116.419L534.77 116.389ZM535.35 142.549C537.52 142.549 539.16 142.429 540.28 142.199V134.429C539.89 134.309 539.33 134.199 538.6 134.079C537.87 133.959 537.05 133.909 536.16 133.909C535.39 133.909 534.6 133.969 533.81 134.079C533.02 134.199 532.3 134.409 531.66 134.719C531.02 135.029 530.51 135.469 530.12 136.019C529.73 136.579 529.54 137.289 529.54 138.139C529.54 139.799 530.06 140.949 531.11 141.589C532.15 142.229 533.57 142.549 535.34 142.549H535.35Z" fill="#7B0046"/>
    <path d="M555.65 118.14C557 117.75 558.76 117.39 560.93 117.04C563.1 116.69 565.49 116.52 568.12 116.52C570.59 116.52 572.66 116.86 574.33 117.53C575.99 118.21 577.32 119.15 578.3 120.37C579.29 121.59 579.98 123.06 580.39 124.78C580.8 126.5 581 128.39 581 130.44V147.49H573.98V131.54C573.98 129.92 573.87 128.53 573.66 127.39C573.45 126.25 573.1 125.32 572.62 124.61C572.14 123.9 571.48 123.37 570.65 123.04C569.82 122.71 568.8 122.55 567.61 122.55C566.72 122.55 565.79 122.61 564.83 122.72C563.86 122.84 563.15 122.93 562.68 123.01V147.49H555.66V118.14H555.65Z" fill="#7B0046"/>
    <path d="M615.22 146.559C613.83 146.989 612.08 147.369 609.97 147.719C607.86 148.069 605.65 148.239 603.33 148.239C601.01 148.239 598.79 147.869 596.89 147.139C594.99 146.409 593.38 145.349 592.05 143.979C590.72 142.609 589.69 140.939 588.98 138.989C588.26 137.039 587.91 134.839 587.91 132.409C587.91 129.979 588.21 127.839 588.81 125.879C589.41 123.929 590.29 122.259 591.45 120.859C592.61 119.459 594.02 118.399 595.68 117.639C597.34 116.889 599.26 116.509 601.42 116.509C602.89 116.509 604.18 116.679 605.31 117.029C606.43 117.379 607.4 117.769 608.21 118.189V103.629L615.23 102.469V146.549L615.22 146.559ZM595.09 132.229C595.09 135.319 595.82 137.749 597.29 139.509C598.76 141.269 600.79 142.149 603.38 142.149C604.5 142.149 605.46 142.099 606.25 141.999C607.04 141.899 607.69 141.799 608.19 141.679V124.279C607.57 123.859 606.75 123.459 605.73 123.089C604.7 122.719 603.61 122.539 602.45 122.539C599.9 122.539 598.03 123.409 596.85 125.149C595.67 126.889 595.08 129.249 595.08 132.229H595.09Z" fill="#7B0046"/>
  </g>
  <defs>
    <clipPath id="clip0_4321_10233">
      <rect width="742.35" height="158.329" fill="white"/>
    </clipPath>
  </defs>
</svg>