<?xml version="1.0" encoding="UTF-8"?>
<svg xmlns="http://www.w3.org/2000/svg" width="619" height="161" viewBox="0 0 619 161" fill="none">
  <g clip-path="url(#clip0_4321_9911)">
    <mask id="mask0_4321_9911" style="mask-type:luminance" maskUnits="userSpaceOnUse" x="0" y="0" width="127" height="156">
      <path d="M126.66 0H0V155.53H126.66V0Z" fill="white"/>
    </mask>
    <g mask="url(#mask0_4321_9911)">
      <path fill-rule="evenodd" clip-rule="evenodd" d="M0 74.7398V77.0598L0.620003 76.9898L4.63 74.7398C4.77 76.3998 6.67 78.0498 8.27 78.0498C9.68 78.0498 11.34 77.0598 13.56 77.0598C12.8 77.7198 10.58 78.7698 10.58 80.0398V81.0298C10.58 82.7898 9.26 83.2398 9.26 84.9998V85.9898C9.26 86.7298 9.52001 86.7198 9.92001 87.3098C10.94 86.6298 11.95 84.3298 12.57 84.3298C13.56 84.3298 14.22 85.6498 15.21 85.6498H15.87C16.58 85.6498 18.13 84.1798 19.3 83.7898C20.52 83.3798 22.36 82.9298 23.47 82.6698V84.3198C23.47 85.3198 24.04 85.4398 24.79 85.6398C24.17 86.7998 23.1 87.4898 21.48 87.6198C21.75 88.6398 22.12 88.9398 23.46 88.9398H24.78C26.72 88.9398 26.47 87.6198 28.42 87.6198H29.08C32.92 87.6198 31.84 81.0098 35.36 81.0098C36.09 81.0098 37.47 84.7098 40.71 84.9698L40.32 81.6698C40.27 81.2898 40.5 81.0098 40.65 80.3498C42.33 81.5798 42.38 84.3298 46.27 84.6498C46.23 82.7898 45.61 82.8098 45.61 81.0098V80.3498C45.61 79.0898 45.51 80.2298 45.94 79.3598C47.83 80.7498 47.32 83.2198 52.22 83.3298C51.91 81.9898 51.23 80.8598 51.23 79.0298C51.23 78.1398 51.7 77.7598 52.22 77.3798C52.61 79.0698 54.5 81.0198 56.52 81.0198H57.51C57.26 79.9498 56.85 78.9698 56.85 77.7098C56.85 77.4198 57.22 77.0498 57.51 77.0498C57.64 77.0498 61.11 79.6798 61.81 80.0298C63.7 80.9798 64.9 81.5798 67.07 82.3798C68.77 83.0098 70.89 83.5498 72.8 83.9298C75.18 84.3998 76.67 85.4798 78.69 85.6498V86.3098C72.45 86.3098 67.56 92.2598 62.15 92.2598C60.32 92.2598 59.17 90.7698 59.17 88.9498C59.17 88.1898 59.28 88.5698 59.5 87.6298C57.74 87.7798 55.86 89.4198 55.86 91.2698V92.2598C55.86 93.5198 55.76 92.3798 56.19 93.2498C55.38 93.7898 52.15 100.22 52 101.41L56.52 99.1998C56.04 101.26 55.53 102.44 55.53 105.15V107.8C55.53 111.23 46.26 114.08 42.63 114.41L38 114.75C36.39 114.9 35.69 112.7 35.69 111.11V109.46C35.69 107.95 30.52 105.82 29.07 105.82C28.04 105.82 25.76 106.37 25.76 107.14C25.76 107.6 26.21 107.8 26.75 107.8H27.08C28.15 107.8 27.33 108.09 28.93 108.59L27.41 111.11C26.64 110.59 25.68 109.79 24.43 109.79H23.11C21.12 109.79 21.34 111.11 20.13 111.11C16.98 111.11 14.75 112.56 14.51 115.41C16.37 115.37 16.35 114.75 18.15 114.75H18.81C20.21 114.75 19.47 115.26 19.47 116.07V116.73C19.47 118.43 22.51 119.38 24.58 119.44L23.4 122.37L23.86 123.72L23.11 125.33C22.41 124.96 18.81 122.6 18.81 122.02C18.81 121.14 20.28 121.38 20.46 119.7H17.81C15.81 119.7 14.96 118.71 12.52 118.71H11.53C9.75 118.71 8.55 120.35 8.55 122.02V123.34C8.55 124.47 6.56001 125.05 6.56001 127.31V129.63C6.56001 130.87 8.04 132.15 9.54 132.28C9.54 130.32 10.59 127.65 12.19 127.65H13.84C16.39 127.65 18.61 131.38 20.52 132.87C21.16 133.36 27.07 138.46 27.07 138.56C27.07 141.12 23.1 143.33 23.1 147.16C23.1 148.58 25.2 150.47 26.74 150.47H27.4C28.97 150.47 30.38 147.85 30.38 146.17C30.38 145.31 28.46 144.27 27.18 144.06L28.73 141.21C30 141.31 35 145.18 36.4 146.11C39.16 147.93 41.7 149.09 44.83 150.58C49.99 153.05 58.31 155.43 65.77 155.43L69.41 155.53L79.33 155.1C81.98 154.98 86.21 153.45 87.93 153.45H88.26C89.57 153.45 89.92 152.79 91.24 152.79C92.68 152.79 92.44 152.13 93.89 152.13C96.1 152.13 99.68 150.32 101.83 150.15C101.87 151.9 102.99 153.79 104.48 153.79L105.36 153.82L104.81 150.82C107.79 150.82 109.44 149.13 109.44 146.19V143.2C109.44 142.06 109.68 141.92 109.77 140.88C111.49 141.34 110.43 143.2 112.75 143.2C113.64 143.2 113.66 143.04 114.4 142.87V144.52C114.4 145.41 114.24 145.43 114.07 146.17C116.04 146.12 117.71 144.79 117.71 142.86V141.87C117.71 140.86 117.56 140.66 117.38 139.89C117.72 139.24 118.04 138.91 118.04 137.91V137.58C118.04 135.74 116.95 134.92 115.73 134.27V133.61C115.73 132.6 116.05 132.28 116.39 131.63H117.05H119.37C120.74 131.63 121.79 130.81 122.35 129.98C121.61 129.81 121.59 129.65 120.7 129.65C118.99 129.65 118.64 128.77 118.05 127.67C118.79 127.84 118.81 128 119.7 128H120.03C121.6 128 123 126.96 123.34 125.68H122.02C120.53 125.68 119.69 124.89 119.38 123.7H120.7C122.59 123.7 123.67 121.98 124.34 120.72H122.69C121.15 120.72 120.04 120.29 119.38 119.4C121.48 119.35 123.23 118.11 123.68 116.42H122.03C120.87 116.42 118.72 115.17 118.72 114.1V113.11C118.72 111.55 116.82 109.27 116.4 107.49H110.45C107 107.49 104.45 102.99 104.26 99.5498L103.84 94.2598C103.61 91.4498 102.69 90.3498 102.52 88.3098H103.84C110.53 88.3098 114.33 82.3598 117.07 82.3598H118.39C119.45 82.3598 120.14 83.4598 120.38 84.3398C121.11 83.7998 121.7 82.9498 121.7 81.6898V81.0298C121.7 79.4698 121.06 79.7098 120.71 78.3798C122.85 79.5098 121.7 80.7598 123.36 81.3598V78.3798C123.36 75.6798 122.11 75.5298 121.05 74.0798C123.33 74.2698 122.96 76.2598 124.69 76.7198V75.7298C124.69 74.2098 122.99 71.4098 122.05 70.7598C118.79 68.5098 119.64 70.9098 117.74 67.1298C115.48 62.6198 113.39 61.5798 111.13 58.1998C118.32 54.7498 126.67 49.8798 126.67 39.3498C126.67 35.5998 123.64 30.8698 121.63 28.8498C119.04 26.2498 115.51 24.4698 110.47 24.4698H110.14C102.13 24.4698 93.93 31.9398 93.93 40.0098V42.9898C93.93 47.8298 98.8 55.7298 101.87 56.5498V57.2098C99.02 57.2698 96.04 59.5898 94.26 60.8498C92.05 62.4098 91.62 65.7298 91.62 69.4498C91.62 70.4998 90.71 71.9698 90.3 72.7598C92.83 72.7598 94.73 71.4298 95.26 69.4498C96.17 70.1198 97.58 74.4698 97.58 76.0598C97.58 76.6198 97.14 77.2998 96.92 77.7098C100.43 77.7098 102.21 73.9998 102.21 70.7598V69.7698C103.35 70.5298 104.2 72.1798 104.2 74.0698V74.3998C104.2 75.5998 103.81 75.5598 103.54 76.7198C105.98 76.5198 107.51 74.3298 107.51 71.7598L107.69 71.0698L106.52 63.8298V62.8398C106.52 62.2998 106.72 61.8498 107.18 61.8498C108.13 61.8498 113.79 69.1698 113.79 71.4398V74.4198C113.79 77.1198 112.66 79.0598 111.02 80.2498C110.06 80.9498 106.19 82.6898 104.86 82.6898H103.54C100.24 82.6898 97.18 80.3298 95.15 78.8498C92.88 77.1998 89.61 76.2098 86.9 74.8698C80.77 71.8298 77.89 68.0698 74.79 62.2698L77.09 61.8598C76.65 60.2098 75.44 60.4598 75.44 59.2098V51.2698C76.18 51.4398 76.2 51.5998 77.09 51.5998H79.07C80.81 51.5998 84.36 49.1398 84.36 47.6298V46.6398C83.62 46.8098 83.6 46.9698 82.71 46.9698H82.05C78.06 46.9698 78.01 41.9698 76.76 39.3598C78.47 39.8198 78.91 41.6998 79.08 43.6598C80.81 43.1998 81.07 40.5398 81.07 38.3698V38.0398C81.07 33.1298 78.88 33.0898 77.1 30.4298C79.98 30.4898 79.57 32.3098 81.07 33.4098C81.18 32.0498 81.4 32.6698 81.4 31.4298C81.4 28.9498 79.42 26.1598 79.42 26.1398C79.42 23.9798 87.2 19.7698 89.67 19.1898C89.54 17.6198 88.48 16.5398 87.03 16.5398C85.5 16.5398 86.03 17.1598 84.05 17.1998V16.5398C86.25 16.5398 87.95 15.8498 90.01 15.5898L97.28 14.5598C98.71 14.3498 100.99 12.0098 102.57 11.5798L102.51 10.4098L97.28 8.26978C96.58 8.42978 94.35 8.92976 93.64 8.92976L92.31 8.86977L87.03 9.58977L85.05 9.59976L78.1 10.2498C78.07 8.83977 77.4 7.26978 76.12 7.26978H75.46C73.96 7.26978 73.73 7.97977 72.81 8.58977C72.8 8.58977 72.19 8.25977 72.15 8.25977C71 8.25977 69.51 9.74977 69.51 10.9098C69.51 12.0598 70.09 11.3698 70.5 12.8898C68.6 12.8498 68.23 12.1498 68.18 10.2498C68.93 10.0498 69.5 9.92976 69.5 8.92976V8.26978C69.5 7.50978 69.27 7.27977 68.51 7.27977C67.71 7.27977 67.54 7.81978 66.86 8.26978C66.84 9.32978 66.97 9.91977 65.87 9.91977H65.21C64.2 9.91977 64.09 9.34976 63.89 8.59976H65.21C66.28 8.59976 67.2 7.15977 67.2 5.94977V4.95976C67.2 3.81976 66.16 3.52977 65.21 3.30977V1.98976C65.21 0.789761 63.94 0.499766 63.23 0.00976562H61.58C61.58 7.78977 60.52 7.37977 57.94 12.2498H57.28C55.86 12.2498 54.78 12.7298 52.98 12.9098L41.08 13.9598L37.44 14.2798L37.03 11.2698L37.1 6.95976C37.1 5.58976 34.99 4.01977 33.46 3.97977L31.42 7.57977C32.32 9.36977 33.46 13.2898 33.46 15.8898C32.94 15.5098 32.8 15.8298 32.8 14.8998V14.5698V13.9098C32.32 13.5898 32.07 13.1498 31.48 13.2498L28.84 13.5898C27.21 13.8398 26.16 13.9098 24.8 14.1698C23.04 14.5098 22.42 15.2298 21.23 15.2298H20.57C19.77 15.2298 18.59 16.4198 18.59 17.2198C18.59 17.9198 18.71 17.6498 18.92 18.5398H16.94C15.89 18.5398 14.63 20.2198 14.63 21.5198V23.4998C14.63 25.1198 16.75 26.1498 18.6 26.1498C19.56 26.1498 20.31 25.6998 21.25 25.4898C21.37 26.9698 22.57 28.6198 22.57 29.4598C22.57 30.1098 21.58 29.9398 21.58 31.1098C21.58 32.5998 22.37 33.4398 23.56 33.7498V37.0598L23.3 41.3598L22.85 44.9898L21.91 44.9998L21.53 52.5998C21.52 53.4798 26.31 57.5598 27.2 57.5598H27.86L28.25 56.5898C29.33 56.8298 39.1 65.1998 39.1 65.8298C39.1 67.2898 31.36 71.1198 28.19 71.1198H26.54C24.52 71.1198 22.15 69.1898 21.16 67.8998C19.73 66.0598 19.83 63.5098 17.28 63.5098C16.27 63.5098 15.94 63.8298 15.29 64.1698C14.24 63.4598 13.44 62.8498 11.65 62.8498C9.78 62.8498 8.41 63.9898 8.01 65.4998H9.66C10.86 65.4998 11.51 65.7798 12.31 66.1598L11.5 68.4298C9.82 68.3198 9.94 67.4798 8.34 67.4798C7.12 67.4798 6.34001 68.0998 5.81001 68.9198C4.48001 70.9798 5.81 69.6398 3.77 70.8398C1.61 72.0598 1.81 73.5298 0 74.7398ZM63.13 1.38977L64.16 1.31976L63.81 4.62976H66.15V5.61977C66.15 6.82977 65.67 7.59976 64.5 7.59976C63.81 7.59976 64.63 7.08977 62.85 6.93977C62.85 8.95977 63.23 11.2398 65.17 11.2398C66.42 11.2398 65.8 11.0198 67.16 10.9098C67.3 12.5998 68.35 13.8898 70.14 13.8898H72.12V12.8998V12.2398L70.81 11.5598L70.8 10.9198V9.92976C71.54 9.75976 71.56 9.59976 72.45 9.59976C72.63 9.59976 73.18 10.0798 73.44 10.2598L74.57 8.34976C76.45 8.26976 76.4 8.29977 77.08 9.58977L76.68 11.2298C76.26 11.3798 75.75 11.3098 75.75 11.9098C75.75 12.4198 77.07 13.0498 77.07 13.5598C77.07 13.9398 76.63 14.3098 76.08 14.2198L73.45 13.8098L73.44 15.8798C73.44 16.9498 74.88 17.8598 76.09 17.8598H77.41C77.41 19.4498 77.98 21.1698 79.39 21.1698C80.27 21.1698 82.04 20.9098 82.04 20.1798C82.04 19.5498 81.38 19.9598 81.38 18.8598C81.38 18.0898 81.93 17.5398 82.7 17.5398C83.87 17.5398 84.03 18.8598 84.69 18.8598C85.34 18.8598 85.17 17.8698 86.34 17.8698H87.33C88.25 17.8698 88.13 18.1298 88.32 18.8598C85.02 19.1298 82.88 21.3798 80.71 22.8298L61.22 9.93977L63.13 1.38977ZM38.55 31.9698C37.81 31.8398 36.71 31.1498 36.71 30.0898V27.4398C36.71 23.1998 34.39 20.4898 34.39 18.8398V14.2098C34.39 12.4298 32.74 8.36976 32.74 7.59976C32.74 7.53976 33.51 6.56977 33.73 5.61977C34.88 5.71977 35.62 6.17978 35.72 7.26978L36.08 12.2298C36.31 15.1098 38.04 18.8698 38.04 19.8398V23.4798C38.04 25.7698 38.91 28.9498 39.69 30.4298L38.55 31.9698ZM67.8 8.26978L68.8 8.57977L67.8 9.25977V8.26978ZM94.58 9.90977L97.56 9.91977C98.82 9.91977 100.32 10.8298 100.87 11.5698C99.57 11.9198 98.08 13.5498 97.23 13.5498H96.9C95.28 13.5498 93.36 14.5398 91.61 14.5398C90.01 14.5398 88.77 14.9598 86.98 15.1998L81.37 15.9198C80.71 15.9398 80.81 15.9398 80.37 16.1898L79.36 14.5498L91.28 13.1798C93.03 12.9998 94.15 12.5798 95.58 12.5498V11.8898L82.69 13.2798L78.06 13.6398L77.75 11.7998L94.58 9.90977ZM74.74 24.1398V23.1498C74.74 21.4898 73.1 19.8398 71.43 19.8398H70.44C68.68 19.8398 59.53 13.4198 59.53 12.8898C59.53 12.1098 60.18 11.4198 60.52 10.9098L79.28 23.6198C79.16 25.9998 77.97 24.1398 75.74 24.1398H74.74ZM56.52 13.6598C56.1 15.8398 55.33 16.8698 52.91 16.8698C51.79 16.8698 51.59 17.0498 50.59 17.1998L44.98 17.9698L40.67 18.2898L40 18.1998H39.34L38.14 15.6498L42.98 15.1798L43.98 15.2798L56.52 13.6598ZM26.13 16.5298C26.21 15.5398 26.37 14.8798 27.45 14.8798C28.39 14.8798 28.05 14.9798 28.44 15.5398H26.79L26.13 16.5298ZM31.09 14.5498C31.85 14.5498 32.06 15.9598 32.08 16.8698L30.1 16.2098C30.1 15.1398 30.01 14.5498 31.09 14.5498ZM77.38 15.1898C77.33 15.9898 77.09 16.8598 76.4 16.8598C75.44 16.8598 74.69 16.3098 74.41 15.5398C75.28 15.9698 74.14 15.8698 75.4 15.8698L76.07 15.8898L77.38 15.1898ZM79.21 15.3798L79.37 16.5398L78.21 16.3698L79.21 15.3798ZM22.89 20.4898C23.03 21.8898 23.62 23.1498 22.15 23.1498C21.88 23.1498 19.16 16.5298 21.16 16.5298C21.37 16.5298 22.11 17.2798 22.48 17.5198L22.89 20.4898ZM30.1 21.1598V19.8398V19.1798C28.32 18.2398 27.83 19.0598 27.78 16.8598C31.35 17.6898 33.73 18.7298 33.73 23.1398V23.7998C33.73 25.2698 32.06 27.2098 31.41 28.4298H30.75L27.12 28.8498L24.79 28.7598C23.28 28.7598 22.51 26.0498 22.47 24.4598C23.21 24.2898 23.23 24.1298 24.12 24.1298H25.77C25.77 25.7498 24.81 27.1098 26.43 27.1098C27.07 27.1098 27.43 24.7498 27.85 23.8998C28.54 22.5198 28.84 22.4698 30.07 21.8198V21.1598H30.1ZM54.23 17.8198C53.8 18.7298 53.91 17.5898 53.91 18.8498V19.1798C53.91 20.7898 46.07 22.0198 44.32 22.1598L39.37 22.5898L39.36 19.5198C41.14 19.5198 42.32 18.8598 43.66 18.8598H44.65L51.27 18.2698L54.23 17.8198ZM26.13 21.8298C26.13 22.5898 25.9 22.8198 25.14 22.8198C24.52 22.8198 23.9 20.5998 23.81 19.8498L23.4 15.8898L25.15 15.8798C25.15 18.6298 26.14 19.4398 26.14 21.4998V21.8298H26.13ZM78.38 18.5198C78.38 17.7598 79.79 17.4698 80.36 17.1998V19.8398C79.33 19.7598 78.38 19.6098 78.38 18.5198ZM28.78 20.1598L28.77 21.4898H27.43L27.04 19.5198L28.78 20.1598ZM50.93 25.7898C50.93 24.7598 54.61 21.7098 55.24 20.5098C55.81 19.4398 57.36 14.5398 58.86 14.5398C58.9 14.5398 68.45 20.7098 68.45 21.1498C68.45 21.9398 67.51 21.1598 67.46 23.4698C70.08 22.8598 69.15 21.1498 70.77 21.1498H71.76C72.53 21.1498 73.41 22.0298 73.41 22.7998C73.41 23.7698 72.42 24.4698 72.42 25.4498C72.42 26.7598 74.77 25.4498 76.06 25.4498H76.72C78.22 25.4498 80 29.1898 80.36 30.7398C79.31 30.0298 78.51 29.4198 76.72 29.4198H72.42C73 31.5998 79.7 30.4398 79.7 37.6898V39.6698C77.12 37.9398 76.45 36.3598 71.76 36.3598H70.77V37.0198C73.39 37.2398 74.1 37.9098 75.73 38.9998V39.6598C75.73 43.5598 78.79 47.9398 82.68 48.2598C81.79 49.5898 80.59 50.5798 78.38 50.5798H77.72C75.25 50.5798 74.93 48.6598 73.67 47.3498C73.3 46.9698 69.78 43.7898 69.78 45.6198C69.78 46.7998 74.41 47.2398 74.41 53.5598V59.1998C74.41 60.0898 74.57 60.1098 74.74 60.8498C70.62 60.8498 67.46 58.1798 67.46 54.2398C67.46 52.6998 67.13 53.7998 67.13 52.2598C67.13 51.0598 66.74 51.0998 66.47 49.9398C64.62 50.4298 65.81 50.2898 65.81 51.9198V60.1898C65.81 61.5098 66.49 61.8298 66.8 63.1698C63.56 62.8998 60.19 60.1298 60.19 56.5598V52.5898C58.82 52.7398 58.2 54.8798 58.2 56.2298V58.8798C58.2 61.2398 59.45 62.3098 59.85 63.8398C55.95 63.7498 52.57 60.8498 52.57 56.8898V56.2298L52.95 51.9398C51.34 52.0598 51.24 52.9998 51.24 54.5798V57.2198C51.24 58.6798 51.73 59.5798 52.23 60.5298C51.11 61.1298 50 61.5198 48.26 61.5198H43.3C42.16 61.5198 42.02 61.7598 40.99 61.8498V60.8598C40.99 59.1598 42.84 56.0698 44.18 55.4498C46.45 54.3998 49.02 54.8098 49.26 51.9298C48.05 52.2498 47.43 53.2498 46.61 53.2498C46.21 53.2498 45.62 52.5698 45.62 51.9298V50.9398C45.62 49.7998 45.86 49.6598 45.95 48.6198C47.93 48.6598 47.39 49.2798 48.93 49.2798C50.85 49.2798 51.12 45.4798 51.91 43.9898H53.23L55.11 42.4998C55.27 45.1398 56.39 47.2998 58.86 47.2998H59.85C62.98 47.2998 65.8 42.1598 65.8 39.0298V38.6998C65.8 35.8198 63.88 31.4198 61.17 31.4198H60.84C57.49 31.4198 57.12 33.5798 55.55 34.7298C54.25 32.0298 52.24 32.0798 52.24 31.0898V29.4398C52.24 27.8098 53.35 29.0598 53.56 27.1198C52.17 27.1498 50.91 28.0898 50.91 26.4598V25.7898H50.93ZM45.97 23.1498C47.74 23.1498 48.25 22.4898 50.27 22.4898H51.26C50.71 23.5198 49.27 24.8098 49.27 25.4698V26.1298C49.27 28.2698 50.92 28.1198 50.92 29.4398V32.0898V32.7498L53.5 33.8998L55.49 37.0898L45.96 37.0498C45.18 37.0498 44.64 36.4998 44.64 35.7298C44.64 33.5898 46.29 33.7398 46.29 32.4198C46.29 31.9598 45.84 31.7598 45.3 31.7598C42.93 31.7598 39.68 33.0898 39.68 35.0698V37.0498C39.68 39.6198 42.83 41.3498 45.63 41.3498H45.96L53.22 40.2998L55.21 40.3598C53.91 41.4898 49.92 43.2298 49.92 44.9898V45.6498C49.92 46.8598 49.44 47.6398 48.27 47.6398C47.17 47.6398 46.01 46.4598 45.29 45.9898C45.01 47.1898 44.86 46.8598 44.63 48.2998L44.22 50.9298L39.35 48.6198L40.26 47.8498C40.15 45.7498 37.03 45.8298 37.03 43.0098V42.3498C37.03 41.2498 36.44 41.3798 35.38 41.3598L32.57 33.1498L33.72 33.0898C33.99 31.9398 34.38 31.9798 34.38 30.7698C34.38 29.1598 33.39 28.8798 33.39 28.4498C33.39 27.3098 34.4 26.0598 35.38 25.7998V27.7798L35.06 30.7598L35.05 31.4198C35.68 31.7498 38.66 34.0698 38.69 34.0698C39.1 34.0698 41.02 31.2298 41.34 30.7598C40.47 29.1098 39.41 26.5798 39.36 24.1498C42.32 24.1498 44.07 23.1598 45.64 23.1598H45.97V23.1498ZM15.87 22.1598C15.87 20.7398 16.89 19.5198 18.19 19.5198C19.08 19.5198 20.17 22.7598 20.17 23.8198C20.17 24.4398 18.95 24.8098 18.19 24.8098C16.61 24.7998 15.87 23.6798 15.87 22.1598ZM109.47 26.1298C113.26 26.1298 112.03 25.4098 115.71 26.8298C117.39 27.4798 119.1 28.4798 120.59 29.5598C122.91 31.2298 125.01 36.0598 125.01 40.0198V41.6698C125.01 54.7298 105.5 56.6198 105.5 63.1698V63.4998L106.55 70.7698L106.49 72.4298C106.49 73.7798 105.97 74.2098 105.17 74.7498V73.4298C105.17 70.3498 102.52 68.7198 102.52 67.4798V66.8198C102.52 65.2898 103.14 65.8298 103.18 63.8398C101.07 64.3998 100.86 67.8198 100.86 70.4498V72.0998C100.86 74.2898 100.01 75.6298 98.54 76.3998V74.0798C98.54 72.3598 96.55 70.5098 96.55 67.7998V67.4698C96.55 65.1898 97.48 64.9898 97.87 63.4998C94.01 64.5298 95.3 70.3798 92.58 71.1098L93.37 65.5098C94.31 58.0798 104.61 58.2598 110.44 55.5798C115.38 53.3098 123 48.3398 123 41.3498V39.6998C123 37.1998 119.18 31.0998 117.38 31.0998C117.15 31.0998 115.72 33.4198 114.73 34.0798V32.4298C114.73 31.1098 114.17 30.0798 113.08 29.7798C112.42 32.5998 111.83 33.3598 109.77 34.7398C109.94 33.9998 110.1 33.9798 110.1 33.0898V31.1098C110.1 30.5698 109.9 30.1198 109.44 30.1198C108.6 30.1198 108.47 33.4598 106.13 34.0898C106.13 32.6198 105.85 31.1098 104.48 31.1098H103.49C100.6 31.1098 97.54 36.8098 97.54 39.7098V42.0298C97.54 46.7998 102.65 54.4198 105.81 55.2598V55.9198C104.66 56.1898 104.7 56.5798 103.5 56.5798C102.39 56.5798 98.89 52.3398 98.14 51.3498C96.64 49.3698 95.23 47.0098 95.23 43.6798V41.3598L95.53 38.0498C96.25 32.2498 102.51 26.1498 108.79 26.1498H109.47V26.1298ZM32.07 29.7098C32.83 29.6898 33.07 30.0598 33.07 30.7598C33.07 31.5898 32.84 31.6598 32.08 31.7498L28.45 32.1698L23.49 32.4998C23.26 31.4798 23.15 31.8498 23.15 31.0898C23.15 30.6298 23.6 30.4298 24.14 30.4298C25.41 30.4298 24.88 30.0998 26.46 30.0998L27.13 30.1798L32.07 29.7098ZM41.01 37.3698C41.01 34.7898 42.2 33.5598 44.32 33.0698C43.84 33.7898 43.33 34.1698 43.33 35.3898V35.7198C43.33 37.4298 44.71 38.3698 46.31 38.3698H54.25C57.91 38.3698 63.11 42.6598 62.19 44.6498C60.5 43.4098 59.01 39.3598 55.58 39.3598H52.27C50.47 39.3598 50.44 40.0198 48.63 40.0198H44.66C43.3 40.0198 41.01 38.5798 41.01 37.3698ZM99.21 38.6898C99.4 37.0598 101.64 32.4098 103.18 32.4098H104.83V33.7298C104.83 34.4998 104.15 34.7098 103.84 36.0498C106.82 36.0498 107.1 34.8698 108.8 33.7298L107.72 36.3398C110.91 36.3098 111.65 34.5898 113.43 33.3998L112.26 35.9598L113.43 36.0398C116.06 36.0398 117.24 33.0598 117.73 33.0598C118.8 33.0598 121.7 38.4598 121.7 40.6698C121.7 47.6698 113.34 53.8498 107.48 55.2198C104.35 53.5698 98.88 47.6598 98.88 42.9798V41.9898L99.21 38.6898ZM56.55 37.0398C56.86 35.7098 57.73 33.0698 59.2 33.0698H60.85C63.3 33.0698 64.16 35.8898 64.16 38.3598V39.3498C64.16 41.0198 63.63 41.1098 63.5 42.6598C61.08 41.0398 59.69 37.8798 56.55 37.0398ZM31.08 33.3298C31.44 34.8998 34.39 41.4898 34.39 42.3298C34.39 43.9198 31.43 46.9598 29.43 46.9598C27.92 46.9598 25.99 45.7598 24.47 45.6398L24.78 39.3498L25.13 33.7998L31.08 33.3298ZM56.55 41.0098C58.26 41.4098 60.69 43.7398 60.85 45.6398C60.11 45.8098 60.09 45.9698 59.2 45.9698C58.09 45.9698 56.55 44.7498 56.55 43.6498V41.0098ZM34.39 45.6398C34.39 44.9898 35.62 43.6398 36.04 43.3198C36.1 45.8098 37.25 45.6398 37.69 47.2898C36.65 47.3698 36.51 47.6198 35.37 47.6198C34.76 47.6198 34.39 46.3998 34.39 45.6398ZM33.35 46.8198L33.4 48.6098C32.29 48.9098 32.05 49.5998 31.09 49.5998C30.46 49.5998 30.23 48.5298 30.11 47.9698L33.35 46.8198ZM23.15 46.9598C24.3 47.2298 26.68 47.9498 27.78 47.9498H28.44L29.53 50.2198L27.2 55.9298L22.88 52.5098C23.26 51.7098 23.15 52.8598 23.15 51.5898V46.9598ZM29.1 54.8998C31.26 50.8298 30.89 50.2298 36.38 48.9498C37.37 49.4698 44.32 52.8598 44.32 53.5798C44.32 53.9398 40.13 56.1798 39.69 59.8598L39.27 63.1598C39.29 63.7198 39.62 64.1598 40.02 64.1598C40.47 64.1598 40.2 63.7998 41.34 63.4998L40.13 64.9298L29.1 54.8998ZM66.8 57.8698C68.52 59.1298 68.97 62.0698 73.41 62.1698C74.51 66.8698 81.24 73.2698 85.2 75.5098C88.07 77.1298 90.89 78.1198 93.58 79.6898C95.17 80.6198 100.22 83.9898 102.18 83.9898H104.17C109.43 83.9898 115.41 79.7398 115.41 75.0598C115.41 69.0798 111.6 63.4898 108.13 61.1698C108.39 60.7798 109.65 59.1898 110.12 59.1898C111.46 59.1898 117.55 68.5998 118.06 70.7698C120.69 70.8298 122.09 71.9798 123.02 73.7498C122.28 73.5798 122.26 73.4198 121.37 73.4198H120.05C119.51 73.4198 119.06 73.6198 119.06 74.0798C119.06 75.0498 122.29 74.8498 122.41 78.2798L117.74 76.7298C117.88 78.4198 119.19 79.0798 120.39 79.7098V80.3698V82.0198C119.07 81.6698 119.31 81.0298 117.74 81.0298H117.41C114.83 81.0298 110.22 86.5298 105.83 86.9598L101.54 87.3998L101.72 87.1098L99.87 85.6498C100.02 87.4198 101.87 87.8698 102.22 90.6098L103.17 99.8698V100.2C103.17 104.81 106.91 109.13 111.77 109.13H114.75C115.87 109.13 117.4 111.86 117.4 113.1C117.4 113.86 117.17 114.09 116.41 114.09H115.42C115.76 115.35 120.35 116.67 121.37 118.06C121.36 118.07 120.75 118.39 120.71 118.39C118.69 118.39 118.18 117.73 116.41 117.73C115.41 117.73 115.49 118.12 115.42 119.05H116.41C118.96 119.05 118.82 121.76 122.03 122.03C121.71 122.31 121.45 122.69 120.71 122.69C118.74 122.69 116.99 121.37 116.08 121.37C115.08 121.37 115.17 121.76 115.09 122.69H116.08L116.65 122.77L120.71 126.99C118.05 126.93 117.22 125.34 115.42 125.34H115.09C114.55 125.34 114.1 125.54 114.1 126C114.1 126.46 114.55 126.66 115.09 126.66H115.42L116.05 126.68L118.72 130.63C116.36 130.58 116.25 129.31 114.42 129.31C113.16 129.31 114.3 129.21 113.38 129.68L114.09 130.63H115.41C115.28 132.25 114.42 132.63 114.42 133.6C114.42 135.4 115.58 135.96 116.74 136.58V137.24V138.89H115.09C114.17 138.89 114.3 139.14 114.1 139.88C115.92 139.88 116.75 140.04 116.75 141.86V143.51C116.75 144.4 116.27 144.49 115.76 144.83V143.84C115.76 141.76 115.19 140.61 113.38 140.22L113.78 141.86H112.13C111.9 140.86 111.94 139.88 110.81 139.88H110.48C109.13 139.88 108.5 142.08 108.5 143.52V146.83C108.5 148.04 107.59 149.48 106.52 149.48H105.53V148.16C104.1 148.32 103.88 149.57 103.88 151.14V151.8C103.88 153.06 103.78 151.92 104.21 152.79C103.37 152.49 102.89 151.5 102.89 150.47C102.89 149.3 103.04 147.49 104.21 147.49H105.2V146.5C103.31 146.5 102.37 146.72 102.22 148.49C101.29 148.41 100.9 148.5 100.9 147.5V146.51C100.9 143.13 105.53 143.71 105.53 139.24C103.25 139.49 104.3 142.55 101.56 142.55H99.91C98.05 142.55 95.93 144.53 94.29 144.53H93.96C92.62 144.53 92.25 144.22 91.97 143.21C93.32 143.1 93.32 143.04 93.62 141.89C89.22 141.89 89.55 143.2 87.01 143.88C87.41 142.37 90.79 140.24 92.3 140.24C92.9 140.24 92.83 140.74 92.96 141.23L93.78 141.17L92.96 139.25H91.64V137.93C92.23 137.79 92.64 137.55 92.98 137.49L98.59 138.26H99.58C101.16 138.26 102.54 137.9 102.89 136.61C101.85 136.69 101.71 136.94 100.57 136.94L100.23 137.03L95.28 136.61C94.19 136.51 94.31 136.09 94.29 134.96H95.28C95.08 134.22 95.2 133.97 94.29 133.97H90.98C91.36 133.41 91.7 132.65 92.63 132.65C97.27 132.65 94.9 134.09 96.93 134.63V133.31C96.93 132.16 96.34 132.84 95.94 131.32C98.86 131.39 98.42 134.3 101.23 134.3H103.55C106.19 134.3 108.18 130.27 108.18 127.35V123.38C108.18 119.83 106.17 117.15 103.67 115.99C102.32 115.36 100.75 114.93 99.13 114.58C96.81 114.08 95.86 113.5 94.25 113.12L94.63 111.15C92.98 111.19 92.32 111.79 92.32 113.46C92.32 115.06 91.7 116.11 91.66 117.76L91.26 117.62L88.97 113.78L89.68 110.15C88.55 110.45 88.14 110.8 88.03 112.13C85.94 112.13 85.57 111.75 84.72 110.48H86.04C87.38 110.48 88.36 109.76 88.36 108.5C88.36 105.98 85.38 100.23 85.38 97.2598V96.9298C85.38 95.5398 84.72 95.3498 84.72 93.6198C84.72 86.6698 79.01 84.1698 73.48 82.6998C70.28 81.8498 67.99 81.1898 65.16 80.0998C63.89 79.6198 58.26 76.7198 58.26 75.7598C58.26 75.0398 59.25 73.5798 59.25 71.7898C59.25 70.8998 59.09 70.8798 58.92 70.1398C58.18 70.3398 57.93 70.2198 57.93 71.1298C57.93 73.6898 55.94 75.4398 55.94 77.4098V79.3898C53.41 79.1798 53.02 74.4298 52.96 71.7798H51.64V73.0998C51.64 76.5798 49.99 77.3298 49.99 81.3698C48.46 81.0098 47.34 79.8498 47.34 78.0598V74.4198C47.34 73.4198 46.95 73.4998 46.02 73.4298C46.02 76.7798 44.37 78.7898 44.37 81.3698V82.3598C42.85 81.9498 42.05 79.8998 42.05 78.0598C42.05 76.2298 41.53 75.1398 39.98 74.7598L40.4 78.3898C40.57 79.7798 39.13 80.4598 39.08 82.6898C37.91 82.5898 37.1 81.6298 37.1 80.7098C37.1 79.4298 36.77 79.9698 36.77 78.3898C36.77 77.3298 35.85 76.8298 34.76 76.7498L35.77 80.0498C31.21 81.1098 31.98 82.8798 30.15 86.3298H29.49H28.44C28.4 84.7598 28.32 84.1398 26.64 84.1198L27.78 85.6598C26.93 87.2698 26.61 87.9798 24.14 87.9798C24.74 87.0798 26.12 86.1998 26.12 84.9998C26.12 83.7298 26.22 84.8798 25.75 83.9598L24.8 84.6698C23.89 82.7098 27.04 82.2198 27.12 78.7198C24.42 80.1498 27.29 80.4998 21.7 81.8998C19.38 82.4798 16.21 84.3498 15.55 84.3498H15.22C14 84.3498 14.39 83.8398 14.56 83.0298C12.07 83.0898 12.19 84.2798 10.59 85.3498C10.63 83.4998 11.45 81.3798 13.24 81.3798C14.31 81.3798 13.49 81.6698 14.89 82.0398C14.81 81.0498 14.65 80.3898 13.57 80.3898H11.92C12.29 77.0198 21.06 78.3698 21.84 75.4298C20.8 75.5098 20.66 75.7598 19.52 75.7598H12.58C11.48 75.7598 9.1 76.4898 7.95 76.7498C6.6 76.4398 6.09 76.2798 5.96 74.7698C6.6 74.7198 7.28 74.7898 7.28 74.1098C7.28 73.8098 6.91 73.4498 6.62 73.4498C4.5 73.4498 3.37001 74.0498 1.99001 74.7698C2.41001 72.9598 4.14 71.4598 6.29 71.4598L6.89 71.4998L7.94 72.7898V71.4698C7.94 70.4598 7.36 70.3498 6.61 70.1498C6.99 69.4298 7.15 68.8298 8.26 68.8298C9.61 68.8298 13.34 72.7998 16.53 72.7998H18.52C19.78 72.7998 18.64 72.8998 19.51 72.4698C18.24 70.7398 14 71.6398 12.51 69.4698L13.24 67.4598L14.55 67.8298L14.56 66.4898L10.58 64.5198C11.41 63.3798 15.21 64.1798 15.21 66.4998L15.28 67.6098L16.53 66.8298V65.5098H17.52C19.26 65.5098 20.26 72.7898 27.77 72.7898H28.76C36.46 72.7898 42.89 63.1998 45.63 63.1998L45.97 63.2898L49.27 62.8698C50.69 62.6998 51.16 62.2098 52.58 61.8798C55.51 63.8398 57.38 65.8498 62.5 65.8498C62.44 63.3198 59.83 63.2698 59.52 59.5698C61.38 60.9298 62.27 64.5298 66.8 64.5298H68.78C68.73 61.8798 66.8 61.7498 66.8 57.8698ZM42.33 125.67H41.67L41.28 126.64C40.09 126 38.45 124.02 37.7 124.02H36.38C33.27 124.02 32.35 126.34 28.44 126.34H27.45L27.85 124.7C25.56 125.27 25.43 126.72 24.14 127.66V126.67C24.14 124.95 25.02 124.28 26.12 123.7L28.42 124.11C28.23 123.28 28.12 122.7 27.11 122.7H26.45C25.56 122.7 25.54 122.86 24.8 123.03C25.12 119.21 27.58 120.71 30.75 120.71H32.4C33.74 120.71 34.11 120.4 34.38 119.39H31.4L24.12 118.42C22.06 118.08 20.87 118.16 20.82 115.75H21.81C21.7 114.43 21.18 114.1 19.82 114.1H16.18C16.83 112.87 17.6 112.45 19.49 112.45H20.15C21.16 112.45 21.48 112.77 22.13 113.11V114.43C23.07 114.35 23.45 114.44 23.45 113.44C23.45 112.23 22.94 111.84 22.46 111.13C23.4 110.91 23.03 110.8 23.78 110.8C26.88 110.8 26.7 114.2 28.2 115.31C29.36 116.17 33.02 117.73 34.37 117.08C33.17 115.44 28.75 115.52 28.75 113.11V111.79C28.75 110.9 28.91 110.88 29.08 110.14H30.07C30.39 111.33 30.1 111.02 31.39 111.13C31.12 107.9 29.15 108.29 28.08 106.83C29.96 106.83 32.38 107.89 32.38 109.48C32.38 110.18 32.26 109.92 32.05 110.8C32.98 110.72 33.37 110.81 33.37 109.81V108.82C34.12 109.02 34.69 109.14 34.69 110.15V112.79C34.69 114.15 36.31 116.1 37.34 116.1H39.99C45.29 116.1 57.19 112.42 57.19 107.5V102.87C57.19 99.5498 59.39 97.9098 59.84 96.2598C57.32 96.2598 56.48 97.4998 54.88 98.5798C55.09 97.6898 55.52 96.2698 55.81 95.5398C56.43 93.9798 57.52 94.7498 57.52 93.2798C57.52 92.6498 56.86 93.0498 56.86 91.9598C56.86 90.7298 57.18 90.4698 57.85 89.9798C58.63 91.4598 59.62 93.6198 61.82 93.6198H63.47C67.93 93.6198 73.91 87.3398 81 87.3398L79.83 90.9098C82.88 91.7398 84.01 97.3598 84.31 100.9C82.62 101.04 82.39 102.12 80.03 102.58C78.23 102.93 77.1 103.27 75.11 103.61C72.59 104.04 68.43 105.56 68.43 108.51V109.5C68.43 111.26 70.12 112.57 70.08 112.81L69.74 115.45L69.75 116.11C67.42 117.67 68.64 116.66 66.31 117.63C65.26 118.07 64.79 119.7 64.79 121.07V121.73C64.79 122.37 64.89 122.32 65.12 122.72C63.11 122.25 62.14 120.09 62.14 117.76C62.14 116.84 61.88 116.97 61.15 116.77V118.09C61.15 119.82 59.83 120.24 59.83 123.05C58.97 122.6 57.51 121.6 57.51 120.4V118.42C57.51 117.5 57.25 117.62 56.52 117.43V118.75C56.52 120.77 54.87 121.14 54.87 124.04C54.29 123.65 53.22 122.97 53.22 122.06V119.74C53.22 118.74 52.64 118.62 51.9 118.42L50.86 124.69L49.64 123.65L49.18 120.74C49.18 120.21 49.14 119.74 48.59 119.74C48.13 119.74 47.93 120.19 47.93 120.73V121.72H45.95C45.18 121.72 44.3 122.6 44.3 123.37C44.3 124.48 45.25 124.63 45.29 126.68L44.28 125.04L43.63 125.03H42.31V125.67H42.33ZM81.69 88.9598H82.35L83.01 91.2798C81.98 90.5898 81.72 90.6198 81.69 88.9598ZM83.67 109.8C83.67 111.91 85.5 113.06 87.64 113.11C88.12 114.01 89.62 116.45 89.62 117.41V117.74C89.62 119.03 89.12 117.78 88.96 119.72C91.84 119.72 93.26 118.25 93.26 115.42V114.1C95.78 115.43 98.58 115.83 101.49 116.79C103.05 117.3 103.88 117.33 104.97 118.6C105.49 119.21 106.82 121.68 106.82 122.37V127.66C106.82 129.51 104.68 132.95 102.52 132.95H102.19C99.59 132.95 98.45 129.64 96.9 129.64H96.24C95.33 129.64 94.64 130.72 94.25 131.29H93.59C89.26 131.29 88.15 135.92 89.62 135.92C90.24 135.92 90.12 134.6 92.93 134.6V135.92C90.99 136.37 89.95 137.1 89.95 139.56C87.74 140.08 86.42 141.89 85.34 143.67L69.78 145.51L66.8 145.6L61.84 145.27L58.21 144.85C49.16 143.91 41.42 138.3 35.39 134.27C36.9 132.01 39.94 130.9 40.09 127.25L41.01 128.32C40.28 129.83 39.39 130.47 39.36 131.96C41.95 131.96 43.84 130.38 44.32 128.32C45.81 128.2 46.64 127.24 46.64 125.67C46.64 124.46 46.13 124.07 45.65 123.35C46.05 123.12 46 123.02 46.64 123.02H47.3H47.96C48.99 124.97 50.03 126.92 52.96 126.98L52.26 123.68C53.84 124.74 54.85 125.93 57.55 126C57.37 123.88 56.23 124.8 56.23 123.35V123.02C56.23 121.76 56.13 122.9 56.56 122.03C58.27 123.28 58.53 124.93 62.17 125.01L61.19 121.37C62.26 122.15 63.14 124.02 65.49 124.02H66.15C67.04 124.02 67.06 123.86 67.8 123.69C67.36 122.04 66.15 122.29 66.15 121.04V119.72V119.06C69 117.55 71.77 118.61 71.77 113.11C71.77 111 69.78 110.59 69.78 108.48C69.78 105.12 73.87 105.24 76.86 104.65C79.94 104.04 82.55 102.96 84.66 101.54C84.99 102.95 86.64 107.48 86.64 108.15C86.64 108.91 86.41 109.14 85.65 109.14C84.65 109.14 84.74 108.75 84.66 107.82H83.67V109.8ZM16.54 123.03C18.94 123.08 21.09 125.5 22.82 126.67V127.33C22.82 128.89 23.65 129.85 25.14 129.98L25.23 128.87L30.76 133.61C29.64 133.87 28.44 133.73 28.44 134.93V135.26C28.44 136.15 28.28 136.17 28.11 136.91C24.22 134.85 17.27 126.66 13.89 126.66H12.57C10.46 126.66 9.33 128.92 8.93 130.63H8.27C8 129.47 7.61 129.52 7.61 128.32C7.61 126.36 9.36 124.51 11.25 124.35V123.36H9.93C9.93 121.73 10.96 119.72 11.91 119.72C14.77 119.72 15.56 120.98 18.19 121.04C17.04 122.61 16.73 120.66 16.54 123.03ZM33.07 126.99V127.32C33.07 128.43 34.28 129.23 35.05 129.64C34.71 130.28 33.12 132.62 32.4 132.62C31.6 132.62 26.28 128.08 25.78 127.33C27.26 126.64 27.61 127.99 28.43 127.99C30.3 127.99 31.47 126.45 33.39 126.01C33.17 126.41 33.07 126.36 33.07 126.99ZM36.71 127.66C36.71 128.12 36.26 128.32 35.72 128.32H35.39C34.85 128.32 34.4 128.12 34.4 127.66C34.4 126.72 35.45 125.34 36.38 125.34H36.71C37.2 125.34 38.17 126.05 38.69 126.33V126.99V127.65C38.69 130.68 33.44 132.74 33.07 137.24C29.65 138.04 25.79 142.65 25.79 146.83C25.79 147.91 26.46 148.07 27.44 148.15C27.27 147.41 27.11 147.39 27.11 146.5C27.11 145.74 27.34 145.51 28.1 145.51C28.86 145.51 29.09 145.74 29.09 146.5V147.16C29.09 148 28.08 149.14 27.11 149.14C25.96 149.14 24.46 148.67 24.46 147.49V147.16C24.46 142.86 29.42 141.14 29.42 135.25C32.88 135.25 37.69 129.69 37.69 127.64C37.69 126.63 37.12 126.52 36.37 126.32C36.59 127.22 36.71 126.96 36.71 127.66ZM42.33 125.67L43.74 125.68L43.26 129.25L41.86 130.66L42.33 125.67ZM57.69 21.6798L57.87 22.4898L57.8 23.0698L56.88 24.1498H58.87C60.54 24.1498 60.63 23.6198 62.18 23.4898C61.91 22.4898 57.81 20.2898 56.37 20.3698L57.69 21.6798ZM30.76 139.89C30.76 139.16 32.7 138.59 33.67 138.5L34.4 137.91V137.25V136.92C34.4 136.38 34.6 135.93 35.06 135.93C35.49 135.93 40.2 139.58 41.08 140.17C42.58 141.16 46.13 142.98 47.91 143.59C52.53 145.18 58.58 147.18 64.82 147.18H71.76C73.65 147.18 74.36 146.52 75.73 146.52L76.41 146.66L85.67 145.19L85.98 146.19H86.97C87.4 144.57 88.88 143.59 90.94 143.54C91.26 144.92 91.9 145.86 93.59 145.86C96.81 145.86 97.61 143.54 100.87 143.54C100.25 144.46 99.55 144.68 99.55 146.19V146.85C99.55 147.99 99.79 148.13 99.88 149.17C98.36 149.3 95.56 150.41 93.93 150.83C91.82 151.37 89.68 151.72 87.44 152.28C83.71 153.22 77.57 153.8 73.09 153.8H64.49C59.21 153.8 48.99 150.88 45.3 149.18C43.26 148.21 30.76 141.27 30.76 139.89Z" fill="#7B0041"/>
    </g>
    <path d="M605.62 108.599L600.1 109.549V137.089C600.1 139.149 600.27 140.959 600.61 142.519C600.95 144.079 601.53 145.399 602.36 146.469C603.19 147.539 604.29 148.339 605.65 148.869C607.02 149.399 608.75 149.669 610.84 149.669C612.62 149.669 614.2 149.459 615.59 149.049C616.98 148.629 617.94 148.289 618.5 148.009L617.43 143.439C617.03 143.599 616.33 143.869 615.32 144.239C614.31 144.619 612.98 144.799 611.31 144.799C610.36 144.799 609.53 144.679 608.82 144.439C608.11 144.199 607.51 143.799 607.04 143.219C606.57 142.649 606.21 141.859 605.97 140.849C605.73 139.839 605.61 138.569 605.61 137.019V122.769H617.3V118.139H605.61V108.599H605.62ZM571.48 130.629C571.6 129.559 571.85 128.509 572.22 127.479C572.6 126.449 573.12 125.539 573.79 124.749C574.46 123.959 575.28 123.319 576.25 122.819C577.22 122.329 578.34 122.079 579.6 122.079C581.86 122.079 583.63 122.879 584.91 124.479C586.2 126.079 586.82 128.129 586.78 130.619H571.48V130.629ZM566.52 140.099C567.13 142.059 568.07 143.749 569.34 145.179C570.61 146.599 572.22 147.719 574.18 148.529C576.14 149.339 578.46 149.749 581.16 149.749C583.3 149.749 585.21 149.549 586.89 149.159C588.57 148.769 589.75 148.389 590.42 148.029L589.65 143.399C588.98 143.719 587.98 144.039 586.65 144.379C585.32 144.719 583.69 144.889 581.75 144.889C578.31 144.889 575.77 144.059 574.15 142.399C572.53 140.739 571.6 138.299 571.36 135.099H592.49C592.53 134.779 592.55 134.439 592.55 134.059V133.139C592.55 127.839 591.44 123.889 589.23 121.299C587.01 118.709 583.83 117.409 579.67 117.409C577.89 117.409 576.15 117.749 574.45 118.419C572.75 119.089 571.24 120.099 569.94 121.449C568.63 122.799 567.58 124.489 566.79 126.529C566 128.569 565.6 130.949 565.6 133.679C565.6 135.989 565.91 138.139 566.52 140.099ZM552.38 128.639C553.55 127.429 554.7 126.229 555.85 125.019C557 123.809 558.11 122.619 559.17 121.429C560.24 120.239 561.23 119.159 562.14 118.169H555.67C554.96 118.999 554.11 119.959 553.12 121.049C552.13 122.139 551.08 123.279 549.97 124.459C548.86 125.649 547.73 126.809 546.59 127.959C545.44 129.109 544.39 130.159 543.44 131.109V102.969L537.92 103.919V149.029H543.44V134.189C544.55 134.939 545.72 135.869 546.94 136.979C548.17 138.089 549.37 139.309 550.56 140.629C551.75 141.959 552.88 143.339 553.97 144.789C555.06 146.239 556.02 147.649 556.85 149.029H563.32C562.53 147.649 561.56 146.149 560.41 144.549C559.26 142.949 558.04 141.369 556.76 139.799C555.47 138.239 554.17 136.779 552.84 135.439C551.51 134.089 550.26 132.969 549.07 132.059C550.11 130.979 551.21 129.849 552.38 128.639ZM519.92 118.129C517.98 118.549 516.36 118.989 515.05 119.469V149.029H520.57V123.089C520.89 123.009 521.55 122.859 522.56 122.639C523.57 122.419 524.59 122.309 525.62 122.309C527.2 122.309 528.5 122.419 529.51 122.639C530.52 122.859 531.24 123.049 531.68 123.199L532.63 118.389C532.39 118.309 532.03 118.219 531.53 118.119C531.04 118.019 530.49 117.919 529.9 117.819C529.31 117.719 528.7 117.639 528.09 117.579C527.48 117.519 526.93 117.489 526.46 117.489C524.04 117.509 521.86 117.719 519.92 118.129ZM486.07 130.629C486.19 129.559 486.43 128.509 486.81 127.479C487.19 126.449 487.71 125.539 488.38 124.749C489.05 123.959 489.87 123.319 490.84 122.819C491.81 122.329 492.93 122.079 494.19 122.079C496.45 122.079 498.22 122.879 499.5 124.479C500.79 126.079 501.41 128.129 501.37 130.619H486.07V130.629ZM481.11 140.099C481.72 142.059 482.66 143.749 483.93 145.179C485.2 146.599 486.81 147.719 488.77 148.529C490.73 149.339 493.05 149.749 495.74 149.749C497.88 149.749 499.78 149.549 501.47 149.159C503.15 148.769 504.33 148.389 505 148.029L504.23 143.399C503.56 143.719 502.56 144.039 501.23 144.379C499.9 144.719 498.27 144.889 496.33 144.889C492.89 144.889 490.35 144.059 488.73 142.399C487.11 140.739 486.18 138.299 485.94 135.099H507.07C507.11 134.779 507.13 134.439 507.13 134.059V133.139C507.13 127.839 506.02 123.889 503.81 121.299C501.59 118.709 498.41 117.409 494.25 117.409C492.47 117.409 490.73 117.749 489.03 118.419C487.33 119.089 485.82 120.099 484.52 121.449C483.21 122.799 482.16 124.489 481.37 126.529C480.58 128.569 480.18 130.949 480.18 133.679C480.19 135.989 480.5 138.139 481.11 140.099ZM471.39 118.159C470.92 120.099 470.35 122.169 469.7 124.359C469.05 126.559 468.35 128.729 467.62 130.889C466.89 133.049 466.15 135.129 465.39 137.149C464.64 139.169 463.93 140.969 463.25 142.549C462.58 140.969 461.86 139.169 461.11 137.149C460.36 135.129 459.62 133.039 458.88 130.889C458.15 128.729 457.46 126.559 456.8 124.359C456.15 122.159 455.58 120.099 455.11 118.159H449.17C450.71 123.939 452.52 129.479 454.6 134.779C456.68 140.079 458.69 144.829 460.63 149.029H465.62C467.56 144.839 469.57 140.089 471.65 134.779C473.73 129.479 475.54 123.939 477.08 118.159H471.39ZM428.22 144.339C426.83 143.859 425.83 143.509 425.19 143.269L424.18 148.019C424.73 148.259 425.78 148.599 427.33 149.059C428.87 149.509 431.01 149.739 433.74 149.739C437.66 149.739 440.67 149.009 442.79 147.539C444.91 146.079 445.97 143.919 445.97 141.069C445.97 139.609 445.75 138.369 445.32 137.359C444.88 136.349 444.26 135.489 443.45 134.779C442.64 134.069 441.66 133.439 440.51 132.909C439.36 132.369 438.06 131.829 436.59 131.279C435.48 130.879 434.53 130.509 433.74 130.149C432.95 129.789 432.28 129.409 431.75 128.989C431.22 128.569 430.82 128.109 430.56 127.599C430.3 127.089 430.17 126.489 430.17 125.819C430.17 124.509 430.74 123.549 431.89 122.939C433.04 122.329 434.38 122.019 435.93 122.019C437.71 122.019 439.23 122.189 440.5 122.529C441.77 122.869 442.7 123.189 443.29 123.509L444.3 118.759C443.98 118.639 443.54 118.499 442.96 118.349C442.39 118.189 441.72 118.039 440.97 117.899C440.22 117.759 439.41 117.639 438.54 117.539C437.67 117.439 436.8 117.389 435.93 117.389C432.45 117.389 429.7 118.189 427.68 119.789C425.66 121.389 424.65 123.559 424.65 126.289C424.65 127.679 424.89 128.839 425.36 129.789C425.84 130.739 426.47 131.549 427.26 132.219C428.05 132.889 428.99 133.479 430.08 133.969C431.17 134.459 432.31 134.949 433.49 135.429C435.94 136.419 437.71 137.309 438.77 138.099C439.84 138.889 440.37 139.959 440.37 141.299C440.37 142.609 439.83 143.559 438.74 144.149C437.65 144.739 435.98 145.039 433.72 145.039C431.45 145.049 429.61 144.819 428.22 144.339ZM411.59 141.079C410.88 141.629 409.91 142.119 408.68 142.529C407.45 142.949 406.11 143.149 404.64 143.149C403.57 143.149 402.53 142.949 401.52 142.559C400.51 142.169 399.62 141.549 398.85 140.719C398.08 139.889 397.46 138.839 397.01 137.569C396.55 136.299 396.33 134.779 396.33 132.999C396.33 129.789 397.13 127.219 398.73 125.279C400.33 123.339 402.62 122.369 405.59 122.369C407.17 122.369 408.43 122.439 409.36 122.579C410.29 122.719 411.03 122.869 411.59 123.019V141.079ZM411.65 147.249C411.65 150.099 410.93 152.179 409.48 153.479C408.03 154.789 405.67 155.439 402.39 155.439C400.65 155.439 398.98 155.269 397.37 154.939C395.77 154.599 394.41 154.219 393.3 153.779L392.29 158.589C393.56 159.019 395.05 159.399 396.77 159.719C398.49 160.039 400.32 160.199 402.26 160.199C407.25 160.199 410.96 159.129 413.42 156.989C415.87 154.849 417.1 151.409 417.1 146.659V119.119C415.79 118.799 414.18 118.459 412.26 118.079C410.34 117.699 408.1 117.519 405.52 117.519C403.18 117.519 401.09 117.909 399.23 118.679C397.37 119.449 395.8 120.519 394.51 121.889C393.22 123.259 392.24 124.879 391.57 126.759C390.9 128.639 390.56 130.709 390.56 132.959C390.56 135.529 390.92 137.749 391.63 139.609C392.34 141.469 393.31 143.019 394.54 144.269C395.77 145.519 397.2 146.439 398.84 147.029C400.48 147.619 402.23 147.919 404.09 147.919C405.91 147.919 407.5 147.669 408.87 147.179C410.24 146.689 411.16 146.279 411.63 145.959V147.249H411.65ZM358.27 149.029H363.79V122.969C363.99 122.929 364.31 122.869 364.77 122.789C365.22 122.709 365.74 122.639 366.31 122.579C366.88 122.519 367.49 122.469 368.12 122.429C368.75 122.389 369.37 122.369 369.96 122.369C371.42 122.369 372.65 122.559 373.64 122.929C374.63 123.309 375.42 123.909 376.02 124.739C376.61 125.569 377.04 126.659 377.3 127.999C377.56 129.349 377.69 130.969 377.69 132.869V149.019H383.21V131.699C383.21 129.599 383.01 127.679 382.62 125.939C382.22 124.199 381.54 122.709 380.57 121.459C379.6 120.209 378.3 119.239 376.68 118.549C375.06 117.859 373.02 117.509 370.56 117.509C367.83 117.509 365.42 117.689 363.32 118.039C361.22 118.399 359.54 118.729 358.27 119.049V149.029ZM348.55 111.599C349.24 110.949 349.59 110.069 349.59 108.959C349.59 107.849 349.24 106.969 348.55 106.319C347.86 105.669 347.02 105.339 346.03 105.339C345.04 105.339 344.2 105.669 343.51 106.319C342.82 106.969 342.47 107.849 342.47 108.959C342.47 110.069 342.82 110.949 343.51 111.599C344.2 112.249 345.04 112.579 346.03 112.579C347.01 112.579 347.85 112.259 348.55 111.599ZM348.81 118.159H343.29V149.029H348.81V118.159ZM309.26 149.029H314.78V122.969C314.98 122.929 315.3 122.869 315.76 122.789C316.21 122.709 316.73 122.639 317.3 122.579C317.87 122.519 318.48 122.469 319.11 122.429C319.74 122.389 320.36 122.369 320.95 122.369C322.41 122.369 323.64 122.559 324.63 122.929C325.62 123.309 326.41 123.909 327 124.739C327.59 125.569 328.02 126.659 328.28 127.999C328.54 129.349 328.66 130.969 328.66 132.869V149.019H334.18V131.699C334.18 129.599 333.98 127.679 333.59 125.939C333.19 124.199 332.51 122.709 331.54 121.459C330.57 120.209 329.27 119.239 327.65 118.549C326.03 117.859 323.99 117.509 321.54 117.509C318.81 117.509 316.4 117.689 314.3 118.039C312.2 118.399 310.52 118.729 309.25 119.049V149.029H309.26ZM292.78 128.639C293.95 127.429 295.1 126.229 296.25 125.019C297.4 123.809 298.51 122.619 299.57 121.429C300.64 120.239 301.63 119.159 302.54 118.169H296.07C295.36 118.999 294.51 119.959 293.52 121.049C292.53 122.139 291.48 123.279 290.37 124.459C289.26 125.649 288.13 126.809 286.99 127.959C285.84 129.109 284.79 130.159 283.84 131.109V102.969L278.32 103.919V149.029H283.84V134.189C284.95 134.939 286.11 135.869 287.34 136.979C288.57 138.089 289.77 139.309 290.96 140.629C292.15 141.959 293.28 143.339 294.37 144.789C295.46 146.239 296.42 147.649 297.25 149.029H303.72C302.93 147.649 301.96 146.149 300.81 144.549C299.66 142.949 298.44 141.369 297.16 139.799C295.87 138.239 294.57 136.779 293.24 135.439C291.91 134.089 290.66 132.969 289.47 132.059C290.51 130.979 291.61 129.849 292.78 128.639ZM264.15 111.479C264.84 110.829 265.19 109.989 265.19 108.959C265.19 107.929 264.84 107.089 264.15 106.439C263.46 105.789 262.66 105.459 261.75 105.459C260.84 105.459 260.04 105.789 259.35 106.439C258.66 107.089 258.31 107.929 258.31 108.959C258.31 109.989 258.66 110.829 259.35 111.479C260.04 112.129 260.84 112.459 261.75 112.459C262.66 112.459 263.46 112.139 264.15 111.479ZM252.87 111.479C253.56 110.829 253.91 109.989 253.91 108.959C253.91 107.929 253.56 107.089 252.87 106.439C252.18 105.789 251.38 105.459 250.47 105.459C249.56 105.459 248.76 105.789 248.07 106.439C247.38 107.089 247.03 107.929 247.03 108.959C247.03 109.989 247.38 110.829 248.07 111.479C248.76 112.129 249.56 112.459 250.47 112.459C251.38 112.459 252.18 112.139 252.87 111.479ZM262.49 141.879C260.93 143.919 258.8 144.939 256.11 144.939C253.42 144.939 251.29 143.919 249.73 141.879C248.17 139.839 247.39 137.079 247.39 133.599C247.39 130.119 248.17 127.359 249.73 125.319C251.29 123.279 253.42 122.259 256.11 122.259C258.8 122.259 260.93 123.279 262.49 125.319C264.05 127.359 264.84 130.119 264.84 133.599C264.83 137.079 264.05 139.839 262.49 141.879ZM269.52 126.979C268.81 124.979 267.81 123.269 266.52 121.849C265.23 120.419 263.7 119.329 261.92 118.549C260.14 117.779 258.2 117.389 256.1 117.389C254 117.389 252.06 117.779 250.28 118.549C248.5 119.319 246.96 120.419 245.68 121.849C244.39 123.269 243.39 124.989 242.68 126.979C241.97 128.979 241.61 131.179 241.61 133.599C241.61 136.059 241.97 138.269 242.68 140.249C243.39 142.229 244.39 143.929 245.68 145.359C246.97 146.779 248.5 147.879 250.28 148.649C252.06 149.419 254 149.809 256.1 149.809C258.2 149.809 260.14 149.419 261.92 148.649C263.7 147.879 265.23 146.779 266.52 145.359C267.81 143.929 268.81 142.229 269.52 140.249C270.23 138.269 270.59 136.059 270.59 133.599C270.59 131.179 270.23 128.979 269.52 126.979ZM218.57 144.339C217.18 143.859 216.18 143.509 215.54 143.269L214.53 148.019C215.08 148.259 216.13 148.599 217.68 149.059C219.22 149.509 221.36 149.739 224.09 149.739C228.01 149.739 231.02 149.009 233.14 147.539C235.26 146.079 236.32 143.919 236.32 141.069C236.32 139.609 236.1 138.369 235.67 137.359C235.23 136.349 234.61 135.489 233.8 134.779C232.99 134.069 232.01 133.439 230.86 132.909C229.71 132.369 228.41 131.829 226.94 131.279C225.83 130.879 224.88 130.509 224.09 130.149C223.3 129.789 222.63 129.409 222.1 128.989C221.57 128.569 221.17 128.109 220.91 127.599C220.65 127.089 220.52 126.489 220.52 125.819C220.52 124.509 221.09 123.549 222.24 122.939C223.39 122.329 224.73 122.019 226.28 122.019C228.06 122.019 229.58 122.189 230.85 122.529C232.12 122.869 233.05 123.189 233.64 123.509L234.65 118.759C234.33 118.639 233.89 118.499 233.31 118.349C232.74 118.189 232.07 118.039 231.32 117.899C230.57 117.759 229.76 117.639 228.89 117.539C228.02 117.439 227.15 117.389 226.28 117.389C222.8 117.389 220.05 118.189 218.03 119.789C216.01 121.389 215 123.559 215 126.289C215 127.679 215.24 128.839 215.71 129.789C216.19 130.739 216.82 131.549 217.61 132.219C218.4 132.889 219.34 133.479 220.43 133.969C221.52 134.459 222.66 134.949 223.84 135.429C226.29 136.419 228.05 137.309 229.12 138.099C230.19 138.889 230.72 139.959 230.72 141.299C230.72 142.609 230.18 143.559 229.09 144.149C228 144.739 226.33 145.039 224.07 145.039C221.8 145.049 219.96 144.819 218.57 144.339ZM198.26 108.599L192.74 109.549V137.089C192.74 139.149 192.91 140.959 193.24 142.519C193.58 144.079 194.16 145.399 194.99 146.469C195.82 147.539 196.92 148.339 198.29 148.869C199.65 149.399 201.39 149.669 203.48 149.669C205.26 149.669 206.84 149.459 208.23 149.049C209.62 148.629 210.59 148.289 211.14 148.009L210.07 143.439C209.67 143.599 208.97 143.869 207.96 144.239C206.95 144.619 205.62 144.799 203.95 144.799C203 144.799 202.17 144.679 201.46 144.439C200.75 144.199 200.15 143.799 199.68 143.219C199.21 142.649 198.85 141.859 198.61 140.849C198.37 139.839 198.25 138.569 198.25 137.019V122.769H209.94V118.139H198.25V108.599H198.26ZM174.94 148.669C176.9 147.839 178.52 146.699 179.81 145.259C181.1 143.819 182.05 142.099 182.66 140.129C183.27 138.149 183.58 136.009 183.58 133.719V107.899H177.82V133.069C177.82 135.129 177.58 136.899 177.11 138.379C176.64 139.859 175.96 141.079 175.09 142.029C174.22 142.979 173.18 143.679 171.97 144.139C170.76 144.599 169.43 144.819 167.96 144.819C165.03 144.819 162.66 143.889 160.84 142.029C159.02 140.169 158.11 137.179 158.11 133.069V107.899H152.35V133.719C152.35 136.019 152.66 138.149 153.27 140.129C153.88 142.109 154.82 143.819 156.09 145.259C157.36 146.709 158.98 147.839 160.96 148.669C162.94 149.499 165.27 149.919 167.96 149.919C170.66 149.919 172.99 149.499 174.94 148.669Z" fill="#7B0041"/>
    <path d="M509.71 80.5892C508.32 80.1092 507.32 79.7592 506.68 79.5192L505.67 84.2692C506.22 84.5092 507.27 84.8492 508.82 85.3092C510.36 85.7592 512.5 85.9892 515.23 85.9892C519.15 85.9892 522.16 85.2592 524.28 83.7892C526.4 82.3292 527.46 80.1692 527.46 77.3192C527.46 75.8592 527.24 74.6192 526.81 73.6092C526.37 72.5992 525.75 71.7392 524.94 71.0292C524.13 70.3192 523.15 69.6892 522 69.1592C520.85 68.6192 519.55 68.0792 518.08 67.5292C516.97 67.1292 516.02 66.7592 515.23 66.3992C514.44 66.0392 513.78 65.6592 513.24 65.2392C512.71 64.8192 512.31 64.3592 512.05 63.8392C511.79 63.3292 511.66 62.7292 511.66 62.0592C511.66 60.7492 512.23 59.7892 513.38 59.1792C514.53 58.5692 515.87 58.2592 517.42 58.2592C519.2 58.2592 520.72 58.4292 521.99 58.7692C523.26 59.1092 524.19 59.4292 524.78 59.7492L525.79 54.9992C525.47 54.8792 525.03 54.7392 524.45 54.5892C523.88 54.4292 523.21 54.2792 522.46 54.1392C521.71 53.9992 520.9 53.8792 520.03 53.7792C519.16 53.6792 518.29 53.6292 517.42 53.6292C513.94 53.6292 511.19 54.4292 509.17 56.0292C507.15 57.6292 506.14 59.7992 506.14 62.5292C506.14 63.9192 506.38 65.0792 506.85 66.0292C507.33 66.9792 507.96 67.7892 508.75 68.4592C509.54 69.1292 510.48 69.7192 511.57 70.2092C512.66 70.6992 513.8 71.1892 514.98 71.6592C517.43 72.6492 519.2 73.5392 520.26 74.3292C521.33 75.1192 521.86 76.1892 521.86 77.5292C521.86 78.8392 521.32 79.7892 520.23 80.3792C519.14 80.9692 517.47 81.2692 515.21 81.2692C512.93 81.2992 511.09 81.0692 509.71 80.5892ZM492.17 78.1292C490.61 80.1692 488.48 81.1892 485.79 81.1892C483.1 81.1892 480.97 80.1692 479.41 78.1292C477.85 76.0892 477.07 73.3292 477.07 69.8492C477.07 66.3692 477.85 63.6092 479.41 61.5692C480.97 59.5292 483.1 58.5092 485.79 58.5092C488.48 58.5092 490.61 59.5292 492.17 61.5692C493.73 63.6092 494.51 66.3692 494.51 69.8492C494.51 73.3292 493.73 76.0892 492.17 78.1292ZM499.2 63.2292C498.49 61.2292 497.49 59.5192 496.2 58.0892C494.91 56.6692 493.38 55.5692 491.6 54.7992C489.82 54.0292 487.88 53.6392 485.78 53.6392C483.68 53.6392 481.74 54.0292 479.96 54.7992C478.18 55.5692 476.64 56.6692 475.36 58.0892C474.07 59.5192 473.07 61.2292 472.36 63.2292C471.65 65.2292 471.29 67.4292 471.29 69.8492C471.29 72.2992 471.65 74.5192 472.36 76.4992C473.07 78.4792 474.07 80.1792 475.36 81.6092C476.64 83.0292 478.18 84.1292 479.96 84.8992C481.74 85.6692 483.68 86.0592 485.78 86.0592C487.88 86.0592 489.82 85.6692 491.6 84.8992C493.38 84.1292 494.91 83.0292 496.2 81.6092C497.48 80.1792 498.48 78.4792 499.2 76.4992C499.91 74.5192 500.27 72.3092 500.27 69.8492C500.27 67.4292 499.91 65.2292 499.2 63.2292ZM455.15 44.8492L449.63 45.7992V73.3392C449.63 75.3992 449.8 77.2092 450.14 78.7692C450.48 80.3292 451.06 81.6492 451.89 82.7192C452.72 83.7892 453.82 84.5892 455.18 85.1192C456.55 85.6492 458.28 85.9192 460.37 85.9192C462.15 85.9192 463.73 85.7092 465.12 85.2992C466.5 84.8792 467.47 84.5392 468.03 84.2592L466.96 79.6892C466.56 79.8492 465.86 80.1192 464.85 80.4892C463.84 80.8692 462.51 81.0492 460.84 81.0492C459.89 81.0492 459.06 80.9292 458.35 80.6892C457.64 80.4492 457.04 80.0492 456.57 79.4692C456.1 78.8992 455.74 78.0992 455.5 77.0992C455.26 76.0892 455.14 74.8192 455.14 73.2692V59.0192H466.83V54.3892H455.14V44.8492H455.15ZM440.23 47.8492C440.92 47.1992 441.27 46.3192 441.27 45.2092C441.27 44.0992 440.92 43.2192 440.23 42.5692C439.54 41.9192 438.7 41.5892 437.71 41.5892C436.72 41.5892 435.88 41.9192 435.19 42.5692C434.5 43.2192 434.15 44.0992 434.15 45.2092C434.15 46.3192 434.5 47.1992 435.19 47.8492C435.88 48.4992 436.72 48.8292 437.71 48.8292C438.69 48.8292 439.53 48.5092 440.23 47.8492ZM440.49 54.4092H434.97V85.2792H440.49V54.4092ZM408.56 54.0892C406.9 54.3892 405.71 54.6892 405 55.0092L405.65 59.5792C406.32 59.2992 407.34 59.0392 408.71 58.7792C410.07 58.5192 411.67 58.3892 413.49 58.3892C414.91 58.3892 416.07 58.5992 416.96 59.0092C417.85 59.4292 418.55 59.9792 419.07 60.6692C419.58 61.3592 419.94 62.1492 420.14 63.0392C420.34 63.9292 420.44 64.8292 420.44 65.7392V67.2792C420.28 67.2392 420 67.1792 419.61 67.0992C419.21 67.0192 418.75 66.9292 418.21 66.8292C417.68 66.7292 417.11 66.6492 416.52 66.5892C415.93 66.5292 415.35 66.4992 414.8 66.4992C413.06 66.4992 411.4 66.6792 409.81 67.0292C408.23 67.3892 406.84 67.9392 405.66 68.6892C404.47 69.4392 403.53 70.4292 402.84 71.6592C402.15 72.8892 401.8 74.3492 401.8 76.0492C401.8 77.8292 402.1 79.3492 402.69 80.6192C403.28 81.8892 404.11 82.9092 405.18 83.6792C406.25 84.4492 407.51 85.0192 408.98 85.3692C410.44 85.7292 412.05 85.8992 413.79 85.8992C415.02 85.8992 416.25 85.8492 417.5 85.7492C418.75 85.6492 419.9 85.5392 420.97 85.4192C422.04 85.2992 423 85.1692 423.85 85.0292C424.7 84.8892 425.36 84.7792 425.84 84.6992V65.4092C425.84 63.6692 425.64 62.0792 425.25 60.6292C424.85 59.1892 424.19 57.9392 423.26 56.8892C422.33 55.8392 421.1 55.0292 419.58 54.4592C418.06 53.8892 416.19 53.5992 413.97 53.5992C412.02 53.6392 410.22 53.7892 408.56 54.0892ZM409.27 80.1392C408 79.3692 407.37 77.9892 407.37 76.0192C407.37 74.9492 407.63 74.0892 408.14 73.4392C408.65 72.7892 409.3 72.2692 410.07 71.8992C410.84 71.5192 411.69 71.2792 412.62 71.1592C413.55 71.0392 414.43 70.9792 415.26 70.9792C416.53 70.9792 417.6 71.0492 418.49 71.1892C419.38 71.3292 420.02 71.4992 420.42 71.6892V80.8892C419.75 81.0492 418.91 81.1592 417.9 81.2192C416.89 81.2792 415.73 81.3092 414.43 81.3092C412.26 81.2992 410.54 80.9192 409.27 80.1392ZM397.81 81.2392C396.94 81.1192 396.21 80.9692 395.61 80.7892C395.02 80.6092 394.54 80.3392 394.18 79.9892C393.82 79.6292 393.57 79.1592 393.41 78.5592C393.25 77.9692 393.17 77.2092 393.17 76.2992V39.1992L387.65 40.1492V77.1892C387.65 80.1192 388.36 82.2792 389.79 83.6592C391.21 85.0492 393.63 85.7792 397.03 85.8592L397.81 81.2392ZM371.9 78.1292C370.34 80.1692 368.21 81.1892 365.52 81.1892C362.83 81.1892 360.7 80.1692 359.14 78.1292C357.58 76.0892 356.79 73.3292 356.79 69.8492C356.79 66.3692 357.57 63.6092 359.14 61.5692C360.7 59.5292 362.83 58.5092 365.52 58.5092C368.21 58.5092 370.34 59.5292 371.9 61.5692C373.46 63.6092 374.24 66.3692 374.24 69.8492C374.25 73.3292 373.47 76.0892 371.9 78.1292ZM378.94 63.2292C378.23 61.2292 377.23 59.5192 375.94 58.0892C374.65 56.6692 373.12 55.5692 371.34 54.7992C369.56 54.0292 367.62 53.6392 365.52 53.6392C363.42 53.6392 361.48 54.0292 359.7 54.7992C357.92 55.5692 356.38 56.6692 355.1 58.0892C353.81 59.5192 352.81 61.2292 352.1 63.2292C351.39 65.2292 351.03 67.4292 351.03 69.8492C351.03 72.2992 351.39 74.5192 352.1 76.4992C352.81 78.4792 353.81 80.1792 355.1 81.6092C356.39 83.0292 357.92 84.1292 359.7 84.8992C361.48 85.6692 363.42 86.0592 365.52 86.0592C367.62 86.0592 369.56 85.6692 371.34 84.8992C373.12 84.1292 374.65 83.0292 375.94 81.6092C377.23 80.1792 378.23 78.4792 378.94 76.4992C379.65 74.5192 380.01 72.3092 380.01 69.8492C380 67.4292 379.65 65.2292 378.94 63.2292ZM334.89 44.8492L329.37 45.7992V73.3392C329.37 75.3992 329.54 77.2092 329.87 78.7692C330.21 80.3292 330.79 81.6492 331.62 82.7192C332.45 83.7892 333.55 84.5892 334.91 85.1192C336.28 85.6492 338.01 85.9192 340.1 85.9192C341.88 85.9192 343.46 85.7092 344.85 85.2992C346.23 84.8792 347.2 84.5392 347.76 84.2592L346.69 79.6892C346.29 79.8492 345.59 80.1192 344.58 80.4892C343.57 80.8692 342.24 81.0492 340.57 81.0492C339.62 81.0492 338.79 80.9292 338.08 80.6892C337.37 80.4492 336.77 80.0492 336.3 79.4692C335.82 78.8992 335.47 78.0992 335.23 77.0992C334.99 76.0892 334.87 74.8192 334.87 73.2692V59.0192H346.56V54.3892H334.87V44.8492H334.89ZM311.03 44.8492L305.51 45.7992V73.3392C305.51 75.3992 305.68 77.2092 306.01 78.7692C306.35 80.3292 306.93 81.6492 307.76 82.7192C308.59 83.7892 309.69 84.5892 311.05 85.1192C312.41 85.6492 314.15 85.9192 316.24 85.9192C318.02 85.9192 319.6 85.7092 320.99 85.2992C322.37 84.8792 323.34 84.5392 323.9 84.2592L322.83 79.6892C322.43 79.8492 321.73 80.1192 320.72 80.4892C319.71 80.8692 318.37 81.0492 316.71 81.0492C315.76 81.0492 314.93 80.9292 314.22 80.6892C313.51 80.4492 312.91 80.0492 312.44 79.4692C311.96 78.8992 311.61 78.0992 311.37 77.0992C311.13 76.0892 311.01 74.8192 311.01 73.2692V59.0192H322.71V54.3892H311.01V44.8492H311.03ZM289.98 78.1292C288.42 80.1692 286.29 81.1892 283.6 81.1892C280.91 81.1892 278.78 80.1692 277.22 78.1292C275.66 76.0892 274.87 73.3292 274.87 69.8492C274.87 66.3692 275.65 63.6092 277.22 61.5692C278.78 59.5292 280.91 58.5092 283.6 58.5092C286.29 58.5092 288.42 59.5292 289.98 61.5692C291.54 63.6092 292.33 66.3692 292.33 69.8492C292.33 73.3292 291.55 76.0892 289.98 78.1292ZM297.02 63.2292C296.31 61.2292 295.31 59.5192 294.02 58.0892C292.73 56.6692 291.2 55.5692 289.42 54.7992C287.64 54.0292 285.7 53.6392 283.6 53.6392C281.5 53.6392 279.56 54.0292 277.78 54.7992C276 55.5692 274.46 56.6692 273.18 58.0892C271.89 59.5192 270.89 61.2292 270.18 63.2292C269.47 65.2292 269.11 67.4292 269.11 69.8492C269.11 72.2992 269.47 74.5192 270.18 76.4992C270.89 78.4792 271.89 80.1792 273.18 81.6092C274.47 83.0292 276 84.1292 277.78 84.8992C279.56 85.6692 281.5 86.0592 283.6 86.0592C285.7 86.0592 287.64 85.6692 289.42 84.8992C291.2 84.1292 292.73 83.0292 294.02 81.6092C295.31 80.1792 296.31 78.4792 297.02 76.4992C297.73 74.5192 298.09 72.3092 298.09 69.8492C298.09 67.4292 297.73 65.2292 297.02 63.2292ZM246.03 80.5892C244.65 80.1092 243.64 79.7592 243 79.5192L241.99 84.2692C242.54 84.5092 243.59 84.8492 245.14 85.3092C246.68 85.7592 248.82 85.9892 251.55 85.9892C255.47 85.9892 258.49 85.2592 260.6 83.7892C262.72 82.3292 263.78 80.1692 263.78 77.3192C263.78 75.8592 263.56 74.6192 263.13 73.6092C262.69 72.5992 262.07 71.7392 261.26 71.0292C260.45 70.3192 259.47 69.6892 258.32 69.1592C257.17 68.6192 255.87 68.0792 254.4 67.5292C253.29 67.1292 252.34 66.7592 251.55 66.3992C250.76 66.0392 250.1 65.6592 249.56 65.2392C249.03 64.8192 248.63 64.3592 248.37 63.8392C248.11 63.3292 247.98 62.7292 247.98 62.0592C247.98 60.7492 248.55 59.7892 249.7 59.1792C250.85 58.5692 252.19 58.2592 253.74 58.2592C255.52 58.2592 257.04 58.4292 258.31 58.7692C259.58 59.1092 260.51 59.4292 261.1 59.7492L262.11 54.9992C261.79 54.8792 261.35 54.7392 260.78 54.5892C260.21 54.4292 259.54 54.2792 258.79 54.1392C258.04 53.9992 257.23 53.8792 256.36 53.7792C255.49 53.6792 254.62 53.6292 253.75 53.6292C250.27 53.6292 247.52 54.4292 245.5 56.0292C243.48 57.6292 242.47 59.7992 242.47 62.5292C242.47 63.9192 242.71 65.0792 243.18 66.0292C243.66 66.9792 244.29 67.7892 245.08 68.4592C245.87 69.1292 246.81 69.7192 247.9 70.2092C248.99 70.6992 250.13 71.1892 251.31 71.6592C253.76 72.6492 255.52 73.5392 256.59 74.3292C257.66 75.1192 258.19 76.1892 258.19 77.5292C258.19 78.8392 257.65 79.7892 256.56 80.3792C255.47 80.9692 253.8 81.2692 251.54 81.2692C249.25 81.2992 247.41 81.0692 246.03 80.5892ZM228.49 78.1292C226.93 80.1692 224.8 81.1892 222.11 81.1892C219.42 81.1892 217.29 80.1692 215.73 78.1292C214.17 76.0892 213.38 73.3292 213.38 69.8492C213.38 66.3692 214.16 63.6092 215.73 61.5692C217.29 59.5292 219.42 58.5092 222.11 58.5092C224.8 58.5092 226.93 59.5292 228.49 61.5692C230.05 63.6092 230.83 66.3692 230.83 69.8492C230.83 73.3292 230.05 76.0892 228.49 78.1292ZM235.52 63.2292C234.81 61.2292 233.81 59.5192 232.52 58.0892C231.23 56.6692 229.7 55.5692 227.92 54.7992C226.14 54.0292 224.2 53.6392 222.1 53.6392C220 53.6392 218.06 54.0292 216.28 54.7992C214.5 55.5692 212.96 56.6692 211.68 58.0892C210.39 59.5192 209.39 61.2292 208.68 63.2292C207.97 65.2292 207.61 67.4292 207.61 69.8492C207.61 72.2992 207.97 74.5192 208.68 76.4992C209.39 78.4792 210.39 80.1792 211.68 81.6092C212.97 83.0292 214.5 84.1292 216.28 84.8992C218.06 85.6692 220 86.0592 222.1 86.0592C224.2 86.0592 226.14 85.6692 227.92 84.8992C229.7 84.1292 231.23 83.0292 232.52 81.6092C233.81 80.1792 234.81 78.4792 235.52 76.4992C236.23 74.5192 236.59 72.3092 236.59 69.8492C236.59 67.4292 236.23 65.2292 235.52 63.2292ZM203.17 81.2392C202.3 81.1192 201.57 80.9692 200.97 80.7892C200.38 80.6092 199.9 80.3392 199.54 79.9892C199.18 79.6292 198.93 79.1592 198.77 78.5592C198.61 77.9692 198.53 77.2092 198.53 76.2992V39.1992L193.01 40.1492V77.1892C193.01 80.1192 193.72 82.2792 195.15 83.6592C196.57 85.0492 198.99 85.7792 202.39 85.8592L203.17 81.2392ZM174.94 84.9192C176.9 84.0892 178.52 82.9492 179.81 81.5092C181.1 80.0692 182.05 78.3492 182.66 76.3792C183.27 74.3992 183.58 72.2592 183.58 69.9692V44.1492H177.82V69.3192C177.82 71.3792 177.58 73.1492 177.11 74.6292C176.64 76.1092 175.96 77.3292 175.09 78.2792C174.22 79.2292 173.18 79.9292 171.97 80.3892C170.76 80.8392 169.43 81.0692 167.96 81.0692C165.03 81.0692 162.66 80.1392 160.84 78.2792C159.02 76.4192 158.11 73.4292 158.11 69.3192V44.1492H152.35V69.9692C152.35 72.2692 152.66 74.3992 153.27 76.3792C153.88 78.3592 154.82 80.0692 156.09 81.5092C157.36 82.9592 158.98 84.0892 160.96 84.9192C162.94 85.7492 165.27 86.1692 167.96 86.1692C170.66 86.1692 172.99 85.7492 174.94 84.9192Z" fill="#7B0041"/>
  </g>
  <defs>
    <clipPath id="clip0_4321_9911">
      <rect width="618.5" height="160.199" fill="white"/>
    </clipPath>
  </defs>
</svg>