<?xml version="1.0" encoding="UTF-8"?>
<svg id="Layer_2" xmlns="http://www.w3.org/2000/svg" viewBox="0 0 589.88 115">
  <defs>
    <style>
      .cls-1 {
      fill: #1d1d1d;
      }

      .cls-2 {
      fill: #fff;
      }

      .cls-3 {
      fill: #ced5d9;
      }
    </style>
  </defs>
  <g id="Layer_1-2" data-name="Layer_1">
    <g>
      <path class="cls-2" d="M148.07,32.2h1.11c.45,0,.82-.06,1.11-.18.29-.13.55-.33.76-.61l7.05-9.01c.29-.38.6-.64.92-.79.33-.15.74-.23,1.24-.23h4.1l-8.61,10.72c-.27.33-.53.61-.78.84-.25.23-.51.41-.8.55.39.14.74.35,1.04.61.32.26.62.59.92,1l8.88,12.08h-4.21c-.57,0-.99-.08-1.27-.23-.27-.17-.5-.4-.69-.71l-7.23-9.53c-.24-.31-.5-.53-.8-.66-.29-.14-.71-.21-1.25-.21h-1.5v11.35h-4.76v-25.82h4.76v10.83Z"/>
      <path class="cls-2" d="M193.63,34.29c0,1.89-.31,3.65-.94,5.26-.62,1.61-1.5,3-2.63,4.18-1.13,1.18-2.49,2.1-4.09,2.77-1.59.65-3.35.98-5.29.98s-3.7-.33-5.3-.98c-1.59-.67-2.96-1.59-4.1-2.77-1.13-1.18-2.01-2.57-2.63-4.18-.62-1.62-.94-3.37-.94-5.26s.31-3.64.94-5.25c.62-1.62,1.5-3.02,2.63-4.19,1.14-1.18,2.51-2.09,4.1-2.75,1.6-.67,3.37-1,5.3-1s3.7.33,5.29,1c1.59.67,2.95,1.59,4.09,2.77,1.13,1.17,2.01,2.56,2.63,4.18.62,1.61.94,3.35.94,5.25ZM188.75,34.29c0-1.42-.19-2.68-.57-3.8-.37-1.13-.9-2.09-1.59-2.87-.69-.79-1.54-1.39-2.55-1.8-.99-.42-2.11-.62-3.36-.62s-2.38.21-3.38.62c-1,.42-1.86,1.02-2.56,1.8-.7.79-1.23,1.74-1.61,2.87-.38,1.12-.57,2.38-.57,3.8s.19,2.69.57,3.82c.38,1.12.91,2.07,1.61,2.85.71.77,1.56,1.37,2.56,1.78,1,.42,2.13.62,3.38.62s2.37-.21,3.36-.62c1-.42,1.85-1.01,2.55-1.78.7-.79,1.23-1.74,1.59-2.85.38-1.13.57-2.4.57-3.82Z"/>
      <path class="cls-2" d="M201.65,21.39c.21,0,.39.01.53.04.14.01.26.05.37.11.12.05.23.12.34.23.11.1.22.23.35.39l13.42,17.25c-.05-.42-.08-.82-.11-1.21-.01-.4-.02-.78-.02-1.12v-15.68h4.19v25.8h-2.46c-.38,0-.69-.06-.94-.18-.25-.12-.49-.33-.72-.64l-13.37-17.18c.03.38.06.76.07,1.14.02.37.03.71.03,1.02v15.84h-4.19v-25.8h2.49Z"/>
      <path class="cls-2" d="M232.57,32.05h1.11c.45,0,.82-.06,1.11-.18.29-.13.55-.33.76-.6l7.05-8.89c.3-.38.6-.63.92-.77.33-.15.74-.23,1.24-.23h4.1l-8.61,10.57c-.27.33-.53.6-.78.83-.25.22-.51.4-.79.55.39.14.74.34,1.04.6.32.26.62.59.92.99l8.88,11.91h-4.21c-.57,0-.99-.08-1.27-.23-.27-.16-.5-.4-.69-.7l-7.23-9.4c-.24-.31-.5-.52-.8-.65-.29-.14-.71-.21-1.26-.21h-1.5v11.19h-4.76v-25.46h4.76v10.68Z"/>
      <path class="cls-2" d="M264.41,43.31c.92,0,1.74-.15,2.46-.46.73-.31,1.34-.74,1.84-1.3.51-.56.89-1.24,1.15-2.03.27-.8.41-1.69.41-2.68v-15.45h4.76v15.45c0,1.53-.25,2.96-.74,4.26-.48,1.3-1.18,2.42-2.1,3.37-.92.94-2.03,1.68-3.34,2.21-1.31.52-2.78.79-4.42.79s-3.11-.26-4.42-.79c-1.31-.54-2.42-1.27-3.34-2.21-.91-.95-1.61-2.08-2.1-3.37-.48-1.31-.73-2.73-.73-4.26v-15.45h4.76v15.43c0,.99.13,1.88.39,2.68.27.8.65,1.48,1.15,2.05.5.56,1.1.99,1.82,1.3.73.31,1.56.46,2.48.46Z"/>
      <path class="cls-2" d="M286.53,37.11v10.08h-4.76v-25.8h7.8c1.75,0,3.24.18,4.47.55,1.25.36,2.27.86,3.06,1.52.8.65,1.38,1.44,1.75,2.36.38.9.56,1.9.56,3,0,.87-.13,1.69-.39,2.46-.25.77-.61,1.47-1.1,2.11-.47.63-1.06,1.18-1.77,1.66-.7.48-1.49.86-2.39,1.14.6.34,1.12.84,1.56,1.48l6.4,9.53h-4.28c-.41,0-.77-.08-1.06-.25-.28-.17-.52-.4-.73-.71l-5.38-8.26c-.2-.31-.42-.53-.67-.66-.23-.13-.59-.2-1.06-.2h-2.03ZM286.53,33.66h2.97c.9,0,1.67-.11,2.33-.34.67-.23,1.22-.54,1.64-.93.44-.4.76-.88.97-1.43.21-.55.32-1.15.32-1.8,0-1.31-.43-2.31-1.29-3.02-.85-.7-2.15-1.05-3.91-1.05h-3.04v8.56Z"/>
      <path class="cls-2" d="M320.26,26.08c-.13.26-.28.45-.46.55-.16.11-.36.16-.6.16s-.5-.09-.8-.27c-.29-.19-.64-.4-1.04-.62s-.87-.43-1.41-.61c-.53-.19-1.16-.29-1.89-.29-.66,0-1.24.08-1.73.25-.48.15-.9.37-1.24.66-.33.29-.58.63-.74,1.03-.17.39-.25.83-.25,1.3,0,.61.16,1.11.5,1.52.34.4.79.75,1.34,1.03.55.29,1.18.54,1.89.77.71.23,1.43.47,2.16.73.74.25,1.47.55,2.17.89.71.33,1.34.76,1.89,1.28.55.51,1,1.14,1.33,1.89.34.75.51,1.66.51,2.73,0,1.17-.2,2.26-.6,3.28-.39,1.01-.97,1.9-1.73,2.66-.75.75-1.68,1.34-2.78,1.78-1.1.43-2.35.64-3.77.64-.81,0-1.62-.08-2.4-.25-.79-.15-1.55-.38-2.28-.68-.72-.3-1.4-.65-2.03-1.07-.62-.42-1.18-.88-1.68-1.39l1.38-2.3c.13-.17.28-.3.46-.41.19-.12.39-.18.62-.18.29,0,.61.12.95.37.34.24.74.51,1.2.8.47.3,1.02.57,1.64.82.64.24,1.4.36,2.28.36,1.36,0,2.4-.32,3.15-.96.74-.65,1.11-1.59,1.11-2.8,0-.68-.17-1.23-.51-1.66-.33-.43-.77-.79-1.33-1.07-.55-.3-1.18-.55-1.89-.75-.71-.2-1.43-.42-2.16-.66-.73-.24-1.45-.52-2.16-.86-.71-.33-1.34-.77-1.89-1.3-.55-.54-1-1.2-1.34-2-.33-.81-.5-1.8-.5-2.98,0-.94.18-1.86.55-2.75.38-.89.92-1.68,1.63-2.37.72-.69,1.6-1.24,2.63-1.66,1.04-.42,2.22-.62,3.55-.62,1.51,0,2.9.24,4.17.71,1.27.48,2.36,1.14,3.25,2l-1.17,2.27Z"/>
      <path class="cls-2" d="M340.99,26.08c-.13.26-.28.45-.46.55-.16.11-.36.16-.6.16s-.5-.09-.8-.27c-.29-.19-.64-.4-1.04-.62-.4-.23-.87-.43-1.42-.61-.53-.19-1.16-.29-1.89-.29-.66,0-1.24.08-1.73.25-.48.15-.9.37-1.24.66-.33.29-.58.63-.74,1.03-.17.39-.25.83-.25,1.3,0,.61.17,1.11.5,1.52.34.4.79.75,1.34,1.03.55.29,1.18.54,1.89.77.71.23,1.43.47,2.16.73.74.25,1.47.55,2.18.89.71.33,1.34.76,1.89,1.28.55.51,1,1.14,1.33,1.89.34.75.51,1.66.51,2.73,0,1.17-.2,2.26-.6,3.28-.39,1.01-.97,1.9-1.73,2.66-.76.75-1.68,1.34-2.78,1.78-1.1.43-2.35.64-3.77.64-.81,0-1.62-.08-2.4-.25-.79-.15-1.55-.38-2.28-.68-.72-.3-1.4-.65-2.03-1.07-.62-.42-1.19-.88-1.68-1.39l1.38-2.3c.13-.17.28-.3.46-.41.19-.12.39-.18.62-.18.3,0,.61.12.95.37.34.24.74.51,1.2.8.47.3,1.02.57,1.64.82.64.24,1.4.36,2.28.36,1.35,0,2.4-.32,3.15-.96.74-.65,1.11-1.59,1.11-2.8,0-.68-.17-1.23-.51-1.66-.33-.43-.77-.79-1.33-1.07-.55-.3-1.18-.55-1.89-.75-.71-.2-1.43-.42-2.16-.66-.73-.24-1.45-.52-2.16-.86-.71-.33-1.34-.77-1.89-1.3-.55-.54-1-1.2-1.34-2-.33-.81-.49-1.8-.49-2.98,0-.94.18-1.86.55-2.75.38-.89.92-1.68,1.63-2.37.72-.69,1.6-1.24,2.63-1.66,1.04-.42,2.22-.62,3.55-.62,1.51,0,2.9.24,4.17.71,1.27.48,2.36,1.14,3.25,2l-1.17,2.27Z"/>
      <path class="cls-2" d="M353.37,47.19h-4.77v-25.8h4.77v25.8Z"/>
      <path class="cls-2" d="M383.37,47.19h-3.68c-.41,0-.75-.1-1.02-.3-.26-.21-.45-.48-.57-.79l-1.91-5.26h-10.59l-1.91,5.26c-.09.27-.28.52-.57.75-.27.23-.61.34-1.01.34h-3.7l10.04-25.8h4.86l10.04,25.8ZM366.82,37.44h8.15l-3.11-8.58c-.14-.38-.3-.83-.48-1.34-.17-.52-.33-1.09-.49-1.69-.17.61-.33,1.17-.49,1.69-.15.52-.31.98-.46,1.37l-3.11,8.55Z"/>
      <path class="cls-2" d="M401.48,26.08c-.13.26-.28.45-.46.55-.17.11-.37.16-.6.16s-.5-.09-.8-.27c-.29-.19-.64-.4-1.04-.62-.4-.23-.87-.43-1.42-.61-.53-.19-1.16-.29-1.89-.29-.66,0-1.24.08-1.73.25-.48.15-.9.37-1.24.66-.33.29-.58.63-.74,1.03-.17.39-.25.83-.25,1.3,0,.61.17,1.11.49,1.52.34.4.79.75,1.34,1.03.55.29,1.18.54,1.89.77s1.43.47,2.16.73c.74.25,1.47.55,2.18.89.71.33,1.34.76,1.89,1.28.55.51,1,1.14,1.33,1.89.34.75.51,1.66.51,2.73,0,1.17-.2,2.26-.6,3.28-.39,1.01-.97,1.9-1.73,2.66-.75.75-1.68,1.34-2.78,1.78-1.1.43-2.35.64-3.77.64-.81,0-1.61-.08-2.4-.25-.79-.15-1.55-.38-2.28-.68-.72-.3-1.4-.65-2.03-1.07-.62-.42-1.18-.88-1.68-1.39l1.38-2.3c.13-.17.28-.3.46-.41.19-.12.4-.18.62-.18.29,0,.61.12.95.37.34.24.74.51,1.2.8.47.3,1.02.57,1.64.82.64.24,1.4.36,2.28.36,1.36,0,2.4-.32,3.15-.96.74-.65,1.11-1.59,1.11-2.8,0-.68-.17-1.23-.51-1.66-.33-.43-.77-.79-1.33-1.07-.55-.3-1.18-.55-1.89-.75-.71-.2-1.43-.42-2.16-.66-.73-.24-1.45-.52-2.16-.86-.71-.33-1.34-.77-1.89-1.3-.55-.54-1-1.2-1.34-2-.33-.81-.49-1.8-.49-2.98,0-.94.18-1.86.55-2.75.38-.89.92-1.68,1.63-2.37.72-.69,1.6-1.24,2.63-1.66,1.04-.42,2.22-.62,3.55-.62,1.51,0,2.9.24,4.17.71,1.27.48,2.36,1.14,3.25,2l-1.17,2.27Z"/>
      <path class="cls-2" d="M413.86,47.19h-4.77v-25.8h4.77v25.8Z"/>
      <path class="cls-2" d="M443.87,47.19h-3.68c-.41,0-.76-.1-1.03-.3-.26-.21-.45-.48-.57-.79l-1.91-5.26h-10.59l-1.91,5.26c-.09.27-.28.52-.57.75-.27.23-.61.34-1.01.34h-3.7l10.04-25.8h4.86l10.04,25.8ZM427.31,37.44h8.15l-3.11-8.58c-.14-.38-.3-.83-.48-1.34-.17-.52-.33-1.09-.49-1.69-.17.61-.33,1.17-.49,1.69-.15.52-.31.98-.46,1.37l-3.11,8.55Z"/>
      <path class="cls-2" d="M461.1,36.48c.2.38.38.78.55,1.2.18.4.35.81.51,1.23.17-.43.33-.85.51-1.27.18-.42.37-.81.57-1.2l7.57-14.29c.09-.18.19-.32.28-.43.11-.11.22-.18.34-.23.13-.05.27-.08.42-.09.15-.01.34-.02.55-.02h3.59v25.8h-4.19v-16.66c0-.31,0-.65.02-1.02.02-.37.05-.74.09-1.12l-7.73,14.63c-.18.33-.41.59-.69.79-.28.18-.61.27-.99.27h-.65c-.38,0-.71-.09-.99-.27-.28-.19-.51-.45-.69-.79l-7.83-14.68c.05.39.08.78.09,1.16.02.37.04.71.04,1.03v16.66h-4.19v-25.8h3.59c.21,0,.39,0,.55.02.15.01.29.04.41.09.13.05.25.12.35.23.11.11.21.25.3.43l7.64,14.33Z"/>
      <path class="cls-2" d="M488.27,47.19h-4.77v-25.8h4.77v25.8Z"/>
      <path class="cls-2" d="M511.93,21.39v3.82h-11.33v7.15h8.93v3.69h-8.93v7.3h11.33v3.84h-16.13v-25.8h16.13Z"/>
      <path class="cls-2" d="M539.38,47.19h-4.79v-11.28h-11.99v11.28h-4.79v-25.8h4.79v11.1h11.99v-11.1h4.79v25.8Z"/>
      <path class="cls-2" d="M562.43,21.39v3.82h-11.33v7.15h8.93v3.69h-8.93v7.3h11.33v3.84h-16.13v-25.8h16.13Z"/>
      <path class="cls-2" d="M570.81,21.39c.21,0,.39.01.53.04.14.01.26.05.37.11.12.05.23.12.34.23.11.1.22.23.35.39l13.42,17.25c-.05-.42-.08-.82-.11-1.21-.01-.4-.02-.78-.02-1.12v-15.68h4.19v25.8h-2.46c-.38,0-.69-.06-.94-.18-.25-.12-.49-.33-.72-.64l-13.37-17.18c.04.38.06.76.07,1.14.02.37.04.71.04,1.02v15.84h-4.19v-25.8h2.49Z"/>
      <path class="cls-2" d="M161.18,65.99v3.94h-7.69v21.86h-4.76v-21.86h-7.73v-3.94h20.18Z"/>
      <path class="cls-2" d="M189.1,78.89c0,1.89-.31,3.65-.94,5.26-.62,1.61-1.5,3-2.63,4.18-1.13,1.18-2.49,2.1-4.08,2.77-1.59.65-3.35.98-5.29.98s-3.7-.33-5.31-.98c-1.59-.67-2.96-1.59-4.1-2.77-1.13-1.18-2.01-2.57-2.64-4.18-.62-1.62-.94-3.37-.94-5.26s.31-3.64.94-5.25c.62-1.62,1.5-3.02,2.64-4.19,1.14-1.18,2.51-2.09,4.1-2.75,1.6-.67,3.37-1,5.31-1s3.7.33,5.29,1c1.59.67,2.95,1.59,4.08,2.77,1.13,1.17,2.01,2.56,2.63,4.18.62,1.61.94,3.35.94,5.25ZM184.22,78.89c0-1.42-.19-2.68-.57-3.8-.37-1.13-.9-2.09-1.59-2.87-.7-.79-1.54-1.39-2.55-1.8-.99-.42-2.11-.62-3.36-.62s-2.38.21-3.38.62c-1,.42-1.86,1.02-2.56,1.8-.7.79-1.23,1.74-1.61,2.87-.38,1.12-.57,2.38-.57,3.8s.19,2.69.57,3.82c.38,1.12.91,2.07,1.61,2.85.71.77,1.56,1.37,2.56,1.78,1,.42,2.13.62,3.38.62s2.37-.21,3.36-.62c1-.42,1.85-1.01,2.55-1.78.7-.79,1.23-1.74,1.59-2.85.38-1.13.57-2.4.57-3.82Z"/>
      <path class="cls-2" d="M199.99,91.79h-4.77v-25.8h4.77v25.8Z"/>
      <path class="cls-2" d="M220.36,81.09c.2.38.38.78.55,1.2.18.4.35.81.51,1.23.16-.43.34-.85.51-1.27s.37-.81.57-1.2l7.57-14.29c.09-.18.19-.32.28-.43.11-.11.22-.18.34-.23.13-.05.27-.08.43-.09.15-.01.34-.02.55-.02h3.59v25.8h-4.19v-16.66c0-.31,0-.65.02-1.02.02-.37.05-.74.09-1.12l-7.73,14.63c-.18.33-.41.59-.69.79-.28.18-.61.27-.99.27h-.65c-.38,0-.71-.09-.99-.27-.28-.19-.51-.45-.69-.79l-7.83-14.68c.05.39.08.78.09,1.16.02.37.03.71.03,1.03v16.66h-4.19v-25.8h3.59c.21,0,.4,0,.55.02.15.01.29.04.41.09.13.05.25.12.35.23.11.11.21.25.3.43l7.64,14.33Z"/>
      <path class="cls-2" d="M247.52,91.79h-4.78v-25.8h4.78v25.8Z"/>
      <path class="cls-2" d="M268.76,70.68c-.13.26-.28.45-.46.55-.16.11-.36.16-.6.16s-.5-.09-.8-.27c-.29-.19-.64-.4-1.04-.62-.4-.23-.87-.43-1.41-.61-.53-.19-1.16-.29-1.89-.29-.66,0-1.24.08-1.73.25-.48.15-.9.37-1.24.66-.33.29-.58.63-.74,1.03-.17.39-.25.83-.25,1.3,0,.61.17,1.11.5,1.52.34.4.79.75,1.34,1.03.55.29,1.18.54,1.89.77s1.43.47,2.16.73c.74.25,1.47.55,2.18.89.71.33,1.34.76,1.89,1.28.55.51,1,1.14,1.33,1.89.34.75.51,1.66.51,2.73,0,1.17-.2,2.26-.6,3.28-.39,1.01-.97,1.9-1.73,2.66-.76.75-1.68,1.34-2.78,1.78-1.1.43-2.35.64-3.77.64-.81,0-1.61-.08-2.4-.25-.79-.15-1.55-.38-2.28-.68-.72-.3-1.4-.65-2.03-1.07-.62-.42-1.18-.88-1.68-1.39l1.38-2.3c.13-.17.28-.3.46-.41.19-.12.39-.18.62-.18.29,0,.61.12.95.37.34.24.74.51,1.2.8.47.3,1.02.57,1.64.82.64.24,1.4.36,2.28.36,1.36,0,2.4-.32,3.15-.96.74-.65,1.11-1.59,1.11-2.8,0-.68-.17-1.23-.51-1.66-.33-.43-.77-.79-1.33-1.07-.55-.3-1.18-.55-1.89-.75-.71-.2-1.43-.42-2.16-.66-.73-.24-1.45-.52-2.16-.86s-1.34-.77-1.89-1.3c-.55-.54-1-1.2-1.34-2-.33-.81-.49-1.8-.49-2.98,0-.94.18-1.86.55-2.75.38-.89.92-1.68,1.63-2.37.72-.69,1.6-1.24,2.63-1.66,1.04-.42,2.22-.62,3.55-.62,1.51,0,2.9.24,4.17.71,1.27.48,2.36,1.14,3.25,2l-1.17,2.27Z"/>
      <path class="cls-2" d="M293.8,65.99v3.94h-7.69v21.86h-4.76v-21.86h-7.73v-3.94h20.18Z"/>
      <path class="cls-2" d="M321.73,78.89c0,1.89-.31,3.65-.94,5.26-.62,1.61-1.5,3-2.63,4.18-1.13,1.18-2.49,2.1-4.08,2.77-1.59.65-3.35.98-5.29.98s-3.7-.33-5.31-.98c-1.59-.67-2.96-1.59-4.1-2.77-1.13-1.18-2.01-2.57-2.64-4.18-.62-1.62-.94-3.37-.94-5.26s.31-3.64.94-5.25c.62-1.62,1.5-3.02,2.64-4.19,1.14-1.18,2.51-2.09,4.1-2.75,1.6-.67,3.37-1,5.31-1s3.69.33,5.29,1c1.59.67,2.95,1.59,4.08,2.77,1.13,1.17,2.01,2.56,2.63,4.18.62,1.61.94,3.35.94,5.25ZM316.85,78.89c0-1.42-.19-2.68-.57-3.8-.37-1.13-.9-2.09-1.59-2.87-.7-.79-1.54-1.39-2.55-1.8-.99-.42-2.11-.62-3.36-.62s-2.38.21-3.38.62c-1,.42-1.86,1.02-2.56,1.8-.7.79-1.23,1.74-1.61,2.87-.38,1.12-.57,2.38-.57,3.8s.19,2.69.57,3.82c.38,1.12.91,2.07,1.61,2.85.71.77,1.56,1.37,2.56,1.78,1,.42,2.13.62,3.38.62s2.37-.21,3.36-.62c1-.42,1.85-1.01,2.55-1.78.7-.79,1.23-1.74,1.59-2.85.38-1.13.57-2.4.57-3.82Z"/>
      <g>
        <path class="cls-3" d="M57.5,0C25.75,0,0,25.74,0,57.5s25.75,57.5,57.5,57.5,57.5-25.75,57.5-57.5S89.26,0,57.5,0ZM86.49,43.15c-1.84,1.66-4.27,2.67-6.94,2.67-5.73,0-10.38-4.64-10.38-10.37,0-2.53.9-4.83,2.39-6.63,1.91-2.29,4.78-3.75,7.99-3.75,5.73,0,10.38,4.65,10.38,10.38,0,3.06-1.33,5.81-3.44,7.7Z"/>
        <path class="cls-1" d="M89.93,57.5c0,17.43-14.13,31.56-31.56,31.56s-31.56-14.13-31.56-31.56,14.13-31.56,31.56-31.56c4.71,0,9.18,1.03,13.19,2.88-1.49,1.8-2.39,4.1-2.39,6.63,0,5.73,4.65,10.37,10.38,10.37,2.67,0,5.1-1.01,6.94-2.67,2.2,4.31,3.44,9.18,3.44,14.35Z"/>
        <path class="cls-2" d="M89.93,35.45c0,3.06-1.33,5.81-3.44,7.7-1.84,1.66-4.27,2.67-6.94,2.67-5.73,0-10.38-4.64-10.38-10.37,0-2.53.9-4.83,2.39-6.63,1.91-2.29,4.78-3.75,7.99-3.75,5.73,0,10.38,4.65,10.38,10.38Z"/>
      </g>
    </g>
  </g>
</svg>