<?xml version="1.0" encoding="UTF-8"?>
<svg id="Layer_2" xmlns="http://www.w3.org/2000/svg" viewBox="0 0 631 115">
  <defs>
    <style>
      .cls-1 {
        fill: #1d1d1d;
      }

      .cls-2 {
        fill: #fff;
      }

      .cls-3 {
        fill: #ced5d9;
      }
    </style>
  </defs>
  <g id="Layer_1-2" data-name="Layer_1">
    <g>
      <g>
        <path class="cls-3" d="M57.5,0C25.75,0,0,25.74,0,57.5s25.75,57.5,57.5,57.5,57.5-25.75,57.5-57.5S89.26,0,57.5,0ZM86.49,43.15c-1.84,1.66-4.27,2.67-6.94,2.67-5.73,0-10.38-4.64-10.38-10.37,0-2.53.9-4.83,2.39-6.63,1.91-2.29,4.78-3.75,7.99-3.75,5.73,0,10.38,4.65,10.38,10.38,0,3.06-1.33,5.81-3.44,7.7Z"/>
        <path class="cls-1" d="M89.93,57.5c0,17.43-14.13,31.56-31.56,31.56s-31.56-14.13-31.56-31.56,14.13-31.56,31.56-31.56c4.71,0,9.18,1.03,13.19,2.88-1.49,1.8-2.39,4.1-2.39,6.63,0,5.73,4.65,10.37,10.38,10.37,2.67,0,5.1-1.01,6.94-2.67,2.2,4.31,3.44,9.18,3.44,14.35Z"/>
        <path class="cls-2" d="M89.93,35.45c0,3.06-1.33,5.81-3.44,7.7-1.84,1.66-4.27,2.67-6.94,2.67-5.73,0-10.38-4.64-10.38-10.37,0-2.53.9-4.83,2.39-6.63,1.91-2.29,4.78-3.75,7.99-3.75,5.73,0,10.38,4.65,10.38,10.38Z"/>
      </g>
      <g>
        <path class="cls-1" d="M160.25,24.27v3.72h-7.34v20.63h-4.54v-20.63h-7.37v-3.72h19.25Z"/>
        <path class="cls-1" d="M185.39,48.62h-4.57v-10.64h-11.44v10.64h-4.57v-24.35h4.57v10.48h11.44v-10.48h4.57v24.35Z"/>
        <path class="cls-1" d="M207.38,24.27v3.6h-10.81v6.75h8.52v3.49h-8.52v6.89h10.81v3.62h-15.38v-24.35h15.38Z"/>
        <path class="cls-1" d="M244.6,36.45c0,1.79-.3,3.44-.89,4.97-.6,1.52-1.43,2.83-2.51,3.94-1.08,1.11-2.38,1.98-3.9,2.61-1.52.62-3.2.93-5.04.93s-3.53-.31-5.06-.93c-1.52-.63-2.82-1.5-3.91-2.61-1.08-1.11-1.92-2.43-2.51-3.94-.6-1.53-.89-3.18-.89-4.97s.3-3.44.89-4.95c.6-1.53,1.43-2.85,2.51-3.96,1.09-1.11,2.4-1.98,3.91-2.59,1.53-.63,3.22-.94,5.06-.94s3.53.31,5.04.94c1.52.63,2.82,1.5,3.9,2.61,1.08,1.1,1.92,2.41,2.51,3.94.6,1.52.89,3.17.89,4.95ZM239.94,36.45c0-1.34-.18-2.53-.54-3.59-.35-1.07-.85-1.97-1.52-2.71-.66-.74-1.47-1.31-2.43-1.7-.94-.39-2.01-.59-3.21-.59s-2.27.2-3.22.59c-.96.39-1.77.96-2.45,1.7-.66.74-1.18,1.64-1.54,2.71-.36,1.06-.54,2.25-.54,3.59s.18,2.54.54,3.6c.36,1.06.87,1.95,1.54,2.69.67.73,1.49,1.29,2.45,1.68.96.39,2.03.59,3.22.59s2.26-.2,3.21-.59c.96-.39,1.77-.95,2.43-1.68.66-.74,1.17-1.64,1.52-2.69.36-1.07.54-2.27.54-3.6Z"/>
        <path class="cls-1" d="M265.25,24.27v3.6h-10.81v7.21h9.13v3.62h-9.13v9.92h-4.57v-24.35h15.38Z"/>
        <path class="cls-1" d="M285.88,24.27v3.6h-10.81v7.21h9.13v3.62h-9.13v9.92h-4.57v-24.35h15.38Z"/>
        <path class="cls-1" d="M296.24,48.62h-4.55v-24.35h4.55v24.35Z"/>
        <path class="cls-1" d="M320.19,42.88c.25,0,.46.1.64.29l1.79,1.94c-.99,1.22-2.21,2.16-3.66,2.81-1.44.65-3.17.98-5.19.98-1.81,0-3.44-.31-4.89-.93-1.44-.62-2.67-1.48-3.69-2.58-1.02-1.1-1.81-2.41-2.36-3.94-.54-1.53-.81-3.19-.81-5s.3-3.5.91-5.02c.61-1.53,1.46-2.84,2.56-3.94,1.1-1.1,2.42-1.95,3.95-2.56,1.54-.62,3.24-.93,5.09-.93s3.39.29,4.74.88c1.36.57,2.52,1.34,3.49,2.29l-1.52,2.11c-.09.13-.21.25-.36.35-.13.1-.33.15-.57.15s-.52-.1-.79-.3c-.27-.2-.61-.42-1.03-.66-.42-.24-.94-.45-1.58-.66-.63-.2-1.43-.3-2.41-.3-1.15,0-2.2.2-3.17.61-.96.39-1.78.96-2.48,1.7-.69.74-1.23,1.65-1.62,2.71-.38,1.06-.57,2.25-.57,3.57s.19,2.59.57,3.65c.39,1.07.92,1.96,1.59,2.69.66.73,1.45,1.29,2.34,1.68.9.38,1.87.57,2.9.57.62,0,1.17-.03,1.67-.1.51-.07.97-.17,1.38-.32.43-.15.83-.33,1.2-.56.38-.24.76-.52,1.13-.86.11-.1.23-.18.35-.24.12-.07.26-.1.4-.1Z"/>
        <path class="cls-1" d="M343.13,24.27v3.6h-10.81v6.75h8.52v3.49h-8.52v6.89h10.81v3.62h-15.38v-24.35h15.38Z"/>
        <path class="cls-1" d="M380.35,36.45c0,1.79-.3,3.44-.89,4.97-.6,1.52-1.43,2.83-2.51,3.94-1.08,1.11-2.38,1.98-3.9,2.61-1.52.62-3.2.93-5.04.93s-3.53-.31-5.06-.93c-1.52-.63-2.82-1.5-3.91-2.61-1.08-1.11-1.92-2.43-2.51-3.94-.6-1.53-.89-3.18-.89-4.97s.3-3.44.89-4.95c.6-1.53,1.43-2.85,2.51-3.96,1.09-1.11,2.4-1.98,3.91-2.59,1.53-.63,3.22-.94,5.06-.94s3.53.31,5.04.94c1.52.63,2.82,1.5,3.9,2.61,1.08,1.1,1.92,2.41,2.51,3.94.6,1.52.89,3.17.89,4.95ZM375.69,36.45c0-1.34-.18-2.53-.54-3.59-.35-1.07-.85-1.97-1.52-2.71-.66-.74-1.47-1.31-2.43-1.7-.94-.39-2.01-.59-3.2-.59s-2.27.2-3.22.59c-.95.39-1.77.96-2.44,1.7-.66.74-1.18,1.64-1.54,2.71-.36,1.06-.54,2.25-.54,3.59s.18,2.54.54,3.6c.36,1.06.87,1.95,1.54,2.69.67.73,1.49,1.29,2.44,1.68.96.39,2.03.59,3.22.59s2.26-.2,3.2-.59c.96-.39,1.77-.95,2.43-1.68.66-.74,1.17-1.64,1.52-2.69.36-1.07.54-2.27.54-3.6Z"/>
        <path class="cls-1" d="M401,24.27v3.6h-10.81v7.21h9.13v3.62h-9.13v9.92h-4.57v-24.35h15.38Z"/>
        <path class="cls-1" d="M143.06,90.73v-24.35h8.42c1.6,0,2.96.15,4.08.45,1.14.3,2.06.74,2.78,1.3.73.56,1.26,1.24,1.6,2.04.34.8.51,1.7.51,2.69,0,.57-.08,1.12-.25,1.65-.17.52-.43,1-.79,1.47-.35.45-.8.86-1.35,1.23-.54.37-1.19.68-1.94.94,3.35.75,5.03,2.56,5.03,5.42,0,1.03-.2,1.99-.59,2.86-.39.88-.97,1.63-1.72,2.27-.75.63-1.68,1.12-2.78,1.48-1.1.36-2.36.54-3.78.54h-9.21ZM147.6,80.05v7.14h4.6c.84,0,1.55-.1,2.11-.3.57-.2,1.03-.47,1.37-.81.35-.34.6-.73.74-1.18.16-.45.24-.93.24-1.43s-.09-1-.25-1.41c-.17-.43-.43-.79-.79-1.08-.36-.3-.82-.53-1.38-.69-.56-.16-1.24-.24-2.04-.24h-4.59ZM147.6,76.92h3.63c1.54,0,2.71-.28,3.51-.84.8-.56,1.2-1.45,1.2-2.68s-.36-2.17-1.08-2.71c-.72-.54-1.85-.81-3.37-.81h-3.88v7.04Z"/>
        <path class="cls-1" d="M188.16,90.73h-3.51c-.39,0-.72-.1-.98-.29-.25-.2-.43-.45-.54-.74l-1.82-4.97h-10.1l-1.82,4.97c-.09.26-.27.49-.54.71-.26.21-.58.32-.96.32h-3.53l9.58-24.35h4.64l9.58,24.35ZM172.37,81.53h7.78l-2.97-8.1c-.14-.36-.29-.78-.46-1.26-.16-.49-.32-1.03-.47-1.6-.16.57-.32,1.11-.47,1.6-.15.49-.29.93-.44,1.3l-2.97,8.07Z"/>
        <path class="cls-1" d="M194.74,66.38c.2,0,.37.01.51.03.13.01.25.04.35.1.11.04.22.12.32.22.1.09.21.21.34.37l12.8,16.29c-.04-.39-.08-.77-.1-1.15-.01-.38-.02-.74-.02-1.06v-14.8h4v24.35h-2.35c-.36,0-.66-.06-.89-.17-.24-.11-.47-.31-.69-.61l-12.75-16.22c.03.36.06.72.07,1.08.02.35.03.67.03.96v14.96h-4v-24.35h2.38Z"/>
        <path class="cls-1" d="M224.24,76.58h1.06c.43,0,.78-.06,1.06-.17.28-.12.52-.31.73-.57l6.73-8.51c.28-.36.57-.61.88-.74.32-.15.71-.22,1.18-.22h3.91l-8.21,10.12c-.26.31-.51.58-.74.79-.24.21-.49.39-.76.52.37.13.7.33,1,.57.3.25.6.56.88.94l8.47,11.4h-4.01c-.54,0-.94-.07-1.21-.22-.26-.16-.48-.38-.66-.67l-6.9-8.99c-.22-.29-.48-.5-.76-.62-.28-.13-.68-.2-1.2-.2h-1.43v10.71h-4.54v-24.37h4.54v10.22Z"/>
        <path class="cls-1" d="M249.48,81.21v9.52h-4.54v-24.35h7.44c1.66,0,3.09.17,4.27.52,1.19.34,2.17.81,2.92,1.43.77.62,1.32,1.36,1.67,2.22.36.85.54,1.8.54,2.83,0,.82-.12,1.59-.37,2.32-.24.73-.59,1.39-1.05,1.99-.45.6-1.01,1.12-1.69,1.57-.66.45-1.42.81-2.28,1.08.57.33,1.07.79,1.48,1.4l6.11,8.99h-4.08c-.39,0-.73-.08-1.01-.24-.27-.16-.5-.38-.69-.67l-5.13-7.8c-.19-.29-.4-.5-.64-.62-.23-.12-.56-.19-1.01-.19h-1.94ZM249.48,77.96h2.83c.86,0,1.6-.11,2.23-.32.64-.21,1.16-.51,1.57-.88.42-.38.73-.83.93-1.35.2-.52.3-1.08.3-1.7,0-1.24-.41-2.18-1.23-2.85-.81-.66-2.05-.99-3.73-.99h-2.9v8.08Z"/>
        <path class="cls-1" d="M277.54,87.08c.88,0,1.66-.15,2.35-.44.7-.29,1.28-.7,1.75-1.23.48-.53.85-1.17,1.1-1.92.26-.75.39-1.59.39-2.53v-14.59h4.54v14.59c0,1.45-.24,2.79-.71,4.03-.46,1.22-1.13,2.29-2.01,3.18-.88.89-1.94,1.58-3.19,2.09-1.25.49-2.65.74-4.22.74s-2.97-.25-4.22-.74c-1.25-.51-2.31-1.2-3.19-2.09-.87-.9-1.54-1.96-2.01-3.18-.46-1.24-.69-2.58-.69-4.03v-14.59h4.54v14.57c0,.93.12,1.77.37,2.53.26.75.62,1.4,1.1,1.94.47.53,1.05.94,1.74,1.23.7.29,1.49.44,2.36.44Z"/>
        <path class="cls-1" d="M298.65,82.16v8.57h-4.54v-24.35h7.95c1.63,0,3.04.19,4.23.57,1.19.38,2.18.92,2.95,1.6.78.68,1.35,1.5,1.72,2.46s.56,2,.56,3.13-.2,2.26-.59,3.25c-.39.98-.98,1.82-1.77,2.53-.79.71-1.77,1.26-2.95,1.65-1.18.39-2.56.59-4.15.59h-3.41ZM298.65,78.62h3.41c.83,0,1.56-.1,2.18-.3.62-.21,1.13-.51,1.54-.89.4-.39.71-.86.91-1.41.2-.56.3-1.18.3-1.87s-.1-1.24-.3-1.77c-.2-.53-.51-.98-.91-1.35-.4-.37-.92-.65-1.54-.84-.62-.2-1.34-.3-2.18-.3h-3.41v8.74Z"/>
        <path class="cls-1" d="M333.92,66.38v3.72h-7.34v20.63h-4.54v-20.63h-7.37v-3.72h19.25Z"/>
        <path class="cls-1" d="M353.93,84.99c.25,0,.46.1.64.29l1.79,1.94c-.99,1.22-2.21,2.16-3.66,2.81-1.44.65-3.17.98-5.19.98-1.81,0-3.44-.31-4.89-.93-1.44-.62-2.67-1.48-3.69-2.58-1.02-1.1-1.81-2.41-2.36-3.94-.54-1.53-.81-3.19-.81-5s.3-3.5.91-5.02c.61-1.53,1.46-2.84,2.56-3.94,1.1-1.1,2.42-1.95,3.95-2.56,1.54-.62,3.24-.93,5.1-.93s3.39.29,4.74.88c1.36.57,2.52,1.34,3.49,2.29l-1.52,2.11c-.09.13-.21.25-.35.35-.13.1-.33.15-.57.15s-.52-.1-.79-.3c-.27-.2-.61-.42-1.03-.66-.42-.24-.95-.45-1.59-.66-.63-.2-1.43-.3-2.41-.3-1.15,0-2.2.2-3.17.61-.96.39-1.78.96-2.48,1.7-.69.74-1.23,1.64-1.62,2.71-.38,1.06-.57,2.25-.57,3.57s.19,2.59.57,3.65c.39,1.07.92,1.97,1.58,2.69.66.73,1.45,1.29,2.35,1.68.9.38,1.87.57,2.9.57.62,0,1.18-.03,1.67-.1.51-.07.97-.17,1.38-.32.43-.15.83-.33,1.2-.56.38-.24.76-.52,1.13-.86.11-.1.23-.18.36-.24.12-.07.26-.1.4-.1Z"/>
        <path class="cls-1" d="M372.33,81.26v9.47h-4.54v-9.47l-8.89-14.89h4c.39,0,.7.1.93.29.24.19.43.43.59.72l4.47,8.14c.26.48.48.94.68,1.38.19.43.36.85.52,1.26.15-.43.31-.85.49-1.28.19-.44.42-.89.67-1.36l4.44-8.14c.12-.25.31-.48.56-.69.25-.21.56-.32.94-.32h4.02l-8.87,14.89Z"/>
        <path class="cls-1" d="M416.85,78.55c0,1.79-.3,3.44-.89,4.97-.6,1.52-1.43,2.83-2.51,3.94-1.08,1.11-2.38,1.98-3.9,2.61-1.52.62-3.2.93-5.04.93s-3.53-.31-5.06-.93c-1.52-.63-2.82-1.5-3.91-2.61-1.08-1.11-1.92-2.43-2.51-3.94-.6-1.53-.89-3.18-.89-4.97s.3-3.44.89-4.95c.6-1.53,1.43-2.85,2.51-3.96,1.09-1.11,2.4-1.98,3.91-2.59,1.53-.63,3.22-.94,5.06-.94s3.53.31,5.04.94,2.82,1.5,3.9,2.61c1.08,1.1,1.92,2.41,2.51,3.94.6,1.52.89,3.17.89,4.95ZM412.19,78.55c0-1.34-.18-2.53-.54-3.59-.35-1.07-.85-1.97-1.52-2.71-.66-.74-1.47-1.31-2.43-1.7-.94-.39-2.01-.59-3.2-.59s-2.27.2-3.22.59c-.95.39-1.77.96-2.44,1.7-.66.74-1.18,1.64-1.54,2.71-.36,1.06-.54,2.25-.54,3.59s.18,2.54.54,3.6c.36,1.06.87,1.95,1.54,2.69.67.73,1.49,1.29,2.44,1.68.96.39,2.03.59,3.22.59s2.26-.2,3.2-.59c.96-.39,1.77-.95,2.43-1.68.66-.74,1.17-1.64,1.52-2.69.36-1.07.54-2.27.54-3.6Z"/>
        <path class="cls-1" d="M434.37,80.62c.19.36.37.74.52,1.13.17.38.33.77.49,1.16.16-.4.32-.8.49-1.2.17-.39.35-.77.54-1.13l7.22-13.49c.09-.17.18-.3.27-.4.1-.1.21-.17.32-.22.12-.04.26-.07.4-.08.15-.01.32-.02.52-.02h3.42v24.35h-4v-15.73c0-.29,0-.61.02-.96.02-.35.05-.7.08-1.06l-7.37,13.81c-.17.31-.39.56-.66.74-.27.17-.58.25-.94.25h-.62c-.36,0-.67-.08-.94-.25-.27-.18-.49-.43-.66-.74l-7.47-13.86c.04.37.07.74.08,1.09.02.35.03.67.03.98v15.73h-4v-24.35h3.42c.2,0,.38,0,.52.02s.28.04.39.08c.12.04.24.12.34.22.1.1.2.24.29.4l7.29,13.52Z"/>
        <path class="cls-1" d="M455.17,90.73v-24.35h8.42c1.6,0,2.96.15,4.08.45,1.14.3,2.06.74,2.78,1.3.73.56,1.27,1.24,1.6,2.04.34.8.51,1.7.51,2.69,0,.57-.08,1.12-.25,1.65-.17.52-.43,1-.79,1.47-.35.45-.8.86-1.35,1.23-.54.37-1.19.68-1.94.94,3.35.75,5.03,2.56,5.03,5.42,0,1.03-.2,1.99-.59,2.86-.39.88-.97,1.63-1.72,2.27-.75.63-1.68,1.12-2.78,1.48-1.1.36-2.36.54-3.78.54h-9.21ZM459.71,80.05v7.14h4.61c.84,0,1.55-.1,2.11-.3.57-.2,1.03-.47,1.37-.81.35-.34.6-.73.74-1.18.16-.45.24-.93.24-1.43s-.08-1-.25-1.41c-.17-.43-.43-.79-.79-1.08-.36-.3-.82-.53-1.38-.69-.56-.16-1.24-.24-2.04-.24h-4.59ZM459.71,76.92h3.63c1.54,0,2.71-.28,3.51-.84s1.2-1.45,1.2-2.68-.36-2.17-1.08-2.71c-.72-.54-1.84-.81-3.37-.81h-3.88v7.04Z"/>
        <path class="cls-1" d="M488.65,87.08c.88,0,1.66-.15,2.35-.44.7-.29,1.28-.7,1.75-1.23.48-.53.85-1.17,1.1-1.92.26-.75.39-1.59.39-2.53v-14.59h4.54v14.59c0,1.45-.24,2.79-.71,4.03-.46,1.22-1.13,2.29-2.01,3.18-.88.89-1.94,1.58-3.19,2.09-1.25.49-2.65.74-4.22.74s-2.97-.25-4.22-.74c-1.25-.51-2.31-1.2-3.19-2.09-.87-.9-1.54-1.96-2.01-3.18-.46-1.24-.69-2.58-.69-4.03v-14.59h4.54v14.57c0,.93.12,1.77.37,2.53.26.75.62,1.4,1.1,1.94.47.53,1.05.94,1.74,1.23.7.29,1.48.44,2.36.44Z"/>
        <path class="cls-1" d="M526.73,78.55c0,1.79-.3,3.42-.89,4.92-.6,1.49-1.43,2.78-2.51,3.86-1.08,1.08-2.38,1.91-3.9,2.51s-3.2.89-5.04.89h-9.31v-24.35h9.31c1.84,0,3.53.3,5.04.91,1.52.6,2.82,1.43,3.9,2.51,1.08,1.07,1.92,2.35,2.51,3.84.6,1.49.89,3.13.89,4.92ZM522.09,78.55c0-1.34-.18-2.53-.54-3.59-.36-1.07-.87-1.96-1.53-2.69-.66-.74-1.47-1.31-2.43-1.7-.95-.39-2.01-.59-3.21-.59h-4.74v17.15h4.74c1.19,0,2.26-.2,3.21-.59.96-.39,1.77-.95,2.43-1.68.66-.74,1.17-1.64,1.53-2.69.36-1.07.54-2.27.54-3.6Z"/>
        <path class="cls-1" d="M545.03,70.81c-.12.25-.27.42-.44.52-.16.1-.35.15-.57.15s-.48-.08-.76-.25c-.28-.18-.61-.38-.99-.59-.38-.21-.83-.4-1.35-.57-.51-.18-1.11-.27-1.8-.27-.63,0-1.18.08-1.65.24-.46.15-.85.35-1.18.62-.32.27-.55.6-.71.98-.16.37-.24.78-.24,1.23,0,.57.16,1.05.47,1.43.33.38.75.71,1.28.98.53.27,1.13.51,1.8.72.67.21,1.36.44,2.06.69.71.24,1.4.52,2.07.84.67.31,1.28.72,1.8,1.21.53.48.95,1.08,1.26,1.79.33.71.49,1.57.49,2.58,0,1.1-.19,2.13-.57,3.1-.37.95-.92,1.79-1.65,2.51-.72.71-1.6,1.27-2.65,1.68-1.05.4-2.24.61-3.59.61-.78,0-1.54-.08-2.29-.24-.75-.15-1.48-.36-2.18-.64-.69-.28-1.33-.62-1.94-1.01-.6-.39-1.13-.83-1.6-1.31l1.32-2.17c.12-.16.27-.29.44-.39.18-.11.38-.17.59-.17.28,0,.59.12.91.35.33.22.71.48,1.15.76.45.28.97.54,1.57.77.61.22,1.33.34,2.18.34,1.29,0,2.29-.3,3-.91.71-.62,1.06-1.5,1.06-2.64,0-.64-.16-1.16-.49-1.57-.32-.4-.74-.74-1.27-1.01-.53-.28-1.13-.52-1.8-.71-.67-.19-1.36-.4-2.06-.62-.7-.22-1.38-.49-2.06-.81-.67-.31-1.28-.72-1.8-1.23-.53-.51-.96-1.13-1.28-1.89-.32-.76-.47-1.7-.47-2.81,0-.89.17-1.75.52-2.59.36-.84.88-1.59,1.55-2.24.69-.65,1.52-1.17,2.51-1.57.99-.39,2.12-.59,3.39-.59,1.44,0,2.77.22,3.98.67,1.22.45,2.25,1.08,3.1,1.89l-1.11,2.14Z"/>
        <path class="cls-1" d="M563.98,80.62c.19.36.37.74.52,1.13.17.38.33.77.49,1.16.16-.4.32-.8.49-1.2.17-.39.35-.77.54-1.13l7.22-13.49c.09-.17.18-.3.27-.4.1-.1.21-.17.32-.22.12-.04.26-.07.41-.08.15-.01.32-.02.52-.02h3.42v24.35h-4v-15.73c0-.29,0-.61.02-.96.02-.35.05-.7.09-1.06l-7.37,13.81c-.17.31-.39.56-.66.74-.27.17-.58.25-.94.25h-.62c-.36,0-.67-.08-.94-.25-.27-.18-.49-.43-.66-.74l-7.47-13.86c.04.37.07.74.08,1.09.02.35.03.67.03.98v15.73h-4v-24.35h3.42c.2,0,.38,0,.52.02s.28.04.39.08c.12.04.24.12.34.22.1.1.2.24.29.4l7.29,13.52Z"/>
        <path class="cls-1" d="M606.22,90.73h-3.51c-.39,0-.72-.1-.98-.29-.25-.2-.43-.45-.54-.74l-1.82-4.97h-10.1l-1.82,4.97c-.09.26-.27.49-.54.71-.26.21-.58.32-.96.32h-3.52l9.58-24.35h4.64l9.58,24.35ZM590.43,81.53h7.78l-2.97-8.1c-.14-.36-.29-.78-.45-1.26-.16-.49-.32-1.03-.47-1.6-.16.57-.32,1.11-.47,1.6-.15.49-.29.93-.44,1.3l-2.97,8.07Z"/>
        <path class="cls-1" d="M612.8,66.38c.2,0,.37.01.51.03.14.01.25.04.35.1.11.04.22.12.32.22.1.09.21.21.34.37l12.8,16.29c-.04-.39-.08-.77-.1-1.15-.01-.38-.02-.74-.02-1.06v-14.8h4v24.35h-2.34c-.36,0-.66-.06-.89-.17-.24-.11-.47-.31-.69-.61l-12.75-16.22c.03.36.06.72.07,1.08.02.35.03.67.03.96v14.96h-4v-24.35h2.38Z"/>
      </g>
    </g>
  </g>
</svg>